<svg width="166" height="186" viewBox="0 0 166 186" fill="none" xmlns="http://www.w3.org/2000/svg">
<path d="M99.1869 155.389C97.7885 151.211 93.5336 151.047 90.4377 149.597C72.3636 141.129 54.1474 132.946 35.9537 124.725C34.5105 124.075 32.8653 123.858 31.3099 123.439C23.9965 120.099 16.6832 116.758 9.36229 113.425C8.76406 113.111 8.34529 112.64 8.106 112.005C7.70219 110.271 8.15087 108.858 9.66141 107.849C12.1515 106.601 14.4697 107.521 16.7056 108.552C40.6349 119.658 64.8035 130.24 88.8001 141.196C90.677 142.056 92.2623 143.364 93.1522 143.894C81.3296 135.285 70.2848 124.224 58.3575 114.209C53.8633 110.435 48.8755 107.005 46.52 101.228C46.4751 99.1203 47.3426 97.6107 49.384 96.8857C51.6573 96.5345 53.3099 97.79 54.8728 99.1278C69.8062 111.923 84.59 124.882 99.0074 137.28C93.5485 123.036 88.486 107.947 83.229 92.9322C82.6158 91.1759 82.541 89.3076 83.4309 87.5288C83.9618 86.6694 84.7022 86.0715 85.6519 85.7277C86.6464 85.496 87.6036 85.6007 88.5234 86.0416C91.0958 87.7381 92.023 90.4585 93.04 93.1639C98.0727 106.609 102.582 120.248 107.637 133.424C110.89 115.54 113.821 97.3342 117.485 79.2556C118.106 76.2064 118.764 72.5892 122.899 73.1497C127.461 73.77 127.079 77.7086 126.534 80.9297C123.468 98.9185 120.499 116.922 116.558 135.838C117.373 131.331 119.19 128.379 120.768 125.345C131.364 104.957 141.833 84.5095 152.13 63.9722C153.648 60.9379 154.875 57.3581 159.204 57.0741C160.588 57.2161 161.665 57.8738 162.472 58.9948C164.237 63.7031 160.857 67.0662 159.287 70.8778C158.367 73.1198 157.275 75.3096 156.004 77.3872C148.825 90.2268 142.476 103.492 136.06 116.713C132.217 124.635 128.037 132.37 124.178 140.285C123.281 142.123 122.196 143.917 119.893 144.335C118.555 145.524 117.081 146.675 118.794 148.64C119.018 149.559 118.771 150.381 118.248 151.144C117.463 152.1 116.416 152.96 115.264 152.982C110.052 153.102 105.872 155.561 101.842 158.483C100.152 158.139 99.2018 157.145 99.1794 155.374L99.1869 155.389Z" fill="#FF3921"/>
<path d="M28.8722 23.8467C35.3929 19.6166 41.9062 15.3941 48.4269 11.164C50.6628 10.8726 51.5676 12.173 51.949 14.1011C51.9266 17.2251 49.6533 19.2355 48.1577 21.627C42.31 30.9764 39.0571 40.9163 38.5261 52.1565C37.7634 68.2471 41.5248 83.3362 46.2882 98.373C45.3011 104.374 41.0836 103.186 37.3372 102.08C30.3004 99.9947 23.5703 99.7705 17.5581 104.569C15.4344 106.265 12.9742 107.214 10.7457 108.642C8.80896 109.359 9.22025 111.16 8.89122 112.625C6.56559 114.658 4.73351 115.181 3.84364 111.31C3.43983 109.553 2.54996 107.909 1.87695 106.213C0.508493 95.6526 -0.673015 85.0999 1.12916 74.4501C4.29979 55.684 12.4731 39.6159 26.5765 26.6717C27.4663 25.857 28.1169 24.7883 28.8722 23.8317V23.8467Z" fill="#47D3C6"/>
<path d="M101.842 158.019C103.831 153.386 106.59 150.284 112.393 151.637C113.971 152.003 115.878 150.949 117.635 150.546C118.241 150.456 119.033 150.367 119.31 150.875C123.647 158.707 128.224 166.48 126.967 176.016C126.257 176.524 125.554 177.025 124.844 177.533C120.297 179.812 115.496 180.941 110.396 180.784C108.721 180.896 107.6 179.917 107.016 178.594C104.638 173.191 102.447 167.698 100.914 161.988C100.54 160.613 100.608 159.133 101.834 158.019H101.842Z" fill="#FF9221"/>
<path d="M126.975 176.016C123.729 167.578 121.598 158.729 117.642 150.546C118.031 149.911 118.42 149.283 118.809 148.648C120.08 148.483 121.351 148.319 122.63 148.147C128.067 156.271 132.86 164.589 131.058 174.984C129.697 175.328 128.336 175.672 126.982 176.016H126.975Z" fill="#CA4421"/>
<path d="M101.842 158.019C104.451 165.553 106.62 173.251 110.351 180.358C110.733 180.545 110.89 180.776 110.822 181.045C110.748 181.329 110.65 181.479 110.546 181.479C109.476 182.047 108.4 182.615 107.33 183.19C104.87 183.601 103.367 182.167 102.634 180.194C100.383 174.132 98.1699 168.064 95.8891 162.018C95.2161 160.232 95.5451 158.423 96.4873 156.749C97.3922 156.301 98.2895 155.852 99.1943 155.396C100.077 156.271 100.967 157.145 101.849 158.027L101.842 158.019Z" fill="#CA4921"/>
<path d="M131.058 174.984C129.428 165.665 124.5 157.392 122.623 148.147C126.623 146.869 127.551 150 128.553 152.541C130.489 157.466 132.09 162.526 133.944 167.496C135.223 170.919 134.602 173.482 131.058 174.984Z" fill="#FF7921"/>
<path d="M96.4799 156.741C99.1795 164.335 101.872 171.928 104.593 179.513C105.124 180.993 105.416 182.712 107.33 183.183C106.971 183.437 106.613 183.684 106.261 183.938C100.802 184.192 99.2393 182.57 97.8559 175.216C97.482 169.895 93.8328 165.65 92.9952 160.478C93.7356 158.842 94.8124 157.519 96.4799 156.741Z" fill="#FF9E21"/>
<path d="M97.8559 175.216C99.7179 179.028 100.578 183.803 106.261 183.938C101.378 188.033 100.234 182.824 98.4092 180.448C97.4969 179.259 97.998 176.995 97.8559 175.216Z" fill="#FFD221"/>
<path d="M110.546 181.471C110.426 181.105 110.359 180.732 110.359 180.35C115.466 180.814 119.953 178.093 124.859 177.525C120.768 181.3 115.623 181.262 110.546 181.464V181.471Z" fill="#FFD221"/>
<path d="M164.245 52.149C164.02 54.7872 168.799 58.935 162.009 59.6002C161.126 59.0696 160.237 58.5389 159.347 58.0083C156.116 57.8887 152.908 58.3745 149.67 58.4268C143.576 58.5315 138.61 61.1547 135.432 66.6253C134.714 67.8659 134.034 69.1364 133.196 70.3023C129.757 75.1003 127.319 75.0555 123.318 70.1454C118.532 59.1069 113.926 48.0311 106.859 38.0913C97.0707 24.325 84.261 15.3343 67.8545 11.4107C65.8803 10.9398 63.7716 10.7156 62.6798 8.60809C62.261 6.14929 63.4799 4.69194 65.6186 3.80259C72.1244 2.28546 78.6376 0.910324 85.3677 1.00001C91.6641 2.75629 98.2671 1.89683 104.623 3.1225C105.618 3.1225 106.598 3.26449 107.555 3.49617C115.511 6.91906 124.081 8.9145 131.566 13.4883C135.208 16.4628 139.268 18.8394 143.037 21.6345C145.49 23.4506 148.167 25.162 148.16 28.7717C154.606 35.8193 159.489 43.9281 164.237 52.1416L164.245 52.149Z" fill="#FFFA98"/>
<path d="M63.3303 8.22695C90.363 12.2029 106.665 29.4967 118.128 52.6049C120.85 58.0831 122.81 63.9423 125.12 69.6222C125.98 71.9614 125.786 73.8747 122.712 73.5683C119.901 73.2917 117.104 73.7327 114.255 73.1423C105.835 71.4084 99.1271 74.3306 94.1094 81.3034C92.4867 83.5529 91.3201 86.3929 87.9925 86.774C87.2297 86.7666 86.467 86.7591 85.6968 86.7441C82.5859 86.1089 81.6288 83.5604 80.8361 81.0194C74.435 60.3849 66.1121 40.4305 59.2399 19.9604C58.4622 17.6436 57.4976 15.3791 57.8042 12.8381C57.9463 11.8068 58.1257 10.7904 58.709 9.88608C59.9129 8.39884 61.3637 7.57675 63.3303 8.21947V8.22695Z" fill="#47D3C6"/>
<path d="M58.7614 11.9413C66.3814 33.084 73.9864 54.2416 81.6513 75.3694C83.0272 79.151 83.3263 83.3137 85.6893 86.7441C85.278 87.1327 84.8742 87.5214 84.4629 87.91C82.4364 89.6289 80.3052 89.0011 78.1441 88.2239C68.5051 84.7561 60.1598 86.1238 53.7886 94.7857C52.794 96.1384 51.5377 97.1174 49.8776 97.521C48.9878 98.6868 48.0979 99.8527 47.208 101.019C44.8824 102.237 45.9443 99.4417 44.9348 99.1054C35.6098 76.0719 31.5493 52.7917 41.4874 28.8091C43.8654 23.0619 47.4698 18.1294 51.5751 13.5257C53.1829 9.43762 55.5085 8.56322 58.7614 11.9413Z" fill="#FFF997"/>
<path d="M11.5084 56.0129C12.3011 53.0907 13.8565 50.2358 15.7335 47.5603C16.4439 46.5439 17.4908 45.6022 18.7919 46.641C19.8837 47.5154 19.8687 48.7411 19.2406 49.9742C17.9394 52.5227 16.6757 55.0861 15.382 57.6346C14.8361 58.7183 14.2827 60.1457 12.8545 59.8617C10.8354 59.4582 11.5982 57.657 11.5159 56.0203L11.5084 56.0129Z" fill="#47EFF3"/>
<path d="M65.843 5.13289C64.3848 5.65604 64.0707 7.11339 63.3304 8.22695C62.0367 8.89209 60.743 9.55724 59.4494 10.2149C59.2175 10.7904 58.9932 11.3658 58.7614 11.9413C55.9347 10.5662 53.7063 11.8516 51.5676 13.5332C50.5282 12.741 49.4738 11.9563 48.4269 11.1715C48.4194 10.8277 48.3222 10.5139 48.1278 10.2373C48.3372 10.1402 48.5615 10.1178 48.7859 10.1626C50.4534 6.21656 57.0938 2.73388 61.6778 3.42145C63.0462 3.62324 64.4072 3.89976 65.7682 4.13891C65.7757 4.46775 65.7981 4.80406 65.843 5.13289Z" fill="#F54E21"/>
</svg>
