<svg width="80" height="31" viewBox="0 0 80 31" fill="none" xmlns="http://www.w3.org/2000/svg">
<path d="M79.473 10.0674C69.7219 13.6696 64.764 20.0745 64.3303 30.8215C55.9999 24.8501 47.8116 23.7739 39.5934 29.9396C40.0271 23.8337 44.8803 18.4677 51.386 18.5947C56.7851 18.6994 59.8062 16.6142 63.1039 12.8251C67.1719 8.14668 72.6981 7.1527 79.473 10.0749V10.0674Z" fill="#F54E21"/>
<path d="M17.3541 15.127C10.0183 11.3977 8.97138 11.3304 1.26166 13.707C1.1495 13.3632 0.842895 12.8027 0.962541 12.6981C8.03664 6.16619 16.7634 3.22908 25.8565 0.942169C23.8674 3.09455 21.5268 4.55937 19.7545 6.71176C17.8327 9.05098 17.4887 11.876 17.3616 15.127H17.3541Z" fill="#F16121"/>
</svg>
