<svg width="104" height="104" viewBox="0 0 104 104" fill="none" xmlns="http://www.w3.org/2000/svg">
<path d="M17.2741 52.1447C17.4162 32.549 33.0075 17.5122 52.9362 17.7439C71.6533 17.9681 87.4093 33.7746 87.4841 52.4286C87.5664 71.4712 71.3094 86.8742 51.4032 86.6201C32.0355 86.381 17.132 71.3218 17.2741 52.1447Z" fill="#FF2E21"/>
<path d="M45.4509 101.821C43.0431 103.406 40.7622 102.793 38.6759 102.195C24.0267 97.9725 12.7575 89.3854 5.45155 75.8881C4.64394 74.4009 2.79697 72.1215 4.86835 71.0378C7.06685 69.8869 7.56787 72.8389 8.42035 74.2888C15.9132 87.0985 26.5093 95.7678 41.1735 99.1608C42.6317 99.4971 44.5087 99.4523 45.4509 101.821Z" fill="#FF5F21"/>
<path d="M8.97362 42.9671C11.3217 32.7358 16.5263 24.3281 24.9689 18.2745C28.0348 16.0698 30.8764 13.2074 34.8696 12.4078C35.9165 12.1985 37.0456 11.8771 37.6364 12.8786C38.5263 14.3882 37.2251 15.0908 36.1258 15.584C23.548 21.2116 15.7561 30.8226 12.234 44.0433C11.9349 45.1718 11.4188 46.7114 9.84847 46.121C8.47254 45.6053 8.95119 44.0583 8.9811 42.9671H8.97362Z" fill="#FF6121"/>
<path d="M50.8199 94.0489C51.7472 93.3015 52.166 92.6588 52.6371 92.614C64.684 91.5452 75.1007 87.0985 83.3638 78.063C84.0218 77.338 84.964 76.5757 85.9586 77.622C86.8335 78.5487 86.3101 79.4979 85.7044 80.3574C79.7669 88.8249 60.0626 98.5181 50.8199 94.0489Z" fill="#FF5921"/>
<path d="M7.85193 55.5825C8.03888 53.8636 7.23868 51.5916 9.37736 51.2852C11.8675 50.9265 11.3142 53.3852 11.4562 54.8127C12.2639 63.1308 14.8363 70.6791 20.4971 77.0465C21.4393 78.1078 23.3162 79.7146 21.5141 81.1645C19.8166 82.5247 18.5154 80.5442 17.5957 79.3783C12.0321 72.3457 8.76424 64.349 7.85941 55.59L7.85193 55.5825Z" fill="#FF6721"/>
<path d="M103.696 62.4955C101.154 72.951 97.2727 80.6563 90.7968 86.9191C89.877 87.816 88.8152 89.5648 87.3197 88.0028C86.1681 86.807 87.6337 85.8504 88.374 84.976C93.7282 78.6982 97.699 71.688 99.8302 63.6689C100.167 62.4059 100.406 60.5001 102.455 61.1503C104.018 61.6436 103.539 63.071 103.696 62.4881V62.4955Z" fill="#FF6121"/>
<path d="M96.3454 49.3645C96.1659 50.9788 96.824 53.3554 94.6479 53.4451C92.4269 53.5347 92.8682 51.1357 92.7411 49.5962C92.1578 42.713 89.8321 36.4352 86.3399 30.5311C85.652 29.3727 84.4929 27.8182 86.4372 26.9064C87.8206 26.2562 88.531 27.7734 89.2264 28.7375C93.6683 34.9181 95.5602 41.9806 96.3529 49.357L96.3454 49.3645Z" fill="#FF6021"/>
<path d="M40.5303 4.20926C33.2842 7.93857 25.6044 10.7262 19.5099 16.2566C18.6499 17.0339 17.4684 16.9965 16.9151 15.9502C16.6384 15.4345 16.9749 14.3808 17.3488 13.7605C20.2352 8.94002 34.6601 2.57254 40.5303 4.21672V4.20926Z" fill="#FF6321"/>
<path d="M90.7744 18.1848C90.1313 20.0158 88.9124 20.3895 87.5963 19.0144C82.8553 14.0594 77.0151 10.771 70.9729 7.75918C69.9933 7.2734 69.2306 6.5634 69.7316 5.36763C70.083 4.53059 70.8906 4.30639 71.7655 4.58292C79.1462 6.95203 85.151 11.3689 90.3108 17.0338C90.565 17.3104 90.6174 17.7737 90.7744 18.1773V18.1848Z" fill="#FF6221"/>
<path d="M56.1816 8.88771C61.4386 9.52296 66.5683 10.7337 71.3542 13.1327C72.5208 13.7156 74.4202 14.2313 73.5602 16.1296C72.7003 18.0279 71.1149 17.0189 69.896 16.4285C65.4467 14.2687 60.7954 12.9683 55.845 12.632C54.1401 12.5199 51.2686 13.0953 51.291 10.8308C51.3209 7.84141 54.3869 9.39592 56.1891 8.88025L56.1816 8.88771Z" fill="#FF6521"/>
<path d="M56.7649 103.929C54.3794 103.481 51.5826 104.624 51.3807 102.322C51.1115 99.2505 54.1849 100.424 55.9497 100.117C59.1428 99.5569 62.3509 99.0636 65.5514 98.548C66.86 98.3387 68.6248 97.2625 69.0585 99.385C69.4473 101.298 67.4732 101.493 66.1945 101.814C62.8593 102.658 59.4867 103.331 56.7723 103.929H56.7649Z" fill="#FF6921"/>
<path d="M1.95197 36.8613C3.17087 32.4967 5.05531 28.2218 8.12872 24.5822C8.51757 24.1188 9.67662 23.8647 10.2449 24.0964C11.0526 24.4178 11.0825 25.4192 10.7011 26.2114C8.7643 30.2472 6.835 34.2903 4.80849 38.2887C4.47198 38.9538 3.70925 39.5965 2.76703 39.1182C1.95194 38.6997 1.75754 37.93 1.95197 36.8613Z" fill="#FF6521"/>
<path d="M89.5256 73.2948C87.9328 72.7493 88.03 71.6058 88.4787 70.3428C89.5779 67.2786 90.6174 64.1845 91.8139 61.1652C92.0681 60.5225 92.8458 59.82 93.4964 59.678C94.2965 59.4986 95.1265 60.1264 95.0667 61.098C94.8125 65.485 93.1374 69.3637 90.6173 72.8987C90.4304 73.1603 89.9069 73.1678 89.5181 73.3023L89.5256 73.2948Z" fill="#FF6221"/>
<path d="M44.3291 92.188C40.0144 94.9382 36.6941 92.6962 33.2394 91.321C32.3196 90.9548 31.3774 90.2299 31.9307 89.0267C32.4317 87.9355 33.4937 87.8608 34.5181 88.2643C37.8009 89.5498 41.0612 90.8801 44.3365 92.188H44.3291Z" fill="#FF6021"/>
<path d="M80.8512 23.4985C78.6303 22.5643 76.529 21.1144 75.5793 18.5211C75.325 17.8336 75.8934 16.7349 76.8879 16.9442C79.6398 17.5346 81.3747 19.5076 82.5188 21.9141C82.8404 22.5942 82.1375 23.3939 80.8587 23.4985H80.8512Z" fill="#FF6721"/>
<path d="M75.8784 97.995C74.7417 98.0323 73.7023 97.7035 73.9416 96.7917C74.7417 93.7724 77.7927 93.5258 80.0435 92.3449C80.8436 91.9264 81.8532 92.5766 81.6289 93.4959C80.8811 96.5451 77.9348 96.8889 75.8858 97.995H75.8784Z" fill="#FF7221"/>
<path d="M54.6336 4.14197C53.2951 3.94018 51.4107 4.39609 51.1789 2.5277C50.9321 0.517314 52.7343 0.539724 54.1402 0.554671C55.5385 0.577092 57.378 0.539732 57.6173 2.22128C57.909 4.31388 55.9348 3.93273 54.6411 4.13451L54.6336 4.14197Z" fill="#FF7421"/>
<path d="M1.33866 49.9997C3.27543 53.9159 3.48484 56.4121 1.83222 59.6631C-0.680351 56.6363 -0.194313 54.0579 1.33866 49.9997Z" fill="#FF5E21"/>
</svg>
