<svg width="557" height="270" viewBox="0 0 557 270" fill="none" xmlns="http://www.w3.org/2000/svg">
<path d="M48.5989 214.195C52.5173 213.014 54.0428 215.944 55.7178 218.447C57.4078 220.973 58.9259 223.604 60.5261 226.19C57.034 230.921 53.8259 235.898 49.1672 239.65C48.8232 231.167 49.8028 222.662 48.5989 214.202V214.195Z" fill="#479591"/>
<path d="M479.042 181.296C478.885 182.769 478.728 184.241 478.563 185.706C469.493 188.456 460.265 186.692 451.104 186.625C451.239 184.682 451.374 182.746 451.508 180.803C460.684 180.967 469.867 181.132 479.042 181.296Z" fill="#FFD721"/>
<path d="M536.906 173.412C538.185 179.346 535.919 181.423 529.809 181.177C524.829 180.975 519.572 179.682 514.734 182.298C504.085 180.205 493.399 180.885 482.706 181.894C481.196 183.232 479.206 182.731 477.479 183.239C470.442 183.837 463.406 183.486 456.369 183.464C454.096 183.464 451.972 182.985 450.282 181.289C448.809 175.878 449.841 172.911 454.357 172.739C463.854 172.388 473.456 171.005 482.856 173.778C491.448 173.756 500.047 173.599 508.639 173.763C512.266 173.83 514.607 173.128 514.592 168.92C514.584 166.588 515.811 165.026 518.316 164.929C520.492 164.847 522.212 166.073 522.055 168.113C521.576 174.241 525.525 173.912 529.563 173.718C532.015 173.599 534.461 173.516 536.913 173.412H536.906Z" fill="#FF8121"/>
<path d="M394.489 235.3C390.952 229.942 389.232 223.821 387.191 217.835C387.655 207.252 387.273 196.662 387.385 186.079C387.453 179.772 388.365 178.815 394.781 178.471C395.596 178.427 396.411 178.441 397.226 178.427C407.897 178.24 408.57 177.672 410.133 167.523C411.068 165.191 412.81 164.466 415.076 165.288C416.833 165.931 417.349 167.53 417.432 169.264C417.499 170.699 417.521 172.134 417.566 173.569C419.869 176.035 419.787 178.554 417.716 181.109C416.759 186.819 413.214 188.635 407.665 188.606C394.916 188.531 395.05 188.703 394.945 201.595C394.848 212.827 395.618 224.075 394.489 235.293V235.3Z" fill="#FA4221"/>
<path d="M43.1774 265.65C37.9503 270.277 32.8354 270.972 26.6587 267.892C24.9014 265.03 27.2794 263.319 28.6927 261.63C34.9891 254.096 41.0237 246.339 47.5968 239.037C51.9116 234.807 54.8579 229.441 59.0978 225.151C94.9993 181.423 131.192 137.95 167.438 94.5134C178.729 80.9787 189.595 67.0854 201.088 53.7227C204.431 49.8365 202.629 47.0936 200.161 44.0594C192.915 35.1509 185.205 26.6385 177.899 17.7824C176.336 15.8841 174.811 13.9484 173.338 11.9754C171.394 9.36712 170.025 6.58695 172.321 3.56764C174.766 0.354007 178.154 0.0700488 181.765 1.17614C183.568 1.72918 185.086 2.84271 186.357 4.18796C196.803 15.1816 205.971 27.2364 215.371 39.1194C215.476 46.4958 216.052 53.8722 214.922 61.2112C214.75 61.8315 214.474 62.407 214.13 62.9525C210.697 65.3291 208.656 68.9538 206.128 72.13C187.112 96.0454 167.109 119.154 147.808 142.822C126.287 169.212 104.062 195.01 82.6458 221.482C76.5886 228.97 70.2624 236.242 64.8783 244.254C59.0006 249.149 54.641 255.389 49.728 261.151C48.0156 263.154 46.849 266.36 43.1624 265.643L43.1774 265.65Z" fill="#FF3321"/>
<path d="M8.62202 268.722C0.0822567 268.872 0.164514 268.871 0.157036 260.651C0.134602 224.396 0.0598232 188.135 0 151.88C2.1985 148.981 4.13528 150.64 6.17675 152.157C9.9157 154.937 10.8504 159.234 12.361 163.225C13.1611 165.333 14.3052 167.291 15.1876 169.361C20.811 185.429 26.5765 201.453 32.5737 217.394C33.9497 221.048 35.2359 224.71 35.9911 228.552C36.4922 231.586 35.2359 234.142 33.6431 236.533C27.6682 245.494 21.9626 254.627 16.1672 263.7C14.4398 266.405 12.6302 269.305 8.62202 268.73V268.722Z" fill="#479692"/>
<path d="M8.62198 268.722C12.8171 266.405 14.4099 262.033 16.8327 258.326C21.97 250.449 27.0326 242.527 32.1549 234.65C33.2617 232.946 34.7498 231.414 34.2637 229.12C36.0509 224.314 38.4738 219.823 41.8762 216.018C44.2916 213.321 47.2229 211.176 50.5506 215.122C52.2705 223.425 52.9884 231.668 49.1672 239.65C41.6668 249.067 34.1665 258.476 26.6587 267.9C20.7511 270.478 14.694 269.806 8.6145 268.737L8.62198 268.722Z" fill="#47D2C5"/>
<path d="M43.1774 265.65C48.2698 259.574 53.3324 253.469 58.4846 247.437C59.883 245.801 60.9897 243.581 63.7192 243.768C68.9986 250.591 71.3915 258.087 69.1182 266.689C69.0061 269.484 67.174 269.686 64.9381 269.664C61.3337 269.626 57.7294 269.813 54.1325 269.91C51.5526 269.723 48.9802 269.425 46.3929 269.365C43.8354 269.305 42.7137 268.221 43.1849 265.658L43.1774 265.65Z" fill="#479E99"/>
<path d="M69.1107 266.682C67.316 259.044 65.5138 251.406 63.7117 243.768C65.4017 235.906 71.7504 230.966 76.4166 225.323C88.7776 210.368 101.131 195.399 113.567 180.504C127.715 163.547 142.559 147.142 156.191 129.781C171.087 110.813 187.277 92.929 202.113 73.9237C205.216 69.9478 206.996 64.2081 213.008 62.9601C214.9 64.7014 213.614 66.794 213.659 68.7446C210.368 91.2475 204.752 113.279 200.026 135.476C191.367 176.125 182.117 216.646 173.51 257.31C172.65 261.39 172.754 266.054 168.492 268.7C165.852 268.954 163.213 269.432 160.565 269.432C133.054 269.507 105.536 269.492 78.0244 269.552C74.6892 269.552 71.4737 269.507 69.1032 266.667L69.1107 266.682Z" fill="#FFA421"/>
<path d="M168.5 268.707C181.81 207.319 195.121 145.931 208.417 84.5362C209.628 78.946 210.705 73.3333 211.849 67.7282C212.507 67.3022 213.158 67.3096 213.801 67.7505C217.293 72.9671 218.4 79.0281 219.641 84.9771C231.493 141.903 243.66 198.755 255.52 255.681C256.238 259.141 257.973 262.84 255.183 266.278C255.101 268.416 254.308 269.596 251.848 269.589C224.404 269.469 196.96 269.424 169.517 269.327C169.173 269.327 168.836 268.924 168.492 268.707H168.5Z" fill="#C23321"/>
<path d="M213.18 67.8552C212.739 67.8104 212.298 67.773 211.856 67.7282C212.245 66.1363 212.634 64.5444 213.023 62.9526L213.068 62.3771C217.113 61.8315 218.751 65.0676 220.822 67.4591C234.619 83.4077 247.608 100.029 261.211 116.149C294.353 155.423 326.829 195.242 359.582 234.844C361.953 237.714 364.421 240.502 363.763 244.65C361.983 251.114 362.589 258.416 357.115 263.58C355.604 268.558 352.067 269.634 347.199 269.596C322.993 269.402 298.787 269.499 274.581 269.454C272.218 269.454 269.526 270.149 267.978 267.392C267.335 263.797 270.207 262.355 272.33 260.613C281.356 253.214 290.307 245.711 299.266 238.23C305.607 232.939 306.071 230.674 301.943 223.552C275.449 177.844 249.455 131.859 222.684 86.3149C219.162 80.3136 217.054 73.6472 213.195 67.8552H213.18Z" fill="#FF8321"/>
<path d="M213.18 67.8552C215.603 67.1452 215.655 69.4172 216.321 70.5756C245.814 121.642 275.269 172.724 304.68 223.836C308.979 231.309 308.508 233.245 301.748 238.94C290.494 248.424 279.225 257.9 267.963 267.384C262.145 270.859 258.264 270.523 255.191 266.278C243.398 210.346 231.613 154.399 219.805 98.4594C217.652 88.2431 215.386 78.0566 213.18 67.8552Z" fill="#FFF997"/>
<path d="M362.297 243.581C361.534 238.021 356.808 235.084 353.705 231.205C339.25 213.164 324.496 195.362 309.72 177.575C292.326 156.641 274.775 135.835 257.337 114.931C244.625 99.6926 232.017 84.3793 219.312 69.1332C217.353 66.7791 215.154 64.6341 213.068 62.3846C213.487 54.201 211.954 45.9503 214.062 37.8415C222.281 27.6401 230.491 17.4237 238.739 7.23723C240.153 5.48842 241.604 3.59761 243.952 3.12677C246.905 2.53636 250.233 1.43774 252.364 4.614C254.376 7.61837 251.654 9.5017 250.009 11.4672C240.407 22.9317 230.82 34.4036 221.084 45.7559C218.878 48.3343 218.459 50.0607 220.897 52.9828C268.457 110.126 315.882 167.381 363.359 224.598C364.256 225.682 365.378 226.586 366.395 227.573C370.47 227.842 371.517 231.668 373.843 233.978C375.413 235.532 376.393 237.61 378.113 239.059C384.192 246.623 390.833 253.73 396.748 261.435C398.497 263.715 401.167 265.949 399.208 269.469C393.891 269.305 388.417 270.703 383.362 267.907C382.106 267.795 380.894 267.377 380.124 266.428C374.052 258.917 367.262 251.966 362.312 243.581H362.297Z" fill="#FF2C21"/>
<path d="M536.996 269.014C532.06 269.671 527.132 269.783 522.204 268.931C519.901 267.526 520.447 264.126 517.92 262.893C516.14 261.39 513.515 261.809 511.773 260.217C509.395 257.37 509.036 253.887 508.804 250.412C507.824 235.502 501.02 224.015 488.546 215.839C485.862 214.083 485.181 211.803 485.428 208.515C485.907 202.305 487.971 196.266 487.365 189.981C485.368 189.084 483.02 188.815 481.779 186.662C480.941 184.816 481.053 183.023 482.033 181.266C482.287 180.945 482.504 180.444 482.826 180.362C493.893 177.545 504.923 176.476 515.811 181.169C518.353 185.07 522.204 185.728 526.497 185.81C538.603 186.057 539.628 187.156 539.643 199.39C539.673 219.613 539.703 239.837 539.613 260.06C539.598 263.244 540.226 266.734 536.981 269.014H536.996Z" fill="#FFDD21"/>
<path d="M419.196 268.049C414.829 269.492 410.499 270.381 406.417 267.242C405.609 267.078 404.674 266.861 404.308 266.166C399.028 255.98 393.368 245.92 392.882 234.022C393.622 225.487 392.418 216.96 392.807 208.425C392.994 204.352 392.784 200.264 392.867 196.191C393.039 188.03 394.953 185.773 402.999 185.945C408.914 186.072 413.85 184.906 417.394 179.876C427.22 177.619 437.046 177.395 446.865 179.899C448.771 181.498 449.115 183.553 448.592 185.848C448.001 188.822 444.06 188.471 443.245 191.236C444.748 197.469 443.522 203.896 444.808 210.159C445.302 212.543 443.784 214.501 441.877 215.891C428.723 225.495 421.814 238.207 422.33 254.694C422.382 256.323 422.03 257.953 421.073 259.373C421.328 260.434 417.604 259.522 419.981 261.637C420.998 263.939 421.043 266.114 419.189 268.049H419.196Z" fill="#FFDD21"/>
<path d="M536.996 269.014C536.996 244.231 536.876 219.456 537.085 194.682C537.123 189.973 536.024 187.813 530.998 188.486C528.381 188.837 525.674 188.456 523.012 188.561C518.473 188.748 515.489 187.021 514.727 182.29C516.379 177.149 520.821 178.621 524.321 178.554C529.293 178.456 534.177 178.748 536.906 173.412C536.951 170.355 537.041 167.298 537.011 164.249C536.988 161.678 537.938 159.571 540.6 159.466C543.748 159.339 544.526 161.731 544.526 164.473C544.526 167.53 544.623 170.579 544.676 173.636C546.926 176.14 546.657 178.673 544.78 181.229C544.698 210.511 544.608 239.792 544.526 269.066C542.013 269.813 539.501 269.985 537.003 269.014H536.996Z" fill="#FC4521"/>
<path d="M394.489 235.3C397.174 246.428 402.438 256.6 406.424 267.242C405.078 271.427 401.758 269.215 399.2 269.469C394.504 260.254 386.48 253.603 380.595 245.307C379.429 243.663 378.262 242.011 377.096 240.36C374.785 228.484 374.635 216.616 377.215 204.756C380.206 203.59 381.478 205.369 382.727 207.693C384.312 210.645 384.514 214.225 386.922 216.781C387.505 216.975 388.021 217.289 388.47 217.708C392.179 222.984 393.584 229.052 394.497 235.293L394.489 235.3Z" fill="#479592"/>
<path d="M419.196 268.049C418.987 265.658 418.777 263.259 418.568 260.867C421.327 259.283 424.349 259.051 427.444 259.163C439.641 259.604 451.778 258.917 463.877 257.355C465.073 257.168 466.262 257.213 467.444 257.444C474.084 258.902 480.814 259.186 487.582 259.178C498.395 259.178 509.238 258.707 519.946 260.808C523.386 262.773 521.696 266.166 522.204 268.939C511.847 270.553 501.431 269.492 491.051 269.544C469.388 269.656 447.724 269.649 426.061 269.619C423.705 269.619 421.073 270.359 419.196 268.057V268.049Z" fill="#F74B21"/>
<path d="M362.297 243.581C366.35 244.642 367.958 248.394 370.306 251.182C374.86 256.578 379.018 262.31 383.347 267.9C380.805 271.076 377.29 269.395 374.209 269.626C370.582 269.895 366.888 269.454 363.277 269.798C358.416 270.262 356.546 268.236 357.1 263.573C358.349 256.779 359.68 250.016 362.297 243.574V243.581Z" fill="#47D0C0"/>
<path d="M410.133 167.523C410.17 168.135 410.238 168.741 410.245 169.354C410.365 180.863 410.178 180.997 398.939 181.042C386.48 181.095 388.275 179.592 387.946 192.267C387.722 200.787 389.023 209.367 387.191 217.835C386.869 217.543 386.78 217.192 386.914 216.781C386.914 206.579 386.809 196.37 386.974 186.162C387.034 182.537 385.897 180.848 382.083 181.117C379.399 181.304 376.281 181.274 376.37 177.433C376.445 174.234 379.145 173.516 381.702 173.77C386.376 174.234 387.213 171.797 386.981 167.904C386.854 165.729 386.406 163.382 387.916 161.387C390.818 162.971 389.591 166.387 391.094 168.778C392.53 166.327 391.326 162.919 394.272 161.327C395.327 162.5 395.177 163.95 395.237 165.37C395.581 173.942 395.611 173.419 404.016 173.883C409.49 174.182 408.817 170.31 410.118 167.53L410.133 167.523Z" fill="#FF8021"/>
<path d="M377.208 204.756C378.636 216.631 378.905 228.499 377.088 240.36C372.938 236.593 369.356 232.348 366.387 227.58C367.748 220.293 371.405 213.851 374.015 207.028C374.568 205.585 375.495 204.606 377.208 204.748V204.756Z" fill="#47D1C4"/>
<path d="M417.716 181.117C417.663 178.606 417.618 176.095 417.566 173.576C425.066 173.614 432.559 173.636 440.06 173.703C442.266 173.726 444.554 173.374 446.505 174.854C449.183 176.835 449.175 178.823 446.505 180.803C436.904 180.908 427.31 181.012 417.708 181.117H417.716Z" fill="#FF8421"/>
<path d="M446.506 180.803V174.854C447.455 171.446 449.512 169.884 453.243 169.974C461.035 170.168 468.842 170.056 476.642 169.974C479.58 169.944 481.936 170.617 482.848 173.778C474.353 175.587 465.769 174.525 457.229 174.488C452.443 174.466 450.215 175.788 451.508 180.796C452.66 183.023 453.154 185.22 451.262 187.328C449.744 188.172 448.323 188.359 447.209 186.677C446.977 184.719 446.745 182.754 446.506 180.796V180.803Z" fill="#479164"/>
<path d="M394.287 161.327C394.235 164.384 394.183 167.44 394.123 170.497C394.085 172.455 393.143 173.524 391.132 173.531C389.135 173.539 388.133 172.537 388.096 170.557C388.036 167.5 387.983 164.443 387.931 161.394C390.025 158.599 392.141 158.599 394.295 161.334L394.287 161.327Z" fill="#F84521"/>
<path d="M544.78 181.229C544.743 178.696 544.713 176.162 544.676 173.636C547.532 173.741 550.426 173.636 553.245 174.017C555.189 174.279 556.67 175.699 556.535 177.844C556.401 179.996 554.883 181.02 552.767 181.08C550.104 181.154 547.442 181.184 544.78 181.237V181.229Z" fill="#FF8821"/>
<path d="M419.914 259.716C419.57 247.445 420.58 235.502 428.633 225.383C432.073 221.063 435.536 216.721 440.591 214.128C441.937 213.433 443.574 212.678 443.103 211.101C440.987 204.076 444.165 196.243 439.768 189.599C442.236 188.785 443.537 190.302 444.718 192.051C446.162 195.309 445.72 198.807 445.937 202.222C446.296 207.798 448.741 210.227 454.41 210.167C458.283 210.129 462.082 210.578 465.911 210.936C468.947 210.316 472.02 210.57 475.079 210.473C482.041 210.241 483.775 208.567 484.06 201.766C484.187 198.717 483.888 195.623 485.069 192.686C485.974 190.123 488.524 189.099 490.184 187.245C491.538 188.299 491.859 189.951 491.014 191.094C486.677 196.946 489.765 204.278 486.954 210.428C486.288 211.878 487.44 213.104 488.86 213.844C503.225 221.34 509.44 233.948 511.175 249.373C511.563 252.818 512.072 256.241 512.521 259.679C501.745 261.271 490.909 259.985 480.111 260.367C478.795 260.411 477.06 259.836 477.831 258.438C481.121 252.542 473.336 250.599 473.553 245.322C473.755 240.412 470.928 235.51 468.326 231.04C466.546 227.976 464.744 228.2 462.83 230.981C459.861 235.293 458.224 240.136 457.154 245.173C456.548 248.028 456.16 250.853 453.303 252.489C452.099 253.177 451.493 254.231 452.301 255.554C455.202 260.314 452.323 260.568 448.644 260.389C439.073 259.918 429.456 261.263 419.907 259.701L419.914 259.716Z" fill="#FFD937"/>
<path d="M419.914 259.716H452.256C449.803 256.473 446.558 253.61 448.622 249.717C450.132 246.862 451.882 251.428 454.006 250.195C454.866 241.855 457.491 234 462.336 226.885C464.625 223.522 466.419 223.335 468.693 226.78C473.516 234.112 476.402 242.094 476.978 250.8C479.184 251.638 480.844 246.57 482.549 249.971C484.344 253.543 481.345 256.413 478.578 259.687C490.326 259.687 501.431 259.687 512.535 259.687C514.958 260.411 517.673 259.231 519.961 260.815C505.05 260.882 490.139 261.017 475.228 260.957C472.417 260.942 469.597 260.142 466.786 259.701C470.397 252.168 469.141 244.971 465.387 237.774C461.932 245.083 460.437 252.295 464.438 259.731C449.19 261.473 433.883 260.927 418.583 260.882C418.224 259.559 419.54 260.187 419.929 259.724L419.914 259.716Z" fill="#FF7221"/>
<path d="M490.191 187.245C490.378 190.145 489.174 191.916 486.146 192.193C482.287 196.101 477.352 194.128 472.88 194.577C470.465 194.816 468.034 194.48 465.612 194.256C460.564 194.794 455.494 194.599 450.431 194.569C447.949 194.554 445.548 194.33 443.821 192.215C442.467 191.341 441.114 190.474 439.768 189.599C440.949 185.325 444.838 187.933 447.216 186.677C448.517 186.655 449.811 186.632 451.112 186.61C453.243 184.63 455.898 184.607 458.575 184.6C465.096 184.577 471.609 184.652 478.13 184.405C480.111 184.375 481.502 185.661 483.035 186.618C485.421 186.827 487.806 187.036 490.199 187.245H490.191Z" fill="#FFFF96"/>
<path d="M483.028 186.618C481.368 187.141 479.782 187.283 478.563 185.691C477.576 184.099 477.688 182.627 479.042 181.289C480.261 181.491 481.48 181.685 482.699 181.887C482.811 183.464 482.915 185.041 483.028 186.618Z" fill="#479751"/>
<path d="M470.861 263.543C483.559 263.543 496.263 263.543 508.961 263.543C510.187 263.543 511.421 263.55 512.64 263.655C513.904 263.76 515.325 264.156 515.325 265.591C515.325 267.25 513.717 267.138 512.535 267.182C503.958 267.526 495.366 267.608 486.804 267.825C468.685 268.289 450.529 267.564 432.395 267.138C430.084 267.085 425.926 268.842 425.859 265.209C425.807 262.467 429.905 263.625 432.14 263.603C445.047 263.476 457.954 263.543 470.861 263.543Z" fill="#FF6F21"/>
<path d="M464.423 259.724C457.7 255.823 459.27 249.963 460.661 244.089C461.469 240.666 463.077 237.684 464.879 234.65C472.656 241.855 473.471 254.268 466.778 259.694C465.993 259.701 465.208 259.709 464.423 259.716V259.724Z" fill="#FFC321"/>
<path d="M443.821 192.215C451.142 192.282 458.463 192.35 465.784 192.424C469.283 197.962 469.164 207.02 465.514 212.08C460.871 212.214 456.219 212.483 451.583 212.439C446.775 212.386 443.956 209.621 443.627 204.958C443.335 200.735 443.731 196.475 443.821 192.223V192.215Z" fill="#47D3C4"/>
<path d="M465.514 212.08C465.604 205.533 465.694 198.979 465.784 192.432C472.574 192.357 479.363 192.282 486.146 192.208C488.673 211.96 485.667 214.853 465.514 212.087V212.08Z" fill="#479590"/>
</svg>
