<svg width="582" height="315" viewBox="0 0 582 315" fill="none" xmlns="http://www.w3.org/2000/svg">
<path d="M542.487 225.721C542.09 227.133 541.335 228.075 539.854 227.193C538.823 226.573 537.962 225.639 537.088 224.787C513.547 201.701 490.022 178.608 466.496 155.507C465.621 154.647 464.724 153.788 463.946 152.846C463.116 151.852 462.608 150.716 463.722 149.58C464.844 148.429 465.965 148.982 466.99 149.767C467.64 150.26 468.209 150.866 468.792 151.441C492.459 174.684 516.134 197.927 539.78 221.192C541.058 222.447 542.696 223.576 542.494 225.728L542.487 225.721Z" fill="#FF4321"/>
<path d="M453.739 142.951C455.107 142.032 456.468 141.113 457.837 140.186C461.748 141.315 462.451 144.416 462.039 147.764C461.628 151.157 461.83 154.49 462.024 157.854C460.275 162.121 455.302 163.72 453.604 168.032C448.467 173.653 442.216 178.025 436.659 183.189C433.519 185.618 431.066 188.906 427.432 190.745C425.704 191.402 423.573 192.03 422.923 193.682C420.096 200.879 413.807 204.9 408.61 209.929C407.383 211.521 405.925 212.904 404.512 214.324C401.172 217.677 400.94 221.117 403.816 224.645C405.043 229.009 405.312 233.262 402.411 237.148C396.765 240.152 391.082 240.997 386.056 236.161C383.507 233.71 381.988 236.998 379.94 236.587C371.998 233.949 369.934 227.776 370.099 220.265C371.766 221.05 372.985 223.083 375.303 220.766C393.288 202.762 412.042 185.528 429.413 166.911C435.687 157.069 443.075 148.355 453.731 142.951H453.739Z" fill="#FF4321"/>
<path d="M379.955 236.587C380.508 234.771 381.637 233.374 383.043 232.126C385.294 230.123 387.29 228.763 387.328 233.478C387.35 236.55 389.197 237.193 391.762 237.126C394.821 237.051 397.887 237.043 400.953 237.013C403.712 235.1 406.748 234.383 410.128 234.443C416.619 234.562 423.11 234.413 429.6 234.517C432.248 234.562 434.94 234.547 436.734 237.043C436.66 241.565 436.577 246.086 436.502 250.608C434.476 253.149 431.604 253.126 428.748 253.164C418.847 253.283 408.946 253.111 399.053 253.111C395.172 252.91 390.97 254.195 387.806 250.675C385.189 245.982 382.579 241.288 379.962 236.595L379.955 236.587Z" fill="#FFA821"/>
<path d="M400.855 279.03C396.503 279.03 392.151 279.03 387.799 279.03C387.118 274.411 387.193 269.785 387.724 265.159C388.292 264.591 388.958 264.172 389.713 263.896C403.091 262.842 416.492 262.573 429.9 262.842C432.42 262.894 434.768 263.253 436.48 265.361C436.48 269.867 436.48 274.381 436.473 278.888C436.196 279.179 435.957 279.665 435.628 279.732C423.985 282.169 412.364 283.447 400.855 279.03Z" fill="#FFA721"/>
<path d="M513.009 208.733C506.129 208.756 499.242 209.077 492.385 208.711C486.933 208.412 483.695 209.563 484.675 215.856C484.892 217.238 484.698 218.696 483.666 219.847C483.651 213.786 483.568 207.732 483.651 201.678C483.688 199.108 483.292 196.865 481.033 195.311C486.776 194.496 492.706 196.439 498.352 194.145C502.353 199.9 509.053 202.949 513.016 208.741L513.009 208.733Z" fill="#FF7B21"/>
<path d="M320.692 140.179C325.426 148.952 330.668 157.42 336.336 165.619C339.11 166.5 340.554 168.817 341.892 171.082C351.471 187.262 362.157 202.755 371.377 219.152C372.14 226.468 375.221 232.425 381.637 236.401C385.025 241.109 389.025 245.503 389.451 251.729C390.536 256.37 389.653 261.004 389.481 265.645C390.304 270.189 389.953 274.74 389.631 279.299C390.356 288.835 389.9 298.371 389.938 307.908C389.945 310.441 389.436 312.75 387.335 314.439C378.294 314.903 369.261 315.134 360.22 314.514C358.575 313.042 357.97 311.099 357.962 308.999C357.917 300.105 357.356 291.197 358.089 285.016C356.975 291.204 354.32 299.829 352.728 308.685C352.316 310.987 351.239 312.915 349.34 314.335C342.819 315.456 336.254 314.731 329.711 314.761C307.367 314.866 285.023 314.828 262.679 314.798C260.241 314.798 257.81 314.439 255.373 314.245C253.002 312.317 253.017 309.604 253.017 306.929C252.935 252.857 252.957 198.786 252.995 144.722C252.995 142.652 253.369 140.649 253.847 138.676C255.649 133.654 258.536 135.978 260.884 137.929C265.288 141.591 269.087 145.911 273.178 149.924C275.66 152.36 278.008 154.939 280.633 157.218C286.271 162.121 290.878 162.069 296.269 156.762C300.644 152.458 304.368 147.547 308.369 142.906C309.707 141.359 310.971 139.745 312.496 138.37C316.923 134.401 318.105 134.671 320.685 140.179H320.692Z" fill="#479692"/>
<path d="M255.552 136.756C255.56 193.465 255.575 250.182 255.575 306.891C255.575 309.343 255.455 311.801 255.388 314.253C251.723 314.29 248.067 314.327 244.403 314.365C238.181 313.289 231.907 312.422 225.865 310.493C223.128 309.619 220.316 308.692 219.868 305.18C221.707 298.543 226.942 293.895 230.015 287.946C234.726 278.821 238.959 269.553 239.624 259.165C240.679 242.693 233.44 230.945 218.649 223.748C216.996 222.948 215.284 222.276 213.676 221.379C213.055 220.856 213.758 221.633 213.16 221.072C206.106 214.511 199.348 214.58 192.887 221.282C188.296 223.942 183.293 225.93 179.188 229.368C170.768 236.416 166.887 245.87 167.223 256.452C167.717 272.147 173.153 286.369 182.889 298.827C185.103 301.66 187.563 303.752 191.579 303.633C195.034 303.528 197.479 303.02 197.98 298.88C198.354 295.83 199.281 292.669 203.566 293.013C208 295.367 207.567 299.283 206.893 303.281C204.426 306.712 206.123 311.689 202.661 314.761C172.338 314.701 142.015 314.641 111.685 314.574C109.778 313.326 108.238 311.794 107.55 309.529C105.665 303.341 103.444 297.273 101.261 291.182C100.386 288.738 99.6977 286.1 101.44 283.626C108.581 275.45 113.375 265.727 119.051 256.609C143.354 217.545 167.47 178.361 191.661 139.229C192.304 138.191 193.097 137.241 193.822 136.247C197.673 136.195 199.505 139.185 201.614 141.584C205.675 146.195 209.309 151.18 213.586 155.596C220.391 162.622 224.87 162.741 231.847 156.045C237.463 150.649 242.847 145.021 248.426 139.581C250.31 137.742 252.052 135.582 255.066 135.545C255.889 135.672 256.061 136.068 255.575 136.741L255.552 136.756Z" fill="#47D3C6"/>
<path d="M387.335 314.447C387.492 302.646 387.642 290.838 387.799 279.037C391.859 275.084 396.324 275.981 400.878 277.916C402.77 279.478 403.458 281.668 403.383 283.947C403.226 289.052 406.09 290.113 410.449 289.979C415.983 289.807 421.547 289.695 427.073 290.001C432.449 290.3 434.723 288.14 434.214 282.834C434.08 281.406 434.611 279.994 434.551 278.544C433.93 274.142 434.057 269.748 434.521 265.346C433.99 260.413 433.997 255.481 434.506 250.548C434.229 245.899 433.429 241.214 435.463 236.722C437.587 233.12 441.019 232.133 444.885 232.088C455.332 231.969 465.778 231.857 476.21 232.126C483.135 232.305 485.311 234.599 485.311 241.58C485.311 250.346 486.761 259.098 485.438 267.902C484.989 270.906 485.258 274.03 485.415 277.102C486.051 289 487.001 289.837 498.704 289.926C502.555 289.956 506.488 289.231 510.272 290.629C513.024 294.567 511.207 297.176 507.752 299.298C473.376 300.576 438.97 299.358 411.287 299.836C437.811 299.687 471.035 300.06 504.26 299.687C504.888 299.687 505.464 299.888 506.054 300.068C508.739 304.814 507.886 308.543 502.959 313.565C501.575 313.872 500.192 314.447 498.808 314.454C461.651 314.484 424.493 314.454 387.335 314.432V314.447Z" fill="#D23B21"/>
<path d="M579.944 239.539C582.441 240.974 581.798 243.366 581.806 245.578C581.865 267.73 581.933 289.889 582 312.04C580.938 313.318 579.831 314.529 577.962 314.477C563.238 314.043 548.484 315.508 533.775 313.834C530.141 309.111 534.351 305.897 535.996 302.19C546.435 284.306 558.841 267.677 569.617 250.002C573.139 246.602 573.722 240.287 579.936 239.539H579.944Z" fill="#47D3C6"/>
<path d="M101.418 283.634C104.835 293.947 108.245 304.268 111.663 314.582C100.049 314.843 88.4286 315.523 76.8304 314.23C74.602 312.549 74.3851 310.105 74.3776 307.609C74.2804 283.08 74.2431 258.552 74.4076 234.024C74.43 231.139 74.8563 228.307 76.7556 225.938C80.9283 224.637 81.4144 228.075 82.2968 230.526C87.9202 246.109 93.4089 261.743 98.965 277.348C99.7202 279.463 100.595 281.533 101.41 283.626L101.418 283.634Z" fill="#479793"/>
<path d="M76.7556 225.945C76.7855 255.376 76.8079 284.807 76.8303 314.238C65.778 314.746 54.7331 315.037 43.6733 314.395C41.9459 312.78 42.0132 310.725 42.5217 308.722C44.2117 302.041 46.1859 295.449 49.7977 289.485C53.7086 288.334 53.3348 284.463 54.3219 281.735C60.3191 265.301 65.9724 248.747 71.8052 232.253C72.725 229.652 73.2858 226.625 76.7481 225.938L76.7556 225.945Z" fill="#47D3C6"/>
<path d="M0.413574 310.03C2.07367 299.963 7.11372 291.085 10.4563 281.608C14.3897 270.458 18.4428 259.352 22.436 248.216C23.5053 245.242 24.7915 242.529 28.6427 242.671C31.2599 244.36 31.3795 247.05 31.3945 249.733C31.4992 268.933 31.4842 288.133 31.4094 307.325C31.402 310.067 31.0505 312.638 28.7099 314.484C20.9404 314.522 13.1708 314.462 5.40128 314.641C2.00631 314.723 0.473397 313.288 0.413574 310.023V310.03Z" fill="#47D3C5"/>
<path d="M28.71 314.492C28.6875 290.554 28.6651 266.616 28.6427 242.671C33.1893 241.968 33.9894 245.548 35.0662 248.515C40.039 262.154 44.8996 275.831 49.7976 289.493C51.0165 291.944 50.2089 294.126 49.1471 296.428C46.4999 302.153 44.4958 308.102 43.6733 314.395C38.693 315.247 33.6977 315.007 28.7025 314.484L28.71 314.492Z" fill="#479692"/>
<path d="M537.708 302.743C536.669 306.532 532.855 309.343 533.775 313.827C531.621 314.791 529.348 314.454 527.105 314.424C525.512 313.774 524.39 312.579 523.912 310.994C521.197 301.981 516.262 293.693 515.065 284.187C517.174 282.266 517.623 279.067 520.188 277.46C524.286 275.981 528.346 275.861 532.369 277.692C536.564 281.862 535.846 287.408 536.43 292.564C536.818 295.965 535.891 299.522 537.708 302.743Z" fill="#E44021"/>
<path d="M349.34 314.335C351.262 300.217 355.741 286.705 358.553 272.804C359.106 272.842 359.667 272.879 360.22 272.916C360.22 286.787 360.22 300.651 360.22 314.522C356.594 314.462 352.967 314.402 349.34 314.335Z" fill="#47D1C6"/>
<path d="M220.84 305.277C225.857 310.067 233.163 308.797 238.787 312.033C240.529 313.034 242.518 313.602 244.395 314.372C230.486 315.471 216.555 314.589 202.631 314.768C202.915 311.047 201.517 306.988 204.83 303.887C210.236 303.573 215.71 302.444 220.832 305.284L220.84 305.277Z" fill="#479391"/>
<path d="M515.791 283.992C520.434 293.812 524.42 303.879 527.105 314.425C522.872 314.791 518.64 315.045 514.415 314.35C509.577 308.453 512.134 301.585 512.171 295.143C512.194 291.705 512.575 288.349 511.439 285.031C512.381 282.542 513.921 282.565 515.798 283.985L515.791 283.992Z" fill="#47978F"/>
<path d="M512.515 285.001C515.103 286.384 514.4 288.88 514.422 291.017C514.489 298.797 514.422 306.577 514.407 314.35C510.526 315.03 506.675 315.306 502.958 313.573C502.846 309.111 506.129 305.576 506.361 301.211C505.98 299.896 506.72 299.059 507.602 298.274C508.567 296.182 510.115 294.306 510.055 291.817C508.492 288.686 508.694 286.189 512.515 284.994V285.001Z" fill="#47CEBF"/>
<path d="M579.944 239.539C575.861 242.29 575.075 247.708 571.067 250.518C568.435 250.227 567.396 248.134 566.304 246.198C553.973 224.331 541.634 202.463 529.393 180.536C526.776 175.842 526.103 170.94 527.778 165.783C532.691 161.045 531.449 155.679 529.311 150.223C531.068 139.782 536.43 134.805 546.547 133.639C556.657 132.473 566.857 131.449 575.666 125.508C577.214 124.462 579.001 123.968 580.893 124.768C580.871 125.344 580.848 125.912 580.818 126.487C581.791 127.75 581.462 129.237 581.462 130.642C581.477 163.87 581.477 197.09 581.462 230.317C581.462 231.73 581.761 233.202 580.863 234.495C581.364 236.326 580.542 237.918 579.936 239.547L579.944 239.539Z" fill="#FFDD21"/>
<path d="M580.893 124.761C571.374 132.757 559.858 134.999 547.968 135.941C537.925 136.741 534.657 139.244 531.786 149.042C531.562 149.797 531.068 150.47 530.702 151.187C523.71 154.894 516.621 154.244 509.494 151.628C507.67 149.117 508.066 147.054 510.773 145.47C518.483 128.722 531.442 121.031 549.942 122.369C556.044 122.81 562.266 122.466 568.054 120.075C570.641 119.006 573.408 117.848 574.679 114.948C577.319 113.901 578.366 110.613 581.432 110.165C581.252 115.03 581.073 119.895 580.893 124.753V124.761Z" fill="white"/>
<path d="M370.114 220.265C358.426 202.314 347.142 184.108 336.336 165.619C343.074 153.474 349.736 141.292 356.601 129.215C358.373 126.091 358.852 122.04 362.546 120.164C365.874 119.477 367.893 121.667 369.934 123.64C375.655 129.17 381.121 134.962 386.894 140.448C393.998 147.196 398.133 147.181 405.26 140.38C411.018 134.887 416.499 129.103 422.212 123.572C424.216 121.629 426.063 119.193 429.436 119.671C430.027 119.97 430.498 120.389 430.894 120.919C431.986 122.511 432.203 124.312 432.307 126.181C433.04 139.446 433.78 152.712 431.088 165.865C430.991 168.04 429.862 169.774 428.441 171.254C412.005 188.353 395 204.885 377.741 221.147C374.974 223.755 372.163 224.787 370.121 220.258L370.114 220.265Z" fill="#FFA421"/>
<path d="M424.47 6.82784C424.53 4.26441 423.536 0.886356 427.103 0.191315C430.565 -0.473832 432.719 2.40348 433.975 5.08649C438.806 15.3402 444.339 25.2053 449.821 35.1078C456.296 46.8039 463.662 57.9694 469.891 69.8598C473.914 77.5351 478.266 85.2329 482.17 92.9382C486.717 101.921 494 109.604 495.854 119.925C496.939 121.689 496.012 123.184 494.92 124.35C487.943 131.816 480.906 139.237 473.129 145.888C472.352 146.553 471.334 146.852 470.295 146.965C467.64 147.002 465.853 145.246 463.969 143.766C462.346 142.495 460.835 141.158 458.562 142.077C457.007 142.794 455.422 143.377 453.664 143.302C451.496 143.033 449.85 141.763 448.445 140.276C442.148 133.587 434.685 128.027 429.234 120.516C429.159 120.276 429.174 120.045 429.271 119.813C425.959 117.242 426.796 113.52 426.789 110.165C426.706 78.0658 426.766 45.9669 426.706 13.8679C426.706 11.3643 427.678 8.38235 424.47 6.83532V6.82784Z" fill="#FFB921"/>
<path d="M424.471 6.82785C425.929 5.74418 426.146 3.46476 429.271 2.63519C429.271 41.9087 429.271 80.8609 429.271 119.813C421.397 127.556 413.62 135.403 405.619 143.004C398.53 149.745 393.534 149.685 386.483 143.033C378.451 135.47 370.517 127.795 362.539 120.164C368.835 105.023 378.003 91.4285 385.742 77.0643C398.432 53.5301 411.534 30.2276 424.463 6.82037L424.471 6.82785Z" fill="#FFF997"/>
<path d="M320.692 140.179C318.471 136.494 316.519 136.33 313.7 139.954C308.802 146.24 303.47 152.189 298.251 158.22C292.568 164.789 286.077 165.08 279.638 159.229C271.51 151.845 264.481 143.273 255.552 136.748C255.395 136.449 255.432 136.173 255.657 135.919C252.815 132.944 253.077 129.192 253.069 125.53C253.025 100.225 253.062 74.9269 253.04 49.6215C253.04 47.4317 253.271 45.2046 252.718 42.9999C250.437 43.0448 249.338 45.8174 246.997 44.9206C247.476 42.5216 247.798 40.0777 248.486 37.7385C249.323 34.8911 251.701 33.4487 254.408 32.9853C257.1 32.522 258.319 34.7416 259.456 36.7221C268.773 52.8874 278.494 68.7986 287.281 85.2853C295.626 100.957 305.542 115.792 314.68 131.046C316.557 134.185 321.971 134.984 320.707 140.171L320.692 140.179Z" fill="#FFB921"/>
<path d="M246.99 44.9281C248.119 43.4707 249.166 41.9536 250.392 40.5859C251.761 39.0613 251.611 35.2199 254.475 36.2886C256.629 37.0958 255.545 40.3468 255.545 42.4992C255.582 70.1887 255.545 97.8782 255.537 125.568C255.537 129.021 255.619 132.473 255.657 135.926C247.94 143.489 240.282 151.112 232.49 158.593C225.035 165.753 219 165.32 212.248 157.457C206.146 150.35 199.954 143.317 193.807 136.255C200.141 125.216 206.415 114.133 212.831 103.147C224.175 83.7158 235.609 64.3369 246.997 44.9355L246.99 44.9281Z" fill="#FFF997"/>
<path d="M469.921 146.06C478.64 137.421 487.778 129.2 495.854 119.918C503.205 127.047 507.056 136.225 510.765 145.477C510.19 147.263 509.614 149.05 509.031 150.843C509.367 152.054 509.075 153.212 508.844 154.416C507.64 160.693 507.894 160.865 514.317 162.24C516.441 162.696 520.277 161.904 518.909 166.441C517.75 167.405 516.374 167.726 514.916 167.846C513.704 167.943 512.485 167.719 511.476 167.771C514.071 173.174 513.622 178.279 510.915 183.323C508.574 185.797 506.294 184.452 504.476 182.823C492.931 172.509 481.818 161.74 471.162 150.507C470.048 149.334 469.211 147.854 469.929 146.06H469.921Z" fill="#FF8221"/>
<path d="M388.98 265.204C388.562 265.189 388.135 265.181 387.716 265.159C387.275 260.323 387.178 255.488 387.791 250.66C391.388 250.668 394.985 250.675 398.574 250.683C403.637 252.08 404.437 255.727 403.6 260.226C402.732 264.875 399.285 264.882 395.628 264.793C393.415 264.74 391.141 264.337 388.973 265.196L388.98 265.204Z" fill="#F84321"/>
<path d="M220.84 305.277C215.403 305.957 209.937 306.966 204.837 303.879C204.904 300.195 206.609 296.174 202.669 293.304C201.524 292.415 201.397 291.249 201.741 289.941C204.71 286.085 209.735 284.71 212.726 280.868C219.03 276.377 222.732 270.532 222.515 262.528C222.448 259.897 222.866 257.289 224.444 255.032C225.304 253.612 226.725 252.745 227.921 251.669C231.189 248.732 231.002 245.69 228.288 242.656C225.454 239.495 222.388 239.405 219.441 242.596C218.454 243.665 217.37 244.524 215.987 245.018C210.632 245.787 205.6 245.279 201.397 241.385C199.356 233.867 199.146 226.356 201.48 218.853C205.458 214.832 209.167 216.783 212.838 219.391C233.193 223.382 246.377 245.227 241.142 265.824C237.388 280.577 230.681 293.7 220.84 305.269V305.277Z" fill="#FF7C21"/>
<path d="M202.474 218.629L202.579 241.968C202.407 242.223 202.227 242.477 202.055 242.731C198.518 244.734 194.69 245.548 190.659 245.563C188.707 245.175 187.556 243.642 186.255 242.364C183.278 239.435 180.265 239.801 177.707 242.641C175.15 245.473 175.172 248.53 178.126 251.325C179.315 252.454 180.549 253.537 181.663 254.748C183.42 257.028 182.934 259.688 183.121 262.304C183.607 269.292 184.744 276.063 192.177 279.441C195.25 281.81 196.671 285.935 200.642 287.348C201.637 288.05 202.339 288.955 202.654 290.143C202.654 291.197 202.661 292.258 202.668 293.312C199.558 295.188 200.388 298.334 200.38 301.054C200.38 304.447 198.922 305.269 195.647 305.822C188.61 307.003 183.712 305.053 179.711 298.984C171.231 286.13 165.286 272.49 164.95 256.878C164.546 238.396 175.486 224.196 193.71 219.309C196.439 216.633 199.281 215.348 202.474 218.629Z" fill="#FFA521"/>
<path d="M202.474 218.629C199.468 217.904 196.619 219.077 193.703 219.316C194.66 214.638 197.434 211.506 202.197 211.118C208 210.647 210.632 214.937 212.861 219.406C209.354 219.697 206.041 217.433 202.482 218.629H202.474Z" fill="#AD4B21"/>
<path d="M436.727 237.036C424.8 237.028 412.88 237.013 400.953 237.006C403.188 232.701 401.79 228.068 402.164 223.591C404.265 220.594 407.488 221.125 410.487 220.96C419.595 220.474 428.77 221.909 437.833 220.078C452.722 221.708 467.648 220.788 482.566 220.743C492.086 221.222 501.613 220.758 511.139 220.953C514.168 221.013 517.294 220.751 519.799 223.03C522.708 227.559 522.416 232.208 520.292 236.916C518.221 239.39 515.334 239.517 512.433 239.562C506.069 239.659 499.706 239.517 493.342 239.644C490.583 239.704 487.756 239.876 487.629 243.642C487.487 247.88 490.59 247.955 493.551 248C500.94 248.104 508.328 247.992 515.716 248.059C518.363 248.082 521.092 247.82 523.463 249.442C524.33 250.144 524.966 251.258 524.226 252.058C521.033 255.496 522.334 260.301 520.352 264.075C519.993 264.666 519.53 265.159 518.984 265.577C514.542 268.44 509.532 267.782 504.649 267.872C500.962 267.939 497.268 267.827 493.581 267.902C490.814 267.961 487.419 267.214 487.442 271.758C487.457 276.242 490.65 276.332 493.865 276.362C500.012 276.422 506.167 276.302 512.313 276.429C514.961 276.481 517.727 276.384 519.447 279.045C519.178 281.391 520.345 284.799 515.791 283.977C514.639 284.119 513.315 283.678 512.523 284.986C510.736 286.907 510.937 289.545 510.07 291.802C502.742 293.095 495.339 292.168 487.98 292.512C485.438 292.632 484.727 291.75 484.406 289.037C482.686 274.516 484.077 259.972 483.673 245.451C483.366 234.555 483.606 234.547 472.389 234.555C463.161 234.562 453.933 234.637 444.706 234.54C441.707 234.51 439.015 234.996 436.727 237.021V237.036Z" fill="#FF8D21"/>
<path d="M446.852 244.487C455.1 242.544 463.445 244.136 471.738 243.777C474.154 243.672 474.789 245.107 474.782 247.297C474.722 258.933 474.715 270.57 474.759 282.214C474.759 284.381 474.161 285.868 471.731 285.756C463.438 285.367 455.093 287.064 446.844 285.061C451.451 282.072 453.059 281.892 459.243 283.641C456.401 277.46 457.643 270.861 457.897 264.404C458.001 261.758 458.263 259.105 458.256 256.445C458.236 250.959 455.449 247.626 449.895 246.445C448.632 246.176 447.675 245.444 446.852 244.494V244.487Z" fill="#FFB723"/>
<path d="M507.61 298.282C507.767 299.5 507.401 300.494 506.369 301.211C503.796 301.944 501.209 302.31 498.509 302.31C466.347 302.265 434.184 302.287 402.029 302.272C400.392 302.272 398.747 302.243 397.131 302.056C395.718 301.891 394.978 300.935 395.12 299.492C395.232 298.319 396.04 297.676 397.146 297.564C398.567 297.422 400.003 297.377 401.431 297.377C434.82 297.37 468.209 297.377 501.605 297.362C503.654 297.362 505.711 297.288 507.61 298.274V298.282Z" fill="#FF4421"/>
<path d="M388.98 265.204C390.072 263.971 391.575 264.367 392.951 264.142C395.695 263.679 399.315 265.809 400.908 261.736C402.538 257.581 402.089 253.792 398.575 250.683C411.212 250.653 423.85 250.623 436.488 250.6C436.488 255.525 436.48 260.443 436.473 265.361C420.642 265.308 404.811 265.256 388.973 265.204H388.98Z" fill="#FF8D21"/>
<path d="M400.855 279.03C412.73 278.985 424.598 278.933 436.473 278.888C437.041 287.986 432.836 292.532 423.857 292.527C418.339 292.527 412.798 292.258 407.294 292.557C402.62 292.811 400.302 291.443 400.915 286.384C401.207 283.97 400.893 281.489 400.855 279.037V279.03Z" fill="#FF8B21"/>
<path d="M446.852 244.487C455.666 244.646 460.085 249.26 460.11 258.328C460.125 264.852 460.08 271.377 460.14 277.894C460.163 280.27 459.437 282.931 464.051 285.061C456.992 285.061 451.914 285.061 446.844 285.061C446.014 271.534 445.97 258.014 446.844 244.487H446.852Z" fill="#FFEC54"/>
<path d="M528.929 165.663C527.269 175.506 533.214 182.763 537.514 190.528C548.626 210.564 559.873 230.534 571.06 250.526C564.921 262.917 556.239 273.716 549.165 285.532C545.628 291.436 541.545 297.019 537.701 302.743C536.37 302.661 533.857 305.464 534.119 301.45C534.613 293.865 533.087 286.421 532.855 278.888C532.638 278.103 531.98 277.378 532.018 276.623C532.362 270.166 529.759 266.885 522.91 267.364C521.294 267.476 519.186 266.766 519.178 264.254L519.358 264.053C521.16 261.975 523.665 261.945 526.11 261.736C528.144 261.564 530.35 261.669 531.15 259.158C531.936 256.676 531.046 254.808 528.967 253.343C528.122 252.745 527.546 251.886 527.538 250.765C532.175 247.207 532.549 242.701 530.455 237.649C530.455 229.682 532.78 227.888 539.219 231.154C541.732 232.432 543.878 232.821 545.822 230.556C548.028 227.978 547.041 225.631 544.992 223.486C537.357 215.46 529.341 207.807 521.579 199.9C519.485 197.762 516.583 196.028 517.137 192.292C516.531 186.238 516.808 180.184 516.703 174.131C516.643 170.491 517.458 167.337 520.397 164.961C523.426 162.965 526.29 162.868 528.929 165.648V165.663Z" fill="#FF8221"/>
<path d="M519.178 264.262C521.541 266.063 524.338 265.547 526.873 265.286C532.474 264.695 534.897 266.751 534.059 272.453C533.738 274.62 534.56 276.982 532.855 278.888C528.384 278.948 523.904 279 519.432 279.06C509.644 279.015 499.848 278.761 490.059 278.985C482.402 279.157 485.408 273.619 484.78 269.979C484.062 265.787 485.984 265.144 489.91 265.196C499.661 265.338 509.472 266.145 519.171 264.262H519.178Z" fill="#FFA821"/>
<path d="M528.929 165.663C526.118 165.701 523.314 165.738 520.502 165.775C519.948 166.194 519.515 166.097 519.186 165.491C517.563 164.288 515.671 164.737 513.869 164.565C510.997 164.288 507.049 165.775 506.04 161.74C505.06 157.853 504.559 153.511 509.038 150.851C516.254 150.963 523.471 151.082 530.694 151.195C536.004 156.665 535.36 161.927 528.937 165.671L528.929 165.663Z" fill="#DA4021"/>
<path d="M453.739 142.951C445.633 150.94 437.527 158.922 429.421 166.911C429.757 157.854 430.071 148.803 430.438 139.745C430.7 133.288 430.116 126.891 429.226 120.516C436.45 124.484 441.363 131.061 447.271 136.509C449.507 138.572 451.585 140.799 453.739 142.951Z" fill="#FF8421"/>
<path d="M518.229 193.884C527.658 203.158 537.013 212.515 546.547 221.678C549.98 224.974 551.49 228.21 547.923 232.163C544.409 236.057 541.403 235.698 537.028 232.35C532.25 228.688 532.407 234.121 531.562 236.939C527.464 240.608 523.418 240.75 519.425 236.774C519.425 232.402 519.44 228.03 519.447 223.658C520.786 221.536 522.67 221.536 524.719 222.253C520.091 218.651 516.239 214.159 511.984 210.079C507.438 204.735 500.984 201.38 496.857 195.602C492.205 191.582 487.936 187.165 483.568 182.853C478.902 177.688 473.578 173.167 468.889 168.033C466.638 164.565 461.8 163.078 461.367 158.227C460.05 155.559 457.672 153.534 459.721 149.67C461.217 146.852 460.514 142.966 457.852 140.194C464.051 137.697 465.876 144.162 469.929 146.068C482.731 159.079 495.017 172.629 509.233 184.19C513.667 186.096 517.167 188.869 518.236 193.891L518.229 193.884Z" fill="#DA4021"/>
<path d="M518.229 193.884C515.073 190.789 511.222 188.346 509.225 184.183C510.205 180.043 511.169 175.827 510.511 171.59C509.779 166.852 511.267 164.811 516.157 165.604C517.137 165.761 518.176 165.536 519.186 165.484C519.619 165.581 520.061 165.671 520.502 165.768C518.116 171.231 519.821 176.986 519.268 182.584C518.902 186.35 520.352 190.281 518.229 193.884Z" fill="#FFA621"/>
<path d="M484.765 181.335C489.289 185.603 493.813 189.878 498.345 194.145C497.619 197.553 494.793 197.344 492.28 197.673C488.519 198.158 484.75 196.88 480.988 197.785C467.304 197.732 453.619 197.822 439.935 197.762C436.547 196.694 433.145 197.957 429.742 197.71C426.953 197.501 423.274 198.114 422.235 195.161C421.098 191.933 424.807 190.804 426.946 189.213C429.84 186.657 432.734 184.108 435.62 181.552C451.982 177.599 468.366 177.629 484.765 181.343V181.335Z" fill="#FFA721"/>
<path d="M437.871 221.334C436.817 224.323 434.222 223.427 432.143 223.449C422.152 223.561 412.154 223.561 402.164 223.598C400.025 222.575 396.226 223.367 395.74 221.289C395.052 218.337 398.747 217.029 400.676 215.116C402.807 213.001 404.991 210.931 407.152 208.838C417.172 205.124 427.185 204.182 437.198 208.905C439.905 212.911 439.703 217.081 437.871 221.334Z" fill="#FFA821"/>
<path d="M484.765 181.335C468.381 181.403 451.997 181.477 435.62 181.545C441.258 176.717 446.299 171.179 452.715 167.285C458.368 161.986 464.186 164.37 470.003 166.911C475.395 171.239 480.054 176.313 484.772 181.335H484.765Z" fill="#FF7B21"/>
<path d="M436.622 209.944C426.871 207.545 416.97 209.354 407.152 208.838C412.087 203.3 418.914 199.459 421.763 191.97C422.332 190.476 424.635 189.063 426.946 189.205C425.6 190.857 424.246 192.516 421.95 195.326H439.15C439.381 200.378 440.421 205.58 436.622 209.937V209.944Z" fill="#FF7821"/>
<path d="M470.004 166.911C464.238 167.031 458.48 167.158 452.715 167.285C453.395 162.166 457.164 159.991 461.366 158.22C464.477 160.888 467.588 163.563 470.004 166.919V166.911Z" fill="#FF9E21"/>
<path d="M202.579 241.968C207.267 240.922 211.522 244.367 216.218 243.291C217.565 244.113 218.753 245.122 219.756 246.34C221.206 248.224 222.709 250.07 223.928 252.118C224.407 253.358 225.79 254.053 225.97 255.481C224.803 257.521 224.639 259.763 224.796 262.027C225.424 271.354 221.558 278.163 213.377 282.595C212.517 281.982 211.874 281.115 211.814 280.121C211.455 274.411 207.843 271.183 203.237 268.664C202.354 268.126 201.165 267.558 201.053 266.639C200.036 258.336 198.062 249.943 202.601 241.983L202.579 241.961V241.968Z" fill="#FB7121"/>
<path d="M204.979 267.67C212.629 270.839 214.139 273.514 213.384 282.61C211.178 287.071 206.916 288.611 202.653 290.143C201.741 289.777 200.829 289.418 199.909 289.052C199.954 287.281 200.814 285.831 201.741 284.411C206.706 280.659 203.917 277.774 200.657 274.934C199.961 272.274 200.156 269.8 202.175 267.715C203.102 267.177 204.037 267.162 204.979 267.67Z" fill="#FFB021"/>
<path d="M218.148 246.908C216.143 246.43 216.114 244.891 216.218 243.291C218.925 239.599 222.126 237.043 227.039 238.994C230.972 240.556 232.445 243.732 232.169 247.73C231.907 251.669 228.691 253.418 225.97 255.481C224.257 255.518 222.679 255.354 222.425 253.164C222.761 252.416 222.53 253.373 222.589 252.603C222.761 250.421 226.097 248.971 224.661 246.834C222.889 244.203 220.376 247.693 218.148 246.901V246.908Z" fill="#CB4521"/>
<path d="M204.979 267.67C204.179 267.737 203.371 267.805 202.571 267.872C197.815 270.943 194.787 275.562 191.631 280.069C190.98 282.737 189.881 281.354 188.707 280.45C182.239 275.442 180.534 268.485 181.042 260.847C181.169 258.933 181.364 257.252 180.407 255.57C180.586 254.292 181.065 253.126 181.76 252.043C183.144 249.801 184.714 247.716 186.666 245.922C187.705 244.965 188.909 244.397 190.345 244.405C194.361 243.239 198.212 241.266 202.601 241.998C202.586 248.964 202.796 255.936 202.429 262.887C202.295 265.391 203.117 266.616 204.979 267.677V267.67Z" fill="#FF8321"/>
<path d="M191.631 280.061C192.491 271.504 195.116 268.574 202.571 267.864C202.571 270.301 203.072 272.834 201.315 274.964C200.634 278.454 200.821 281.832 202.661 284.986C202.863 287.101 202.145 288.596 199.902 289.052C194.854 288.162 193.037 284.299 191.624 280.061H191.631Z" fill="#FFF183"/>
<path d="M182.732 252.977C182.837 254.636 181.962 255.406 180.407 255.563C176.929 252.857 172.473 250.645 174.021 245.01C174.933 241.684 177.057 239.248 180.631 238.523C185.634 237.507 187.944 241.057 190.352 244.39C189.889 245.578 189.141 246.467 187.832 246.774C187.234 246.804 186.643 246.759 186.053 246.669C184.557 246.43 182.972 244.905 181.596 246.303C180.123 247.79 181.94 249.203 182.299 250.645C182.493 251.415 182.725 252.177 182.74 252.977H182.732Z" fill="#C54721"/>
<path d="M436.622 209.944C437.25 205.034 435.134 199.653 439.15 195.333C453.103 195.333 467.065 195.326 481.026 195.318C485.378 196.26 486.245 199.526 485.976 203.225C485.587 208.509 485.378 213.793 485.154 219.084C484.81 220.721 483.95 221.887 482.26 222.32C470.205 224.585 458.024 222.799 445.925 223.419C442.963 223.568 440.331 222.888 437.871 221.334C435.777 217.724 437.265 213.718 436.622 209.944Z" fill="#D34021"/>
<path d="M519.432 236.774C523.478 236.827 527.524 236.886 531.569 236.939C536.22 240.07 533.85 244.689 533.611 248.56C533.424 251.535 529.991 250.167 527.987 250.675C526.701 251.841 525.415 251.826 524.129 250.66C513.061 250.638 501.987 250.339 490.934 250.72C485.288 250.914 484.735 248.299 484.645 243.702C484.555 238.777 485.864 236.752 491.166 236.931C500.573 237.238 510.003 236.856 519.425 236.767L519.432 236.774Z" fill="#FFA821"/>
<path d="M482.267 222.313C482.731 221.491 483.202 220.669 483.665 219.847C484.361 218.509 484.122 217.059 484.137 215.647C484.271 206.626 484.623 206.095 493.97 206.222C500.379 206.312 507.086 204.72 513.009 208.733C516.568 212.014 520.158 215.265 523.68 218.584C524.839 219.675 525.833 220.923 527.232 222.462C524.555 224.099 521.855 223.113 519.447 223.651C509.21 223.598 498.973 223.569 488.736 223.471C486.53 223.449 484.189 223.98 482.26 222.313H482.267Z" fill="#FFA821"/>
<path d="M524.129 250.66C525.415 250.66 526.693 250.668 527.98 250.675C529.759 252.514 533.783 250.877 534.067 255.376C534.485 262.05 532.893 264.217 526.08 264.202C523.837 264.202 521.593 264.113 519.35 264.06C519.313 262.259 519.462 260.436 519.201 258.672C518.572 254.539 520.046 251.841 524.121 250.66H524.129Z" fill="#FB4721"/>
<path d="M451.331 257.267C452.281 254.942 449.521 249.569 453.485 249.599C457.104 249.629 456.207 255.07 456.364 258.418C456.394 259.023 456.438 259.673 456.281 260.241C455.653 262.438 456.207 266.153 453.133 265.929C450.374 265.734 451.682 262.259 451.353 260.204C451.226 259.412 451.331 258.582 451.331 257.267Z" fill="#FFFFEF"/>
<path d="M218.148 246.908C219.21 245.698 220.122 244.278 221.378 243.321C223.322 241.841 225.259 242.574 226.815 244.158C228.407 245.787 228.856 247.626 227.226 249.569C225.902 251.138 224.369 252.424 222.425 253.164C220.997 251.079 219.576 248.986 218.148 246.901V246.908Z" fill="#FFED93"/>
<path d="M218.611 262.924C218.26 264.927 217.153 266.414 214.984 266.242C212.644 266.063 211.186 264.538 211.507 262.102C211.784 260.01 213.264 258.911 215.433 259.09C217.691 259.277 218.544 260.757 218.611 262.917V262.924Z" fill="#FFDD63"/>
<path d="M202.668 284.986C196.806 282.355 196.432 279.553 201.322 274.964C204.299 275.009 207.14 275.405 207.537 279.134C207.903 282.617 205.645 284.157 202.668 284.986Z" fill="#FF3821"/>
<path d="M182.732 252.977C181.76 252.23 180.743 251.527 179.823 250.712C177.722 248.852 176.817 246.692 178.978 244.345C181.214 241.901 183.615 242.073 185.873 244.42C186.576 245.152 187.182 245.989 187.832 246.774C186.135 248.837 184.437 250.907 182.74 252.969L182.732 252.977Z" fill="#FFE989"/>
<path d="M193.934 262.857C193.747 264.77 192.768 266.235 190.569 266.175C188.161 266.108 186.785 264.553 186.957 262.229C187.107 260.196 188.535 258.963 190.696 259.113C192.835 259.27 193.934 260.525 193.934 262.849V262.857Z" fill="#FFE35D"/>
<path d="M460.133 213.868C457.47 213.868 454.801 213.741 452.154 213.898C448.519 214.122 445.999 213.943 446.097 208.943C446.186 204.302 448.504 204.182 451.892 204.257C457.822 204.391 463.767 204.429 469.697 204.264C473.144 204.167 474.894 204.9 474.849 208.958C474.812 212.732 473.72 214.137 469.944 213.838C466.691 213.584 463.4 213.786 460.125 213.786V213.86L460.133 213.868Z" fill="#FFCB3B"/>
</svg>
