<svg width="1355" height="468" viewBox="0 0 1355 468" fill="none" xmlns="http://www.w3.org/2000/svg">
<g clip-path="url(#clip0_402_1621)">
<path d="M1343.45 405.638V458.268H1287V416.409L1343.45 405.638Z" fill="#8DEED8"/>
<path d="M1305.8 405.449C1305.57 405.449 1305.33 405.402 1305.1 405.26L1301.8 403.512L1298.5 405.26C1297.98 405.543 1297.37 405.496 1296.9 405.165C1296.42 404.835 1296.19 404.22 1296.28 403.654L1296.9 399.969L1294.21 397.323C1293.79 396.898 1293.64 396.283 1293.83 395.764C1294.02 395.197 1294.49 394.819 1295.06 394.724L1298.78 394.205L1300.43 390.85C1300.67 390.331 1301.23 390 1301.8 390C1302.36 390 1302.93 390.331 1303.16 390.85L1304.81 394.205L1308.54 394.724C1309.1 394.819 1309.57 395.197 1309.76 395.764C1309.95 396.331 1309.81 396.945 1309.38 397.323L1306.7 399.969L1307.31 403.654C1307.4 404.22 1307.17 404.835 1306.7 405.165C1306.46 405.354 1306.13 405.449 1305.8 405.449ZM1301.8 400.252C1302.03 400.252 1302.27 400.299 1302.5 400.441L1303.78 401.102L1303.54 399.685C1303.45 399.165 1303.63 398.693 1303.96 398.315L1305 397.323L1303.59 397.134C1303.07 397.039 1302.65 396.756 1302.46 396.283L1301.8 394.961L1301.14 396.283C1300.9 396.756 1300.48 397.039 1300.01 397.134L1298.59 397.323L1299.63 398.315C1300.01 398.646 1300.15 399.165 1300.05 399.685L1299.82 401.102L1301.09 400.441C1301.28 400.299 1301.51 400.252 1301.8 400.252Z" fill="url(#paint0_linear_402_1621)"/>
<path d="M1327.1 405.449C1326.87 405.449 1326.63 405.402 1326.4 405.26L1323.1 403.512L1319.8 405.26C1319.28 405.543 1318.67 405.496 1318.2 405.165C1317.72 404.835 1317.49 404.22 1317.58 403.654L1318.2 399.969L1315.51 397.323C1315.09 396.898 1314.94 396.283 1315.13 395.764C1315.32 395.197 1315.79 394.819 1316.36 394.724L1320.08 394.205L1321.73 390.85C1321.97 390.331 1322.53 390 1323.1 390C1323.66 390 1324.23 390.331 1324.46 390.85L1326.11 394.205L1329.84 394.724C1330.4 394.819 1330.87 395.197 1331.06 395.764C1331.25 396.331 1331.11 396.945 1330.68 397.323L1328 399.969L1328.61 403.654C1328.7 404.22 1328.47 404.835 1328 405.165C1327.72 405.354 1327.43 405.449 1327.1 405.449ZM1323.05 400.252C1323.29 400.252 1323.52 400.299 1323.76 400.441L1325.03 401.102L1324.79 399.685C1324.7 399.165 1324.89 398.693 1325.22 398.315L1326.25 397.323L1324.84 397.134C1324.32 397.039 1323.9 396.756 1323.71 396.283L1323.05 394.961L1322.39 396.283C1322.15 396.756 1321.73 397.039 1321.26 397.134L1319.85 397.323L1320.88 398.315C1321.26 398.646 1321.4 399.165 1321.31 399.685L1321.07 401.102L1322.34 400.441C1322.58 400.299 1322.81 400.252 1323.05 400.252Z" fill="url(#paint1_linear_402_1621)"/>
<path d="M1340.34 405.449C1340.01 405.449 1339.73 405.354 1339.45 405.165C1338.98 404.835 1338.74 404.22 1338.84 403.654L1339.45 399.969L1336.76 397.323C1336.34 396.898 1336.2 396.283 1336.39 395.764C1336.57 395.197 1337.05 394.819 1337.61 394.724L1341.33 394.205L1342.98 390.85C1343.22 390.331 1343.78 390 1344.35 390C1344.92 390 1345.48 390.331 1345.72 390.85L1347.37 394.205L1351.09 394.724C1351.65 394.819 1352.13 395.197 1352.31 395.764C1352.5 396.331 1352.36 396.945 1351.94 397.323L1349.25 399.969L1349.86 403.654C1349.96 404.22 1349.72 404.835 1349.25 405.165C1348.78 405.496 1348.17 405.543 1347.65 405.26L1344.35 403.512L1341.05 405.26C1340.82 405.402 1340.58 405.449 1340.34 405.449ZM1341.15 397.323L1342.18 398.315C1342.56 398.646 1342.7 399.165 1342.61 399.685L1342.37 401.102L1343.64 400.441C1344.07 400.205 1344.63 400.205 1345.06 400.441L1346.33 401.102L1346.09 399.685C1346 399.165 1346.19 398.693 1346.52 398.315L1347.55 397.323L1346.14 397.134C1345.62 397.039 1345.2 396.756 1345.01 396.283L1344.35 394.961L1343.69 396.283C1343.45 396.756 1343.03 397.039 1342.56 397.134L1341.15 397.323Z" fill="url(#paint2_linear_402_1621)"/>
<path d="M1351.89 456.331V464.882H1338.98V455.197C1338.98 454.346 1338.27 453.685 1337.47 453.685H1329.46C1328.61 453.685 1327.95 454.394 1327.95 455.197V464.882H1294.3V422.74L1351.94 411.732V452.646H1355V409.89C1355 409.417 1354.81 408.992 1354.43 408.709C1354.1 408.425 1353.63 408.283 1353.16 408.378L1292.47 420C1291.76 420.142 1291.24 420.756 1291.24 421.512V466.488C1291.24 467.339 1291.95 468 1292.75 468H1329.46C1330.31 468 1330.97 467.291 1330.97 466.488V456.803H1335.91V466.488C1335.91 467.339 1336.62 468 1337.42 468H1353.4C1354.25 468 1354.91 467.291 1354.91 466.488V456.425H1351.89V456.331Z" fill="url(#paint3_linear_402_1621)"/>
<path d="M1311.98 435.024H1303.96C1303.12 435.024 1302.46 434.315 1302.46 433.512V429.496C1302.46 426.425 1304.95 423.969 1307.97 423.969C1310.99 423.969 1313.53 426.472 1313.53 429.496V433.512C1313.48 434.315 1312.82 435.024 1311.98 435.024ZM1305.47 431.953H1310.42V429.496C1310.42 428.126 1309.29 427.039 1307.97 427.039C1306.65 427.039 1305.52 428.173 1305.52 429.496V431.953H1305.47Z" fill="url(#paint4_linear_402_1621)"/>
<path d="M1327.06 435.024H1319.04C1318.2 435.024 1317.54 434.315 1317.54 433.512V429.496C1317.54 426.425 1320.03 423.969 1323.05 423.969C1326.07 423.969 1328.56 426.472 1328.56 429.496V433.512C1328.56 434.315 1327.9 435.024 1327.06 435.024ZM1320.55 431.953H1325.5V429.496C1325.5 428.126 1324.37 427.039 1323.05 427.039C1321.73 427.039 1320.6 428.173 1320.6 429.496V431.953H1320.55Z" fill="url(#paint5_linear_402_1621)"/>
<path d="M1342.14 435.024H1334.12C1333.28 435.024 1332.62 434.315 1332.62 433.512V429.496C1332.62 426.425 1335.11 423.969 1338.13 423.969C1341.15 423.969 1343.69 426.472 1343.69 429.496V433.512C1343.69 434.315 1342.98 435.024 1342.14 435.024ZM1335.68 431.953H1340.63V429.496C1340.63 428.126 1339.5 427.039 1338.18 427.039C1336.86 427.039 1335.73 428.173 1335.73 429.496V431.953H1335.68Z" fill="url(#paint6_linear_402_1621)"/>
<path d="M1307.97 438.425C1304.91 438.425 1302.46 440.929 1302.46 443.953V447.968C1302.46 448.819 1303.16 449.48 1303.96 449.48H1305.47V444.614C1305.47 444.472 1305.47 444.331 1305.52 444.189V443.905C1305.52 442.535 1306.65 441.449 1307.97 441.449C1309.29 441.449 1310.42 442.583 1310.42 443.905V446.362H1308.21V449.433H1311.93C1312.78 449.433 1313.44 448.724 1313.44 447.921V443.905C1313.48 440.882 1310.99 438.425 1307.97 438.425Z" fill="url(#paint7_linear_402_1621)"/>
<path d="M1327.06 449.528H1319.04C1318.2 449.528 1317.54 448.819 1317.54 448.016V444C1317.54 440.929 1320.03 438.472 1323.05 438.472C1326.07 438.472 1328.56 440.976 1328.56 444V448.016C1328.56 448.819 1327.9 449.528 1327.06 449.528ZM1320.55 446.457H1325.5V444C1325.5 442.63 1324.37 441.543 1323.05 441.543C1321.73 441.543 1320.6 442.677 1320.6 444V446.457H1320.55Z" fill="url(#paint8_linear_402_1621)"/>
<path d="M1342.14 449.528H1334.12C1333.28 449.528 1332.62 448.819 1332.62 448.016V444C1332.62 440.929 1335.11 438.472 1338.13 438.472C1341.15 438.472 1343.69 440.976 1343.69 444V448.016C1343.69 448.819 1342.98 449.528 1342.14 449.528ZM1335.68 446.457H1340.63V444C1340.63 442.63 1339.5 441.543 1338.18 441.543C1336.86 441.543 1335.73 442.677 1335.73 444V446.457H1335.68Z" fill="url(#paint9_linear_402_1621)"/>
</g>
<g clip-path="url(#clip1_402_1621)">
<path d="M687.426 26.518C685.253 26.518 683.133 26.783 681.013 27.313L640.202 37.9133C639.884 38.0193 639.513 38.0193 639.195 38.0193C638.029 38.0193 636.916 37.5423 636.174 36.6413L629.76 29.1151C629.601 28.9561 629.389 28.8501 629.177 28.8501C629.071 28.8501 629.018 28.8501 628.912 28.9031L624.036 30.5991C623.665 30.7051 623.453 31.1291 623.559 31.5001L627.11 44.5915C627.905 47.4536 630.184 49.6796 633.047 50.3157L644.972 53.0717C645.29 53.1247 645.555 53.1777 645.873 53.1777C646.191 53.1777 646.509 53.1247 646.827 53.0717L701.471 39.4504C703.75 38.8673 705.341 36.8533 705.341 34.5212C705.341 32.1892 703.909 30.3341 701.736 29.6451L694.846 27.525C692.461 26.889 689.97 26.518 687.426 26.518Z" fill="#8DEED8"/>
<path d="M705.659 34.4153L698.768 32.2952C693.945 30.8112 688.804 30.7052 683.928 31.9772L643.117 42.5775C642.269 42.7895 641.421 42.5245 640.838 41.8355L634.425 34.3093C633.736 33.5142 632.675 33.2492 631.721 33.5672L626.845 35.2633C625.626 35.6873 624.937 37.0123 625.255 38.2314L628.806 51.3227C629.76 54.8208 632.516 57.4709 636.015 58.3189L647.94 61.075C648.364 61.181 648.788 61.234 649.212 61.234C649.689 61.234 650.113 61.181 650.59 61.075L693.892 50.2627V46.7116L649.795 57.7359C649.477 57.8419 649.106 57.8419 648.735 57.7359L636.81 54.9798C634.531 54.4498 632.728 52.7008 632.145 50.4747L628.859 38.2314L632.251 37.0123L638.188 44.0615C639.566 45.7046 641.845 46.4466 643.965 45.8636L684.776 35.2633C689.016 34.1503 693.521 34.2563 697.708 35.5283L704.598 37.6484C706.03 38.0724 706.984 39.3444 706.984 40.8284C706.984 42.3125 705.924 43.6905 704.439 44.0615L698.132 45.6516V49.2027L705.287 47.4006C708.309 46.6586 710.429 43.9555 710.429 40.8284C710.482 37.8604 708.521 35.2633 705.659 34.4153Z" fill="url(#paint10_linear_402_1621)"/>
<path d="M659.971 41.6764C659.547 41.6764 659.123 41.5174 658.805 41.1994L644.813 27.8961C644.389 27.4721 644.177 26.889 644.336 26.253C644.442 25.67 644.919 25.193 645.449 24.981L655.042 21.8009C655.466 21.6419 655.943 21.6949 656.314 21.8539L678.999 32.5072C679.847 32.9312 680.218 33.9382 679.847 34.7863C679.423 35.6343 678.416 36.0053 677.568 35.6343L655.466 25.299L649.265 27.3661L661.19 38.7084C661.879 39.3444 661.932 40.4574 661.243 41.1464C660.872 41.5174 660.448 41.6764 659.971 41.6764Z" fill="url(#paint11_linear_402_1621)"/>
<path d="M657.321 76.6044C656.844 76.6044 656.367 76.3924 656.049 76.0214C655.625 75.5444 655.519 74.9613 655.678 74.3783L661.508 55.9338C661.773 55.0328 662.78 54.5028 663.681 54.8208C664.582 55.1388 665.112 56.0928 664.794 56.9938L659.865 72.6823L666.278 71.4632L680.589 51.6937C681.172 50.8987 682.232 50.7397 682.974 51.3227C683.769 51.9057 683.928 52.9657 683.345 53.7078L668.663 74.0073C668.398 74.3783 668.027 74.5903 667.603 74.6963L657.692 76.5514C657.533 76.6044 657.427 76.6044 657.321 76.6044Z" fill="url(#paint12_linear_402_1621)"/>
<path d="M649.318 18.4618H631.456C627.852 18.4618 624.937 15.5467 624.937 11.9426C624.937 8.81554 627.11 6.21847 630.025 5.58245C630.926 2.56137 633.682 0.388306 636.969 0.388306C639.619 0.388306 642.004 1.81934 643.276 4.04541C645.396 4.09841 647.304 5.21144 648.417 6.90748C648.682 6.85448 649 6.85448 649.265 6.85448C652.445 6.85448 655.042 9.45155 655.042 12.6316C655.148 15.8647 652.551 18.4618 649.318 18.4618ZM637.022 3.8334C635.061 3.8334 633.417 5.31744 633.205 7.27849C633.099 8.17952 632.357 8.86854 631.509 8.86854C629.813 8.86854 628.382 10.2466 628.382 11.9426C628.382 13.6387 629.76 15.0167 631.456 15.0167H649.318C650.59 15.0167 651.65 13.9567 651.65 12.6846C651.65 11.4126 650.59 10.3526 649.318 10.3526C648.947 10.3526 648.629 10.4056 648.311 10.5646C647.834 10.7766 647.357 10.7766 646.88 10.6176C646.403 10.4056 646.085 10.0346 645.926 9.55756C645.555 8.33852 644.442 7.5435 643.17 7.5435C642.958 7.5435 642.799 7.5435 642.587 7.5965C641.739 7.75551 640.891 7.27849 640.626 6.48347C640.149 4.89343 638.665 3.8334 637.022 3.8334Z" fill="url(#paint13_linear_402_1621)"/>
<path d="M704.599 72.7353C704.174 72.7353 703.75 72.7883 703.326 72.8413C702.001 70.6152 699.563 69.1842 696.86 69.1842H696.807C695.323 66.3751 692.408 64.5731 689.122 64.5731C685.094 64.5731 681.702 67.2761 680.748 71.0392C677.144 71.7283 674.441 74.8553 674.441 78.6714C674.441 82.8056 677.727 86.1977 681.808 86.4097V82.9646C679.582 82.7526 677.886 80.8975 677.886 78.6714C677.886 76.2864 679.794 74.3783 682.232 74.3783C683.133 74.3783 683.875 73.6893 683.928 72.7883C684.193 70.0852 686.419 68.0182 689.122 68.0182C691.348 68.0182 693.362 69.4492 694.104 71.5693C694.369 72.3643 695.217 72.8943 696.065 72.6823C696.33 72.6293 696.595 72.6293 696.86 72.6293C698.662 72.6293 700.199 73.7953 700.729 75.4914C700.888 75.9684 701.206 76.3394 701.683 76.5514C702.16 76.7634 702.69 76.7634 703.114 76.4984C703.591 76.2864 704.068 76.1804 704.599 76.1804C706.454 76.1804 707.991 77.7174 707.991 79.5725C707.991 81.4275 706.454 82.9646 704.599 82.9646H685.995V86.4097H704.599C708.362 86.4097 711.436 83.3356 711.436 79.5725C711.436 75.8094 708.362 72.7353 704.599 72.7353Z" fill="url(#paint14_linear_402_1621)"/>
<path d="M685.942 21.0059C682.285 21.0059 679.317 18.0378 679.317 14.3807C679.317 10.7236 682.285 7.75549 685.942 7.75549C689.599 7.75549 692.567 10.7236 692.567 14.3807C692.567 18.0378 689.599 21.0059 685.942 21.0059ZM685.942 11.1476C684.193 11.1476 682.762 12.5786 682.762 14.3277C682.762 16.0767 684.193 17.5078 685.942 17.5078C687.691 17.5078 689.122 16.0767 689.122 14.3277C689.122 12.5786 687.691 11.1476 685.942 11.1476Z" fill="url(#paint15_linear_402_1621)"/>
<path d="M652.657 50.4217C653.74 50.4217 654.618 49.5437 654.618 48.4606C654.618 47.3776 653.74 46.4996 652.657 46.4996C651.574 46.4996 650.696 47.3776 650.696 48.4606C650.696 49.5437 651.574 50.4217 652.657 50.4217Z" fill="url(#paint16_linear_402_1621)"/>
<path d="M660.448 48.4606C661.531 48.4606 662.409 47.5826 662.409 46.4996C662.409 45.4165 661.531 44.5385 660.448 44.5385C659.365 44.5385 658.487 45.4165 658.487 46.4996C658.487 47.5826 659.365 48.4606 660.448 48.4606Z" fill="url(#paint17_linear_402_1621)"/>
<path d="M668.239 46.4996C669.323 46.4996 670.201 45.6216 670.201 44.5385C670.201 43.4554 669.323 42.5775 668.239 42.5775C667.156 42.5775 666.278 43.4554 666.278 44.5385C666.278 45.6216 667.156 46.4996 668.239 46.4996Z" fill="url(#paint18_linear_402_1621)"/>
<path d="M675.554 44.5385C676.637 44.5385 677.515 43.6605 677.515 42.5774C677.515 41.4944 676.637 40.6164 675.554 40.6164C674.471 40.6164 673.593 41.4944 673.593 42.5774C673.593 43.6605 674.471 44.5385 675.554 44.5385Z" fill="url(#paint19_linear_402_1621)"/>
<path d="M690.712 40.9874C691.795 40.9874 692.673 40.1094 692.673 39.0264C692.673 37.9433 691.795 37.0653 690.712 37.0653C689.629 37.0653 688.751 37.9433 688.751 39.0264C688.751 40.1094 689.629 40.9874 690.712 40.9874Z" fill="url(#paint20_linear_402_1621)"/>
</g>
<path d="M485.471 171C484.814 171 484.157 171 483.5 171L483.584 163.709C486.003 163.741 488.454 163.709 490.853 163.637C491.927 163.605 493.001 163.553 494.076 163.491L494.493 170.771C493.356 170.833 492.219 170.885 491.082 170.917C489.236 170.979 487.349 171 485.471 171ZM474.761 170.698C471.225 170.5 467.564 170.208 463.883 169.823L464.644 162.574C468.211 162.949 471.746 163.23 475.167 163.428L474.761 170.708V170.698ZM503.295 169.969L502.398 162.73C505.881 162.303 509.334 161.72 512.671 161.002L514.204 168.125C510.658 168.886 506.987 169.5 503.295 169.958V169.969ZM455.227 168.761C451.764 168.282 448.155 167.709 444.495 167.063L445.767 159.887C449.344 160.522 452.87 161.074 456.238 161.543L455.227 168.761ZM522.798 165.949L520.733 158.96C524.091 157.971 527.376 156.815 530.494 155.523L533.279 162.262C529.921 163.647 526.396 164.886 522.798 165.949ZM435.964 165.438C432.585 164.761 429.028 164.001 425.378 163.168L426.984 156.054C430.582 156.867 434.086 157.617 437.403 158.283L435.964 165.428V165.438ZM416.951 161.21C413.457 160.366 409.964 159.491 406.48 158.606L408.284 151.545C411.736 152.42 415.199 153.284 418.672 154.117L416.962 161.199L416.951 161.21ZM541.362 158.492L537.962 152.034C541.038 150.42 543.99 148.628 546.743 146.712L550.925 152.69C547.922 154.784 544.71 156.742 541.362 158.492ZM398.147 156.471C395.707 155.836 393.266 155.2 390.836 154.565L387.739 153.753L389.585 146.702L392.682 147.514C395.112 148.149 397.542 148.785 399.983 149.42L398.147 156.481V156.471ZM604.052 154.898C601.747 154.898 599.421 154.825 597.148 154.7L597.575 147.42C600.986 147.618 604.5 147.66 607.973 147.545L608.224 154.836C606.837 154.888 605.439 154.909 604.052 154.909V154.898ZM617.057 154.201L616.286 146.952C619.717 146.587 623.19 146.066 626.59 145.4L627.987 152.555C624.379 153.263 620.697 153.815 617.057 154.201ZM588.293 153.815C584.57 153.294 580.889 152.576 577.353 151.67L579.157 144.608C582.432 145.441 585.843 146.108 589.305 146.598L588.293 153.815ZM379.437 151.607C375.964 150.722 372.502 149.847 369.05 149.003L370.781 141.921C374.254 142.765 377.748 143.65 381.241 144.546L379.427 151.607H379.437ZM636.602 150.566L634.714 143.525C636.018 143.181 637.311 142.806 638.594 142.421C640.617 141.807 642.682 141.14 644.716 140.432L647.104 147.316C644.976 148.056 642.817 148.753 640.711 149.399C639.345 149.816 637.968 150.212 636.602 150.576V150.566ZM568.812 149.066C565.777 147.983 562.825 146.733 560.009 145.348C559.352 145.962 558.695 146.566 558.017 147.16L553.199 141.682C554.753 140.317 556.244 138.89 557.652 137.422C558.57 136.474 559.457 135.464 560.312 134.443L565.923 139.109C565.724 139.338 565.526 139.578 565.328 139.807C567.258 140.682 569.25 141.484 571.273 142.213L568.801 149.076L568.812 149.066ZM360.727 146.993C357.254 146.15 353.771 145.306 350.298 144.452L352.029 137.37C355.502 138.213 358.975 139.067 362.448 139.901L360.727 146.983V146.993ZM655.322 144.254L652.611 137.484C655.771 136.224 659.025 134.818 662.299 133.308L665.355 139.932C661.976 141.494 658.597 142.942 655.322 144.254ZM341.944 142.421L331.515 139.859L333.256 132.777L343.675 135.339L341.934 142.421H341.944ZM550.769 140.036C547.63 137.932 544.647 135.589 541.904 133.068L546.847 127.705C549.309 129.965 552 132.079 554.836 133.985L550.769 140.036ZM323.182 137.807L312.752 135.245L314.494 128.163L324.923 130.725L323.182 137.807ZM673.198 136.141L669.902 129.631C672.927 128.1 676.076 126.434 679.278 124.674L682.803 131.058C679.529 132.86 676.295 134.568 673.198 136.141ZM304.409 133.204C300.936 132.35 297.463 131.506 293.98 130.663L295.701 123.58C299.184 124.424 302.657 125.278 306.14 126.122L304.399 133.204H304.409ZM571.242 131.777L565.067 127.882C566.861 125.038 568.447 122.018 569.781 118.904L576.498 121.768C575.017 125.236 573.244 128.6 571.242 131.777ZM285.636 128.642C282.163 127.798 278.68 126.965 275.207 126.132L276.907 119.039C280.391 119.873 283.874 120.706 287.357 121.549L285.636 128.632V128.642ZM690.344 126.778L686.662 120.477C689.572 118.779 692.565 116.988 695.819 115.009L699.626 121.226C696.33 123.237 693.295 125.049 690.344 126.767V126.778ZM535.646 126.538C533.237 123.684 531.026 120.591 529.076 117.352L535.334 113.592C537.086 116.498 539.067 119.279 541.237 121.841L535.646 126.538ZM266.853 124.153C263.37 123.33 259.897 122.518 256.414 121.706L258.072 114.603C261.566 115.415 265.049 116.238 268.543 117.06L266.864 124.153H266.853ZM248.049 119.768C244.566 118.966 241.083 118.175 237.589 117.394L239.195 110.28C242.699 111.072 246.193 111.863 249.687 112.665L248.049 119.768ZM706.978 116.696L703.099 110.52C706.123 108.624 709.148 106.718 712.162 104.802L716.073 110.957C713.038 112.874 710.013 114.79 706.968 116.696H706.978ZM229.225 115.529C225.731 114.759 222.237 113.998 218.743 113.249L220.276 106.125C223.781 106.875 227.285 107.645 230.789 108.416L229.214 115.54L229.225 115.529ZM579.512 113.238L572.483 111.259C573.411 107.979 574.057 104.646 574.412 101.344L581.671 102.115C581.274 105.823 580.544 109.562 579.512 113.238ZM210.348 111.468C206.854 110.728 203.35 110.009 199.845 109.301L201.305 102.157C204.82 102.875 208.335 103.594 211.849 104.333L210.348 111.468ZM524.904 109.364C523.403 106.021 522.099 102.479 521.046 98.8341L528.054 96.7928C529.024 100.115 530.202 103.344 531.569 106.375L524.904 109.353V109.364ZM191.439 107.624C187.935 106.937 184.431 106.26 180.916 105.593L182.272 98.4279C185.797 99.0945 189.322 99.7819 192.847 100.469L191.429 107.624H191.439ZM723.321 106.364L719.42 100.209C722.455 98.2926 725.501 96.3762 728.546 94.4911L732.394 100.688C729.359 102.563 726.345 104.469 723.321 106.375V106.364ZM172.489 104.021C168.975 103.375 165.46 102.75 161.945 102.146L163.197 94.9597C166.732 95.5742 170.268 96.2095 173.804 96.8553L172.489 104.021ZM153.498 100.709C149.973 100.126 146.448 99.5528 142.923 99.0008L144.059 91.7936C147.605 92.3456 151.151 92.9184 154.697 93.512L153.498 100.698V100.709ZM134.454 97.7197C130.918 97.199 127.393 96.6886 123.858 96.2095L124.849 88.9815C128.405 89.471 131.972 89.9813 135.528 90.5021L134.454 97.7093V97.7197ZM739.684 96.2304L735.92 89.9918C739.215 88.0129 742.26 86.2215 745.254 84.5134L748.873 90.8458C745.932 92.5226 742.928 94.2828 739.684 96.2304ZM115.379 95.0847C111.843 94.6369 108.297 94.1994 104.751 93.7933L105.596 86.5548C109.163 86.9714 112.74 87.4088 116.307 87.8567L115.379 95.0847ZM574.694 93.3246C574.558 89.9397 574.089 86.6173 573.307 83.4511L580.398 81.7014C581.295 85.3466 581.838 89.1586 581.984 93.0329L574.694 93.3246ZM96.2516 92.8351C92.7056 92.4601 89.1597 92.106 85.6033 91.7727L86.2812 84.5134C89.8585 84.8467 93.4461 85.2008 97.0129 85.5862L96.2412 92.8351H96.2516ZM77.0826 91.0333C73.5471 90.7416 69.9594 90.4708 66.4239 90.2313L66.9245 82.9616C70.5018 83.2116 74.1207 83.4824 77.6875 83.774L77.093 91.0437L77.0826 91.0333ZM519.001 90.0542C518.553 87.2422 518.323 84.378 518.323 81.5452C518.323 80.5453 518.355 79.5455 518.407 78.5664L525.697 78.9935C525.645 79.8267 525.624 80.6911 525.624 81.5452C525.624 83.9927 525.822 86.4611 526.218 88.8982L519.012 90.0542H519.001ZM57.8824 89.7001C54.2738 89.5023 50.6862 89.3252 47.2132 89.1794L47.5157 81.8993C51.0303 82.0451 54.6597 82.2221 58.2995 82.4304L57.8928 89.7106L57.8824 89.7001ZM38.6717 88.8773C35.1153 88.7732 31.5172 88.7003 27.9921 88.6586L28.086 81.3681C31.6528 81.4098 35.2822 81.4931 38.8803 81.5972L38.6717 88.8878V88.8773ZM8.771 88.7003L8.64585 81.4098C12.2127 81.3473 15.8525 81.316 19.4505 81.316V88.6066C15.8942 88.6066 12.2961 88.6378 8.771 88.7003ZM756.309 86.7318L752.846 80.3162C756.142 78.5456 759.396 76.8792 762.525 75.3482L765.726 81.8993C762.681 83.3782 759.51 85.0134 756.298 86.7318H756.309ZM1119.11 82.4721C1115.87 81.0765 1112.56 79.7017 1109.28 78.379L1112.01 71.6196C1115.35 72.9632 1118.7 74.3692 1122 75.7752L1119.11 82.4721ZM773.413 78.3061L770.409 71.6613C773.684 70.1823 777.032 68.7346 780.359 67.339L783.174 74.0672C779.91 75.4315 776.635 76.848 773.423 78.3061H773.413ZM570.741 75.9523C570.084 74.4629 569.333 73.0048 568.509 71.5988C567.706 70.224 566.767 68.8805 565.725 67.5994L571.398 63.0064C572.67 64.5686 573.818 66.2246 574.808 67.9014C575.799 69.5783 576.654 71.2447 577.416 72.984L570.741 75.9419V75.9523ZM1101.34 75.2649C1098.04 74.0047 1094.68 72.7549 1091.34 71.5675L1093.8 64.704C1097.19 65.9122 1100.6 67.1724 1103.95 68.4534L1101.34 75.2649ZM526.938 71.3176L519.898 69.37C521.056 65.2039 522.819 61.5587 525.134 58.5175L530.943 62.9335C529.191 65.2248 527.845 68.0473 526.938 71.3072V71.3176ZM791.059 70.8906L788.399 64.1C791.747 62.7877 795.168 61.517 798.558 60.2985L801.019 67.162C797.692 68.3493 794.344 69.6095 791.059 70.8906ZM1083.3 68.7763C1079.96 67.6515 1076.55 66.5475 1073.16 65.4852L1075.34 58.5279C1078.78 59.6006 1082.24 60.7255 1085.63 61.8711L1083.3 68.7763ZM809.06 64.3916L806.755 57.476C810.186 56.3407 813.659 55.2367 817.09 54.2057L819.197 61.1837C815.839 62.194 812.418 63.2772 809.06 64.402V64.3916ZM1065 63.0168C1061.65 62.0378 1058.19 61.0588 1054.74 60.1318L1056.64 53.0912C1060.14 54.039 1063.65 55.018 1067.06 56.0179L1065 63.0168ZM560.207 62.1732C557.569 60.1006 554.774 58.5279 551.895 57.4864L554.378 50.6333C557.986 51.9352 561.459 53.8932 564.702 56.4345L560.197 62.1732H560.207ZM827.384 58.8091L825.434 51.7894C828.896 50.8312 832.421 49.9042 835.915 49.0398L837.678 56.1116C834.246 56.9656 830.784 57.8718 827.384 58.8091ZM536.251 58.2884L532.653 51.9456C533.07 51.706 533.509 51.4769 533.947 51.2686C537.232 49.6647 540.799 48.8419 544.543 48.8419H544.793L544.678 56.1324H544.553C541.935 56.1324 539.443 56.6949 537.159 57.8093C536.846 57.9655 536.543 58.1217 536.251 58.2884ZM1046.49 57.9967C1043.06 57.1427 1039.57 56.3095 1036.13 55.5388L1037.73 48.4253C1041.24 49.2168 1044.77 50.0605 1048.27 50.9249L1046.49 57.9967ZM845.959 54.1432L844.352 47.0297C847.857 46.2381 851.434 45.4883 854.959 44.7905L856.367 51.9456C852.904 52.633 849.4 53.362 845.959 54.1432ZM1027.78 53.737C1024.31 53.0183 1020.78 52.3309 1017.32 51.6956L1018.64 44.5301C1022.16 45.1758 1025.73 45.8736 1029.26 46.6027L1027.78 53.7474V53.737ZM864.742 50.3937L863.48 43.2178C867.015 42.6033 870.624 42.0201 874.18 41.4993L875.244 48.7169C871.75 49.2273 868.215 49.8001 864.731 50.4042L864.742 50.3937ZM1008.93 50.2375C1005.45 49.6647 1001.91 49.1335 998.393 48.6336L999.415 41.416C1002.99 41.9159 1006.59 42.4679 1010.12 43.0407L1008.94 50.2375H1008.93ZM883.692 47.5504L882.774 40.312C886.341 39.8641 889.96 39.458 893.537 39.0934L894.267 46.3423C890.752 46.6964 887.196 47.0922 883.692 47.54V47.5504ZM989.945 47.54C986.42 47.113 982.863 46.7277 979.349 46.384L980.058 39.1247C983.625 39.4684 987.244 39.8641 990.821 40.3016L989.945 47.54ZM970.859 45.6341C967.345 45.3633 963.767 45.1237 960.232 44.9258L960.628 37.6457C964.226 37.8436 967.866 38.0832 971.433 38.3644L970.859 45.6341ZM902.756 45.6028L902.183 38.3331C905.75 38.0519 909.389 37.8124 912.987 37.6145L913.384 44.8946C909.838 45.0821 906.26 45.3216 902.756 45.6028ZM951.711 44.5509C948.165 44.4259 944.578 44.3426 941.063 44.3114L941.146 37.0208C944.724 37.0625 948.363 37.1458 951.972 37.2708L951.722 44.5613L951.711 44.5509ZM921.894 44.5197L921.654 37.2291C925.263 37.1042 928.902 37.0312 932.48 37L932.542 44.2905C929.017 44.3218 925.44 44.3947 921.894 44.5197Z" fill="url(#paint21_linear_402_1621)"/>
<path d="M1305 274C1292.5 231.077 1268.73 192.117 1234.36 158.197C1203.61 127.842 1164.06 101.743 1120 82.7234L1122.89 76C1167.76 95.3755 1208.09 121.997 1239.48 152.979C1274.74 187.788 1299.15 227.815 1312 271.951L1305 274Z" fill="url(#paint22_linear_402_1621)"/>
<path d="M1321.41 364.345L1314.19 363.876C1314.42 360.356 1314.57 356.793 1314.67 353.294L1321.9 353.492C1321.8 357.085 1321.64 360.741 1321.41 364.345ZM1314.77 344.826C1314.77 344.18 1314.77 343.534 1314.76 342.889C1314.73 340.024 1314.65 337.108 1314.53 334.244L1321.75 333.931C1321.88 336.868 1321.96 339.858 1321.99 342.805C1321.99 343.472 1322 344.139 1322 344.795L1314.77 344.816V344.826ZM1314.04 325.797C1313.78 322.287 1313.45 318.735 1313.05 315.267L1320.24 314.444C1320.65 318.016 1320.99 321.662 1321.26 325.266L1314.05 325.807L1314.04 325.797ZM1311.97 306.872C1311.46 303.393 1310.88 299.893 1310.22 296.446L1317.33 295.081C1318 298.623 1318.6 302.237 1319.13 305.809L1311.97 306.872ZM1308.52 288.165C1307.76 284.739 1306.91 281.291 1306 277.906L1312.98 276C1313.92 279.479 1314.79 283.041 1315.58 286.561L1308.52 288.165Z" fill="url(#paint23_linear_402_1621)"/>
<g clip-path="url(#clip2_402_1621)">
<path d="M162.737 122.151H100.208C97.9898 122.151 96.2048 123.917 96.2048 126.111V162.868C96.2048 165.062 97.9898 166.828 100.208 166.828H162.737C164.954 166.828 166.739 165.062 166.739 162.868V126.111C166.739 123.971 164.954 122.151 162.737 122.151Z" fill="#8DEED8"/>
<path d="M178.639 146.603V177.689C178.639 178.92 177.612 179.936 176.368 179.936H107.51C106.266 179.936 105.238 178.92 105.238 177.689V136.972C105.238 135.742 106.266 134.725 107.51 134.725H176.368C177.612 134.725 178.639 135.742 178.639 136.972V142.376H182.155V136.972C182.155 133.815 179.559 131.247 176.368 131.247H107.51C104.318 131.247 101.722 133.815 101.722 136.972V177.689C101.722 180.846 104.318 183.414 107.51 183.414H176.368C179.559 183.414 182.155 180.846 182.155 177.689V146.603H178.639Z" fill="url(#paint24_linear_402_1621)"/>
<path d="M120.005 138.203V127.769C120.005 126.806 119.193 126.057 118.274 126.057C117.354 126.057 116.543 126.86 116.543 127.769V138.203H120.005Z" fill="url(#paint25_linear_402_1621)"/>
<path d="M132.716 138.203V127.769C132.716 126.806 131.905 126.057 130.985 126.057C130.066 126.057 129.254 126.86 129.254 127.769V138.203H132.716Z" fill="url(#paint26_linear_402_1621)"/>
<path d="M144.887 138.203V127.769C144.887 126.806 144.075 126.057 143.156 126.057C142.236 126.057 141.425 126.86 141.425 127.769V138.203H144.887Z" fill="url(#paint27_linear_402_1621)"/>
<path d="M156.462 138.203V127.769C156.462 126.806 155.651 126.057 154.731 126.057C153.812 126.057 153 126.86 153 127.769V138.203H156.462Z" fill="url(#paint28_linear_402_1621)"/>
<path d="M167.443 138.203V127.769C167.443 126.806 166.631 126.057 165.712 126.057C164.792 126.057 163.981 126.86 163.981 127.769V138.203H167.443Z" fill="url(#paint29_linear_402_1621)"/>
<path d="M134.609 159.337C131.526 159.337 129.038 156.876 129.038 153.826C129.038 150.776 131.526 148.315 134.609 148.315C137.693 148.315 140.181 150.776 140.181 153.826C140.181 156.876 137.638 159.337 134.609 159.337ZM134.609 151.846C133.473 151.846 132.554 152.756 132.554 153.88C132.554 155.003 133.473 155.913 134.609 155.913C135.745 155.913 136.665 155.003 136.665 153.88C136.611 152.756 135.745 151.846 134.609 151.846Z" fill="url(#paint30_linear_402_1621)"/>
<path d="M149.322 159.337C146.239 159.337 143.751 156.876 143.751 153.826C143.751 150.776 146.239 148.315 149.322 148.315C152.405 148.315 154.894 150.776 154.894 153.826C154.894 156.876 152.405 159.337 149.322 159.337ZM149.322 151.846C148.186 151.846 147.267 152.756 147.267 153.88C147.267 155.003 148.186 155.913 149.322 155.913C150.458 155.913 151.378 155.003 151.378 153.88C151.378 152.756 150.458 151.846 149.322 151.846Z" fill="url(#paint31_linear_402_1621)"/>
<path d="M164.089 159.337C161.006 159.337 158.518 156.876 158.518 153.826C158.518 150.776 161.006 148.315 164.089 148.315C167.172 148.315 169.66 150.776 169.66 153.826C169.66 156.876 167.118 159.337 164.089 159.337ZM164.089 151.846C162.953 151.846 162.033 152.756 162.033 153.88C162.033 155.003 162.953 155.913 164.089 155.913C165.225 155.913 166.144 155.003 166.144 153.88C166.09 152.756 165.171 151.846 164.089 151.846Z" fill="url(#paint32_linear_402_1621)"/>
<path d="M119.897 173.088C116.814 173.088 114.325 170.627 114.325 167.577C114.325 164.527 116.814 162.066 119.897 162.066C122.98 162.066 125.468 164.527 125.468 167.577C125.468 170.627 122.926 173.088 119.897 173.088ZM119.897 165.597C118.761 165.597 117.841 166.507 117.841 167.63C117.841 168.754 118.761 169.663 119.897 169.663C121.033 169.663 121.952 168.754 121.952 167.63C121.898 166.507 120.979 165.597 119.897 165.597Z" fill="url(#paint33_linear_402_1621)"/>
<path d="M134.609 173.088C131.526 173.088 129.038 170.627 129.038 167.577C129.038 164.527 131.526 162.066 134.609 162.066C137.693 162.066 140.181 164.527 140.181 167.577C140.181 170.627 137.638 173.088 134.609 173.088ZM134.609 165.597C133.473 165.597 132.554 166.507 132.554 167.63C132.554 168.754 133.473 169.663 134.609 169.663C135.745 169.663 136.665 168.754 136.665 167.63C136.611 166.507 135.745 165.597 134.609 165.597Z" fill="url(#paint34_linear_402_1621)"/>
<path d="M149.322 173.088C146.239 173.088 143.751 170.627 143.751 167.577C143.751 164.527 146.239 162.066 149.322 162.066C152.405 162.066 154.894 164.527 154.894 167.577C154.894 170.627 152.405 173.088 149.322 173.088ZM149.322 165.597C148.186 165.597 147.267 166.507 147.267 167.63C147.267 168.754 148.186 169.663 149.322 169.663C150.458 169.663 151.378 168.754 151.378 167.63C151.378 166.507 150.458 165.597 149.322 165.597Z" fill="url(#paint35_linear_402_1621)"/>
<path d="M164.089 173.088C161.006 173.088 158.518 170.627 158.518 167.577C158.518 164.527 161.006 162.066 164.089 162.066C167.172 162.066 169.66 164.527 169.66 167.577C169.66 170.627 167.118 173.088 164.089 173.088ZM164.089 165.597C162.953 165.597 162.033 166.507 162.033 167.63C162.033 168.754 162.953 169.663 164.089 169.663C165.225 169.663 166.144 168.754 166.144 167.63C166.09 166.507 165.171 165.597 164.089 165.597Z" fill="url(#paint36_linear_402_1621)"/>
<path d="M120.221 159.765L114.866 153.826L118.058 150.937L119.951 153.077L123.953 147.941L127.361 150.562L120.221 159.765Z" fill="url(#paint37_linear_402_1621)"/>
</g>
<ellipse cx="795" cy="65.5" rx="10" ry="10.5" fill="#FFBB21"/>
<circle cx="224" cy="112" r="10" fill="#FFBB21"/>
<ellipse cx="1318.5" cy="358" rx="10.5" ry="10" fill="#FFBB21"/>
<defs>
<linearGradient id="paint0_linear_402_1621" x1="1260.74" y1="450.123" x2="1338.02" y2="353.469" gradientUnits="userSpaceOnUse">
<stop stop-color="#D5D5D5"/>
<stop offset="0.1" stop-color="#7A7A7A"/>
<stop offset="0.11" stop-color="#7A7A7A"/>
<stop offset="0.23" stop-color="#545454"/>
<stop offset="0.36" stop-color="#363636"/>
<stop offset="0.5" stop-color="#1E1E1E"/>
<stop offset="0.64" stop-color="#0D0D0D"/>
<stop offset="0.8" stop-color="#030303"/>
<stop offset="1"/>
</linearGradient>
<linearGradient id="paint1_linear_402_1621" x1="1273.75" y1="460.531" x2="1351.03" y2="363.881" gradientUnits="userSpaceOnUse">
<stop stop-color="#D5D5D5"/>
<stop offset="0.1" stop-color="#7A7A7A"/>
<stop offset="0.11" stop-color="#7A7A7A"/>
<stop offset="0.23" stop-color="#545454"/>
<stop offset="0.36" stop-color="#363636"/>
<stop offset="0.5" stop-color="#1E1E1E"/>
<stop offset="0.64" stop-color="#0D0D0D"/>
<stop offset="0.8" stop-color="#030303"/>
<stop offset="1"/>
</linearGradient>
<linearGradient id="paint2_linear_402_1621" x1="1286.75" y1="470.92" x2="1364.02" y2="374.266" gradientUnits="userSpaceOnUse">
<stop stop-color="#D5D5D5"/>
<stop offset="0.1" stop-color="#7A7A7A"/>
<stop offset="0.11" stop-color="#7A7A7A"/>
<stop offset="0.23" stop-color="#545454"/>
<stop offset="0.36" stop-color="#363636"/>
<stop offset="0.5" stop-color="#1E1E1E"/>
<stop offset="0.64" stop-color="#0D0D0D"/>
<stop offset="0.8" stop-color="#030303"/>
<stop offset="1"/>
</linearGradient>
<linearGradient id="paint3_linear_402_1621" x1="1295.85" y1="478.2" x2="1373.13" y2="381.551" gradientUnits="userSpaceOnUse">
<stop stop-color="#D5D5D5"/>
<stop offset="0.1" stop-color="#7A7A7A"/>
<stop offset="0.11" stop-color="#7A7A7A"/>
<stop offset="0.23" stop-color="#545454"/>
<stop offset="0.36" stop-color="#363636"/>
<stop offset="0.5" stop-color="#1E1E1E"/>
<stop offset="0.64" stop-color="#0D0D0D"/>
<stop offset="0.8" stop-color="#030303"/>
<stop offset="1"/>
</linearGradient>
<linearGradient id="paint4_linear_402_1621" x1="1280.21" y1="465.694" x2="1357.49" y2="369.045" gradientUnits="userSpaceOnUse">
<stop stop-color="#D5D5D5"/>
<stop offset="0.1" stop-color="#7A7A7A"/>
<stop offset="0.11" stop-color="#7A7A7A"/>
<stop offset="0.23" stop-color="#545454"/>
<stop offset="0.36" stop-color="#363636"/>
<stop offset="0.5" stop-color="#1E1E1E"/>
<stop offset="0.64" stop-color="#0D0D0D"/>
<stop offset="0.8" stop-color="#030303"/>
<stop offset="1"/>
</linearGradient>
<linearGradient id="paint5_linear_402_1621" x1="1289.43" y1="473.065" x2="1366.71" y2="376.411" gradientUnits="userSpaceOnUse">
<stop stop-color="#D5D5D5"/>
<stop offset="0.1" stop-color="#7A7A7A"/>
<stop offset="0.11" stop-color="#7A7A7A"/>
<stop offset="0.23" stop-color="#545454"/>
<stop offset="0.36" stop-color="#363636"/>
<stop offset="0.5" stop-color="#1E1E1E"/>
<stop offset="0.64" stop-color="#0D0D0D"/>
<stop offset="0.8" stop-color="#030303"/>
<stop offset="1"/>
</linearGradient>
<linearGradient id="paint6_linear_402_1621" x1="1298.65" y1="480.439" x2="1375.93" y2="383.785" gradientUnits="userSpaceOnUse">
<stop stop-color="#D5D5D5"/>
<stop offset="0.1" stop-color="#7A7A7A"/>
<stop offset="0.11" stop-color="#7A7A7A"/>
<stop offset="0.23" stop-color="#545454"/>
<stop offset="0.36" stop-color="#363636"/>
<stop offset="0.5" stop-color="#1E1E1E"/>
<stop offset="0.64" stop-color="#0D0D0D"/>
<stop offset="0.8" stop-color="#030303"/>
<stop offset="1"/>
</linearGradient>
<linearGradient id="paint7_linear_402_1621" x1="1287.21" y1="471.293" x2="1364.5" y2="374.639" gradientUnits="userSpaceOnUse">
<stop stop-color="#D5D5D5"/>
<stop offset="0.1" stop-color="#7A7A7A"/>
<stop offset="0.11" stop-color="#7A7A7A"/>
<stop offset="0.23" stop-color="#545454"/>
<stop offset="0.36" stop-color="#363636"/>
<stop offset="0.5" stop-color="#1E1E1E"/>
<stop offset="0.64" stop-color="#0D0D0D"/>
<stop offset="0.8" stop-color="#030303"/>
<stop offset="1"/>
</linearGradient>
<linearGradient id="paint8_linear_402_1621" x1="1296.48" y1="478.701" x2="1373.76" y2="382.052" gradientUnits="userSpaceOnUse">
<stop stop-color="#D5D5D5"/>
<stop offset="0.1" stop-color="#7A7A7A"/>
<stop offset="0.11" stop-color="#7A7A7A"/>
<stop offset="0.23" stop-color="#545454"/>
<stop offset="0.36" stop-color="#363636"/>
<stop offset="0.5" stop-color="#1E1E1E"/>
<stop offset="0.64" stop-color="#0D0D0D"/>
<stop offset="0.8" stop-color="#030303"/>
<stop offset="1"/>
</linearGradient>
<linearGradient id="paint9_linear_402_1621" x1="1305.7" y1="486.08" x2="1382.99" y2="389.426" gradientUnits="userSpaceOnUse">
<stop stop-color="#D5D5D5"/>
<stop offset="0.1" stop-color="#7A7A7A"/>
<stop offset="0.11" stop-color="#7A7A7A"/>
<stop offset="0.23" stop-color="#545454"/>
<stop offset="0.36" stop-color="#363636"/>
<stop offset="0.5" stop-color="#1E1E1E"/>
<stop offset="0.64" stop-color="#0D0D0D"/>
<stop offset="0.8" stop-color="#030303"/>
<stop offset="1"/>
</linearGradient>
<linearGradient id="paint10_linear_402_1621" x1="640.032" y1="68.2832" x2="690.765" y2="16.8029" gradientUnits="userSpaceOnUse">
<stop stop-color="#D5D5D5"/>
<stop offset="0.1" stop-color="#7A7A7A"/>
<stop offset="0.11" stop-color="#7A7A7A"/>
<stop offset="0.23" stop-color="#545454"/>
<stop offset="0.36" stop-color="#363636"/>
<stop offset="0.5" stop-color="#1E1E1E"/>
<stop offset="0.64" stop-color="#0D0D0D"/>
<stop offset="0.8" stop-color="#030303"/>
<stop offset="1"/>
</linearGradient>
<linearGradient id="paint11_linear_402_1621" x1="632.283" y1="60.6457" x2="683.011" y2="9.16536" gradientUnits="userSpaceOnUse">
<stop stop-color="#D5D5D5"/>
<stop offset="0.1" stop-color="#7A7A7A"/>
<stop offset="0.11" stop-color="#7A7A7A"/>
<stop offset="0.23" stop-color="#545454"/>
<stop offset="0.36" stop-color="#363636"/>
<stop offset="0.5" stop-color="#1E1E1E"/>
<stop offset="0.64" stop-color="#0D0D0D"/>
<stop offset="0.8" stop-color="#030303"/>
<stop offset="1"/>
</linearGradient>
<linearGradient id="paint12_linear_402_1621" x1="651.025" y1="79.1167" x2="701.758" y2="27.6363" gradientUnits="userSpaceOnUse">
<stop stop-color="#D5D5D5"/>
<stop offset="0.1" stop-color="#7A7A7A"/>
<stop offset="0.11" stop-color="#7A7A7A"/>
<stop offset="0.23" stop-color="#545454"/>
<stop offset="0.36" stop-color="#363636"/>
<stop offset="0.5" stop-color="#1E1E1E"/>
<stop offset="0.64" stop-color="#0D0D0D"/>
<stop offset="0.8" stop-color="#030303"/>
<stop offset="1"/>
</linearGradient>
<linearGradient id="paint13_linear_402_1621" x1="611.968" y1="40.627" x2="662.701" y2="-10.8533" gradientUnits="userSpaceOnUse">
<stop stop-color="#D5D5D5"/>
<stop offset="0.1" stop-color="#7A7A7A"/>
<stop offset="0.11" stop-color="#7A7A7A"/>
<stop offset="0.23" stop-color="#545454"/>
<stop offset="0.36" stop-color="#363636"/>
<stop offset="0.5" stop-color="#1E1E1E"/>
<stop offset="0.64" stop-color="#0D0D0D"/>
<stop offset="0.8" stop-color="#030303"/>
<stop offset="1"/>
</linearGradient>
<linearGradient id="paint14_linear_402_1621" x1="672.188" y1="99.9727" x2="722.921" y2="48.4924" gradientUnits="userSpaceOnUse">
<stop stop-color="#D5D5D5"/>
<stop offset="0.1" stop-color="#7A7A7A"/>
<stop offset="0.11" stop-color="#7A7A7A"/>
<stop offset="0.23" stop-color="#545454"/>
<stop offset="0.36" stop-color="#363636"/>
<stop offset="0.5" stop-color="#1E1E1E"/>
<stop offset="0.64" stop-color="#0D0D0D"/>
<stop offset="0.8" stop-color="#030303"/>
<stop offset="1"/>
</linearGradient>
<linearGradient id="paint15_linear_402_1621" x1="636.37" y1="64.6738" x2="687.103" y2="13.1934" gradientUnits="userSpaceOnUse">
<stop stop-color="#D5D5D5"/>
<stop offset="0.1" stop-color="#7A7A7A"/>
<stop offset="0.11" stop-color="#7A7A7A"/>
<stop offset="0.23" stop-color="#545454"/>
<stop offset="0.36" stop-color="#363636"/>
<stop offset="0.5" stop-color="#1E1E1E"/>
<stop offset="0.64" stop-color="#0D0D0D"/>
<stop offset="0.8" stop-color="#030303"/>
<stop offset="1"/>
</linearGradient>
<linearGradient id="paint16_linear_402_1621" x1="636.529" y1="64.8275" x2="687.256" y2="13.3472" gradientUnits="userSpaceOnUse">
<stop stop-color="#D5D5D5"/>
<stop offset="0.1" stop-color="#7A7A7A"/>
<stop offset="0.11" stop-color="#7A7A7A"/>
<stop offset="0.23" stop-color="#545454"/>
<stop offset="0.36" stop-color="#363636"/>
<stop offset="0.5" stop-color="#1E1E1E"/>
<stop offset="0.64" stop-color="#0D0D0D"/>
<stop offset="0.8" stop-color="#030303"/>
<stop offset="1"/>
</linearGradient>
<linearGradient id="paint17_linear_402_1621" x1="639.497" y1="67.7531" x2="690.23" y2="16.2782" gradientUnits="userSpaceOnUse">
<stop stop-color="#D5D5D5"/>
<stop offset="0.1" stop-color="#7A7A7A"/>
<stop offset="0.11" stop-color="#7A7A7A"/>
<stop offset="0.23" stop-color="#545454"/>
<stop offset="0.36" stop-color="#363636"/>
<stop offset="0.5" stop-color="#1E1E1E"/>
<stop offset="0.64" stop-color="#0D0D0D"/>
<stop offset="0.8" stop-color="#030303"/>
<stop offset="1"/>
</linearGradient>
<linearGradient id="paint18_linear_402_1621" x1="642.47" y1="70.6841" x2="693.203" y2="19.2038" gradientUnits="userSpaceOnUse">
<stop stop-color="#D5D5D5"/>
<stop offset="0.1" stop-color="#7A7A7A"/>
<stop offset="0.11" stop-color="#7A7A7A"/>
<stop offset="0.23" stop-color="#545454"/>
<stop offset="0.36" stop-color="#363636"/>
<stop offset="0.5" stop-color="#1E1E1E"/>
<stop offset="0.64" stop-color="#0D0D0D"/>
<stop offset="0.8" stop-color="#030303"/>
<stop offset="1"/>
</linearGradient>
<linearGradient id="paint19_linear_402_1621" x1="645.2" y1="73.3766" x2="695.933" y2="21.8963" gradientUnits="userSpaceOnUse">
<stop stop-color="#D5D5D5"/>
<stop offset="0.1" stop-color="#7A7A7A"/>
<stop offset="0.11" stop-color="#7A7A7A"/>
<stop offset="0.23" stop-color="#545454"/>
<stop offset="0.36" stop-color="#363636"/>
<stop offset="0.5" stop-color="#1E1E1E"/>
<stop offset="0.64" stop-color="#0D0D0D"/>
<stop offset="0.8" stop-color="#030303"/>
<stop offset="1"/>
</linearGradient>
<linearGradient id="paint20_linear_402_1621" x1="651.115" y1="79.2015" x2="701.848" y2="27.7264" gradientUnits="userSpaceOnUse">
<stop stop-color="#D5D5D5"/>
<stop offset="0.1" stop-color="#7A7A7A"/>
<stop offset="0.11" stop-color="#7A7A7A"/>
<stop offset="0.23" stop-color="#545454"/>
<stop offset="0.36" stop-color="#363636"/>
<stop offset="0.5" stop-color="#1E1E1E"/>
<stop offset="0.64" stop-color="#0D0D0D"/>
<stop offset="0.8" stop-color="#030303"/>
<stop offset="1"/>
</linearGradient>
<linearGradient id="paint21_linear_402_1621" x1="31.2561" y1="925.518" x2="729.396" y2="-477.367" gradientUnits="userSpaceOnUse">
<stop stop-color="white"/>
<stop offset="1"/>
</linearGradient>
<linearGradient id="paint22_linear_402_1621" x1="681.57" y1="1253.36" x2="1384.62" y2="-152.221" gradientUnits="userSpaceOnUse">
<stop stop-color="white"/>
<stop offset="1"/>
</linearGradient>
<linearGradient id="paint23_linear_402_1621" x1="832.971" y1="1322.45" x2="1535.21" y2="-75.0896" gradientUnits="userSpaceOnUse">
<stop stop-color="white"/>
<stop offset="1"/>
</linearGradient>
<linearGradient id="paint24_linear_402_1621" x1="104.989" y1="186.737" x2="183.525" y2="122.856" gradientUnits="userSpaceOnUse">
<stop stop-color="#D5D5D5"/>
<stop offset="0.1" stop-color="#7A7A7A"/>
<stop offset="0.11" stop-color="#7A7A7A"/>
<stop offset="0.23" stop-color="#545454"/>
<stop offset="0.36" stop-color="#363636"/>
<stop offset="0.5" stop-color="#1E1E1E"/>
<stop offset="0.64" stop-color="#0D0D0D"/>
<stop offset="0.8" stop-color="#030303"/>
<stop offset="1"/>
</linearGradient>
<linearGradient id="paint25_linear_402_1621" x1="83.4718" y1="160.284" x2="162.008" y2="96.4034" gradientUnits="userSpaceOnUse">
<stop stop-color="#D5D5D5"/>
<stop offset="0.1" stop-color="#7A7A7A"/>
<stop offset="0.11" stop-color="#7A7A7A"/>
<stop offset="0.23" stop-color="#545454"/>
<stop offset="0.36" stop-color="#363636"/>
<stop offset="0.5" stop-color="#1E1E1E"/>
<stop offset="0.64" stop-color="#0D0D0D"/>
<stop offset="0.8" stop-color="#030303"/>
<stop offset="1"/>
</linearGradient>
<linearGradient id="paint26_linear_402_1621" x1="88.4698" y1="166.426" x2="167" y2="102.54" gradientUnits="userSpaceOnUse">
<stop stop-color="#D5D5D5"/>
<stop offset="0.1" stop-color="#7A7A7A"/>
<stop offset="0.11" stop-color="#7A7A7A"/>
<stop offset="0.23" stop-color="#545454"/>
<stop offset="0.36" stop-color="#363636"/>
<stop offset="0.5" stop-color="#1E1E1E"/>
<stop offset="0.64" stop-color="#0D0D0D"/>
<stop offset="0.8" stop-color="#030303"/>
<stop offset="1"/>
</linearGradient>
<linearGradient id="paint27_linear_402_1621" x1="93.2515" y1="172.307" x2="171.782" y2="108.421" gradientUnits="userSpaceOnUse">
<stop stop-color="#D5D5D5"/>
<stop offset="0.1" stop-color="#7A7A7A"/>
<stop offset="0.11" stop-color="#7A7A7A"/>
<stop offset="0.23" stop-color="#545454"/>
<stop offset="0.36" stop-color="#363636"/>
<stop offset="0.5" stop-color="#1E1E1E"/>
<stop offset="0.64" stop-color="#0D0D0D"/>
<stop offset="0.8" stop-color="#030303"/>
<stop offset="1"/>
</linearGradient>
<linearGradient id="paint28_linear_402_1621" x1="97.8005" y1="177.898" x2="176.331" y2="114.017" gradientUnits="userSpaceOnUse">
<stop stop-color="#D5D5D5"/>
<stop offset="0.1" stop-color="#7A7A7A"/>
<stop offset="0.11" stop-color="#7A7A7A"/>
<stop offset="0.23" stop-color="#545454"/>
<stop offset="0.36" stop-color="#363636"/>
<stop offset="0.5" stop-color="#1E1E1E"/>
<stop offset="0.64" stop-color="#0D0D0D"/>
<stop offset="0.8" stop-color="#030303"/>
<stop offset="1"/>
</linearGradient>
<linearGradient id="paint29_linear_402_1621" x1="102.117" y1="183.205" x2="180.647" y2="119.32" gradientUnits="userSpaceOnUse">
<stop stop-color="#D5D5D5"/>
<stop offset="0.1" stop-color="#7A7A7A"/>
<stop offset="0.11" stop-color="#7A7A7A"/>
<stop offset="0.23" stop-color="#545454"/>
<stop offset="0.36" stop-color="#363636"/>
<stop offset="0.5" stop-color="#1E1E1E"/>
<stop offset="0.64" stop-color="#0D0D0D"/>
<stop offset="0.8" stop-color="#030303"/>
<stop offset="1"/>
</linearGradient>
<linearGradient id="paint30_linear_402_1621" x1="100.375" y1="181.065" x2="178.906" y2="117.179" gradientUnits="userSpaceOnUse">
<stop stop-color="#D5D5D5"/>
<stop offset="0.1" stop-color="#7A7A7A"/>
<stop offset="0.11" stop-color="#7A7A7A"/>
<stop offset="0.23" stop-color="#545454"/>
<stop offset="0.36" stop-color="#363636"/>
<stop offset="0.5" stop-color="#1E1E1E"/>
<stop offset="0.64" stop-color="#0D0D0D"/>
<stop offset="0.8" stop-color="#030303"/>
<stop offset="1"/>
</linearGradient>
<linearGradient id="paint31_linear_402_1621" x1="106.158" y1="188.176" x2="184.693" y2="124.295" gradientUnits="userSpaceOnUse">
<stop stop-color="#D5D5D5"/>
<stop offset="0.1" stop-color="#7A7A7A"/>
<stop offset="0.11" stop-color="#7A7A7A"/>
<stop offset="0.23" stop-color="#545454"/>
<stop offset="0.36" stop-color="#363636"/>
<stop offset="0.5" stop-color="#1E1E1E"/>
<stop offset="0.64" stop-color="#0D0D0D"/>
<stop offset="0.8" stop-color="#030303"/>
<stop offset="1"/>
</linearGradient>
<linearGradient id="paint32_linear_402_1621" x1="111.961" y1="195.303" x2="190.492" y2="131.422" gradientUnits="userSpaceOnUse">
<stop stop-color="#D5D5D5"/>
<stop offset="0.1" stop-color="#7A7A7A"/>
<stop offset="0.11" stop-color="#7A7A7A"/>
<stop offset="0.23" stop-color="#545454"/>
<stop offset="0.36" stop-color="#363636"/>
<stop offset="0.5" stop-color="#1E1E1E"/>
<stop offset="0.64" stop-color="#0D0D0D"/>
<stop offset="0.8" stop-color="#030303"/>
<stop offset="1"/>
</linearGradient>
<linearGradient id="paint33_linear_402_1621" x1="101.381" y1="182.301" x2="179.917" y2="118.421" gradientUnits="userSpaceOnUse">
<stop stop-color="#D5D5D5"/>
<stop offset="0.1" stop-color="#7A7A7A"/>
<stop offset="0.11" stop-color="#7A7A7A"/>
<stop offset="0.23" stop-color="#545454"/>
<stop offset="0.36" stop-color="#363636"/>
<stop offset="0.5" stop-color="#1E1E1E"/>
<stop offset="0.64" stop-color="#0D0D0D"/>
<stop offset="0.8" stop-color="#030303"/>
<stop offset="1"/>
</linearGradient>
<linearGradient id="paint34_linear_402_1621" x1="107.164" y1="189.412" x2="185.699" y2="125.526" gradientUnits="userSpaceOnUse">
<stop stop-color="#D5D5D5"/>
<stop offset="0.1" stop-color="#7A7A7A"/>
<stop offset="0.11" stop-color="#7A7A7A"/>
<stop offset="0.23" stop-color="#545454"/>
<stop offset="0.36" stop-color="#363636"/>
<stop offset="0.5" stop-color="#1E1E1E"/>
<stop offset="0.64" stop-color="#0D0D0D"/>
<stop offset="0.8" stop-color="#030303"/>
<stop offset="1"/>
</linearGradient>
<linearGradient id="paint35_linear_402_1621" x1="112.951" y1="196.523" x2="191.482" y2="132.642" gradientUnits="userSpaceOnUse">
<stop stop-color="#D5D5D5"/>
<stop offset="0.1" stop-color="#7A7A7A"/>
<stop offset="0.11" stop-color="#7A7A7A"/>
<stop offset="0.23" stop-color="#545454"/>
<stop offset="0.36" stop-color="#363636"/>
<stop offset="0.5" stop-color="#1E1E1E"/>
<stop offset="0.64" stop-color="#0D0D0D"/>
<stop offset="0.8" stop-color="#030303"/>
<stop offset="1"/>
</linearGradient>
<linearGradient id="paint36_linear_402_1621" x1="118.75" y1="203.649" x2="197.28" y2="139.769" gradientUnits="userSpaceOnUse">
<stop stop-color="#D5D5D5"/>
<stop offset="0.1" stop-color="#7A7A7A"/>
<stop offset="0.11" stop-color="#7A7A7A"/>
<stop offset="0.23" stop-color="#545454"/>
<stop offset="0.36" stop-color="#363636"/>
<stop offset="0.5" stop-color="#1E1E1E"/>
<stop offset="0.64" stop-color="#0D0D0D"/>
<stop offset="0.8" stop-color="#030303"/>
<stop offset="1"/>
</linearGradient>
<linearGradient id="paint37_linear_402_1621" x1="95.0527" y1="174.522" x2="173.583" y2="110.636" gradientUnits="userSpaceOnUse">
<stop stop-color="#D5D5D5"/>
<stop offset="0.1" stop-color="#7A7A7A"/>
<stop offset="0.11" stop-color="#7A7A7A"/>
<stop offset="0.23" stop-color="#545454"/>
<stop offset="0.36" stop-color="#363636"/>
<stop offset="0.5" stop-color="#1E1E1E"/>
<stop offset="0.64" stop-color="#0D0D0D"/>
<stop offset="0.8" stop-color="#030303"/>
<stop offset="1"/>
</linearGradient>
<clipPath id="clip0_402_1621">
<rect width="68" height="78" fill="white" transform="translate(1287 390)"/>
</clipPath>
<clipPath id="clip1_402_1621">
<rect width="93.3886" height="86.0214" fill="white" transform="translate(618.047 0.388306)"/>
</clipPath>
<clipPath id="clip2_402_1621">
<rect width="85.9505" height="61.2626" fill="white" transform="translate(96.2048 122.151)"/>
</clipPath>
</defs>
</svg>
