<svg width="120" height="120" viewBox="0 0 120 120" fill="none" xmlns="http://www.w3.org/2000/svg">
<g clip-path="url(#clip0_1147_877)">
<path d="M101.597 28.1108H28.5491C27.3363 28.1108 26.353 29.0941 26.353 30.3069V44.1585C26.353 45.3714 27.3363 46.3546 28.5491 46.3546H101.597C102.81 46.3546 103.793 45.3714 103.793 44.1585V30.3069C103.793 29.0941 102.81 28.1108 101.597 28.1108Z" fill="#91FFC5"/>
<path d="M99.3257 30.9046H90.6843V27.7944C90.6818 26.374 90.1161 25.0126 89.1113 24.0086C88.1065 23.0047 86.7445 22.4402 85.3241 22.439H83.4843C82.0639 22.4402 80.7019 23.0047 79.6971 24.0086C78.6923 25.0126 78.1266 26.374 78.1241 27.7944V30.9046H43.0101V27.7944C43.0082 26.3738 42.4427 25.012 41.4378 24.0079C40.4328 23.0039 39.0705 22.4396 37.6499 22.439H35.8101C34.3897 22.4402 33.0277 23.0047 32.0229 24.0086C31.0181 25.0126 30.4524 26.374 30.4499 27.7944V30.9046H22.4999C21.0362 30.9058 19.6328 31.4877 18.5975 32.5224C17.5623 33.5572 16.9799 34.9604 16.978 36.4241V90.6866C16.9799 92.1509 17.5621 93.5549 18.5971 94.5908C19.6321 95.6266 21.0356 96.2101 22.4999 96.2132H99.3257C100.791 96.2107 102.195 95.6276 103.231 94.5917C104.267 93.5558 104.85 92.1516 104.852 90.6866V36.4241C104.849 34.96 104.266 33.5568 103.23 32.5222C102.194 31.4875 100.79 30.9058 99.3257 30.9046ZM81.1405 27.7944C81.1405 27.1728 81.3875 26.5767 81.827 26.1372C82.2665 25.6976 82.8627 25.4507 83.4843 25.4507H85.3241C85.9457 25.4507 86.5419 25.6976 86.9814 26.1372C87.421 26.5767 87.6679 27.1728 87.6679 27.7944V37.0311C87.6679 37.6527 87.421 38.2489 86.9814 38.6884C86.5419 39.128 85.9457 39.3749 85.3241 39.3749H83.4843C82.8627 39.3749 82.2665 39.128 81.827 38.6884C81.3875 38.2489 81.1405 37.6527 81.1405 37.0311V27.7944ZM33.464 27.7944C33.464 27.1728 33.7109 26.5767 34.1504 26.1372C34.59 25.6976 35.1861 25.4507 35.8077 25.4507H37.6476C38.2692 25.4507 38.8653 25.6976 39.3048 26.1372C39.7444 26.5767 39.9913 27.1728 39.9913 27.7944V37.0311C39.9913 37.6527 39.7444 38.2489 39.3048 38.6884C38.8653 39.128 38.2692 39.3749 37.6476 39.3749H35.8077C35.1861 39.3749 34.59 39.128 34.1504 38.6884C33.7109 38.2489 33.464 37.6527 33.464 37.0311V27.7944ZM101.838 90.6866C101.838 91.3528 101.573 91.9915 101.102 92.4625C100.631 92.9336 99.9919 93.1985 99.3257 93.1991H22.4999C21.8344 93.1978 21.1965 92.9326 20.7263 92.4615C20.2562 91.9905 19.9921 91.3521 19.9921 90.6866V54.9772H18.4874V51.9632H19.9944V36.4241C19.9963 35.7602 20.2609 35.124 20.7303 34.6545C21.1998 34.1851 21.836 33.9205 22.4999 33.9186H30.4476V37.0311C30.4494 38.4524 31.0147 39.8149 32.0194 40.8201C33.0242 41.8253 34.3865 42.3912 35.8077 42.3936H37.6476C39.0694 42.3924 40.4327 41.827 41.4381 40.8216C42.4434 39.8162 43.0088 38.453 43.0101 37.0311V33.9186H78.1241V37.0311C78.126 38.4524 78.6912 39.8149 79.696 40.8201C80.7008 41.8253 82.063 42.3912 83.4843 42.3936H85.3241C86.7454 42.3912 88.1077 41.8253 89.1124 40.8201C90.1172 39.8149 90.6824 38.4524 90.6843 37.0311V33.9186H99.3257C99.9908 33.9186 100.629 34.1824 101.1 34.6521C101.571 35.1217 101.836 35.759 101.838 36.4241V51.9632H19.9944V54.9772H101.838V90.6866Z" fill="#201F3B"/>
<path d="M19.9943 51.9634H18.4873V54.9774H19.9943V51.9634Z" fill="#201F3B"/>
<path d="M19.9943 51.9634H18.4873V54.9774H19.9943V51.9634Z" fill="#201F3B"/>
<path d="M125.529 49.0803C125.528 49.4798 125.37 49.8627 125.087 50.1452C124.805 50.4277 124.422 50.5867 124.022 50.5873H121.21V53.3998C121.21 53.7995 121.051 54.1828 120.768 54.4654C120.486 54.7481 120.102 54.9068 119.703 54.9068C119.303 54.9068 118.92 54.7481 118.637 54.4654C118.354 54.1828 118.196 53.7995 118.196 53.3998V50.5873H115.383C114.983 50.5873 114.6 50.4285 114.317 50.1459C114.035 49.8633 113.876 49.48 113.876 49.0803C113.876 48.6806 114.035 48.2973 114.317 48.0146C114.6 47.732 114.983 47.5732 115.383 47.5732H118.196V44.7443C118.196 44.3446 118.354 43.9613 118.637 43.6787C118.92 43.3961 119.303 43.2373 119.703 43.2373C120.102 43.2373 120.486 43.3961 120.768 43.6787C121.051 43.9613 121.21 44.3446 121.21 44.7443V47.5779H124.022C124.22 47.5776 124.415 47.6162 124.598 47.6916C124.781 47.7669 124.947 47.8775 125.087 48.017C125.227 48.1565 125.338 48.3222 125.414 48.5046C125.49 48.6871 125.529 48.8827 125.529 49.0803Z" fill="#EBEBEB"/>
<path d="M13.3102 94.7064C13.309 95.1062 13.1495 95.4891 12.8667 95.7715C12.5838 96.054 12.2006 96.2129 11.8009 96.2135H8.98838V99.026C8.98838 99.4257 8.8296 99.809 8.54698 100.092C8.26435 100.374 7.88103 100.533 7.48135 100.533C7.08166 100.533 6.69834 100.374 6.41571 100.092C6.13309 99.809 5.97431 99.4257 5.97431 99.026V96.2135H3.16182C2.76213 96.2135 2.37881 96.0547 2.09618 95.7721C1.81356 95.4895 1.65479 95.1061 1.65479 94.7064C1.65479 94.3068 1.81356 93.9234 2.09618 93.6408C2.37881 93.3582 2.76213 93.1994 3.16182 93.1994H5.97431V90.3869C5.97431 89.9872 6.13309 89.6039 6.41571 89.3213C6.69834 89.0387 7.08166 88.8799 7.48135 88.8799C7.88103 88.8799 8.26435 89.0387 8.54698 89.3213C8.8296 89.6039 8.98838 89.9872 8.98838 90.3869V93.1994H11.8009C11.999 93.1991 12.1952 93.2379 12.3783 93.3135C12.5614 93.3891 12.7278 93.5 12.868 93.64C13.0082 93.78 13.1194 93.9462 13.1953 94.1292C13.2712 94.3122 13.3102 94.5083 13.3102 94.7064Z" fill="#EBEBEB"/>
<path d="M91.0805 19.5867C90.1228 19.5867 89.1866 19.3027 88.3903 18.7707C87.594 18.2386 86.9734 17.4824 86.6069 16.5976C86.2404 15.7128 86.1445 14.7392 86.3313 13.7999C86.5182 12.8606 86.9793 11.9978 87.6565 11.3206C88.3337 10.6434 89.1965 10.1822 90.1358 9.99539C91.0751 9.80855 92.0487 9.90444 92.9335 10.2709C93.8183 10.6374 94.5745 11.2581 95.1066 12.0544C95.6387 12.8507 95.9227 13.7868 95.9227 14.7445C95.9214 16.0284 95.4109 17.2593 94.503 18.1671C93.5952 19.0749 92.3643 19.5855 91.0805 19.5867ZM91.0805 12.9188C90.7188 12.9188 90.3653 13.026 90.0646 13.227C89.7639 13.428 89.5296 13.7136 89.3913 14.0478C89.253 14.382 89.2169 14.7497 89.2876 15.1044C89.3584 15.4591 89.5327 15.7848 89.7886 16.0404C90.0445 16.296 90.3705 16.4699 90.7253 16.5402C91.08 16.6104 91.4477 16.5739 91.7817 16.4352C92.1157 16.2964 92.401 16.0618 92.6016 15.7608C92.8022 15.4599 92.9091 15.1062 92.9086 14.7445C92.9086 14.5046 92.8613 14.267 92.7694 14.0453C92.6775 13.8236 92.5428 13.6223 92.373 13.4527C92.2032 13.2831 92.0017 13.1487 91.7799 13.0571C91.5581 12.9654 91.3204 12.9184 91.0805 12.9188Z" fill="#91FFC5"/>
<path d="M33.4432 67.0735H27.776C27.2484 67.0729 26.7427 66.8631 26.3696 66.49C25.9966 66.117 25.7868 65.6112 25.7861 65.0837V59.4165C25.7861 58.8885 25.9957 58.3822 26.3688 58.0086C26.7419 57.6351 27.248 57.4249 27.776 57.4243H33.4432C33.9713 57.4249 34.4777 57.635 34.8512 58.0085C35.2246 58.382 35.4347 58.8883 35.4354 59.4165V65.0837C35.4347 65.6117 35.2246 66.1178 34.851 66.4909C34.4775 66.864 33.9711 67.0735 33.4432 67.0735ZM28.8002 64.0595H32.4213V60.4384H28.8002V64.0595Z" fill="#91FFC5"/>
<path d="M45.5578 67.0735H39.8906C39.3627 67.0735 38.8563 66.864 38.4828 66.4909C38.1092 66.1178 37.8991 65.6117 37.8984 65.0837V59.4165C37.8991 58.8883 38.1091 58.382 38.4826 58.0085C38.8561 57.635 39.3625 57.4249 39.8906 57.4243H45.5578C46.0858 57.4249 46.5919 57.6351 46.965 58.0086C47.3381 58.3822 47.5477 58.8885 47.5477 59.4165V65.0837C47.547 65.6112 47.3372 66.117 46.9642 66.49C46.5911 66.8631 46.0854 67.0729 45.5578 67.0735ZM40.9125 64.0595H44.5313V60.4384H40.9125V64.0595Z" fill="#91FFC5"/>
<path d="M57.7103 67.0735H52.0431C51.5155 67.0729 51.0098 66.8631 50.6367 66.49C50.2637 66.117 50.0538 65.6112 50.0532 65.0837V59.4165C50.0532 58.8885 50.2628 58.3822 50.6359 58.0086C51.009 57.6351 51.5151 57.4249 52.0431 57.4243H57.7103C58.2384 57.4249 58.7448 57.635 59.1183 58.0085C59.4917 58.382 59.7018 58.8883 59.7024 59.4165V65.0837C59.7018 65.6117 59.4917 66.1178 59.1181 66.4909C58.7446 66.864 58.2382 67.0735 57.7103 67.0735ZM53.0673 64.0595H56.6884V60.4384H53.0673V64.0595Z" fill="#91FFC5"/>
<path d="M69.8249 67.0735H64.1577C63.6298 67.0735 63.1234 66.864 62.7499 66.4909C62.3763 66.1178 62.1661 65.6117 62.1655 65.0837V59.4165C62.1661 58.8883 62.3762 58.382 62.7497 58.0085C63.1232 57.635 63.6295 57.4249 64.1577 57.4243H69.8249C70.3529 57.4249 70.859 57.6351 71.2321 58.0086C71.6052 58.3822 71.8148 58.8885 71.8148 59.4165V65.0837C71.8141 65.6112 71.6043 66.117 71.2313 66.49C70.8582 66.8631 70.3525 67.0729 69.8249 67.0735ZM65.1796 64.0595H68.8007V60.4384H65.1796V64.0595Z" fill="#201F3B"/>
<path d="M81.9397 67.0735H76.2726C75.745 67.0729 75.2392 66.8631 74.8662 66.49C74.4932 66.117 74.2833 65.6112 74.2827 65.0837V59.4165C74.2827 58.8885 74.4923 58.3822 74.8654 58.0086C75.2385 57.6351 75.7446 57.4249 76.2726 57.4243H81.9397C82.4679 57.4249 82.9743 57.635 83.3478 58.0085C83.7212 58.382 83.9313 58.8883 83.9319 59.4165V65.0837C83.9313 65.6117 83.7212 66.1178 83.3476 66.4909C82.9741 66.864 82.4677 67.0735 81.9397 67.0735ZM77.2968 64.0595H80.9179V60.4384H77.2968V64.0595Z" fill="#201F3B"/>
<path d="M94.0549 67.0735H88.3877C87.8597 67.0735 87.3534 66.864 86.9798 66.4909C86.6063 66.1178 86.3961 65.6117 86.3955 65.0837V59.4165C86.3961 58.8883 86.6062 58.382 86.9797 58.0085C87.3532 57.635 87.8595 57.4249 88.3877 57.4243H94.0549C94.5828 57.4249 95.089 57.6351 95.4621 58.0086C95.8352 58.3822 96.0447 58.8885 96.0447 59.4165V65.0837C96.0441 65.6112 95.8343 66.117 95.4612 66.49C95.0882 66.8631 94.5824 67.0729 94.0549 67.0735ZM89.4096 64.0595H93.0307V60.4384H89.4096V64.0595Z" fill="#201F3B"/>
<path d="M33.4432 79.3758H27.776C27.2484 79.3752 26.7427 79.1653 26.3696 78.7923C25.9966 78.4193 25.7868 77.9135 25.7861 77.3859V71.7188C25.7861 71.1908 25.9957 70.6844 26.3688 70.3109C26.7419 69.9374 27.248 69.7272 27.776 69.7266H33.4432C33.9713 69.7272 34.4777 69.9373 34.8512 70.3107C35.2246 70.6842 35.4347 71.1906 35.4354 71.7188V77.3859C35.4347 77.9139 35.2246 78.42 34.851 78.7931C34.4775 79.1662 33.9711 79.3758 33.4432 79.3758ZM28.8002 76.3617H32.4213V72.7406H28.8002V76.3617Z" fill="#201F3B"/>
<path d="M45.5578 79.3758H39.8906C39.3627 79.3758 38.8563 79.1662 38.4828 78.7931C38.1092 78.42 37.8991 77.9139 37.8984 77.3859V71.7188C37.8991 71.1906 38.1091 70.6842 38.4826 70.3107C38.8561 69.9373 39.3625 69.7272 39.8906 69.7266H45.5578C46.0858 69.7272 46.5919 69.9374 46.965 70.3109C47.3381 70.6844 47.5477 71.1908 47.5477 71.7188V77.3859C47.547 77.9135 47.3372 78.4193 46.9642 78.7923C46.5911 79.1653 46.0854 79.3752 45.5578 79.3758ZM40.9125 76.3617H44.5313V72.7406H40.9125V76.3617Z" fill="#201F3B"/>
<path d="M57.7103 79.3758H52.0431C51.5155 79.3752 51.0098 79.1653 50.6367 78.7923C50.2637 78.4193 50.0538 77.9135 50.0532 77.3859V71.7188C50.0532 71.1908 50.2628 70.6844 50.6359 70.3109C51.009 69.9374 51.5151 69.7272 52.0431 69.7266H57.7103C58.2384 69.7272 58.7448 69.9373 59.1183 70.3107C59.4917 70.6842 59.7018 71.1906 59.7024 71.7188V77.3859C59.7018 77.9139 59.4917 78.42 59.1181 78.7931C58.7446 79.1662 58.2382 79.3758 57.7103 79.3758ZM53.0673 76.3617H56.6884V72.7406H53.0673V76.3617Z" fill="#201F3B"/>
<path d="M69.8249 79.3758H64.1577C63.6298 79.3758 63.1234 79.1662 62.7499 78.7931C62.3763 78.42 62.1661 77.9139 62.1655 77.3859V71.7188C62.1661 71.1906 62.3762 70.6842 62.7497 70.3107C63.1232 69.9373 63.6295 69.7272 64.1577 69.7266H69.8249C70.3529 69.7272 70.859 69.9374 71.2321 70.3109C71.6052 70.6844 71.8148 71.1908 71.8148 71.7188V77.3859C71.8141 77.9135 71.6043 78.4193 71.2313 78.7923C70.8582 79.1653 70.3525 79.3752 69.8249 79.3758ZM65.1796 76.3617H68.8007V72.7406H65.1796V76.3617Z" fill="#201F3B"/>
<path d="M81.9397 79.3758H76.2726C75.745 79.3752 75.2392 79.1653 74.8662 78.7923C74.4932 78.4193 74.2833 77.9135 74.2827 77.3859V71.7188C74.2827 71.1908 74.4923 70.6844 74.8654 70.3109C75.2385 69.9374 75.7446 69.7272 76.2726 69.7266H81.9397C82.4679 69.7272 82.9743 69.9373 83.3478 70.3107C83.7212 70.6842 83.9313 71.1906 83.9319 71.7188V77.3859C83.9313 77.9139 83.7212 78.42 83.3476 78.7931C82.9741 79.1662 82.4677 79.3758 81.9397 79.3758ZM77.2968 76.3617H80.9179V72.7406H77.2968V76.3617Z" fill="#201F3B"/>
<path d="M94.0549 79.3758H88.3877C87.8597 79.3758 87.3534 79.1662 86.9798 78.7931C86.6063 78.42 86.3961 77.9139 86.3955 77.3859V71.7188C86.3961 71.1906 86.6062 70.6842 86.9797 70.3107C87.3532 69.9373 87.8595 69.7272 88.3877 69.7266H94.0549C94.5828 69.7272 95.089 69.9374 95.4621 70.3109C95.8352 70.6844 96.0447 71.1908 96.0447 71.7188V77.3859C96.0441 77.9135 95.8343 78.4193 95.4612 78.7923C95.0882 79.1653 94.5824 79.3752 94.0549 79.3758ZM89.4096 76.3617H93.0307V72.7406H89.4096V76.3617Z" fill="#201F3B"/>
<path d="M33.4432 90.8812H27.776C27.2484 90.8805 26.7427 90.6707 26.3696 90.2977C25.9966 89.9246 25.7868 89.4189 25.7861 88.8913V83.2241C25.7861 82.6962 25.9957 82.1898 26.3688 81.8163C26.7419 81.4427 27.248 81.2326 27.776 81.2319H33.4432C33.9713 81.2326 34.4777 81.4426 34.8512 81.8161C35.2246 82.1896 35.4347 82.696 35.4354 83.2241V88.8913C35.4347 89.4193 35.2246 89.9254 34.851 90.2985C34.4775 90.6716 33.9711 90.8812 33.4432 90.8812ZM28.8002 87.8671H32.4213V84.246H28.8002V87.8671Z" fill="#201F3B"/>
<path d="M45.5578 90.8812H39.8906C39.3627 90.8812 38.8563 90.6716 38.4828 90.2985C38.1092 89.9254 37.8991 89.4193 37.8984 88.8913V83.2241C37.8991 82.696 38.1091 82.1896 38.4826 81.8161C38.8561 81.4426 39.3625 81.2326 39.8906 81.2319H45.5578C46.0858 81.2326 46.5919 81.4427 46.965 81.8163C47.3381 82.1898 47.5477 82.6962 47.5477 83.2241V88.8913C47.547 89.4189 47.3372 89.9246 46.9642 90.2977C46.5911 90.6707 46.0854 90.8805 45.5578 90.8812ZM40.9125 87.8671H44.5313V84.246H40.9125V87.8671Z" fill="#201F3B"/>
<path d="M57.7103 90.8812H52.0431C51.5155 90.8805 51.0098 90.6707 50.6367 90.2977C50.2637 89.9246 50.0538 89.4189 50.0532 88.8913V83.2241C50.0532 82.6962 50.2628 82.1898 50.6359 81.8163C51.009 81.4427 51.5151 81.2326 52.0431 81.2319H57.7103C58.2384 81.2326 58.7448 81.4426 59.1183 81.8161C59.4917 82.1896 59.7018 82.696 59.7024 83.2241V88.8913C59.7018 89.4193 59.4917 89.9254 59.1181 90.2985C58.7446 90.6716 58.2382 90.8812 57.7103 90.8812ZM53.0673 87.8671H56.6884V84.246H53.0673V87.8671Z" fill="#201F3B"/>
<path d="M69.8249 90.8812H64.1577C63.6298 90.8812 63.1234 90.6716 62.7499 90.2985C62.3763 89.9254 62.1661 89.4193 62.1655 88.8913V83.2241C62.1661 82.696 62.3762 82.1896 62.7497 81.8161C63.1232 81.4426 63.6295 81.2326 64.1577 81.2319H69.8249C70.3529 81.2326 70.859 81.4427 71.2321 81.8163C71.6052 82.1898 71.8148 82.6962 71.8148 83.2241V88.8913C71.8141 89.4189 71.6043 89.9246 71.2313 90.2977C70.8582 90.6707 70.3525 90.8805 69.8249 90.8812ZM65.1796 87.8671H68.8007V84.246H65.1796V87.8671Z" fill="#201F3B"/>
<path d="M81.9397 90.8812H76.2726C75.745 90.8805 75.2392 90.6707 74.8662 90.2977C74.4932 89.9246 74.2833 89.4189 74.2827 88.8913V83.2241C74.2827 82.6962 74.4923 82.1898 74.8654 81.8163C75.2385 81.4427 75.7446 81.2326 76.2726 81.2319H81.9397C82.4679 81.2326 82.9743 81.4426 83.3478 81.8161C83.7212 82.1896 83.9313 82.696 83.9319 83.2241V88.8913C83.9313 89.4193 83.7212 89.9254 83.3476 90.2985C82.9741 90.6716 82.4677 90.8812 81.9397 90.8812ZM77.2968 87.8671H80.9179V84.246H77.2968V87.8671Z" fill="#201F3B"/>
<path d="M94.0549 90.8812H88.3877C87.8597 90.8812 87.3534 90.6716 86.9798 90.2985C86.6063 89.9254 86.3961 89.4193 86.3955 88.8913V83.2241C86.3961 82.696 86.6062 82.1896 86.9797 81.8161C87.3532 81.4426 87.8595 81.2326 88.3877 81.2319H94.0549C94.5828 81.2326 95.089 81.4427 95.4621 81.8163C95.8352 82.1898 96.0447 82.6962 96.0447 83.2241V88.8913C96.0441 89.4189 95.8343 89.9246 95.4612 90.2977C95.0882 90.6707 94.5824 90.8805 94.0549 90.8812ZM89.4096 87.8671H93.0307V84.246H89.4096V87.8671Z" fill="#201F3B"/>
</g>
<defs>
<clipPath id="clip0_1147_877">
<rect width="120" height="120" fill="white"/>
</clipPath>
</defs>
</svg>
