<svg width="120" height="120" viewBox="0 0 120 120" fill="none" xmlns="http://www.w3.org/2000/svg">
<path d="M67.521 28.9595L57.4569 24.4361C57.3744 24.3988 57.2838 24.3829 57.1935 24.3897C57.1033 24.3965 57.0161 24.4259 56.9401 24.4751C56.8641 24.5243 56.8016 24.5918 56.7584 24.6713C56.7152 24.7509 56.6927 24.8401 56.6929 24.9306V33.9845C56.6927 34.0751 56.7152 34.1642 56.7584 34.2438C56.8016 34.3234 56.8641 34.3909 56.9401 34.4401C57.0161 34.4893 57.1033 34.5186 57.1935 34.5254C57.2838 34.5322 57.3744 34.5163 57.4569 34.4791L67.521 29.9556C67.6186 29.914 67.7019 29.8446 67.7604 29.7561C67.8189 29.6675 67.8501 29.5637 67.8501 29.4576C67.8501 29.3514 67.8189 29.2476 67.7604 29.1591C67.7019 29.0705 67.6186 29.0011 67.521 28.9595Z" fill="#91FFC5"/>
<path d="M35.4213 45.8951H28.7885C28.3888 45.8951 28.0055 45.7363 27.7229 45.4537C27.4402 45.1711 27.2815 44.7878 27.2815 44.3881C27.2815 43.9884 27.4402 43.6051 27.7229 43.3225C28.0055 43.0398 28.3888 42.8811 28.7885 42.8811H35.4213C36.5205 42.8811 37.4627 42.1779 37.4768 41.3389V41.067C37.4745 40.8915 37.4372 40.7182 37.3672 40.5572C37.2972 40.3963 37.1958 40.2509 37.069 40.1295C36.6277 39.7087 36.038 39.4795 35.4283 39.492L25.7205 39.4732C24.3073 39.4821 22.9481 38.931 21.9401 37.9404C21.5314 37.5361 21.2078 37.0541 20.9885 36.5228C20.7691 35.9914 20.6583 35.4215 20.6627 34.8467C20.6955 32.3436 22.969 30.3232 25.7323 30.3232H25.7604L46.3854 30.4217C46.7851 30.4217 47.1684 30.5805 47.451 30.8631C47.7336 31.1457 47.8924 31.529 47.8924 31.9287C47.8924 32.3284 47.7336 32.7117 47.451 32.9943C47.1684 33.277 46.7851 33.4357 46.3854 33.4357L25.7604 33.3373H25.7463C24.6424 33.3373 23.7026 34.0404 23.6932 34.8818C23.6958 35.0575 23.7334 35.2309 23.8039 35.3919C23.8743 35.5529 23.9761 35.6982 24.1033 35.8193C24.5454 36.2386 25.1348 36.4668 25.744 36.4545L35.4518 36.4732C36.1529 36.4687 36.8481 36.6023 37.4976 36.8665C38.1471 37.1307 38.7381 37.5203 39.2369 38.0131C39.6454 38.4189 39.9686 38.9022 40.1876 39.4347C40.4065 39.9672 40.5168 40.5381 40.5119 41.1139V41.3857C40.4487 43.8725 38.1752 45.8951 35.4213 45.8951Z" fill="#201F3B"/>
<path d="M95.1775 75.1099L85.8728 59.967C85.5663 59.4687 85.1529 59.0447 84.6625 58.7257C84.1722 58.4066 83.6171 58.2005 83.0373 58.1223C82.4576 58.044 81.8677 58.0955 81.3102 58.2731C80.7528 58.4506 80.2418 58.7498 79.8142 59.149L77.1775 61.6193L64.0243 41.6716C63.3804 40.6878 62.4143 39.9586 61.2915 39.6091L61.3173 37.4998L70.2681 34.5045C70.5468 34.4103 70.7922 34.2373 70.9744 34.0064C71.1566 33.7755 71.2679 33.4966 71.2946 33.2037C71.3196 32.9116 71.2585 32.6187 71.119 32.3609C70.9795 32.1031 70.7676 31.8918 70.5095 31.7529L60.6189 26.381C60.3901 26.2575 60.1333 26.1951 59.8733 26.2C59.6134 26.2048 59.3591 26.2768 59.1351 26.4088C58.9111 26.5408 58.7251 26.7285 58.5949 26.9536C58.4648 27.1787 58.395 27.4335 58.3923 27.6935L58.2775 39.5787C57.1059 39.9272 56.0997 40.6871 55.4439 41.7185L46.7392 55.3123C46.243 54.7672 45.6351 54.3356 44.957 54.0469C44.2788 53.7581 43.5464 53.619 42.8096 53.639C42.0728 53.659 41.349 53.8377 40.6875 54.1629C40.0261 54.488 39.4425 54.952 38.9767 55.5232L25.0009 72.5787L23.9064 71.4841C23.2796 70.862 22.4357 70.5079 21.5527 70.4965C20.6697 70.4851 19.8168 70.8174 19.1743 71.4232L15.4009 74.9529C15.2522 75.0946 15.1339 75.2652 15.0533 75.4542C14.9727 75.6432 14.9315 75.8467 14.9321 76.0521V103.373C14.9359 105.521 15.7908 107.579 17.3097 109.097C18.8285 110.615 20.8872 111.468 23.0345 111.471H87.204C89.3515 111.469 91.4106 110.615 92.9295 109.097C94.4485 107.579 95.3033 105.521 95.3064 103.373V76.4201C95.3861 76.2063 95.4159 75.9771 95.3936 75.7501C95.3712 75.523 95.2973 75.3041 95.1775 75.1099ZM61.3829 30.2341L66.0236 32.756L61.3478 34.3193L61.3829 30.2341ZM87.204 108.457H43.4064L43.3923 106.113H44.7657C45.1386 106.112 45.5059 106.022 45.8365 105.85C46.167 105.677 46.4512 105.428 46.665 105.122C46.8788 104.817 47.0159 104.464 47.0647 104.094C47.1135 103.725 47.0726 103.349 46.9454 102.998L44.0814 95.1326C43.922 94.6835 43.6267 94.2952 43.2365 94.0218C42.8463 93.7483 42.3805 93.6033 41.904 93.6068C41.4277 93.6045 40.9625 93.7503 40.5728 94.024C40.1846 94.2984 39.8901 94.6854 39.729 95.1326L36.8673 102.996C36.738 103.346 36.6953 103.722 36.7429 104.092C36.7905 104.463 36.9269 104.816 37.1406 105.122C37.3543 105.428 37.6389 105.678 37.97 105.85C38.3012 106.022 38.6691 106.112 39.0423 106.111H40.3782L40.3923 108.454H23.0251C21.6768 108.453 20.384 107.917 19.4302 106.964C18.4763 106.011 17.9393 104.719 17.9368 103.371V76.706L21.2181 73.6216C21.2918 73.5509 21.3901 73.5114 21.4923 73.5114C21.5945 73.5114 21.6928 73.5509 21.7665 73.6216L35.1259 86.8099L29.6134 91.6123C29.3217 91.8769 29.145 92.2449 29.121 92.638C29.0969 93.031 29.2274 93.4179 29.4846 93.7161C29.7418 94.0142 30.1053 94.2001 30.4976 94.234C30.8899 94.2679 31.28 94.1471 31.5845 93.8974C31.5845 93.8974 33.3564 92.3857 35.1212 90.8646C36.0048 90.1052 36.8884 89.3412 37.547 88.7552C37.9136 88.4453 38.264 88.1167 38.597 87.7709L38.611 87.7545L45.4689 82.3334C45.8837 82.0104 46.4042 81.8539 46.9283 81.8947C47.4525 81.9354 47.9425 82.1704 48.3025 82.5537L62.4446 97.8724L58.2259 101.976C58.0809 102.116 57.9657 102.284 57.8872 102.47C57.8086 102.656 57.7684 102.855 57.7689 103.057C57.7689 103.456 57.9276 103.84 58.2103 104.122C58.4929 104.405 58.8762 104.564 59.2759 104.564C59.6702 104.565 60.0492 104.411 60.3306 104.135L65.3204 99.2576H65.3368C65.4293 99.2089 65.5139 99.1465 65.5876 99.0724L68.9485 95.9459C69.5026 95.4301 70.2206 95.1258 70.9765 95.0864C71.7325 95.0469 72.4782 95.2749 73.0829 95.7302L89.2548 107.887C89.2931 107.92 89.3348 107.949 89.379 107.974C88.699 108.295 87.9559 108.46 87.204 108.457ZM40.036 103.097L41.911 97.9568L43.786 103.097H40.036ZM43.7087 73.5256L45.572 68.3927L47.447 73.5256H43.7087ZM92.2923 103.373C92.2922 104.317 92.0283 105.243 91.5306 106.045C91.4248 105.818 91.2636 105.621 91.0618 105.473L74.89 93.3138C74.1148 92.7269 73.2109 92.3332 72.2532 92.1654V90.1357H73.6196C73.992 90.1348 74.3586 90.0445 74.6887 89.8723C75.0188 89.7 75.3026 89.451 75.5163 89.1461C75.73 88.8412 75.8672 88.4894 75.9165 88.1203C75.9657 87.7513 75.9256 87.3758 75.7993 87.0256L72.94 79.1576C72.7768 78.7106 72.4802 78.3246 72.0903 78.0518C71.7004 77.7791 71.2361 77.6328 70.7603 77.6328C70.2844 77.6328 69.8201 77.7791 69.4302 78.0518C69.0403 78.3246 68.7437 78.7106 68.5806 79.1576L65.7212 87.0256C65.5949 87.376 65.5547 87.7517 65.6041 88.1209C65.6535 88.4902 65.791 88.8421 66.0049 89.147C66.2188 89.452 66.503 89.701 66.8334 89.8731C67.1638 90.0451 67.5307 90.1352 67.9032 90.1357H69.2392V92.3552C68.3658 92.6349 67.5653 93.1048 66.8954 93.731L64.6454 95.8263L50.5079 80.5099C49.6169 79.5482 48.3899 78.9666 47.0814 78.8857L47.0673 76.542H48.4384C48.8106 76.5415 49.1773 76.4515 49.5074 76.2795C49.8375 76.1076 50.1214 75.8587 50.3352 75.554C50.5489 75.2492 50.6862 74.8976 50.7354 74.5286C50.7847 74.1597 50.7444 73.7843 50.6181 73.4342L47.754 65.5662C47.592 65.1187 47.2961 64.732 46.9065 64.4587C46.5169 64.1854 46.0526 64.0388 45.5767 64.0388C45.1008 64.0388 44.6364 64.1854 44.2468 64.4587C43.8572 64.732 43.5613 65.1187 43.3993 65.5662L40.5353 73.4342C40.4089 73.7845 40.3686 74.1601 40.418 74.5292C40.4674 74.8983 40.6049 75.2502 40.8189 75.555C41.0329 75.8597 41.3171 76.1086 41.6475 76.2803C41.9779 76.4521 42.3449 76.5419 42.7173 76.542H44.0626L44.0767 79.6381C43.9089 79.7396 43.7476 79.8515 43.5939 79.9732L37.4368 84.8623L27.1571 74.7045C27.1839 74.6796 27.209 74.653 27.2321 74.6248L41.3064 57.4216C41.4984 57.1833 41.7399 56.9896 42.0143 56.854C42.2886 56.7184 42.5892 56.6441 42.8952 56.6363C43.2011 56.6285 43.5051 56.6874 43.786 56.8088C44.0669 56.9303 44.3181 57.1114 44.522 57.3396L55.922 69.9443L51.8275 74.231C51.5601 74.5134 51.4108 74.8874 51.4103 75.2763C51.4096 75.5777 51.4994 75.8722 51.6681 76.1219C51.8368 76.3716 52.0765 76.5649 52.3563 76.6768C52.6361 76.7887 52.9431 76.8139 53.2374 76.7494C53.5317 76.6848 53.7999 76.5333 54.0071 76.3146L59.3626 70.7084L63.5157 66.6701C63.5645 66.622 63.6224 66.5842 63.686 66.5588C63.7496 66.5335 63.8176 66.5211 63.886 66.5224C63.9546 66.5247 64.022 66.5406 64.0844 66.5692C64.1467 66.5978 64.2028 66.6384 64.2493 66.6888L72.0353 75.1685C72.3059 75.4628 72.6822 75.6377 73.0816 75.6548C73.481 75.672 73.8709 75.5299 74.1657 75.2599C74.46 74.9893 74.6349 74.613 74.652 74.2136C74.6692 73.8142 74.5272 73.4243 74.2571 73.1295L66.4642 64.6498C66.0512 64.1972 65.5267 63.861 64.9431 63.6748V61.9966H66.3282C66.7011 61.9977 67.0687 61.9086 67.3996 61.7368C67.7306 61.565 68.015 61.3157 68.2287 61.0101C68.4424 60.7045 68.579 60.3518 68.6268 59.982C68.6746 59.6122 68.6322 59.2364 68.5032 58.8865L65.6251 51.0256C65.4631 50.5782 65.1688 50.1907 64.7814 49.9146C64.3895 49.6415 63.923 49.4958 63.4454 49.4974C62.9689 49.4938 62.5031 49.6392 62.1132 49.9131C61.7232 50.1871 61.4286 50.576 61.2704 51.0256L58.4064 58.8865C58.2807 59.2376 58.2407 59.6137 58.2896 59.9834C58.3385 60.3532 58.475 60.7059 58.6876 61.0123C58.9018 61.3167 59.1861 61.5651 59.5165 61.7365C59.847 61.9078 60.2138 61.9971 60.586 61.9966H61.922V64.0873C61.7325 64.2078 61.5571 64.3493 61.3993 64.5091L58.022 67.7904L48.8181 57.6162L57.9587 43.3404C58.1494 43.0492 58.4091 42.8096 58.7149 42.6432C59.0206 42.4767 59.3628 42.3885 59.7109 42.3864C60.0589 42.3844 60.4021 42.4684 60.7098 42.6312C61.0175 42.794 61.2802 43.0304 61.4743 43.3193L74.8923 63.6748L72.0376 66.3279C71.8149 66.5337 71.6594 66.8017 71.5912 67.0972C71.523 67.3926 71.5454 67.7017 71.6554 67.9842C71.7655 68.2668 71.958 68.5096 72.208 68.6811C72.4581 68.8527 72.7539 68.9449 73.0571 68.9459C73.4337 68.9464 73.7964 68.804 74.072 68.5474L77.7704 65.1631L77.7845 65.1513C77.8349 65.1157 77.8834 65.0773 77.9298 65.0365L81.8743 61.3498C81.9756 61.2554 82.097 61.1853 82.2294 61.1447C82.3617 61.1041 82.5016 61.0941 82.6384 61.1154C82.7749 61.1345 82.9056 61.1834 83.0211 61.2588C83.1365 61.3341 83.2339 61.434 83.3064 61.5513L92.2923 76.1716V103.373ZM68.8829 87.1217L70.7579 81.9865L72.6329 87.1217H68.8829ZM61.5892 58.9826L63.4642 53.8474L65.3392 58.9826H61.5892Z" fill="#201F3B"/>
<path d="M96.1456 58.54H90.776C90.3763 58.54 89.993 58.3813 89.7104 58.0986C89.4278 57.816 89.269 57.4327 89.269 57.033C89.269 56.6333 89.4278 56.25 89.7104 55.9674C89.993 55.6848 90.3763 55.526 90.776 55.526H96.1456C96.5136 55.5186 96.8641 55.3672 97.1218 55.1043C97.3795 54.8414 97.5238 54.4879 97.5237 54.1197V53.8596C97.5283 53.6657 97.494 53.4729 97.4228 53.2925C97.3515 53.1121 97.2447 52.9479 97.1088 52.8096C96.9842 52.6813 96.8352 52.5791 96.6706 52.5091C96.506 52.4391 96.3291 52.4026 96.1502 52.4018L88.2893 52.383C87.7129 52.3825 87.1423 52.2669 86.6111 52.0432C86.0799 51.8194 85.5986 51.4919 85.1955 51.0799C84.5765 50.4595 84.1543 49.6703 83.9817 48.8111C83.8092 47.9519 83.894 47.0609 84.2255 46.2496C84.5571 45.4384 85.1206 44.743 85.8456 44.2506C86.5705 43.7582 87.4247 43.4906 88.301 43.4814H88.3245L105.017 43.5752C105.416 43.5752 105.8 43.734 106.082 44.0166C106.365 44.2992 106.524 44.6825 106.524 45.0822C106.524 45.4819 106.365 45.8652 106.082 46.1479C105.8 46.4305 105.416 46.5893 105.017 46.5893L88.3245 46.4955C87.9539 46.5029 87.6013 46.6562 87.3433 46.9222C87.0852 47.1882 86.9426 47.5453 86.9463 47.9158C86.9432 48.1093 86.9785 48.3016 87.0501 48.4814C87.1217 48.6612 87.2282 48.8251 87.3635 48.9635C87.4883 49.0907 87.6371 49.1921 87.8012 49.2617C87.9653 49.3313 88.1415 49.3677 88.3198 49.3689L96.1807 49.3877C96.7582 49.3884 97.3298 49.5044 97.8619 49.729C98.394 49.9535 98.8758 50.2822 99.2791 50.6955C99.6913 51.1172 100.016 51.6165 100.233 52.1644C100.451 52.7124 100.558 53.2982 100.547 53.8877V54.1408C100.537 55.3049 100.07 56.4186 99.247 57.2415C98.4235 58.0645 97.3097 58.5309 96.1456 58.54Z" fill="#201F3B"/>
<path d="M29.8638 98.1374L26.9998 90.2695C26.8406 89.8208 26.5456 89.4328 26.1559 89.1593C25.7661 88.8859 25.3009 88.7406 24.8248 88.7437C24.3487 88.7419 23.8837 88.8876 23.4938 89.1608C23.1039 89.434 22.8082 89.8213 22.6474 90.2695L19.7857 98.1328C19.657 98.483 19.6148 98.8592 19.6627 99.2292C19.7105 99.5993 19.847 99.9523 20.0606 100.258C20.2741 100.564 20.5583 100.814 20.8891 100.987C21.2199 101.16 21.5875 101.25 21.9607 101.25H23.2966L23.3177 105.023H26.3318L26.3107 101.25H27.6818C28.0545 101.25 28.4217 101.16 28.7524 100.988C29.0831 100.816 29.3675 100.567 29.5815 100.262C29.7956 99.9572 29.933 99.605 29.9821 99.2355C30.0313 98.8661 29.9907 98.4902 29.8638 98.1398V98.1374ZM22.9544 98.2335L24.8294 93.0984L26.7044 98.2335H22.9544Z" fill="#201F3B"/>
<path d="M85.7578 29.6157C84.0589 29.6157 82.3981 29.1119 80.9856 28.1681C79.573 27.2242 78.472 25.8827 77.8218 24.3131C77.1717 22.7435 77.0016 21.0164 77.333 19.3501C77.6645 17.6838 78.4826 16.1533 79.6839 14.9519C80.8852 13.7506 82.4158 12.9325 84.082 12.6011C85.7483 12.2696 87.4754 12.4398 89.045 13.0899C90.6146 13.74 91.9561 14.841 92.9 16.2536C93.8439 17.6662 94.3477 19.327 94.3477 21.0259C94.3446 23.3031 93.4386 25.4862 91.8283 27.0964C90.2181 28.7066 88.035 29.6126 85.7578 29.6157ZM85.7578 15.4501C84.655 15.4501 83.577 15.7771 82.6601 16.3898C81.7431 17.0025 81.0285 17.8733 80.6065 18.8921C80.1844 19.911 80.074 21.0321 80.2892 22.1137C80.5043 23.1953 81.0354 24.1888 81.8151 24.9686C82.5949 25.7483 83.5884 26.2794 84.67 26.4945C85.7516 26.7097 86.8727 26.5993 87.8916 26.1772C88.9104 25.7552 89.7812 25.0406 90.3939 24.1236C91.0066 23.2067 91.3336 22.1287 91.3336 21.0259C91.3317 19.5477 90.7437 18.1305 89.6984 17.0853C88.6532 16.04 87.236 15.452 85.7578 15.4501Z" fill="#201F3B"/>
<path d="M85.758 37.2892C85.5601 37.2892 85.3641 37.2502 85.1813 37.1744C84.9984 37.0987 84.8323 36.9877 84.6924 36.8478C84.5524 36.7078 84.4414 36.5417 84.3657 36.3588C84.29 36.176 84.251 35.98 84.251 35.7821V33.1853C84.251 32.7856 84.4098 32.4022 84.6924 32.1196C84.975 31.837 85.3583 31.6782 85.758 31.6782C86.1577 31.6782 86.541 31.837 86.8236 32.1196C87.1063 32.4022 87.265 32.7856 87.265 33.1853V35.7821C87.265 36.1818 87.1063 36.5651 86.8236 36.8478C86.541 37.1304 86.1577 37.2892 85.758 37.2892Z" fill="#201F3B"/>
<path d="M85.758 9.82285C85.5601 9.82285 85.3641 9.78387 85.1813 9.70814C84.9984 9.6324 84.8323 9.52139 84.6924 9.38145C84.5524 9.24151 84.4414 9.07538 84.3657 8.89254C84.29 8.7097 84.251 8.51373 84.251 8.31582V5.71895C84.251 5.31926 84.4098 4.93594 84.6924 4.65331C84.975 4.37069 85.3583 4.21191 85.758 4.21191C86.1577 4.21191 86.541 4.37069 86.8236 4.65331C87.1063 4.93594 87.265 5.31926 87.265 5.71895V8.31582C87.265 8.71551 87.1063 9.09883 86.8236 9.38145C86.541 9.66408 86.1577 9.82285 85.758 9.82285Z" fill="#201F3B"/>
<path d="M73.5938 22.5326H71.0017C70.602 22.5326 70.2187 22.3738 69.936 22.0912C69.6534 21.8086 69.4946 21.4253 69.4946 21.0256C69.4946 20.6259 69.6534 20.2426 69.936 19.96C70.2187 19.6773 70.602 19.5186 71.0017 19.5186H73.5938C73.9935 19.5186 74.3769 19.6773 74.6595 19.96C74.9421 20.2426 75.1009 20.6259 75.1009 21.0256C75.1009 21.4253 74.9421 21.8086 74.6595 22.0912C74.3769 22.3738 73.9935 22.5326 73.5938 22.5326Z" fill="#201F3B"/>
<path d="M100.514 22.5326H97.9172C97.5175 22.5326 97.1342 22.3738 96.8516 22.0912C96.5689 21.8086 96.4102 21.4253 96.4102 21.0256C96.4102 20.6259 96.5689 20.2426 96.8516 19.96C97.1342 19.6773 97.5175 19.5186 97.9172 19.5186H100.514C100.914 19.5186 101.297 19.6773 101.58 19.96C101.862 20.2426 102.021 20.6259 102.021 21.0256C102.021 21.4253 101.862 21.8086 101.58 22.0912C101.297 22.3738 100.914 22.5326 100.514 22.5326Z" fill="#201F3B"/>
<path d="M77.1586 13.3827C76.9605 13.3833 76.7643 13.3446 76.5813 13.269C76.3983 13.1934 76.232 13.0823 76.0922 12.9421L74.257 11.1069C73.9742 10.8244 73.8152 10.4411 73.8149 10.0413C73.8147 9.64157 73.9733 9.2581 74.2558 8.97527C74.5384 8.69244 74.9216 8.53342 75.3214 8.5332C75.7212 8.53298 76.1046 8.69158 76.3875 8.9741L78.225 10.8116C78.4377 11.0221 78.5829 11.2912 78.6421 11.5845C78.7013 11.8779 78.6718 12.1822 78.5574 12.4587C78.4431 12.7353 78.2489 12.9715 77.9998 13.1373C77.7507 13.3031 77.4578 13.391 77.1586 13.3897V13.3827Z" fill="#201F3B"/>
<path d="M96.1899 32.9673C95.9921 32.9675 95.7962 32.9285 95.6135 32.8524C95.4309 32.7764 95.2651 32.6649 95.1259 32.5243L93.2813 30.6892C93.0114 30.4041 92.8634 30.025 92.8688 29.6324C92.8742 29.2399 93.0325 28.865 93.31 28.5874C93.5876 28.3098 93.9626 28.1515 94.3551 28.1461C94.7476 28.1408 95.1267 28.2888 95.4118 28.5587L97.247 30.3938C97.4585 30.6048 97.6027 30.8738 97.6612 31.1667C97.7198 31.4597 97.6901 31.7635 97.5759 32.0395C97.4617 32.3156 97.2682 32.5516 97.0198 32.7175C96.7714 32.8835 96.4793 32.9721 96.1806 32.972L96.1899 32.9673Z" fill="#201F3B"/>
<path d="M94.3547 13.3827C94.0551 13.3846 93.7618 13.2971 93.5123 13.1313C93.2628 12.9655 93.0684 12.729 92.9541 12.4521C92.8399 12.1752 92.8108 11.8704 92.8708 11.5769C92.9307 11.2834 93.0769 11.0145 93.2906 10.8046L95.1258 8.9694C95.4092 8.68564 95.7938 8.5261 96.1949 8.52588C96.596 8.52566 96.9807 8.68478 97.2645 8.96823C97.5482 9.25168 97.7078 9.63624 97.708 10.0373C97.7082 10.4384 97.5491 10.8231 97.2656 11.1069L95.4305 12.9421C95.2897 13.0836 95.1219 13.1955 94.9372 13.2712C94.7524 13.3469 94.5543 13.3848 94.3547 13.3827Z" fill="#201F3B"/>
<path d="M75.3234 32.9672C75.0241 32.9684 74.7313 32.8805 74.4821 32.7147C74.233 32.5489 74.0389 32.3127 73.9245 32.0362C73.8101 31.7596 73.7806 31.4553 73.8399 31.162C73.8991 30.8686 74.0443 30.5996 74.257 30.389L76.0921 28.5539C76.3746 28.2711 76.7579 28.112 77.1577 28.1118C77.5575 28.1116 77.9409 28.2702 78.2238 28.5527C78.5066 28.8352 78.6656 29.2185 78.6658 29.6183C78.666 30.018 78.5075 30.4015 78.2249 30.6843L76.3874 32.5195C76.2486 32.6609 76.083 32.7733 75.9003 32.8502C75.7177 32.927 75.5215 32.9668 75.3234 32.9672Z" fill="#201F3B"/>
</svg>
