<svg width="120" height="120" viewBox="0 0 120 120" fill="none" xmlns="http://www.w3.org/2000/svg">
<path d="M99.5016 32.7564C97.8028 32.7559 96.1422 32.2517 94.7299 31.3076C93.3177 30.3634 92.217 29.0217 91.5673 27.4521C90.9175 25.8824 90.7477 24.1554 91.0794 22.4893C91.4111 20.8232 92.2294 19.2928 93.4308 18.0917C94.6322 16.8907 96.1628 16.0728 97.829 15.7415C99.4952 15.4103 101.222 15.5805 102.792 16.2308C104.361 16.881 105.703 17.9819 106.646 19.3945C107.59 20.807 108.094 22.4677 108.094 24.1665C108.091 26.4443 107.185 28.6281 105.574 30.2385C103.963 31.849 101.779 32.7545 99.5016 32.7564ZM99.5016 18.5907C98.3988 18.5907 97.3208 18.9177 96.4038 19.5304C95.4869 20.1431 94.7722 21.0139 94.3502 22.0327C93.9282 23.0516 93.8178 24.1727 94.0329 25.2543C94.2481 26.3359 94.7791 27.3294 95.5589 28.1092C96.3387 28.889 97.3322 29.42 98.4138 29.6352C99.4954 29.8503 100.616 29.7399 101.635 29.3179C102.654 28.8958 103.525 28.1812 104.138 27.2642C104.75 26.3473 105.077 25.2693 105.077 24.1665C105.075 22.6883 104.487 21.2711 103.442 20.2259C102.397 19.1806 100.98 18.5926 99.5016 18.5907Z" fill="#201F3B"/>
<path d="M99.5017 40.4295C99.3038 40.4295 99.1078 40.3905 98.9249 40.3148C98.7421 40.239 98.576 40.128 98.436 39.9881C98.2961 39.8482 98.1851 39.682 98.1093 39.4992C98.0336 39.3163 97.9946 39.1204 97.9946 38.9225V36.3279C97.9946 35.9273 98.1538 35.5431 98.4371 35.2598C98.7203 34.9765 99.1046 34.8174 99.5052 34.8174C99.9058 34.8174 100.29 34.9765 100.573 35.2598C100.857 35.5431 101.016 35.9273 101.016 36.3279V38.9248C101.015 39.1231 100.976 39.3194 100.9 39.5024C100.823 39.6855 100.712 39.8516 100.571 39.9914C100.43 40.1312 100.264 40.2418 100.08 40.317C99.8965 40.3922 99.7 40.4304 99.5017 40.4295Z" fill="#201F3B"/>
<path d="M99.5017 13.5143C99.3038 13.5143 99.1078 13.4753 98.9249 13.3995C98.7421 13.3238 98.576 13.2128 98.436 13.0729C98.2961 12.9329 98.1851 12.7668 98.1093 12.5839C98.0336 12.4011 97.9946 12.2051 97.9946 12.0072V9.41035C97.9946 9.01066 98.1534 8.62734 98.436 8.34472C98.7187 8.0621 99.102 7.90332 99.5017 7.90332C99.9014 7.90332 100.285 8.0621 100.567 8.34472C100.85 8.62734 101.009 9.01066 101.009 9.41035V12.0072C101.009 12.4069 100.85 12.7902 100.567 13.0729C100.285 13.3555 99.9014 13.5143 99.5017 13.5143Z" fill="#201F3B"/>
<path d="M87.3422 25.6732H84.7453C84.3456 25.6732 83.9623 25.5145 83.6797 25.2318C83.3971 24.9492 83.2383 24.5659 83.2383 24.1662C83.2383 23.7665 83.3971 23.3832 83.6797 23.1006C83.9623 22.818 84.3456 22.6592 84.7453 22.6592H87.3422C87.7419 22.6592 88.1252 22.818 88.4078 23.1006C88.6904 23.3832 88.8492 23.7665 88.8492 24.1662C88.8492 24.5659 88.6904 24.9492 88.4078 25.2318C88.1252 25.5145 87.7419 25.6732 87.3422 25.6732Z" fill="#201F3B"/>
<path d="M114.258 25.6732H111.663C111.264 25.6732 110.88 25.5145 110.598 25.2318C110.315 24.9492 110.156 24.5659 110.156 24.1662C110.156 23.7665 110.315 23.3832 110.598 23.1006C110.88 22.818 111.264 22.6592 111.663 22.6592H114.258C114.658 22.6592 115.041 22.818 115.323 23.1006C115.606 23.3832 115.765 23.7665 115.765 24.1662C115.765 24.5659 115.606 24.9492 115.323 25.2318C115.041 25.5145 114.658 25.6732 114.258 25.6732Z" fill="#201F3B"/>
<path d="M90.9047 17.0742C90.7071 17.0757 90.5112 17.0382 90.3282 16.9638C90.1452 16.8894 89.9787 16.7796 89.8383 16.6406L88.0031 14.8055C87.8569 14.667 87.7399 14.5007 87.6591 14.3163C87.5782 14.1318 87.5351 13.9331 87.5324 13.7317C87.5296 13.5304 87.5672 13.3305 87.643 13.1439C87.7188 12.9574 87.8312 12.7879 87.9736 12.6455C88.116 12.5031 88.2855 12.3907 88.4721 12.3149C88.6586 12.2391 88.8585 12.2015 89.0598 12.2042C89.2612 12.207 89.46 12.2501 89.6444 12.3309C89.8288 12.4118 89.9952 12.5288 90.1336 12.675L91.9688 14.5102C92.1813 14.7205 92.3265 14.9894 92.3857 15.2825C92.445 15.5756 92.4158 15.8798 92.3017 16.1562C92.1876 16.4326 91.9938 16.6689 91.745 16.8349C91.4963 17.0009 91.2037 17.0891 90.9047 17.0883V17.0742Z" fill="#201F3B"/>
<path d="M109.936 36.108C109.738 36.1081 109.542 36.0693 109.36 35.9937C109.177 35.9181 109.011 35.8072 108.872 35.6674L107.034 33.8299C106.894 33.6898 106.783 33.5236 106.708 33.3407C106.632 33.1578 106.593 32.9617 106.593 32.7638C106.593 32.5659 106.632 32.3699 106.708 32.187C106.784 32.0042 106.895 31.8381 107.035 31.6982C107.175 31.5583 107.342 31.4474 107.525 31.3717C107.707 31.2961 107.903 31.2572 108.101 31.2573C108.299 31.2574 108.495 31.2965 108.678 31.3724C108.861 31.4482 109.027 31.5593 109.167 31.6994L111.002 33.5345C111.215 33.7451 111.36 34.0141 111.419 34.3075C111.478 34.6008 111.449 34.9051 111.335 35.1817C111.22 35.4582 111.026 35.6944 110.777 35.8602C110.528 36.026 110.235 36.1139 109.936 36.1127V36.108Z" fill="#201F3B"/>
<path d="M108.101 17.074C107.801 17.0753 107.509 16.9874 107.259 16.8216C107.01 16.6558 106.816 16.4196 106.702 16.143C106.587 15.8665 106.558 15.5622 106.617 15.2688C106.676 14.9755 106.822 14.7064 107.034 14.4959L108.872 12.6607C109.157 12.3908 109.536 12.2428 109.929 12.2482C110.321 12.2535 110.696 12.4119 110.974 12.6894C111.251 12.967 111.409 13.342 111.415 13.7345C111.42 14.127 111.272 14.5061 111.002 14.7912L109.167 16.6404C109.027 16.7794 108.86 16.8892 108.677 16.9636C108.494 17.038 108.298 17.0755 108.101 17.074Z" fill="#201F3B"/>
<path d="M89.0627 36.1076C88.7637 36.1084 88.4711 36.0202 88.2224 35.8542C87.9736 35.6882 87.7798 35.452 87.6657 35.1755C87.5517 34.8991 87.5224 34.5949 87.5817 34.3018C87.6409 34.0087 87.7861 33.7398 87.9987 33.5295L89.8338 31.6943C89.9739 31.5544 90.1401 31.4435 90.323 31.3678C90.5059 31.2922 90.7019 31.2533 90.8999 31.2534C91.0978 31.2535 91.2938 31.2926 91.4766 31.3685C91.6595 31.4443 91.8256 31.5554 91.9655 31.6955C92.1053 31.8355 92.2163 32.0017 92.2919 32.1847C92.3676 32.3676 92.4065 32.5636 92.4063 32.7615C92.4062 32.9595 92.3671 33.1555 92.2913 33.3383C92.2154 33.5211 92.1043 33.6872 91.9643 33.8271L90.1291 35.6623C89.9895 35.8031 89.8234 35.915 89.6404 35.9914C89.4574 36.0678 89.261 36.1073 89.0627 36.1076Z" fill="#201F3B"/>
<path d="M59.0625 87.6562H102.759C103.455 87.6562 104.122 87.9326 104.614 88.4244C105.106 88.9162 105.382 89.5833 105.382 90.2789V90.6562C105.382 91.0009 105.315 91.3422 105.183 91.6606C105.051 91.9791 104.858 92.2685 104.615 92.5123C104.371 92.756 104.082 92.9494 103.764 93.0814C103.445 93.2133 103.104 93.2812 102.759 93.2812H59.0625V87.6562Z" fill="#91FFC5"/>
<path d="M45.3306 71.5409C46.8198 70.9272 48.4908 70.9244 49.9821 71.5332C51.4733 72.142 52.665 73.3134 53.2993 74.794L59.1728 88.4838C59.4665 89.1678 59.5859 89.9139 59.5201 90.6554C59.4543 91.3968 59.2054 92.1103 58.7958 92.7318C58.3862 93.3533 57.8287 93.8634 57.1733 94.2162C56.5178 94.5691 55.7851 94.7536 55.0407 94.7534L45.3306 71.5409Z" fill="#91FFC5"/>
<path d="M77.6553 65.2592C77.6553 62.9628 78.1076 60.6889 78.9864 58.5673C79.8652 56.4457 81.1532 54.518 82.777 52.8942C86.0564 49.6148 90.5042 47.7725 95.142 47.7725C103.516 47.7725 110.707 53.4701 112.469 61.2818C112.573 61.7311 112.575 62.198 112.474 62.648C112.374 63.0981 112.174 63.5199 111.889 63.8825C111.604 64.2451 111.242 64.5393 110.828 64.7435C110.415 64.9477 109.961 65.0566 109.5 65.0623C100.692 65.149 77.7139 65.2732 77.7139 65.2732" fill="#91FFC5"/>
<path d="M57.5225 91.9008C57.665 91.6896 57.7785 91.4602 57.86 91.2188C57.7335 91.4389 57.6208 91.6667 57.5225 91.9008Z" fill="#201F3B"/>
<path d="M60.2158 93.2486H60.2346C60.3622 93.027 60.4742 92.7968 60.5697 92.5596C60.4291 92.7769 60.3106 93.0077 60.2158 93.2486Z" fill="#201F3B"/>
<path d="M28.8823 51.3279L31.894 49.1248C32.0908 48.9821 32.317 48.8849 32.556 48.8404C32.795 48.7958 33.041 48.8049 33.276 48.867C33.5111 48.9292 33.7294 49.0428 33.9152 49.1996C34.101 49.3565 34.2496 49.5527 34.3502 49.774L38.3346 58.6568C38.3899 58.7802 38.4779 58.8862 38.5891 58.9631C38.7004 59.0401 38.8306 59.0851 38.9656 59.0933C39.1006 59.1015 39.2352 59.0726 39.355 59.0097C39.4747 58.9468 39.5749 58.8523 39.6448 58.7365C42.6028 53.8361 43.7839 48.0668 42.9893 42.3982L42.5651 39.3748C42.5468 39.2479 42.5619 39.1185 42.6088 38.9993C42.6557 38.88 42.7328 38.775 42.8326 38.6946C42.9324 38.6142 43.0514 38.5612 43.1779 38.5407C43.3044 38.5202 43.4341 38.5331 43.5541 38.5779L54.6096 42.6982C54.7465 42.75 54.8957 42.76 55.0382 42.727C55.1808 42.694 55.3105 42.6196 55.4108 42.513C55.5111 42.4064 55.5775 42.2725 55.6018 42.1282C55.6261 41.9839 55.607 41.8356 55.5471 41.7021L54.4854 39.3232C51.551 32.7467 48.9026 28.7412 42.326 25.8045L37.3737 23.8287C37.2558 23.7823 37.1281 23.7667 37.0026 23.7835C36.8771 23.8003 36.7579 23.849 36.6565 23.9248L30.2041 28.7787L43.4065 19.0849C43.5258 18.9981 43.6164 18.8775 43.6665 18.7387C43.7167 18.5999 43.724 18.4492 43.6877 18.3062C43.6514 18.1632 43.573 18.0343 43.4627 17.9362C43.3524 17.8382 43.2153 17.7754 43.069 17.756L42.8909 17.7326C37.6385 17.0107 31.5799 19.1388 27.5815 22.631L27.5205 22.6802L20.6791 27.3162C20.5565 27.3986 20.4121 27.4426 20.2643 27.4427H17.3651C12.6119 27.5388 7.49085 30.3607 4.3807 33.9631L4.34554 34.0052L1.03382 38.3131C0.936468 38.4403 0.882982 38.5956 0.881384 38.7558C0.879787 38.916 0.930165 39.0723 1.02496 39.2015C1.11976 39.3306 1.25386 39.4255 1.40717 39.472C1.56047 39.5184 1.7247 39.5139 1.87523 39.4592L7.05726 37.5654C10.9807 36.267 12.7948 35.4232 16.0409 34.0006L6.01195 43.7459C5.90204 43.8553 5.82941 43.9966 5.80435 44.1497C5.77929 44.3028 5.80308 44.4599 5.87234 44.5986C5.94161 44.7374 6.05283 44.8509 6.19022 44.9229C6.32761 44.9949 6.48418 45.0218 6.63773 44.9998L14.1096 43.8818" fill="#91FFC5"/>
<path d="M8.72363 109.898L9.97754 107.766C11.1143 105.83 13.5377 104.484 16.3666 104.189L21.0002 103.72C21.4012 103.679 21.8042 103.66 22.2072 103.664L30.0705 103.732C31.8924 103.727 33.6813 104.218 35.2455 105.152L39.1783 107.601C39.6091 107.867 40.0113 108.177 40.3783 108.525L42.1244 110.194" fill="#91FFC5"/>
<path d="M72.9071 24.1664C72.9065 24.5659 72.7475 24.9489 72.465 25.2314C72.1826 25.5138 71.7996 25.6728 71.4001 25.6734H69.1407V27.9234C69.1407 28.3231 68.982 28.7064 68.6993 28.9891C68.4167 29.2717 68.0334 29.4305 67.6337 29.4305C67.234 29.4305 66.8507 29.2717 66.5681 28.9891C66.2854 28.7064 66.1267 28.3231 66.1267 27.9234V25.6734H63.8767C63.477 25.6734 63.0937 25.5147 62.811 25.232C62.5284 24.9494 62.3696 24.5661 62.3696 24.1664C62.3696 23.7667 62.5284 23.3834 62.811 23.1008C63.0937 22.8181 63.477 22.6594 63.8767 22.6594H66.1267V20.4094C66.1267 20.0097 66.2854 19.6264 66.5681 19.3437C66.8507 19.0611 67.234 18.9023 67.6337 18.9023C68.0334 18.9023 68.4167 19.0611 68.6993 19.3437C68.982 19.6264 69.1407 20.0097 69.1407 20.4094V22.6594H71.3931C71.5915 22.6588 71.7881 22.6973 71.9716 22.7727C72.1551 22.8481 72.3219 22.959 72.4626 23.099C72.6032 23.2389 72.7148 23.4053 72.7911 23.5884C72.8674 23.7716 72.9068 23.968 72.9071 24.1664Z" fill="#EBEBEB"/>
<path d="M27.8743 15.8834C27.0042 15.8834 26.1537 15.6254 25.4302 15.142C24.7068 14.6586 24.1429 13.9715 23.81 13.1677C23.477 12.3638 23.3899 11.4793 23.5596 10.6259C23.7294 9.77257 24.1484 8.98871 24.7636 8.37346C25.3788 7.75822 26.1627 7.33924 27.0161 7.16949C27.8694 6.99975 28.754 7.08687 29.5578 7.41983C30.3617 7.7528 31.0487 8.31666 31.5321 9.04011C32.0155 9.76355 32.2735 10.6141 32.2735 11.4842C32.2723 12.6505 31.8084 13.7688 30.9837 14.5935C30.1589 15.4183 29.0407 15.8822 27.8743 15.8834ZM27.8743 10.1014C27.6003 10.1014 27.3324 10.1827 27.1045 10.335C26.8767 10.4873 26.6991 10.7038 26.5944 10.957C26.4896 11.2102 26.4623 11.4889 26.516 11.7576C26.5696 12.0264 26.7017 12.2732 26.8957 12.4668C27.0896 12.6604 27.3367 12.7922 27.6055 12.8454C27.8744 12.8985 28.153 12.8708 28.406 12.7656C28.6591 12.6604 28.8753 12.4825 29.0272 12.2544C29.1791 12.0263 29.2599 11.7582 29.2595 11.4842C29.2589 11.1172 29.1126 10.7655 28.8529 10.5062C28.5932 10.247 28.2413 10.1014 27.8743 10.1014Z" fill="#91FFC5"/>
<path d="M115.547 107.765H99.5322V102.29H105.506C105.906 102.29 106.289 102.131 106.571 101.848C106.854 101.566 107.013 101.183 107.013 100.783V94.7552C107.013 94.4651 106.929 94.1812 106.771 93.9379C106.613 93.6946 106.388 93.5023 106.123 93.3841C105.805 91.7649 104.935 90.306 103.662 89.256C102.389 88.206 100.791 87.6298 99.1408 87.6255H89.7658V71.5943C89.7672 71.3336 89.6992 71.0772 89.5689 70.8513C90.4095 70.1424 91.0617 69.2366 91.4674 68.2146C91.973 69.4612 92.84 70.5279 93.9569 71.2777C95.0737 72.0274 96.3894 72.4258 97.7346 72.4216C99.5012 72.4192 101.195 71.7159 102.443 70.4663C103.692 69.2167 104.394 67.5227 104.396 65.756C104.395 65.6305 104.38 65.5054 104.351 65.3834C104.29 55.099 95.6791 46.7459 85.1041 46.7459C80.0716 46.7539 75.2475 48.7566 71.689 52.3152C68.1305 55.8737 66.1278 60.6978 66.1197 65.7302V65.8216C66.1197 69.4521 69.1385 72.4123 72.8557 72.4123C74.1784 72.4114 75.4709 72.0168 76.5686 71.2789C77.6663 70.541 78.5196 69.493 79.0197 68.2685C79.4315 69.2693 80.0816 70.1544 80.9135 70.8466C80.7869 71.0757 80.7193 71.3326 80.7166 71.5943V87.6255H64.0502C62.9025 87.6246 61.7717 87.902 60.7549 88.4341C60.6939 88.2537 60.6236 88.0685 60.5486 87.888L54.6705 74.1982C53.9566 72.5601 52.6942 71.2219 51.1004 70.4139C49.5066 69.6058 47.681 69.3785 45.9377 69.7709L44.8127 67.1482C44.6552 66.7855 44.3619 66.499 43.9956 66.35C43.6293 66.201 43.2192 66.2015 42.8533 66.3513L37.2658 68.6365C36.8961 68.7877 36.6015 69.0795 36.4468 69.4478C36.2921 69.8161 36.29 70.2307 36.4408 70.6006L45.7033 93.2482H38.8596C38.6616 93.2479 38.4655 93.2867 38.2825 93.3623C38.0995 93.4379 37.9332 93.5489 37.7932 93.6889C37.6532 93.8289 37.5422 93.9952 37.4666 94.1782C37.391 94.3611 37.3522 94.5572 37.3525 94.7552V100.781C37.3522 100.979 37.391 101.175 37.4666 101.358C37.5422 101.541 37.6532 101.707 37.7932 101.847C37.9332 101.987 38.0995 102.098 38.2825 102.174C38.4655 102.25 38.6616 102.288 38.8596 102.288H47.44V107.784H39.0564L37.3338 105.558C36.9142 105.014 36.4372 104.518 35.9111 104.076L31.9783 100.76C30.263 99.3128 28.0981 98.5067 25.8541 98.4795L24.0002 98.4607C23.5924 95.074 22.6244 85.4834 23.9158 80.4138C24.4666 78.2341 25.5213 74.8732 26.7072 71.2966C26.8385 70.8935 26.9744 70.4881 27.1103 70.0802C28.9525 64.5982 30.9822 58.8771 31.9033 56.3248C32.6338 56.5772 33.4092 56.6733 34.1792 56.6067C34.9492 56.54 35.6966 56.3122 36.3728 55.9381C36.6027 56.0157 36.8478 56.0371 37.0876 56.0004C37.3274 55.9636 37.5549 55.8699 37.751 55.7271L40.8846 53.4373L45.5111 63.7498C45.6233 64.0008 45.802 64.2164 46.0281 64.373C46.2541 64.5296 46.5187 64.6213 46.7932 64.6381H46.8893C47.1475 64.6391 47.4016 64.5731 47.6267 64.4466C47.8518 64.3201 48.0403 64.1373 48.1736 63.9162L49.0432 62.4795C52.093 57.4246 53.3134 51.4753 52.5002 45.6279L52.2189 43.624L63.7267 47.9084C64.0054 48.0123 64.3086 48.0315 64.5982 47.9637C64.8878 47.8959 65.1509 47.744 65.3544 47.5272C65.558 47.3103 65.693 47.0382 65.7424 46.7449C65.7918 46.4516 65.7535 46.1503 65.6322 45.8787L63.8533 41.8943C60.7033 34.842 57.8346 30.7029 50.9228 27.6115C50.9034 27.6017 50.883 27.5938 50.8619 27.5881L48.1549 26.5076L53.7447 22.4037C53.9896 22.227 54.1757 21.9808 54.279 21.697C54.3823 21.4133 54.3979 21.105 54.3239 20.8122C54.2499 20.5195 54.0896 20.2557 53.8639 20.0551C53.6382 19.8545 53.3574 19.7264 53.058 19.6873L51.0728 19.4177C46.0197 18.7146 40.1369 20.4115 35.7002 23.7513C29.44 19.4359 22.0783 16.9967 14.4799 16.7201L8.77754 16.5045C8.43916 16.4869 8.10475 16.584 7.82829 16.7799C7.55183 16.9758 7.34946 17.2591 7.25384 17.5842C7.15822 17.9092 7.17493 18.257 7.30127 18.5714C7.42762 18.8858 7.65623 19.1485 7.95019 19.317L15.551 23.8615C17.964 25.3034 20.1175 27.1407 21.9213 29.2966L22.1205 29.531C18.0963 30.4685 14.0439 32.8826 11.1939 36.1873C11.1764 36.2083 11.16 36.2302 11.1447 36.2529L6.25566 42.5974C6.05394 42.8563 5.94208 43.1739 5.93703 43.502C5.93199 43.8301 6.03403 44.151 6.22771 44.4159C6.42138 44.6809 6.69613 44.8755 7.01033 44.9703C7.32454 45.065 7.66107 45.0548 7.96895 44.9412L15.4994 42.1873C16.1791 41.967 16.7955 41.756 17.3744 41.5545L11.29 47.4513C11.0587 47.6729 10.9039 47.9625 10.8482 48.278C10.7926 48.5935 10.8389 48.9185 10.9805 49.2059C11.1221 49.4932 11.3516 49.728 11.6357 49.8761C11.9198 50.0242 12.2437 50.0779 12.5604 50.0295L21.0564 48.7498C21.4757 49.6809 22.143 50.4788 22.9853 51.056C20.9299 55.4951 13.8283 71.0154 11.9885 77.749C10.2611 84.0396 10.1557 95.8146 10.165 99.5271C8.87947 99.9612 7.69879 100.659 6.69866 101.576C5.69853 102.493 4.90101 103.609 4.35723 104.852L3.10098 107.742C3.09255 107.759 3.08626 107.777 3.08223 107.796H2.40254C2.00285 107.796 1.61953 107.955 1.33691 108.237C1.05428 108.52 0.895508 108.903 0.895508 109.303C0.895508 109.703 1.05428 110.086 1.33691 110.369C1.61953 110.651 2.00285 110.81 2.40254 110.81L115.547 110.779C115.947 110.779 116.33 110.621 116.613 110.338C116.895 110.055 117.054 109.672 117.054 109.272C117.054 108.873 116.895 108.489 116.613 108.207C116.33 107.924 115.947 107.765 115.547 107.765ZM28.015 58.2584L23.9908 56.1068C24.6143 54.7357 25.1463 53.5709 25.5377 52.7154L29.1541 55.0591C28.8775 55.8115 28.4861 56.9201 28.015 58.2584ZM23.5924 46.4974C23.5919 46.0004 23.7389 45.5144 24.0147 45.1009C24.2905 44.6874 24.6827 44.365 25.1418 44.1745C25.6008 43.984 26.1061 43.9339 26.5936 44.0306C27.0811 44.1273 27.529 44.3664 27.8807 44.7176C28.2323 45.0689 28.4718 45.5166 28.5689 46.0041C28.6661 46.4915 28.6164 46.9968 28.4264 47.456C28.2363 47.9153 27.9142 48.3078 27.501 48.584C27.0878 48.8602 26.6019 49.0076 26.1049 49.0076C25.4391 49.007 24.8008 48.7424 24.3298 48.2718C23.8588 47.8013 23.5936 47.1632 23.5924 46.4974ZM33.701 53.606C33.204 53.606 32.7183 53.4587 32.3051 53.1826C31.8919 52.9065 31.5699 52.5141 31.3797 52.055C31.1896 51.5959 31.1398 51.0907 31.2368 50.6034C31.3337 50.116 31.573 49.6683 31.9244 49.3169C32.2757 48.9655 32.7234 48.7262 33.2108 48.6293C33.6982 48.5324 34.2034 48.5821 34.6625 48.7723C35.1216 48.9624 35.514 49.2845 35.79 49.6977C36.0661 50.1108 36.2135 50.5966 36.2135 51.0935C36.211 51.7591 35.9455 52.3967 35.4748 52.8674C35.0042 53.3381 34.3666 53.6036 33.701 53.606ZM17.1096 21.2787L14.5455 19.7506C21.1508 20.0203 27.5621 22.0611 33.108 25.6591L28.008 29.1138H25.7182L24.2369 27.3466C22.2158 24.941 19.8068 22.8901 17.1096 21.2787ZM20.6252 45.7685L16.7416 46.3451L25.0596 38.2638C25.3118 38.0171 25.4696 37.6898 25.5056 37.3387C25.5415 36.9877 25.4534 36.6352 25.2565 36.3424C25.0595 36.0496 24.7662 35.8351 24.4275 35.7361C24.0888 35.6371 23.7262 35.6599 23.4025 35.8006L22.5002 36.2037C19.8976 37.3935 17.231 38.4381 14.5127 39.3326L11.8174 40.3123L13.5049 38.1115C16.5354 34.6099 21.2979 32.2099 25.3408 32.1302H27.8908C27.9307 32.1302 32.0721 32.2287 37.1252 39.0912C37.2653 39.282 37.4485 39.4371 37.6599 39.5438C37.8713 39.6505 38.1048 39.7058 38.3416 39.7052C38.6623 39.7061 38.9744 39.6015 39.2299 39.4076C39.3902 39.2907 39.5257 39.1432 39.6287 38.9737C39.7317 38.8042 39.8001 38.6159 39.8299 38.4198C39.8598 38.2237 39.8505 38.0236 39.8026 37.8311C39.7547 37.6386 39.6692 37.4575 39.551 37.2982C36.6072 33.3138 33.8697 31.2513 31.7697 30.1966L36.3658 27.0818C36.417 27.0453 36.4663 27.0062 36.5135 26.9646C39.8533 24.042 44.576 22.2771 48.7853 22.2771H48.8064L44.5549 25.4037C44.3745 25.4499 44.2044 25.5293 44.0533 25.6381L37.2705 30.7404C36.9611 30.983 36.7587 31.337 36.7066 31.7268C36.6546 32.1166 36.7569 32.5113 36.9918 32.8266C37.2267 33.142 37.5756 33.353 37.964 33.4147C38.3523 33.4764 38.7494 33.3838 39.0705 33.1568L45.2838 28.5959L49.7158 30.3584C55.7533 33.0631 58.1955 36.6279 61.083 43.1037L61.3994 43.8068L52.4416 40.4693C50.3932 39.0631 47.1916 36.506 46.4838 34.9381C46.3191 34.5738 46.0164 34.2899 45.6423 34.1488C45.2683 34.0077 44.8535 34.021 44.4893 34.1857C44.125 34.3504 43.8411 34.6531 43.7 35.0272C43.5589 35.4012 43.5722 35.816 43.7369 36.1802C44.5853 38.0552 47.0322 40.1834 48.8932 41.606L49.5096 46.0216C50.1701 50.7618 49.318 55.5895 47.0744 59.817L43.3244 51.4779C43.1785 51.1506 42.9611 50.8602 42.6884 50.6278C42.4156 50.3954 42.0943 50.227 41.7481 50.1348C41.4018 50.0427 41.0393 50.0292 40.6871 50.0953C40.3349 50.1614 40.002 50.3055 39.7127 50.517L39.2205 50.8802C39.1895 49.9901 38.9438 49.1207 38.5043 48.3461C38.0649 47.5714 37.4447 46.9144 36.6967 46.431C35.9486 45.9477 35.0948 45.6522 34.208 45.5699C33.3211 45.4877 32.4275 45.6209 31.6033 45.9584C31.476 44.6072 30.8559 43.3502 29.8611 42.4271C28.8663 41.5039 27.5665 40.9793 26.2096 40.9532C24.8527 40.9271 23.5337 41.4015 22.5042 42.2857C21.4746 43.1699 20.8066 44.4022 20.6275 45.7474L20.6252 45.7685ZM22.7486 58.8607L26.9955 61.1318C26.2502 63.2412 25.4228 65.6482 24.6143 68.0435L19.8213 65.5873C20.815 63.2459 21.8346 60.9373 22.7533 58.8607H22.7486ZM18.6447 68.3763L23.6486 70.9381C22.9853 72.9466 22.3689 74.8802 21.8603 76.5631L16.1369 74.7654C16.8424 72.8365 17.7096 70.6357 18.6494 68.3763H18.6447ZM14.8947 78.5482C14.9744 78.2576 15.0658 77.9459 15.1666 77.6107L21.0494 79.4599C21.033 79.5255 21.0143 79.5912 20.9979 79.6568C20.4799 81.7123 20.2807 84.3443 20.2643 87.0373L13.6385 86.8404C13.8916 83.763 14.2971 80.7537 14.8924 78.5482H14.8947ZM13.4369 89.8568L20.3041 90.0584C20.426 93.4287 20.7424 96.574 20.958 98.4232L17.9885 98.3881C17.512 98.3852 17.0359 98.4149 16.5635 98.4771L13.1814 98.9459C13.1838 96.9912 13.2236 93.5388 13.4346 89.8568H13.4369ZM6.36582 107.796L7.12051 106.052C7.57933 105.003 8.29965 104.088 9.21264 103.396C10.1256 102.704 11.2008 102.258 12.3354 102.101L16.9666 101.465C17.2926 101.419 17.6217 101.397 17.951 101.402L25.8189 101.496C27.3644 101.514 28.8556 102.068 30.0377 103.064L33.9846 106.38C34.3441 106.687 34.6708 107.03 34.9596 107.404L35.2549 107.786L6.36582 107.796ZM97.7346 69.4052C97.0294 69.4102 96.3372 69.2162 95.7374 68.8456C95.1375 68.4749 94.6543 67.9427 94.3432 67.3099C96.04 67.2959 98.6885 67.2795 101.056 67.2654C100.765 67.9025 100.297 68.4428 99.7088 68.8221C99.1201 69.2014 98.4349 69.4038 97.7346 69.4052ZM72.8463 69.4052C72.1412 69.4102 71.449 69.2162 70.8491 68.8456C70.2492 68.4749 69.766 67.9427 69.4549 67.3099C71.1588 67.2959 73.8002 67.2795 76.1674 67.2654C75.877 67.9018 75.4103 68.4416 74.8225 68.8209C74.2347 69.2001 73.5505 69.4029 72.851 69.4052H72.8463ZM69.1947 64.2349C69.5723 60.2759 71.4112 56.5995 74.3526 53.9228C77.294 51.2461 81.1271 49.7612 85.1041 49.7576C93.5416 49.7576 100.498 56.0271 101.276 64.0146C96.4314 64.0756 80.7775 64.1693 69.1994 64.2349H69.1947ZM85.2658 69.4052C84.5615 69.4093 83.8703 69.2149 83.2713 68.8443C82.6724 68.4737 82.1899 67.942 81.8791 67.3099C83.576 67.2959 86.2197 67.2795 88.5846 67.2654C88.2948 67.9018 87.8286 68.4417 87.2411 68.821C86.6537 69.2003 85.9697 69.4031 85.2705 69.4052H85.2658ZM86.7377 72.2529V87.6255H83.7283V72.2435C84.234 72.3608 84.7514 72.4198 85.2705 72.4193C85.7659 72.4202 86.2597 72.3644 86.7424 72.2529H86.7377ZM60.5674 92.5591C60.9383 91.9708 61.4523 91.4862 62.0614 91.1505C62.6705 90.8148 63.3547 90.639 64.0502 90.6396H99.1408C99.9679 90.6397 100.776 90.8884 101.46 91.3536C102.143 91.8188 102.671 92.479 102.975 93.2482H60.2158C60.3098 93.0074 60.4276 92.7766 60.5674 92.5591ZM51.8955 75.3888L57.7666 89.0787C58.068 89.7546 58.099 90.5204 57.8533 91.2185C57.7719 91.46 57.6584 91.6894 57.5158 91.9005C57.5158 91.9005 57.5158 91.9123 57.5158 91.917C57.1495 92.4742 56.6063 92.892 55.9736 93.1029L47.4072 72.5998C48.3511 72.5531 49.2868 72.7949 50.0899 73.2932C50.8929 73.7914 51.5252 74.5224 51.9025 75.3888H51.8955ZM39.7971 70.856L42.6096 69.7006L52.7346 93.2482H48.9588L39.7971 70.856ZM40.3549 99.2763V96.2623H104.004V99.2763H40.3549ZM52.9689 107.179H50.4494V102.29H52.9689V107.179ZM80.7189 107.777H55.983V102.29H80.7119L80.7189 107.777ZM86.7494 107.47H83.7283V102.29H86.7424L86.7494 107.47ZM91.0033 107.77H89.7658V102.29H91.0057L91.0033 107.77ZM96.5299 107.47H94.0103V102.29H96.5228L96.5299 107.47Z" fill="#201F3B"/>
<path d="M26.9529 70.9381C26.889 71.0681 26.8043 71.1868 26.7021 71.2896C26.8334 70.8865 26.9693 70.4811 27.1053 70.0732C27.1452 70.3703 27.092 70.6725 26.9529 70.9381Z" fill="#201F3B"/>
</svg>
