<svg width="381" height="395" viewBox="0 0 381 395" fill="none" xmlns="http://www.w3.org/2000/svg">
<path d="M287.1 239.299H191.4C177.7 239.299 166.6 228.199 166.6 214.499V70.9992C166.6 57.2992 177.7 46.1992 191.4 46.1992H287.1C300.8 46.1992 311.9 57.2992 311.9 70.9992V214.499C311.9 228.199 300.8 239.299 287.1 239.299Z" fill="#8DEED8"/>
<path d="M326.3 91V151H332.8V91C332.8 75.6 320.2 63 304.8 63H228.5C226.7 63 225.3 64.5 225.3 66.2C225.3 67.9 226.8 69.4 228.5 69.4H304.8C316.7 69.5 326.3 79.1 326.3 91Z" fill="url(#paint0_linear_182_458)"/>
<path d="M326.3 222.999V234.499C326.3 246.399 316.7 255.999 304.8 255.999H209.1C197.2 255.999 187.6 246.399 187.6 234.499V123.599C187.6 121.799 186.1 120.399 184.4 120.399C182.7 120.399 181.2 121.899 181.2 123.599V234.399C181.2 249.799 193.8 262.399 209.2 262.399H304.9C320.3 262.399 332.9 249.799 332.9 234.399V222.999H326.3Z" fill="url(#paint1_linear_182_458)"/>
<path d="M285.4 69.5H228.4C226.6 69.5 225.2 68 225.2 66.3V13.2C225.2 11.4 226.7 10 228.4 10H285.4C287.2 10 288.6 11.5 288.6 13.2V66.3C288.7 68 287.2 69.5 285.4 69.5ZM231.7 63H282.2V16.4H231.7V63Z" fill="url(#paint2_linear_182_458)"/>
<path d="M297.1 17.9996H216.8C212 17.9996 208.1 14.0996 208.1 9.29961C208.1 4.49961 212 0.599609 216.8 0.599609H297.1C301.9 0.599609 305.8 4.49961 305.8 9.29961C305.8 14.0996 301.9 17.9996 297.1 17.9996Z" fill="#00BE93"/>
<path d="M223.8 296.699C215.6 296.699 208.9 289.999 208.9 281.799C208.9 273.599 215.6 266.899 223.8 266.899C232 266.899 238.7 273.599 238.7 281.799C238.7 289.999 232 296.699 223.8 296.699ZM223.8 273.499C219.2 273.499 215.4 277.299 215.4 281.899C215.4 286.499 219.2 290.299 223.8 290.299C228.4 290.299 232.2 286.499 232.2 281.899C232.2 277.299 228.4 273.499 223.8 273.499Z" fill="url(#paint3_linear_182_458)"/>
<path d="M290.1 296.699C281.9 296.699 275.2 289.999 275.2 281.799C275.2 273.599 281.9 266.899 290.1 266.899C298.3 266.899 305 273.599 305 281.799C305 289.999 298.3 296.699 290.1 296.699ZM290.1 273.499C285.5 273.499 281.7 277.299 281.7 281.899C281.7 286.499 285.5 290.299 290.1 290.299C294.7 290.299 298.5 286.499 298.5 281.899C298.5 277.299 294.7 273.499 290.1 273.499Z" fill="url(#paint4_linear_182_458)"/>
<g opacity="0.65">
<path d="M61.3 289.699L39.8999 294.599C40.2999 296.099 40.6001 297.699 41.1001 299.199L62.3 293.499C61.9 292.199 61.6 290.899 61.3 289.699Z" fill="#FFB75B"/>
</g>
<g opacity="0.65">
<path d="M78.3 327.399L60.5 340.099C61.4 341.399 62.4 342.699 63.3 343.899L80.7 330.499C79.8 329.599 79 328.499 78.3 327.399Z" fill="#FFB75B"/>
</g>
<g opacity="0.65">
<path d="M71.0002 315.6L51.7002 325.9C52.4002 327.3 53.2002 328.7 54.0002 330.1L73.0002 319.1C72.2002 317.9 71.6002 316.8 71.0002 315.6Z" fill="#FFB75B"/>
</g>
<g opacity="0.65">
<path d="M65.2998 303L44.7998 310.7C45.3998 312.2 45.8999 313.7 46.5999 315.1L66.7998 306.7C66.1998 305.4 65.6998 304.2 65.2998 303Z" fill="#FFB75B"/>
</g>
<g opacity="0.65">
<path d="M87.1001 338.199L71.1001 353.099C72.2001 354.299 73.2999 355.399 74.3999 356.499L89.8999 340.999C88.8999 340.099 88.0001 339.099 87.1001 338.199Z" fill="#FFB75B"/>
</g>
<g opacity="0.65">
<path d="M108.4 355.899L96.7002 374.399C98.0002 375.199 99.4003 376.099 100.8 376.899L111.8 357.899C110.7 357.299 109.5 356.599 108.4 355.899Z" fill="#FFB75B"/>
</g>
<g opacity="0.65">
<path d="M111.5 382.4C112.9 383.1 114.4 383.7 115.9 384.3L124.3 364.1C123.1 363.6 121.9 363.1 120.7 362.5L111.5 382.4Z" fill="#FFB75B"/>
</g>
<g opacity="0.65">
<path d="M97.2002 347.699L83.2002 364.599C84.4002 365.599 85.7001 366.599 86.9001 367.599L100.2 350.199C99.2002 349.399 98.2002 348.599 97.2002 347.699Z" fill="#FFB75B"/>
</g>
<g opacity="0.65">
<path d="M147.6 138.7L150.5 160.4C151.8 160.2 153.1 160.1 154.4 159.9L152.3 138.1C150.7 138.3 149.1 138.4 147.6 138.7Z" fill="#FFB75B"/>
</g>
<g opacity="0.65">
<path d="M131.1 142L136.9 163.1C138.2 162.8 139.5 162.4 140.8 162.1L135.8 140.8C134.2 141.2 132.7 141.6 131.1 142Z" fill="#FFB75B"/>
</g>
<g opacity="0.65">
<path d="M252.6 330.5L270 343.9C270.9 342.7 271.9 341.4 272.8 340.1L255 327.4C254.3 328.5 253.5 329.6 252.6 330.5Z" fill="#FFB75B"/>
</g>
<g opacity="0.65">
<path d="M260.3 319.1L279.3 330.1C280.1 328.7 280.9 327.3 281.6 325.9L262.3 315.6C261.7 316.8 261.1 317.9 260.3 319.1Z" fill="#FFB75B"/>
</g>
<g opacity="0.65">
<path d="M266.5 306.7L286.7 315.1C287.4 313.7 287.9 312.2 288.5 310.7L268 303C267.6 304.2 267.1 305.4 266.5 306.7Z" fill="#FFB75B"/>
</g>
<g opacity="0.65">
<path d="M243.4 341L258.9 356.5C260 355.4 261.1 354.3 262.2 353.1L246.2 338.2C245.3 339.1 244.4 340.1 243.4 341Z" fill="#FFB75B"/>
</g>
<g opacity="0.65">
<path d="M221.5 357.9L232.5 376.9C233.9 376.1 235.3 375.2 236.6 374.4L224.9 355.9C223.8 356.6 222.6 357.3 221.5 357.9Z" fill="#FFB75B"/>
</g>
<g opacity="0.65">
<path d="M212.6 362.5C211.4 363.1 210.2 363.6 209 364.1L217.4 384.3C218.9 383.7 220.4 383.1 221.8 382.4L212.6 362.5Z" fill="#FFB75B"/>
</g>
<g opacity="0.65">
<path d="M233.1 350.2L246.4 367.6C247.6 366.6 248.9 365.6 250.1 364.6L236.1 347.7C235.1 348.6 234.1 349.4 233.1 350.2Z" fill="#FFB75B"/>
</g>
<g opacity="0.65">
<path d="M168.1 372.3L169 394.3H169.699C170.999 394.2 172.299 394.1 173.699 394L172.3 375.5C170.8 374.5 169.4 373.4 168.1 372.3Z" fill="#FFB75B"/>
</g>
<g opacity="0.65">
<path d="M130.4 367.2L122.8 387.8C124.2 388.4 125.8 389 127.3 389.4L134.1 368.6C132.9 368.2 131.6 367.8 130.4 367.2Z" fill="#FFB75B"/>
</g>
<g opacity="0.65">
<path d="M157 394.2L158.1 372.3C156.8 372.2 155.5 372.1 154.2 372L152.3 393.8C153.7 394 155.3 394 157 394.2Z" fill="#FFB75B"/>
</g>
<g opacity="0.65">
<path d="M140.3 392.2L144.3 370.7C143 370.5 141.699 370.1 140.399 369.9L135.6 391.2C137.2 391.6 138.7 391.9 140.3 392.2Z" fill="#FFB75B"/>
</g>
<g opacity="0.65">
<path d="M209.1 363.7L217.699 383.8C219.199 383.2 220.6 382.6 222 381.8L212.6 362C211.6 362.6 210.3 363.2 209.1 363.7Z" fill="#FFB75B"/>
</g>
<g opacity="0.65">
<path d="M190.3 392L186.4 370.5C185.1 370.8 183.8 370.9 182.5 371.2L185.6 392.9C187.2 392.6 188.8 392.4 190.3 392Z" fill="#FFB75B"/>
</g>
<g opacity="0.65">
<path d="M206.6 388L199.8 367.2C198.5 367.6 197.199 368 195.899 368.4L201.899 389.5C203.599 388.9 205 388.5 206.6 388Z" fill="#FFB75B"/>
</g>
<path d="M225.5 224.2C223.7 224.2 222.3 222.7 222.3 221V106.5C222.3 104.7 223.8 103.3 225.5 103.3C227.2 103.3 228.7 104.8 228.7 106.5V220.9C228.8 222.7 227.3 224.2 225.5 224.2Z" fill="url(#paint5_linear_182_458)"/>
<path d="M257.3 224.2C255.5 224.2 254.1 222.7 254.1 221V106.5C254.1 104.7 255.6 103.3 257.3 103.3C259 103.3 260.5 104.8 260.5 106.5V220.9C260.6 222.7 259.1 224.2 257.3 224.2Z" fill="url(#paint6_linear_182_458)"/>
<path d="M216.3 314.6H96.7998V327.2H216.3V314.6Z" fill="#FFD493"/>
<path d="M142.7 314.6H118.7L112.1 265.6H149.2L142.7 314.6Z" fill="#00BE93"/>
<path d="M135.4 265.8C135.4 265.7 135.4 265.6 135.4 265.6V245.4H141.8C143.6 245.4 145 243.9 145 242.2C145 240.5 143.5 239 141.8 239H132.1C130.3 239 128.9 240.5 128.9 242.2V265.7C128.9 265.8 128.9 265.9 128.9 265.9H135.4V265.8Z" fill="url(#paint7_linear_182_458)"/>
<path d="M201.7 291.6H155C158.7 282.4 167.8 275.8 178.3 275.8C185.3 275.8 191.5 278.6 196.1 283.2C198.6 285.6 200.5 288.5 201.7 291.6Z" fill="#EE9308"/>
<path d="M203.5 303H153.2V313.9H203.5V303Z" fill="#EE9308"/>
<path d="M203.6 301.099V302.999H153.3V301.099C153.3 297.799 153.9 294.599 155.1 291.699H201.8C202.9 294.499 203.6 297.699 203.6 301.099Z" fill="#FBB95D"/>
<path d="M130.7 298.2C134.455 298.2 137.5 295.155 137.5 291.4C137.5 287.644 134.455 284.6 130.7 284.6C126.944 284.6 123.9 287.644 123.9 291.4C123.9 295.155 126.944 298.2 130.7 298.2Z" fill="white"/>
<path d="M46.7998 170.499V196.999C46.7998 201.599 50.4999 205.299 55.0999 205.299H94.9998L110.6 226.399V205.299H117.9C122.5 205.299 126.2 201.599 126.2 196.999V170.499C126.2 165.899 122.5 162.199 117.9 162.199H55.0999C50.4999 162.199 46.7998 165.899 46.7998 170.499Z" fill="white"/>
<path d="M110.6 229.7C109.6 229.7 108.6 229.2 108 228.4L93.3999 208.6H55.1001C48.7001 208.6 43.6001 203.4 43.6001 197.1V170.6C43.6001 164.2 48.8001 159.1 55.1001 159.1H117.9C124.3 159.1 129.4 164.3 129.4 170.6V197C129.4 203.4 124.2 208.5 117.9 208.5H113.9V226.4C113.9 227.8 113 229 111.7 229.5C111.3 229.7 111 229.7 110.6 229.7ZM55.1001 165.5C52.3001 165.5 50.1001 167.8 50.1001 170.5V197C50.1001 199.8 52.4001 202 55.1001 202H95C96 202 97.0001 202.5 97.6001 203.3L107.4 216.5V205.2C107.4 203.4 108.9 202 110.6 202H117.9C120.7 202 122.9 199.7 122.9 197V170.5C122.9 167.7 120.6 165.5 117.9 165.5H55.1001Z" fill="url(#paint8_linear_182_458)"/>
<path d="M92.3 228.9V259.6C92.3 264.9 88 269.2 82.7 269.2H36.5L18.3999 293.6V269.2H10C4.7 269.2 0.399902 264.9 0.399902 259.6V228.9C0.399902 223.6 4.7 219.3 10 219.3H82.6001C88.0001 219.4 92.3 223.7 92.3 228.9Z" fill="#FFD493"/>
<path d="M86 173.899H62.2C60.4 173.899 59 175.399 59 177.099C59 178.799 60.5 180.299 62.2 180.299H86V173.899Z" fill="url(#paint9_linear_182_458)"/>
<path d="M109 187.3H62.2C60.4 187.3 59 188.8 59 190.5C59 192.2 60.5 193.7 62.2 193.7H109V187.3Z" fill="url(#paint10_linear_182_458)"/>
<path d="M198.8 86.4H129.1C127.4 86.4 126.1 85.1 126.1 83.4L126.4 42.5C126.4 40.9 127.7 39.5 129.4 39.5H198.4C200 39.5 201.4 40.8 201.4 42.5L201.7 83.4C201.8 85 200.5 86.4 198.8 86.4Z" fill="white"/>
<path d="M198.8 89.5998H129.1C127.4 89.5998 125.9 88.8998 124.7 87.7998C123.5 86.5998 122.9 84.9998 122.9 83.3998L123.2 42.4998C123.2 39.0998 126 36.2998 129.4 36.2998H198.4C201.8 36.2998 204.6 39.0998 204.6 42.4998L204.9 83.3998C204.9 85.0998 204.3 86.5998 203.1 87.7998C202.1 88.9998 200.5 89.5998 198.8 89.5998ZM129.4 83.0998H198.5L198.2 42.7998H129.7L129.4 83.0998Z" fill="url(#paint11_linear_182_458)"/>
<path d="M163.4 77.9994C160.7 77.9994 158 76.9994 156 74.8994L126.2 45.2994C124.9 43.9994 124.9 41.9994 126.2 40.6994C127.5 39.3994 129.5 39.3994 130.8 40.6994L160.6 70.2994C162.2 71.8994 164.7 71.8994 166.3 70.2994L197.3 39.4994C198.6 38.1994 200.6 38.1994 201.9 39.4994C203.2 40.7994 203.2 42.7994 201.9 44.0994L170.9 74.8994C168.8 76.9994 166.1 77.9994 163.4 77.9994Z" fill="url(#paint12_linear_182_458)"/>
<path d="M28 250.9C31.2585 250.9 33.8999 248.258 33.8999 245C33.8999 241.741 31.2585 239.1 28 239.1C24.7415 239.1 22.1001 241.741 22.1001 245C22.1001 248.258 24.7415 250.9 28 250.9Z" fill="white"/>
<path d="M66.8 250.9C70.0585 250.9 72.7 248.258 72.7 245C72.7 241.741 70.0585 239.1 66.8 239.1C63.5416 239.1 60.8999 241.741 60.8999 245C60.8999 248.258 63.5416 250.9 66.8 250.9Z" fill="white"/>
<path d="M47.3999 250.9C50.6584 250.9 53.3 248.258 53.3 245C53.3 241.741 50.6584 239.1 47.3999 239.1C44.1414 239.1 41.5 241.741 41.5 245C41.5 248.258 44.1414 250.9 47.3999 250.9Z" fill="white"/>
<path d="M380.2 194.099C379.8 194.899 379.5 195.599 379.2 196.199C377 199.999 374.7 203.799 372.4 207.799C369.6 206.699 367 205.599 364.3 204.599C363.7 204.399 362.8 204.599 362.1 204.799C361.8 204.899 361.6 205.199 361.2 205.299C357.6 206.299 357.1 209.199 356.9 212.299C356.8 213.799 356.5 215.199 356.2 216.799C351.5 216.799 346.9 216.799 342.3 216.799C341.7 216.799 341.1 216.799 340.4 216.799C340 213.899 339.6 211.199 339.1 208.499C339 207.899 338.4 207.399 338 206.799C337.9 206.699 337.8 206.699 337.7 206.599C333.7 202.599 329.9 205.499 326.2 206.999C324.6 207.699 323.8 207.399 323 205.999C321 202.399 318.9 198.899 316.9 195.299C316.7 194.799 316.9 193.699 317.3 193.399C319.1 191.799 321.2 190.499 323 188.899C323.6 188.399 323.8 187.399 324.1 186.599C325.3 181.599 321.6 179.599 318.4 177.299C317.8 176.799 317.1 176.299 316.3 175.699C318.4 172.099 320.4 168.499 322.4 164.899C322.6 164.499 323 164.099 323.1 163.699C323.6 162.099 324.7 162.199 325.9 162.699C327.9 163.599 330 164.499 332.1 165.199C332.8 165.399 333.7 165.099 334.5 164.999C334.6 164.999 334.7 164.799 334.8 164.799C338.6 163.599 339.6 160.699 339.7 157.099C339.7 155.799 340.1 154.599 340.3 153.199C345.6 153.199 350.7 153.199 356.1 153.199C356.5 155.799 356.8 158.399 357.4 161.099C357.6 161.899 358.3 162.699 359 163.299C361.8 165.899 364.8 165.699 367.9 163.899C368.5 163.499 369.3 163.499 369.9 162.999C371.8 161.699 372.8 162.499 373.8 164.299C375.6 167.699 377.6 171.099 379.6 174.399C380.2 175.499 379.9 175.999 379.1 176.599C377.2 177.999 375.4 179.499 373.5 180.899C372.6 181.599 372.6 182.399 372.4 183.399C371.3 188.399 375.1 190.199 378.1 192.599C378.8 192.999 379.4 193.499 380.2 194.099ZM359.5 184.499C359.3 178.299 354.2 173.399 348.1 173.499C341.8 173.599 336.9 178.699 337 184.899C337.1 191.099 342.4 196.199 348.5 195.999C354.9 195.799 359.7 190.699 359.5 184.499Z" fill="#00BE93"/>
<path d="M288.7 224.2C286.9 224.2 285.5 222.7 285.5 221V106.5C285.5 104.7 287 103.3 288.7 103.3C290.4 103.3 291.9 104.8 291.9 106.5V220.9C291.9 222.7 290.5 224.2 288.7 224.2Z" fill="url(#paint13_linear_182_458)"/>
<defs>
<linearGradient id="paint0_linear_182_458" x1="142.931" y1="296.815" x2="289.472" y2="93.5215" gradientUnits="userSpaceOnUse">
<stop stop-color="#D5D5D5"/>
<stop offset="0.104" stop-color="#7A7A7A"/>
<stop offset="0.1064" stop-color="#7A7A7A"/>
<stop offset="0.2322" stop-color="#545454"/>
<stop offset="0.3625" stop-color="#363636"/>
<stop offset="0.4996" stop-color="#1E1E1E"/>
<stop offset="0.6447" stop-color="#0D0D0D"/>
<stop offset="0.8032" stop-color="#030303"/>
<stop offset="1"/>
</linearGradient>
<linearGradient id="paint1_linear_182_458" x1="164.854" y1="310.807" x2="307.884" y2="112.384" gradientUnits="userSpaceOnUse">
<stop stop-color="#D5D5D5"/>
<stop offset="0.104" stop-color="#7A7A7A"/>
<stop offset="0.1064" stop-color="#7A7A7A"/>
<stop offset="0.2322" stop-color="#545454"/>
<stop offset="0.3625" stop-color="#363636"/>
<stop offset="0.4996" stop-color="#1E1E1E"/>
<stop offset="0.6447" stop-color="#0D0D0D"/>
<stop offset="0.8032" stop-color="#030303"/>
<stop offset="1"/>
</linearGradient>
<linearGradient id="paint2_linear_182_458" x1="95.9767" y1="262.969" x2="242.518" y2="59.6752" gradientUnits="userSpaceOnUse">
<stop stop-color="#D5D5D5"/>
<stop offset="0.104" stop-color="#7A7A7A"/>
<stop offset="0.1064" stop-color="#7A7A7A"/>
<stop offset="0.2322" stop-color="#545454"/>
<stop offset="0.3625" stop-color="#363636"/>
<stop offset="0.4996" stop-color="#1E1E1E"/>
<stop offset="0.6447" stop-color="#0D0D0D"/>
<stop offset="0.8032" stop-color="#030303"/>
<stop offset="1"/>
</linearGradient>
<linearGradient id="paint3_linear_182_458" x1="186.699" y1="333.364" x2="333.239" y2="130.07" gradientUnits="userSpaceOnUse">
<stop stop-color="#D5D5D5"/>
<stop offset="0.104" stop-color="#7A7A7A"/>
<stop offset="0.1064" stop-color="#7A7A7A"/>
<stop offset="0.2322" stop-color="#545454"/>
<stop offset="0.3625" stop-color="#363636"/>
<stop offset="0.4996" stop-color="#1E1E1E"/>
<stop offset="0.6447" stop-color="#0D0D0D"/>
<stop offset="0.8032" stop-color="#030303"/>
<stop offset="1"/>
</linearGradient>
<linearGradient id="paint4_linear_182_458" x1="230.297" y1="364.791" x2="376.838" y2="161.497" gradientUnits="userSpaceOnUse">
<stop stop-color="#D5D5D5"/>
<stop offset="0.104" stop-color="#7A7A7A"/>
<stop offset="0.1064" stop-color="#7A7A7A"/>
<stop offset="0.2322" stop-color="#545454"/>
<stop offset="0.3625" stop-color="#363636"/>
<stop offset="0.4996" stop-color="#1E1E1E"/>
<stop offset="0.6447" stop-color="#0D0D0D"/>
<stop offset="0.8032" stop-color="#030303"/>
<stop offset="1"/>
</linearGradient>
<linearGradient id="paint5_linear_182_458" x1="134.165" y1="290.495" x2="280.706" y2="87.2036" gradientUnits="userSpaceOnUse">
<stop stop-color="#D5D5D5"/>
<stop offset="0.104" stop-color="#7A7A7A"/>
<stop offset="0.1064" stop-color="#7A7A7A"/>
<stop offset="0.2322" stop-color="#545454"/>
<stop offset="0.3625" stop-color="#363636"/>
<stop offset="0.4996" stop-color="#1E1E1E"/>
<stop offset="0.6447" stop-color="#0D0D0D"/>
<stop offset="0.8032" stop-color="#030303"/>
<stop offset="1"/>
</linearGradient>
<linearGradient id="paint6_linear_182_458" x1="155.066" y1="305.562" x2="301.608" y2="102.27" gradientUnits="userSpaceOnUse">
<stop stop-color="#D5D5D5"/>
<stop offset="0.104" stop-color="#7A7A7A"/>
<stop offset="0.1064" stop-color="#7A7A7A"/>
<stop offset="0.2322" stop-color="#545454"/>
<stop offset="0.3625" stop-color="#363636"/>
<stop offset="0.4996" stop-color="#1E1E1E"/>
<stop offset="0.6447" stop-color="#0D0D0D"/>
<stop offset="0.8032" stop-color="#030303"/>
<stop offset="1"/>
</linearGradient>
<linearGradient id="paint7_linear_182_458" x1="111.808" y1="281.706" x2="258.349" y2="78.4115" gradientUnits="userSpaceOnUse">
<stop stop-color="#D5D5D5"/>
<stop offset="0.104" stop-color="#7A7A7A"/>
<stop offset="0.1064" stop-color="#7A7A7A"/>
<stop offset="0.2322" stop-color="#545454"/>
<stop offset="0.3625" stop-color="#363636"/>
<stop offset="0.4996" stop-color="#1E1E1E"/>
<stop offset="0.6447" stop-color="#0D0D0D"/>
<stop offset="0.8032" stop-color="#030303"/>
<stop offset="1"/>
</linearGradient>
<linearGradient id="paint8_linear_182_458" x1="53.3968" y1="232.276" x2="199.938" y2="28.9821" gradientUnits="userSpaceOnUse">
<stop stop-color="#D5D5D5"/>
<stop offset="0.104" stop-color="#7A7A7A"/>
<stop offset="0.1064" stop-color="#7A7A7A"/>
<stop offset="0.2322" stop-color="#545454"/>
<stop offset="0.3625" stop-color="#363636"/>
<stop offset="0.4996" stop-color="#1E1E1E"/>
<stop offset="0.6447" stop-color="#0D0D0D"/>
<stop offset="0.8032" stop-color="#030303"/>
<stop offset="1"/>
</linearGradient>
<linearGradient id="paint9_linear_182_458" x1="40.3411" y1="222.864" x2="186.882" y2="19.5707" gradientUnits="userSpaceOnUse">
<stop stop-color="#D5D5D5"/>
<stop offset="0.104" stop-color="#7A7A7A"/>
<stop offset="0.1064" stop-color="#7A7A7A"/>
<stop offset="0.2322" stop-color="#545454"/>
<stop offset="0.3625" stop-color="#363636"/>
<stop offset="0.4996" stop-color="#1E1E1E"/>
<stop offset="0.6447" stop-color="#0D0D0D"/>
<stop offset="0.8032" stop-color="#030303"/>
<stop offset="1"/>
</linearGradient>
<linearGradient id="paint10_linear_182_458" x1="54.2371" y1="232.882" x2="200.779" y2="29.5877" gradientUnits="userSpaceOnUse">
<stop stop-color="#D5D5D5"/>
<stop offset="0.104" stop-color="#7A7A7A"/>
<stop offset="0.1064" stop-color="#7A7A7A"/>
<stop offset="0.2322" stop-color="#545454"/>
<stop offset="0.3625" stop-color="#363636"/>
<stop offset="0.4996" stop-color="#1E1E1E"/>
<stop offset="0.6447" stop-color="#0D0D0D"/>
<stop offset="0.8032" stop-color="#030303"/>
<stop offset="1"/>
</linearGradient>
<linearGradient id="paint11_linear_182_458" x1="53.5795" y1="216.362" x2="200.12" y2="13.0684" gradientUnits="userSpaceOnUse">
<stop stop-color="#D5D5D5"/>
<stop offset="0.104" stop-color="#7A7A7A"/>
<stop offset="0.1064" stop-color="#7A7A7A"/>
<stop offset="0.2322" stop-color="#545454"/>
<stop offset="0.3625" stop-color="#363636"/>
<stop offset="0.4996" stop-color="#1E1E1E"/>
<stop offset="0.6447" stop-color="#0D0D0D"/>
<stop offset="0.8032" stop-color="#030303"/>
<stop offset="1"/>
</linearGradient>
<linearGradient id="paint12_linear_182_458" x1="43.7114" y1="209.249" x2="190.252" y2="5.9551" gradientUnits="userSpaceOnUse">
<stop stop-color="#D5D5D5"/>
<stop offset="0.104" stop-color="#7A7A7A"/>
<stop offset="0.1064" stop-color="#7A7A7A"/>
<stop offset="0.2322" stop-color="#545454"/>
<stop offset="0.3625" stop-color="#363636"/>
<stop offset="0.4996" stop-color="#1E1E1E"/>
<stop offset="0.6447" stop-color="#0D0D0D"/>
<stop offset="0.8032" stop-color="#030303"/>
<stop offset="1"/>
</linearGradient>
<linearGradient id="paint13_linear_182_458" x1="186.457" y1="305.562" x2="332.999" y2="102.27" gradientUnits="userSpaceOnUse">
<stop stop-color="#D5D5D5"/>
<stop offset="0.104" stop-color="#7A7A7A"/>
<stop offset="0.1064" stop-color="#7A7A7A"/>
<stop offset="0.2322" stop-color="#545454"/>
<stop offset="0.3625" stop-color="#363636"/>
<stop offset="0.4996" stop-color="#1E1E1E"/>
<stop offset="0.6447" stop-color="#0D0D0D"/>
<stop offset="0.8032" stop-color="#030303"/>
<stop offset="1"/>
</linearGradient>
</defs>
</svg>
