<svg width="364" height="362" viewBox="0 0 364 362" fill="none" xmlns="http://www.w3.org/2000/svg">
<g opacity="0.65">
<path d="M128.7 256.5L107.3 261.4C107.7 262.9 108 264.5 108.5 266L129.7 260.3C129.3 259 129 257.7 128.7 256.5Z" fill="#FFB75B"/>
</g>
<g opacity="0.65">
<path d="M145.7 294.2L127.9 306.9C128.8 308.2 129.8 309.5 130.7 310.7L148.101 297.3C147.201 296.4 146.4 295.3 145.7 294.2Z" fill="#FFB75B"/>
</g>
<g opacity="0.65">
<path d="M138.4 282.4L119.101 292.7C119.801 294.1 120.6 295.5 121.4 296.9L140.4 285.9C139.6 284.7 139 283.6 138.4 282.4Z" fill="#FFB75B"/>
</g>
<g opacity="0.65">
<path d="M132.7 269.8L112.2 277.5C112.8 279 113.3 280.5 114 281.9L134.2 273.5C133.6 272.2 133.1 271 132.7 269.8Z" fill="#FFB75B"/>
</g>
<g opacity="0.65">
<path d="M154.5 305L138.5 319.9C139.6 321.1 140.7 322.2 141.8 323.3L157.3 307.8C156.3 306.9 155.4 305.9 154.5 305Z" fill="#FFB75B"/>
</g>
<g opacity="0.65">
<path d="M175.801 322.7L164.101 341.2C165.401 342 166.8 342.9 168.2 343.7L179.2 324.7C178.1 324.1 176.901 323.4 175.801 322.7Z" fill="#FFB75B"/>
</g>
<g opacity="0.65">
<path d="M178.9 349.2C180.3 349.9 181.801 350.5 183.301 351.1L191.7 330.9C190.5 330.4 189.301 329.9 188.101 329.3L178.9 349.2Z" fill="#FFB75B"/>
</g>
<g opacity="0.65">
<path d="M164.601 314.5L150.601 331.4C151.801 332.4 153.101 333.4 154.301 334.4L167.601 317C166.601 316.2 165.601 315.4 164.601 314.5Z" fill="#FFB75B"/>
</g>
<g opacity="0.65">
<path d="M342.101 232.801H364V232.501C364 231.101 364 229.601 363.9 228.101L342 228.801C342.1 230.001 342.101 231.301 342.101 232.501V232.801Z" fill="#FFB75B"/>
</g>
<g opacity="0.65">
<path d="M341.3 218.9L363 216.1C362.8 214.6 362.6 213 362.3 211.4L340.7 215C340.9 216.3 341.1 217.6 341.3 218.9Z" fill="#FFB75B"/>
</g>
<g opacity="0.65">
<path d="M338.601 205.301L359.801 199.701C359.401 198.201 359 196.601 358.5 195.101L337.5 201.501C337.9 202.801 338.301 204.001 338.601 205.301Z" fill="#FFB75B"/>
</g>
<g opacity="0.65">
<path d="M334.101 192.1L354.4 183.8C353.8 182.3 353.2 180.9 352.5 179.4L332.601 188.5C333.201 189.7 333.701 190.9 334.101 192.1Z" fill="#FFB75B"/>
</g>
<g opacity="0.65">
<path d="M338.4 260.3L359.601 266C360.101 264.5 360.401 262.9 360.801 261.4L339.4 256.5C339.1 257.7 338.8 259 338.4 260.3Z" fill="#FFB75B"/>
</g>
<g opacity="0.65">
<path d="M320 297.3L337.4 310.7C338.3 309.5 339.3 308.2 340.2 306.9L322.4 294.2C321.7 295.3 320.9 296.4 320 297.3Z" fill="#FFB75B"/>
</g>
<g opacity="0.65">
<path d="M327.7 285.9L346.7 296.9C347.5 295.5 348.3 294.1 349 292.7L329.7 282.4C329.1 283.6 328.5 284.7 327.7 285.9Z" fill="#FFB75B"/>
</g>
<g opacity="0.65">
<path d="M333.9 273.501L354.101 281.901C354.801 280.501 355.3 279.001 355.9 277.501L335.4 269.801C335 271.001 334.5 272.201 333.9 273.501Z" fill="#FFB75B"/>
</g>
<g opacity="0.65">
<path d="M328.101 179.7L347.101 168.8C346.301 167.4 345.401 166.1 344.601 164.7L326 176.3C326.7 177.4 327.401 178.5 328.101 179.7Z" fill="#FFB75B"/>
</g>
<g opacity="0.65">
<path d="M341.2 246.801L362.9 249.701C363.1 248.101 363.3 246.501 363.4 244.901L341.6 242.801C341.5 244.101 341.4 245.401 341.2 246.801Z" fill="#FFB75B"/>
</g>
<g opacity="0.65">
<path d="M311.2 157.6L326.801 142.2C325.701 141.1 324.6 140 323.4 138.9L308.4 154.9C309.4 155.8 310.3 156.7 311.2 157.6Z" fill="#FFB75B"/>
</g>
<g opacity="0.65">
<path d="M320.4 168.101L337.801 154.801C336.801 153.601 335.801 152.301 334.801 151.101L317.9 165.001C318.8 166.001 319.6 167.101 320.4 168.101Z" fill="#FFB75B"/>
</g>
<g opacity="0.65">
<path d="M310.801 307.8L326.301 323.3C327.401 322.2 328.501 321.1 329.601 319.9L313.601 305C312.701 305.9 311.801 306.9 310.801 307.8Z" fill="#FFB75B"/>
</g>
<g opacity="0.65">
<path d="M288.9 324.7L299.9 343.7C301.3 342.9 302.7 342 304 341.2L292.301 322.7C291.201 323.4 290 324.1 288.9 324.7Z" fill="#FFB75B"/>
</g>
<g opacity="0.65">
<path d="M280 329.301C278.8 329.901 277.6 330.401 276.4 330.901L284.801 351.101C286.301 350.501 287.8 349.901 289.2 349.201L280 329.301Z" fill="#FFB75B"/>
</g>
<g opacity="0.65">
<path d="M300.5 317L313.801 334.4C315.001 333.4 316.3 332.4 317.5 331.4L303.5 314.5C302.5 315.4 301.5 316.2 300.5 317Z" fill="#FFB75B"/>
</g>
<g opacity="0.65">
<path d="M235.4 339.101L236.301 361.101H237C238.3 361.001 239.6 360.901 241 360.801L239.601 342.301C238.101 341.301 236.8 340.201 235.4 339.101Z" fill="#FFB75B"/>
</g>
<g opacity="0.65">
<path d="M197.8 334L190.2 354.6C191.6 355.2 193.2 355.8 194.7 356.2L201.5 335.4C200.3 335 198.9 334.5 197.8 334Z" fill="#FFB75B"/>
</g>
<g opacity="0.65">
<path d="M224.301 360.9L225.4 339C224.1 338.9 222.8 338.8 221.5 338.7L219.601 360.5C221.101 360.8 222.701 360.8 224.301 360.9Z" fill="#FFB75B"/>
</g>
<g opacity="0.65">
<path d="M207.7 359L211.7 337.5C210.4 337.3 209.1 336.9 207.8 336.7L203 358C204.6 358.3 206.1 358.7 207.7 359Z" fill="#FFB75B"/>
</g>
<g opacity="0.65">
<path d="M276.5 330.4L285.1 350.5C286.6 349.9 288 349.3 289.4 348.5L280 328.7C278.9 329.4 277.7 330 276.5 330.4Z" fill="#FFB75B"/>
</g>
<g opacity="0.65">
<path d="M257.7 358.8L253.801 337.3C252.501 337.6 251.2 337.7 249.9 338L253 359.7C254.6 359.4 256.2 359.2 257.7 358.8Z" fill="#FFB75B"/>
</g>
<g opacity="0.65">
<path d="M274 354.8L267.2 334C265.9 334.4 264.6 334.8 263.3 335.2L269.3 356.3C270.9 355.7 272.4 355.3 274 354.8Z" fill="#FFB75B"/>
</g>
<path d="M197.8 181.6H11.5002C5.50024 181.6 0.700195 176.8 0.700195 170.8V59.3997C0.700195 53.3997 5.50024 48.5996 11.5002 48.5996H197.8C203.8 48.5996 208.6 53.3997 208.6 59.3997V170.8C208.8 176.7 203.8 181.6 197.8 181.6Z" fill="#8DEED8"/>
<path d="M184.9 62.5996H28.6001C20.8001 62.5996 14.5 68.8996 14.5 76.6996V188C14.5 195.8 20.8001 202.1 28.6001 202.1H70.8V195.6H28.6001C24.4001 195.6 21 192.2 21 188V76.5996C21 72.3996 24.4001 68.9996 28.6001 68.9996H184.9C186.7 68.9996 188.1 67.4996 188.1 65.7996C188.1 64.0996 186.7 62.5996 184.9 62.5996Z" fill="url(#paint0_linear_182_575)"/>
<path d="M225.7 137.399C223.9 137.399 222.5 138.899 222.5 140.599V188.099C222.5 189.999 221.8 191.799 220.4 193.299C219 194.799 216.9 195.599 214.9 195.599H158.8V202.099H214.9C218.7 202.099 222.4 200.499 225 197.799C227.6 195.099 229 191.599 228.9 187.999V140.599C229 138.799 227.5 137.399 225.7 137.399Z" fill="url(#paint1_linear_182_575)"/>
<path d="M57.7 86.8998C55.9 86.8998 54.5 85.3998 54.5 83.6998V51.4998C54.5 49.6998 56 48.2998 57.7 48.2998C59.4 48.2998 60.8999 49.7998 60.8999 51.4998V83.6998C60.9999 85.4998 59.5 86.8998 57.7 86.8998Z" fill="url(#paint2_linear_182_575)"/>
<path d="M92.1006 86.8998C90.3006 86.8998 88.9004 85.3998 88.9004 83.6998V51.4998C88.9004 49.6998 90.4006 48.2998 92.1006 48.2998C93.8006 48.2998 95.3005 49.7998 95.3005 51.4998V83.6998C95.4005 85.4998 93.9006 86.8998 92.1006 86.8998Z" fill="url(#paint3_linear_182_575)"/>
<path d="M125 86.8998C123.2 86.8998 121.8 85.3998 121.8 83.6998V51.4998C121.8 49.6998 123.3 48.2998 125 48.2998C126.7 48.2998 128.2 49.7998 128.2 51.4998V83.6998C128.3 85.4998 126.8 86.8998 125 86.8998Z" fill="url(#paint4_linear_182_575)"/>
<path d="M156.2 86.8998C154.4 86.8998 153 85.3998 153 83.6998V51.4998C153 49.6998 154.5 48.2998 156.2 48.2998C157.9 48.2998 159.4 49.7998 159.4 51.4998V83.6998C159.5 85.4998 158 86.8998 156.2 86.8998Z" fill="url(#paint5_linear_182_575)"/>
<path d="M185.9 86.8998C184.1 86.8998 182.7 85.3998 182.7 83.6998V51.4998C182.7 49.6998 184.2 48.2998 185.9 48.2998C187.6 48.2998 189.1 49.7998 189.1 51.4998V83.6998C189.2 85.4998 187.7 86.8998 185.9 86.8998Z" fill="url(#paint6_linear_182_575)"/>
<path d="M106.8 127.6C101.6 127.6 97.5 123.5 97.5 118.3C97.5 113.1 101.6 109 106.8 109C112 109 116.1 113.1 116.1 118.3C116.1 123.5 111.9 127.6 106.8 127.6Z" fill="white"/>
<path d="M142.9 127.6C137.7 127.6 133.601 123.5 133.601 118.3C133.601 113.1 137.7 109 142.9 109C148.1 109 152.2 113.1 152.2 118.3C152.1 123.5 148 127.6 142.9 127.6Z" fill="white"/>
<path d="M179.1 127.6C173.9 127.6 169.8 123.5 169.8 118.3C169.8 113.1 173.9 109 179.1 109C184.3 109 188.4 113.1 188.4 118.3C188.4 123.5 184.1 127.6 179.1 127.6Z" fill="white"/>
<path d="M70.7004 161.7C65.5004 161.7 61.4004 157.6 61.4004 152.4C61.4004 147.2 65.5004 143.1 70.7004 143.1C75.9004 143.1 80.0005 147.2 80.0005 152.4C80.0005 157.6 75.7004 161.7 70.7004 161.7Z" fill="white"/>
<path d="M106.8 161.7C101.6 161.7 97.5 157.6 97.5 152.4C97.5 147.2 101.6 143.1 106.8 143.1C112 143.1 116.1 147.2 116.1 152.4C116.1 157.6 111.9 161.7 106.8 161.7Z" fill="white"/>
<path d="M142.9 161.7C137.7 161.7 133.601 157.6 133.601 152.4C133.601 147.2 137.7 143.1 142.9 143.1C148.1 143.1 152.2 147.2 152.2 152.4C152.1 157.6 148 161.7 142.9 161.7Z" fill="white"/>
<path d="M179.1 161.7C173.9 161.7 169.8 157.6 169.8 152.4C169.8 147.2 173.9 143.1 179.1 143.1C184.3 143.1 188.4 147.2 188.4 152.4C188.4 157.6 184.1 161.7 179.1 161.7Z" fill="white"/>
<path d="M68.5002 130.4L56.7002 117.2L62.1003 112.3L68.1003 119L78.9001 104.7L84.7002 109.1L68.5002 130.4Z" fill="#00BE93"/>
<path d="M292.4 229H248.7C244 229 240.2 225.2 240.2 220.5V163.4C240.2 158.7 244 154.9 248.7 154.9H292.4C297.1 154.9 300.9 158.7 300.9 163.4V220.5C300.9 225.2 297.1 229 292.4 229Z" fill="#00BE93"/>
<path d="M270.5 208.3C268.7 208.3 267.3 206.8 267.3 205.1V178.9C267.3 177.1 268.8 175.7 270.5 175.7C272.2 175.7 273.7 177.2 273.7 178.9V205.1C273.8 206.9 272.3 208.3 270.5 208.3Z" fill="white"/>
<path d="M283.6 195.2H257.4C255.6 195.2 254.2 193.7 254.2 192C254.2 190.3 255.7 188.8 257.4 188.8H283.6C285.4 188.8 286.8 190.3 286.8 192C286.8 193.7 285.4 195.2 283.6 195.2Z" fill="white"/>
<path d="M136.1 196C123.7 183.6 103.5 183.6 91.0002 196C79.9002 207.1 78.7001 224.4 87.4001 236.8C88.4001 238.3 89.6002 239.7 91.0002 241C92.3002 242.3 93.8001 243.5 95.2001 244.6C107.6 253.3 124.9 252.1 136 241C148.5 228.6 148.5 208.4 136.1 196ZM128.9 232.3C120.9 241.2 107.3 241.5 99.0002 233.2L98.8002 233C90.8002 224.9 90.8001 211.9 98.9001 203.8C107.2 195.5 121 195.7 128.9 204.6C135.9 212.4 135.9 224.5 128.9 232.3Z" fill="#EE9308"/>
<path d="M102.8 237L68.0002 271.8L60.2002 264L95.0002 229.2L98.8003 233L99.0002 233.2L102.8 237Z" fill="#EE9308"/>
<path d="M200.7 253.299C202.5 249.899 204.3 246.6 206 243.2C206.5 242.2 207.2 241.099 207.6 239.999C208.6 237.299 207.5 234.299 204.9 233.099C202.3 231.899 199.2 232.699 197.8 235.299C195.4 239.699 193.1 244.3 190.7 248.7C188.7 252.5 187 256.5 185.8 260.7C184.5 265.2 183.5 269.799 182.6 274.499C181.4 281.399 180.6 288.299 180.1 295.2C179.9 297.299 179.7 301.4 179.7 301.4C179.7 301.4 207.9 318.499 208.2 318.299C225.4 306.699 239.8 297.899 257 286.299C260.3 284.099 260.7 279.399 258.6 276.999C256.6 274.699 253.3 274.5 251.1 275.9C248.6 277.5 246.1 279.199 243.7 280.799C242.2 281.799 240.8 282.9 239.2 283.7C234.9 286.5 231.8 282.699 232.3 280.299C232.5 279.199 232.8 278.199 233.3 277.299C239.4 265.699 245.5 254 251.6 242.4C252.9 239.9 255.7 234.499 258 230.099C259.9 226.499 258.4 222.099 254.8 220.299C251.2 218.499 246.9 219.9 245.1 223.4C242.2 229 238.1 236.899 236.2 240.599C232.7 247.299 229.1 254.099 225.6 260.799" fill="white"/>
<path d="M208.4 321.7C207.2 321.7 205.7 320.8 202 318.6C199.3 317 195.7 314.9 192.2 312.8C185.1 308.5 178 304.2 178 304.2C177 303.6 176.4 302.4 176.4 301.2C176.4 301 176.601 297 176.801 294.9C177.301 288.7 178 281.3 179.4 273.9C180.4 268.3 181.401 263.8 182.601 259.8C183.901 255.4 185.601 251.2 187.801 247.2C188.801 245.4 189.7 243.6 190.7 241.8C192.1 239.2 193.5 236.4 195 233.8C197.2 229.7 202.101 228.2 206.301 230.3C210.401 232.3 212.201 237 210.601 241.3C210.201 242.3 209.701 243.2 209.301 244C209.201 244.3 209 244.5 208.9 244.8C207.5 247.6 206.001 250.3 204.601 253L203.601 254.9C202.801 256.5 200.8 257.1 199.2 256.3C197.6 255.5 197.001 253.5 197.801 251.9L198.801 250C200.201 247.3 201.701 244.5 203.101 241.8C203.301 241.5 203.401 241.2 203.601 240.9C204.001 240.2 204.3 239.6 204.5 239C204.9 237.8 204.5 236.7 203.4 236.1C202.5 235.6 201.201 235.8 200.601 236.9C199.201 239.5 197.7 242.2 196.4 244.8C195.4 246.6 194.5 248.5 193.5 250.3C191.6 253.9 190.001 257.7 188.801 261.7C187.701 265.5 186.7 269.8 185.7 275.1C184.4 282.2 183.7 289.4 183.2 295.5C183.1 296.6 183 298.3 182.9 299.7C191.5 304.9 203.601 312.2 207.801 314.6C216.101 309 223.801 304 231.301 299.2C238.801 294.3 246.6 289.3 255 283.7C255.8 283.2 256.3 282.3 256.4 281.3C256.5 280.5 256.3 279.6 256 279.2C255.1 278.1 253.5 278.2 252.7 278.7C251 279.7 249.4 280.9 247.7 282C246.9 282.5 246.101 283.1 245.301 283.6C245.001 283.8 244.601 284.1 244.301 284.3C243.201 285.1 242.001 285.9 240.601 286.6C237.701 288.4 234.5 288.5 232 286.8C229.7 285.2 228.401 282.3 228.801 279.8C229.101 278.4 229.501 277.1 230.101 275.9L248.4 241C249.7 238.5 252.501 233.1 254.801 228.7C255.301 227.7 255.401 226.7 255.101 225.6C254.801 224.6 254.101 223.7 253.101 223.3C251.101 222.3 248.7 223.1 247.7 225C244.8 230.6 240.701 238.5 238.801 242.2L228.2 262.4C227.4 264 225.401 264.6 223.801 263.8C222.201 263 221.6 261 222.4 259.4L233 239.2C234.9 235.5 239 227.6 241.9 222C244.5 216.9 250.9 214.9 256 217.5C258.5 218.8 260.4 221 261.2 223.6C262.1 226.3 261.8 229.1 260.5 231.6C258.2 236 255.401 241.5 254.101 243.9L235.801 278.8C235.501 279.4 235.301 280 235.101 280.8C235.101 280.9 235.301 281.2 235.601 281.3C236.001 281.5 236.801 281.1 237.101 280.9C237.201 280.8 237.3 280.8 237.4 280.7C238.4 280.2 239.4 279.5 240.5 278.7C240.9 278.4 241.201 278.2 241.601 277.9C242.401 277.4 243.2 276.8 243.9 276.3C245.6 275.2 247.301 274 249.101 272.9C252.901 270.5 257.901 271.3 260.801 274.7C262.401 276.5 263.1 279.2 262.7 281.9C262.3 284.8 260.8 287.3 258.5 288.8C250.1 294.4 242.3 299.5 234.7 304.4C226.7 309.6 218.5 314.9 209.7 320.8C209.4 321.5 208.9 321.7 208.4 321.7Z" fill="url(#paint7_linear_182_575)"/>
<path d="M225.701 264.2C225.201 264.2 224.701 264.1 224.201 263.8C222.601 263 222.001 261 222.801 259.4L224.601 256.1C227.101 251.3 229.701 246.4 232.201 241.6C233.001 240 232.701 239.1 232.201 238.5C231.601 237.5 230.701 237 229.701 237.1C228.601 237.1 227.601 237.9 226.901 239.1C224.601 243.4 222.301 247.8 220.001 252.1L215.401 260.9C214.601 262.5 212.601 263.1 211.001 262.3C209.401 261.5 208.801 259.5 209.601 257.9L214.201 249.1C216.501 244.8 218.801 240.4 221.101 236.1C222.801 232.9 225.901 230.8 229.301 230.7C232.601 230.6 235.701 232.2 237.601 235.1C239.501 238 239.601 241.5 237.801 244.8C235.301 249.6 232.701 254.5 230.201 259.3L228.401 262.7C228.001 263.5 226.901 264.2 225.701 264.2Z" fill="url(#paint8_linear_182_575)"/>
<path d="M212.7 262.4C212.2 262.4 211.7 262.3 211.2 262C209.6 261.2 209.001 259.2 209.801 257.6C213.001 251.4 216.301 245.2 219.601 239C220.401 237.5 220.301 236.5 219.501 235.2C218.901 234.4 217.901 233.9 216.801 234C216.301 234 215.1 234.2 214.4 235.4C213.3 237.4 211.801 240.1 210.101 243C207.701 247.3 205.101 251.8 203.601 254.8C202.801 256.4 200.8 257 199.2 256.2C197.6 255.4 197.001 253.4 197.801 251.8C199.401 248.7 202 244.2 204.4 239.9C206 237.1 207.501 234.4 208.601 232.4C210.201 229.6 213.001 227.8 216.301 227.6C219.701 227.4 222.8 228.9 224.7 231.6C227 234.8 227.2 238.5 225.2 242.1C221.9 248.3 218.7 254.5 215.4 260.7C215 261.7 213.9 262.4 212.7 262.4Z" fill="url(#paint9_linear_182_575)"/>
<path d="M297.7 130.1C296 130.1 294.6 128.8 294.5 127C294.5 127 294.5 126.4 294.5 125.4C294.5 124.7 294.501 123.8 294.601 122.6C294.701 120.8 296.2 119.4 298 119.5C299.8 119.6 301.201 121.1 301.101 122.9C301.101 123.9 301 124.7 301 125.3C301 126.1 301 126.5 301 126.5C301.1 128.3 299.7 129.8 297.9 129.9C297.8 130.1 297.7 130.1 297.7 130.1ZM299 116.1C298.8 116.1 298.601 116.1 298.301 116C296.501 115.6 295.401 113.9 295.801 112.2C296.101 110.8 296.401 109.4 296.801 108.1C297.301 106.4 299.101 105.4 300.801 105.9C302.501 106.4 303.5 108.2 303 109.9C302.7 111.1 302.401 112.3 302.101 113.6C301.801 115.1 300.5 116.1 299 116.1ZM303.601 103C303.101 103 302.601 102.9 302.101 102.6C300.501 101.8 299.901 99.8004 300.801 98.2004C301.501 96.9004 302.301 95.7004 303.101 94.5004C304.101 93.0004 306.101 92.6004 307.601 93.6004C309.101 94.6004 309.5 96.6004 308.5 98.1004C307.8 99.1004 307.201 100.1 306.601 101.2C305.901 102.3 304.801 103 303.601 103ZM312.5 92.2004C311.5 92.2004 310.6 91.8005 309.9 90.9005C308.8 89.5005 309 87.4004 310.5 86.3004C311.7 85.4004 312.9 84.6004 314.2 83.8004C315.7 82.9004 317.701 83.4004 318.601 85.0004C319.501 86.5004 319 88.5005 317.4 89.4005C316.4 90.0005 315.4 90.7005 314.5 91.4005C313.9 92.0005 313.2 92.2004 312.5 92.2004ZM325.101 86.4005C323.601 86.4005 322.3 85.4005 321.9 83.9005C321.5 82.2005 322.601 80.4004 324.301 80.0004C325.701 79.7004 327.1 79.4004 328.5 79.2004C330.3 79.0004 331.901 80.2004 332.101 82.0004C332.301 83.8004 331.101 85.4004 329.301 85.6004C328.101 85.8004 326.9 86.0004 325.7 86.3004C325.5 86.3004 325.301 86.4005 325.101 86.4005Z" fill="#FBB95D"/>
<path d="M287.801 118.7H205.101C203.301 118.7 201.9 117.2 201.9 115.5V3.90021C201.9 2.10021 203.401 0.700195 205.101 0.700195H287.801C289.601 0.700195 291 2.20021 291 3.90021V115.4C291.1 117.2 289.601 118.7 287.801 118.7ZM208.4 112.2H284.601V7.2002H208.4V112.2Z" fill="url(#paint10_linear_182_575)"/>
<path d="M335.1 134.501H252.4C250.6 134.501 249.2 133.001 249.2 131.301V116.301C249.2 114.501 250.7 113.101 252.4 113.101C254.1 113.101 255.6 114.601 255.6 116.301V128.001H331.8V23.0006H287.8C286 23.0006 284.6 21.5006 284.6 19.8006C284.6 18.1006 286.1 16.6006 287.8 16.6006H335.1C336.9 16.6006 338.3 18.1006 338.3 19.8006V131.301C338.4 133.001 336.9 134.501 335.1 134.501Z" fill="url(#paint11_linear_182_575)"/>
<path d="M252.401 134.5C251.201 134.5 250.001 133.8 249.401 132.6C248.701 131 249.401 129 251.001 128.3L286.501 112.5C288.101 111.8 290.101 112.5 290.801 114.1C291.501 115.7 290.801 117.7 289.201 118.4L253.701 134.2C253.301 134.4 252.801 134.5 252.401 134.5Z" fill="url(#paint12_linear_182_575)"/>
<path d="M268.8 49.9004C268.8 62.3004 246.5 88.8004 246.5 88.8004C246.5 88.8004 224.2 62.2004 224.2 49.9004C224.2 37.5004 234.2 27.6004 246.5 27.6004C258.8 27.5004 268.8 37.5004 268.8 49.9004Z" fill="#FFD493"/>
<path d="M246.5 60.2C251.526 60.2 255.601 56.1258 255.601 51.1C255.601 46.0742 251.526 42 246.5 42C241.475 42 237.4 46.0742 237.4 51.1C237.4 56.1258 241.475 60.2 246.5 60.2Z" fill="white"/>
<path d="M332.7 109.9C314.6 109.9 311.2 93.6 308.2 79.2C305 63.8 302.2 54.4 290.9 54.4C289.1 54.4 287.7 52.9 287.7 51.2C287.7 49.5 289.2 48 290.9 48C308.3 48 311.6 63.9 314.5 78C317.8 93.9 320.7 103.5 332.6 103.5C334.4 103.5 335.8 105 335.8 106.7C335.8 108.4 334.5 109.9 332.7 109.9Z" fill="url(#paint13_linear_182_575)"/>
<defs>
<linearGradient id="paint0_linear_182_575" x1="-14.9434" y1="217.999" x2="210.374" y2="-70.0002" gradientUnits="userSpaceOnUse">
<stop stop-color="#D5D5D5"/>
<stop offset="0.104" stop-color="#7A7A7A"/>
<stop offset="0.1064" stop-color="#7A7A7A"/>
<stop offset="0.2322" stop-color="#545454"/>
<stop offset="0.3625" stop-color="#363636"/>
<stop offset="0.4996" stop-color="#1E1E1E"/>
<stop offset="0.6447" stop-color="#0D0D0D"/>
<stop offset="0.8032" stop-color="#030303"/>
<stop offset="1"/>
</linearGradient>
<linearGradient id="paint1_linear_182_575" x1="103.077" y1="310.333" x2="328.394" y2="22.3336" gradientUnits="userSpaceOnUse">
<stop stop-color="#D5D5D5"/>
<stop offset="0.104" stop-color="#7A7A7A"/>
<stop offset="0.1064" stop-color="#7A7A7A"/>
<stop offset="0.2322" stop-color="#545454"/>
<stop offset="0.3625" stop-color="#363636"/>
<stop offset="0.4996" stop-color="#1E1E1E"/>
<stop offset="0.6447" stop-color="#0D0D0D"/>
<stop offset="0.8032" stop-color="#030303"/>
<stop offset="1"/>
</linearGradient>
<linearGradient id="paint2_linear_182_575" x1="-42.8667" y1="196.153" x2="182.452" y2="-91.8436" gradientUnits="userSpaceOnUse">
<stop stop-color="#D5D5D5"/>
<stop offset="0.104" stop-color="#7A7A7A"/>
<stop offset="0.1064" stop-color="#7A7A7A"/>
<stop offset="0.2322" stop-color="#545454"/>
<stop offset="0.3625" stop-color="#363636"/>
<stop offset="0.4996" stop-color="#1E1E1E"/>
<stop offset="0.6447" stop-color="#0D0D0D"/>
<stop offset="0.8032" stop-color="#030303"/>
<stop offset="1"/>
</linearGradient>
<linearGradient id="paint3_linear_182_575" x1="-21.5365" y1="212.843" x2="203.78" y2="-75.1614" gradientUnits="userSpaceOnUse">
<stop stop-color="#D5D5D5"/>
<stop offset="0.104" stop-color="#7A7A7A"/>
<stop offset="0.1064" stop-color="#7A7A7A"/>
<stop offset="0.2322" stop-color="#545454"/>
<stop offset="0.3625" stop-color="#363636"/>
<stop offset="0.4996" stop-color="#1E1E1E"/>
<stop offset="0.6447" stop-color="#0D0D0D"/>
<stop offset="0.8032" stop-color="#030303"/>
<stop offset="1"/>
</linearGradient>
<linearGradient id="paint4_linear_182_575" x1="-1.10673" y1="228.823" x2="224.212" y2="-59.173" gradientUnits="userSpaceOnUse">
<stop stop-color="#D5D5D5"/>
<stop offset="0.104" stop-color="#7A7A7A"/>
<stop offset="0.1064" stop-color="#7A7A7A"/>
<stop offset="0.2322" stop-color="#545454"/>
<stop offset="0.3625" stop-color="#363636"/>
<stop offset="0.4996" stop-color="#1E1E1E"/>
<stop offset="0.6447" stop-color="#0D0D0D"/>
<stop offset="0.8032" stop-color="#030303"/>
<stop offset="1"/>
</linearGradient>
<linearGradient id="paint5_linear_182_575" x1="18.2296" y1="243.951" x2="243.548" y2="-44.0451" gradientUnits="userSpaceOnUse">
<stop stop-color="#D5D5D5"/>
<stop offset="0.104" stop-color="#7A7A7A"/>
<stop offset="0.1064" stop-color="#7A7A7A"/>
<stop offset="0.2322" stop-color="#545454"/>
<stop offset="0.3625" stop-color="#363636"/>
<stop offset="0.4996" stop-color="#1E1E1E"/>
<stop offset="0.6447" stop-color="#0D0D0D"/>
<stop offset="0.8032" stop-color="#030303"/>
<stop offset="1"/>
</linearGradient>
<linearGradient id="paint6_linear_182_575" x1="36.6529" y1="258.369" x2="261.969" y2="-29.6358" gradientUnits="userSpaceOnUse">
<stop stop-color="#D5D5D5"/>
<stop offset="0.104" stop-color="#7A7A7A"/>
<stop offset="0.1064" stop-color="#7A7A7A"/>
<stop offset="0.2322" stop-color="#545454"/>
<stop offset="0.3625" stop-color="#363636"/>
<stop offset="0.4996" stop-color="#1E1E1E"/>
<stop offset="0.6447" stop-color="#0D0D0D"/>
<stop offset="0.8032" stop-color="#030303"/>
<stop offset="1"/>
</linearGradient>
<linearGradient id="paint7_linear_182_575" x1="156.288" y1="351.962" x2="381.605" y2="63.9629" gradientUnits="userSpaceOnUse">
<stop stop-color="#D5D5D5"/>
<stop offset="0.104" stop-color="#7A7A7A"/>
<stop offset="0.1064" stop-color="#7A7A7A"/>
<stop offset="0.2322" stop-color="#545454"/>
<stop offset="0.3625" stop-color="#363636"/>
<stop offset="0.4996" stop-color="#1E1E1E"/>
<stop offset="0.6447" stop-color="#0D0D0D"/>
<stop offset="0.8032" stop-color="#030303"/>
<stop offset="1"/>
</linearGradient>
<linearGradient id="paint8_linear_182_575" x1="148.932" y1="346.207" x2="374.249" y2="58.2077" gradientUnits="userSpaceOnUse">
<stop stop-color="#D5D5D5"/>
<stop offset="0.104" stop-color="#7A7A7A"/>
<stop offset="0.1064" stop-color="#7A7A7A"/>
<stop offset="0.2322" stop-color="#545454"/>
<stop offset="0.3625" stop-color="#363636"/>
<stop offset="0.4996" stop-color="#1E1E1E"/>
<stop offset="0.6447" stop-color="#0D0D0D"/>
<stop offset="0.8032" stop-color="#030303"/>
<stop offset="1"/>
</linearGradient>
<linearGradient id="paint9_linear_182_575" x1="139.714" y1="338.996" x2="365.032" y2="50.9969" gradientUnits="userSpaceOnUse">
<stop stop-color="#D5D5D5"/>
<stop offset="0.104" stop-color="#7A7A7A"/>
<stop offset="0.1064" stop-color="#7A7A7A"/>
<stop offset="0.2322" stop-color="#545454"/>
<stop offset="0.3625" stop-color="#363636"/>
<stop offset="0.4996" stop-color="#1E1E1E"/>
<stop offset="0.6447" stop-color="#0D0D0D"/>
<stop offset="0.8032" stop-color="#030303"/>
<stop offset="1"/>
</linearGradient>
<linearGradient id="paint10_linear_182_575" x1="70.3806" y1="284.753" x2="295.698" y2="-3.24656" gradientUnits="userSpaceOnUse">
<stop stop-color="#D5D5D5"/>
<stop offset="0.104" stop-color="#7A7A7A"/>
<stop offset="0.1064" stop-color="#7A7A7A"/>
<stop offset="0.2322" stop-color="#545454"/>
<stop offset="0.3625" stop-color="#363636"/>
<stop offset="0.4996" stop-color="#1E1E1E"/>
<stop offset="0.6447" stop-color="#0D0D0D"/>
<stop offset="0.8032" stop-color="#030303"/>
<stop offset="1"/>
</linearGradient>
<linearGradient id="paint11_linear_182_575" x1="118.368" y1="322.297" x2="343.685" y2="34.2972" gradientUnits="userSpaceOnUse">
<stop stop-color="#D5D5D5"/>
<stop offset="0.104" stop-color="#7A7A7A"/>
<stop offset="0.1064" stop-color="#7A7A7A"/>
<stop offset="0.2322" stop-color="#545454"/>
<stop offset="0.3625" stop-color="#363636"/>
<stop offset="0.4996" stop-color="#1E1E1E"/>
<stop offset="0.6447" stop-color="#0D0D0D"/>
<stop offset="0.8032" stop-color="#030303"/>
<stop offset="1"/>
</linearGradient>
<linearGradient id="paint12_linear_182_575" x1="115.94" y1="320.397" x2="341.257" y2="32.397" gradientUnits="userSpaceOnUse">
<stop stop-color="#D5D5D5"/>
<stop offset="0.104" stop-color="#7A7A7A"/>
<stop offset="0.1064" stop-color="#7A7A7A"/>
<stop offset="0.2322" stop-color="#545454"/>
<stop offset="0.3625" stop-color="#363636"/>
<stop offset="0.4996" stop-color="#1E1E1E"/>
<stop offset="0.6447" stop-color="#0D0D0D"/>
<stop offset="0.8032" stop-color="#030303"/>
<stop offset="1"/>
</linearGradient>
<linearGradient id="paint13_linear_182_575" x1="120.195" y1="323.726" x2="345.513" y2="35.7262" gradientUnits="userSpaceOnUse">
<stop stop-color="#D5D5D5"/>
<stop offset="0.104" stop-color="#7A7A7A"/>
<stop offset="0.1064" stop-color="#7A7A7A"/>
<stop offset="0.2322" stop-color="#545454"/>
<stop offset="0.3625" stop-color="#363636"/>
<stop offset="0.4996" stop-color="#1E1E1E"/>
<stop offset="0.6447" stop-color="#0D0D0D"/>
<stop offset="0.8032" stop-color="#030303"/>
<stop offset="1"/>
</linearGradient>
</defs>
</svg>
