<svg width="355" height="381" viewBox="0 0 355 381" fill="none" xmlns="http://www.w3.org/2000/svg">
<g opacity="0.65">
<path d="M120.1 271.9L98.8999 277.8C99.3999 279.3 99.7 280.9 100.3 282.3L121.2 275.7C120.8 274.4 120.4 273.1 120.1 271.9Z" fill="#FFB75B"/>
</g>
<g opacity="0.65">
<path d="M138.8 308.8L121.6 322.3C122.6 323.6 123.6 324.8 124.6 326L141.4 311.8C140.4 310.9 139.5 309.9 138.8 308.8Z" fill="#FFB75B"/>
</g>
<g opacity="0.65">
<path d="M130.9 297.3L112.1 308.5C112.9 309.9 113.7 311.2 114.6 312.6L133.1 300.8C132.2 299.6 131.6 298.5 130.9 297.3Z" fill="#FFB75B"/>
</g>
<g opacity="0.65">
<path d="M124.7 285L104.6 293.6C105.3 295.1 105.8 296.5 106.6 297.9L126.4 288.6C125.7 287.4 125.1 286.2 124.7 285Z" fill="#FFB75B"/>
</g>
<g opacity="0.65">
<path d="M217.2 137.1C218.4 135.9 219.7 134.7 221 133.5L220.8 115C219.4 115.1 218.1 115 216.8 115.1H216.1L217.2 137.1Z" fill="#FFB75B"/>
</g>
<g opacity="0.65">
<path d="M148 319.2L132.7 334.8C133.9 335.9 135 337 136.1 338L150.9 321.8C149.9 321 149 320 148 319.2Z" fill="#FFB75B"/>
</g>
<g opacity="0.65">
<path d="M170.1 335.9L159.2 354.9C160.5 355.6 162 356.5 163.4 357.2L173.5 337.7C172.5 337.2 171.2 336.6 170.1 335.9Z" fill="#FFB75B"/>
</g>
<g opacity="0.65">
<path d="M158.5 328.2L145.3 345.7C146.5 346.6 147.9 347.6 149.1 348.5L161.6 330.5C160.6 329.8 159.6 329.1 158.5 328.2Z" fill="#FFB75B"/>
</g>
<g opacity="0.65">
<path d="M199.5 117.2L203.4 138.7C204.7 138.4 206 138.3 207.3 138L204.2 116.3C202.6 116.6 201 116.8 199.5 117.2Z" fill="#FFB75B"/>
</g>
<g opacity="0.65">
<path d="M332.2 238.7L354.1 237.7V237.4C354 236 354 234.5 353.8 233L332 234.7C332.2 235.9 332.2 237.2 332.3 238.4L332.2 238.7Z" fill="#FFB75B"/>
</g>
<g opacity="0.65">
<path d="M330.8 224.801L352.399 221.001C352.099 219.501 351.9 217.901 351.5 216.301L330.1 220.901C330.3 222.201 330.5 223.501 330.8 224.801Z" fill="#FFB75B"/>
</g>
<g opacity="0.65">
<path d="M327.5 211.301L348.4 204.801C347.9 203.301 347.5 201.701 346.9 200.301L326.2 207.601C326.7 208.901 327.1 210.101 327.5 211.301Z" fill="#FFB75B"/>
</g>
<g opacity="0.65">
<path d="M322.4 198.4L342.3 189.2C341.6 187.7 341 186.4 340.2 184.9L320.7 194.9C321.4 196 321.9 197.2 322.4 198.4Z" fill="#FFB75B"/>
</g>
<g opacity="0.65">
<path d="M329.7 266.3L351.1 271C351.5 269.5 351.8 267.9 352.1 266.4L330.5 262.5C330.3 263.7 330.1 265 329.7 266.3Z" fill="#FFB75B"/>
</g>
<g opacity="0.65">
<path d="M313 304.1L331 316.7C331.8 315.5 332.8 314.1 333.6 312.8L315.2 300.9C314.6 302 313.9 303.1 313 304.1Z" fill="#FFB75B"/>
</g>
<g opacity="0.65">
<path d="M320.2 292.401L339.7 302.501C340.4 301.101 341.2 299.601 341.8 298.201L322.1 288.801C321.5 290.001 320.9 291.101 320.2 292.401Z" fill="#FFB75B"/>
</g>
<g opacity="0.65">
<path d="M325.8 279.7L346.4 287.2C347 285.8 347.5 284.2 348 282.7L327.2 275.9C326.8 277.1 326.4 278.4 325.8 279.7Z" fill="#FFB75B"/>
</g>
<g opacity="0.65">
<path d="M315.8 186.2L334.3 174.5C333.4 173.1 332.5 171.9 331.6 170.5L313.5 182.9C314.3 184 315.1 185.1 315.8 186.2Z" fill="#FFB75B"/>
</g>
<g opacity="0.65">
<path d="M331.899 252.7L353.699 254.6C353.799 253 354 251.4 354 249.8L332.1 248.7C332.1 250 332.099 251.3 331.899 252.7Z" fill="#FFB75B"/>
</g>
<g opacity="0.65">
<path d="M298 164.9L312.899 148.8C311.799 147.8 310.599 146.7 309.399 145.7L295.1 162.4C296.1 163.2 297 164.1 298 164.9Z" fill="#FFB75B"/>
</g>
<g opacity="0.65">
<path d="M287.3 156.201L299.9 138.301C298.7 137.401 297.3 136.401 296 135.601L284 154.001C285 154.701 286.1 155.401 287.3 156.201Z" fill="#FFB75B"/>
</g>
<g opacity="0.65">
<path d="M307.6 175.001L324.4 160.901C323.3 159.701 322.3 158.501 321.2 157.301L305 172.001C305.9 173.001 306.8 174.001 307.6 175.001Z" fill="#FFB75B"/>
</g>
<g opacity="0.65">
<path d="M275.3 148.9L285.5 129.5C284.1 128.8 282.6 128 281.2 127.4L271.8 147.1C273 147.7 274.2 148.4 275.3 148.9Z" fill="#FFB75B"/>
</g>
<g opacity="0.65">
<path d="M304.3 315.001L320.5 329.801C321.5 328.701 322.6 327.501 323.6 326.301L306.9 312.101C306.1 313.001 305.3 314.001 304.3 315.001Z" fill="#FFB75B"/>
</g>
<g opacity="0.65">
<path d="M283.2 332.9L295 351.4C296.4 350.5 297.7 349.6 299 348.7L286.5 330.7C285.4 331.4 284.3 332.2 283.2 332.9Z" fill="#FFB75B"/>
</g>
<g opacity="0.65">
<path d="M294.399 324.6L308.5 341.4C309.7 340.3 310.9 339.3 312.1 338.2L297.399 321.9C296.299 323 295.399 323.8 294.399 324.6Z" fill="#FFB75B"/>
</g>
<path d="M168.6 86.2003V94.9004V57.6003L97.5 0.400391L26.3999 57.6003V94.9004V207.3V228.4H99.2V200.2C99.2 191.1 106.6 183.7 115.7 183.7C124.8 183.7 132.2 191.1 132.2 200.2V228.4H168.4V194.2V86.2003H168.6Z" fill="#8DEED8"/>
<path d="M187.1 140.401C185.3 140.401 183.9 138.901 183.9 137.201V89.6007L116 35.0007L48.1997 89.6007V125.301C48.1997 127.101 46.6998 128.501 44.9998 128.501C43.2998 128.501 41.7998 127.001 41.7998 125.301V88.0007C41.7998 87.0007 42.1998 86.1007 42.9998 85.5007L114.1 28.3008C115.3 27.3008 117 27.3008 118.2 28.3008L189.3 85.5007C190.1 86.1007 190.5 87.0007 190.5 88.0007V137.101C190.3 138.901 188.9 140.401 187.1 140.401Z" fill="url(#paint0_linear_182_712)"/>
<path d="M187.1 262.001H150.9C149.1 262.001 147.7 260.501 147.7 258.801V230.601C147.7 223.301 141.7 217.301 134.4 217.301C127.1 217.301 121.1 223.301 121.1 230.601V258.801C121.1 260.601 119.6 262.001 117.9 262.001H44.9998C43.1998 262.001 41.7998 260.501 41.7998 258.801C41.7998 257.101 43.2998 255.601 44.9998 255.601H114.6V230.601C114.6 219.701 123.5 210.801 134.4 210.801C145.3 210.801 154.2 219.701 154.2 230.601V255.601H183.9V232.301C183.9 230.501 185.4 229.101 187.1 229.101C188.8 229.101 190.3 230.601 190.3 232.301V258.901C190.3 260.501 188.9 262.001 187.1 262.001Z" fill="url(#paint1_linear_182_712)"/>
<path d="M89.7 143.201H87.8999C80.7999 143.201 75 137.401 75 130.301V128.501C75 121.401 80.7999 115.601 87.8999 115.601H89.7C96.8 115.601 102.6 121.401 102.6 128.501V130.301C102.6 137.401 96.8 143.201 89.7 143.201Z" fill="white"/>
<path d="M138.7 143.201H136.9C129.8 143.201 124 137.401 124 130.301V128.501C124 121.401 129.8 115.601 136.9 115.601H138.7C145.8 115.601 151.6 121.401 151.6 128.501V130.301C151.6 137.401 145.8 143.201 138.7 143.201Z" fill="white"/>
<path d="M175.2 115.001C174.5 115.001 173.8 114.801 173.2 114.301L116 68.3007L58.8001 114.301C57.4001 115.401 55.4 115.201 54.2 113.801C53.1 112.401 53.3 110.401 54.7 109.201L113.9 61.6006C115.1 60.6006 116.8 60.6006 118 61.6006L177.2 109.201C178.6 110.301 178.8 112.401 177.7 113.801C177.1 114.601 176.2 115.001 175.2 115.001Z" fill="url(#paint2_linear_182_712)"/>
<path d="M229.3 369.401C201.6 369.401 179.2 347.001 179.2 319.301V316.201H279.4V319.301C279.4 347.001 257 369.401 229.3 369.401Z" fill="#FFD493"/>
<path d="M250.4 379.301V380.601H208.2V379.301C208.2 374.501 209.8 370.101 212.5 366.501C217.7 368.401 223.4 369.401 229.3 369.401C235.2 369.401 240.8 368.401 246.1 366.501C248.8 370.101 250.4 374.501 250.4 379.301Z" fill="#FBB95D"/>
<path d="M269.9 348.701C273.7 343.401 276.601 337.301 278.101 330.701H180.601C182.101 337.301 185.001 343.401 188.801 348.701H269.9Z" fill="#FBB95D"/>
<path d="M248.001 306.901C246.201 306.901 244.801 305.401 244.801 303.701C244.801 298.601 248.501 296.101 251.201 294.301C253.701 292.601 254.801 291.801 254.801 290.301C254.801 288.801 253.801 288.001 251.201 286.301C248.501 284.501 244.801 282.001 244.801 276.901C244.801 271.801 248.501 269.301 251.201 267.501C253.701 265.801 254.801 265.001 254.801 263.501C254.801 261.701 256.301 260.301 258.001 260.301C259.701 260.301 261.201 261.801 261.201 263.501C261.201 268.601 257.501 271.101 254.801 272.901C252.301 274.601 251.201 275.401 251.201 276.901C251.201 278.401 252.201 279.201 254.801 280.901C257.501 282.701 261.201 285.201 261.201 290.301C261.201 295.401 257.501 297.901 254.801 299.701C252.301 301.401 251.201 302.201 251.201 303.701C251.301 305.401 249.801 306.901 248.001 306.901Z" fill="url(#paint3_linear_182_712)"/>
<path d="M224.301 306.901C222.501 306.901 221.101 305.401 221.101 303.701C221.101 298.601 224.8 296.101 227.5 294.301C230 292.601 231.101 291.801 231.101 290.301C231.101 288.801 230.1 288.001 227.5 286.301C224.8 284.501 221.101 282.001 221.101 276.901C221.101 271.801 224.8 269.301 227.5 267.501C230 265.801 231.101 265.001 231.101 263.501C231.101 261.701 232.601 260.301 234.301 260.301C236.001 260.301 237.5 261.801 237.5 263.501C237.5 268.601 233.801 271.101 231.101 272.901C228.601 274.601 227.5 275.401 227.5 276.901C227.5 278.401 228.501 279.201 231.101 280.901C233.801 282.701 237.5 285.201 237.5 290.301C237.5 295.401 233.801 297.901 231.101 299.701C228.601 301.401 227.5 302.201 227.5 303.701C227.6 305.401 226.101 306.901 224.301 306.901Z" fill="url(#paint4_linear_182_712)"/>
<path d="M200.601 306.901C198.801 306.901 197.4 305.401 197.4 303.701C197.4 298.601 201.101 296.101 203.801 294.301C206.301 292.601 207.4 291.801 207.4 290.301C207.4 288.801 206.401 288.001 203.801 286.301C201.101 284.501 197.4 282.001 197.4 276.901C197.4 271.801 201.101 269.301 203.801 267.501C206.301 265.801 207.4 265.001 207.4 263.501C207.4 261.701 208.901 260.301 210.601 260.301C212.301 260.301 213.801 261.801 213.801 263.501C213.801 268.601 210.1 271.101 207.4 272.901C204.9 274.601 203.801 275.401 203.801 276.901C203.801 278.401 204.8 279.201 207.4 280.901C210.1 282.701 213.801 285.201 213.801 290.301C213.801 295.401 210.1 297.901 207.4 299.701C204.9 301.401 203.801 302.201 203.801 303.701C203.901 305.401 202.401 306.901 200.601 306.901Z" fill="url(#paint5_linear_182_712)"/>
<path d="M16.0001 142.101C16.0001 142.101 25.8 156.501 20.2 166.601C18.2 170.301 6.39996 175.701 2.39996 184.601C-4.90004 201.201 9.90016 220.601 25.6002 229.101L20.1002 238.001H44.7L39.2 229.101C54.9 220.701 69.8 201.201 62.4 184.601C58.4 175.701 46.7002 170.301 44.6002 166.601C39.1002 156.401 48.8001 142.101 48.8001 142.101H16.0001Z" fill="#00BE93"/>
<path d="M262.2 173.2C261.8 173.4 261.5 173.7 261.3 174.1L243.7 210.6L213.5 220.7V246.1L262.2 218.1V173.2Z" fill="#FFD493"/>
<path d="M237.5 241.601C231 241.601 226.1 233.701 226.1 223.201C226.1 212.701 231 204.801 237.5 204.801C239.3 204.801 241.1 205.501 242.7 206.701C244.1 207.801 244.4 209.901 243.3 211.301C242.2 212.701 240.1 213.001 238.7 211.901C238.3 211.601 237.9 211.401 237.5 211.401C235.5 211.401 232.6 216.101 232.6 223.301C232.6 230.501 235.6 235.201 237.5 235.201C238.8 235.201 241.1 232.801 242.1 227.501C242.4 225.701 244.1 224.601 245.9 224.901C247.7 225.201 248.8 226.901 248.5 228.701C247 236.501 242.7 241.601 237.5 241.601Z" fill="url(#paint6_linear_182_712)"/>
<path d="M286.1 210.6L268.5 174.1C268.3 173.8 268.1 173.5 267.9 173.4V218.4L316.3 246.2V220.8L286.1 210.6Z" fill="#FFD493"/>
<path d="M293.3 241.601C288.1 241.601 283.8 236.501 282.3 228.501C282 226.701 283.2 225.001 284.9 224.701C286.7 224.401 288.4 225.601 288.7 227.301C289.6 232.601 292 235.001 293.3 235.001C295.3 235.001 298.2 230.301 298.2 223.101C298.2 215.901 295.2 211.201 293.3 211.201C292.9 211.201 292.5 211.401 292.1 211.701C290.7 212.801 288.6 212.601 287.5 211.101C286.4 209.701 286.6 207.601 288.1 206.501C289.7 205.301 291.5 204.601 293.3 204.601C299.8 204.601 304.7 212.501 304.7 223.001C304.7 233.501 299.9 241.601 293.3 241.601Z" fill="url(#paint7_linear_182_712)"/>
<path d="M268.733 82.7364C271.115 80.3542 272.54 77.9167 271.915 77.2919C271.29 76.667 268.853 78.0916 266.471 80.4737C264.088 82.8559 262.664 85.2936 263.289 85.9185C263.913 86.5433 266.351 85.1186 268.733 82.7364Z" fill="#00BE93"/>
<path d="M263.6 89.3006C262.6 89.3006 261.7 88.9005 260.9 88.2005C258.7 86.0005 259.8 82.4006 264.1 78.1006C268.4 73.8006 272 72.7006 274.2 74.9006C275 75.7006 276.2 77.6006 274.2 80.9006C273.5 82.2006 272.3 83.6006 271 85.0006C268.2 87.9006 265.7 89.3006 263.6 89.3006Z" fill="#00BE93"/>
<path d="M274.699 91.9008C273.899 91.9008 272.999 91.6008 272.399 90.9008L266.499 85.0008C265.199 83.7008 265.199 81.7008 266.499 80.4008C267.799 79.1008 269.8 79.1008 271.1 80.4008L276.999 86.3008C278.299 87.6008 278.299 89.6008 276.999 90.9008C276.399 91.6008 275.499 91.9008 274.699 91.9008Z" fill="#00BE93"/>
<path d="M252.375 98.9709C254.757 96.5887 256.182 94.1512 255.557 93.5263C254.932 92.9015 252.494 94.3259 250.112 96.7081C247.73 99.0903 246.305 101.528 246.93 102.153C247.555 102.778 249.993 101.353 252.375 98.9709Z" fill="#00BE93"/>
<path d="M247.3 105.6C246.3 105.6 245.4 105.2 244.6 104.5C242.4 102.3 243.5 98.7005 247.8 94.4005C252.1 90.1005 255.7 89.0004 257.9 91.2004C260.1 93.4004 259 97.0005 254.7 101.3C251.9 104.1 249.4 105.6 247.3 105.6Z" fill="#00BE93"/>
<path d="M258.4 108.201C257.6 108.201 256.7 107.901 256.1 107.201L250.2 101.301C248.9 100.001 248.9 98.0006 250.2 96.7006C251.5 95.4006 253.5 95.4006 254.8 96.7006L260.7 102.601C262 103.901 262 105.901 260.7 107.201C260.1 107.901 259.2 108.201 258.4 108.201Z" fill="#00BE93"/>
<path d="M236.776 114.613C239.158 112.23 240.582 109.793 239.958 109.168C239.333 108.543 236.895 109.968 234.513 112.35C232.131 114.732 230.706 117.17 231.331 117.794C231.956 118.419 234.393 116.995 236.776 114.613Z" fill="#00BE93"/>
<path d="M231.7 121.301C230.7 121.301 229.8 120.901 229 120.201C228.2 119.401 227 117.501 229 114.201C229.7 112.901 230.9 111.501 232.2 110.101C236.5 105.801 240.1 104.701 242.3 106.901C244.5 109.101 243.4 112.701 239.1 117.001C236.2 119.801 233.7 121.301 231.7 121.301Z" fill="#00BE93"/>
<path d="M242.699 123.901C241.899 123.901 240.999 123.601 240.399 122.901L234.499 117.001C233.199 115.701 233.199 113.701 234.499 112.401C235.799 111.101 237.8 111.101 239.1 112.401L244.999 118.301C246.299 119.601 246.299 121.601 244.999 122.901C244.399 123.501 243.599 123.901 242.699 123.901Z" fill="#00BE93"/>
<path d="M223.2 164.801C231.6 179.001 229.6 197.701 217.4 209.901C202.9 224.401 179.3 224.401 164.8 209.901C150.3 195.401 150.3 171.801 164.8 157.301C177.2 144.901 196.3 143.101 210.7 152.001" fill="#EE9308"/>
<path d="M296.981 88.5313L286.021 77.5713L187.946 175.646L198.906 186.606L296.981 88.5313Z" fill="#FBB95D"/>
<defs>
<linearGradient id="paint0_linear_182_712" x1="-18.5927" y1="250.072" x2="215.195" y2="11.2017" gradientUnits="userSpaceOnUse">
<stop stop-color="#D5D5D5"/>
<stop offset="0.104" stop-color="#7A7A7A"/>
<stop offset="0.1064" stop-color="#7A7A7A"/>
<stop offset="0.2322" stop-color="#545454"/>
<stop offset="0.3625" stop-color="#363636"/>
<stop offset="0.4996" stop-color="#1E1E1E"/>
<stop offset="0.6447" stop-color="#0D0D0D"/>
<stop offset="0.8032" stop-color="#030303"/>
<stop offset="1"/>
</linearGradient>
<linearGradient id="paint1_linear_182_712" x1="54.4854" y1="321.595" x2="288.273" y2="82.7249" gradientUnits="userSpaceOnUse">
<stop stop-color="#D5D5D5"/>
<stop offset="0.104" stop-color="#7A7A7A"/>
<stop offset="0.1064" stop-color="#7A7A7A"/>
<stop offset="0.2322" stop-color="#545454"/>
<stop offset="0.3625" stop-color="#363636"/>
<stop offset="0.4996" stop-color="#1E1E1E"/>
<stop offset="0.6447" stop-color="#0D0D0D"/>
<stop offset="0.8032" stop-color="#030303"/>
<stop offset="1"/>
</linearGradient>
<linearGradient id="paint2_linear_182_712" x1="-18.968" y1="249.704" x2="214.82" y2="10.8342" gradientUnits="userSpaceOnUse">
<stop stop-color="#D5D5D5"/>
<stop offset="0.104" stop-color="#7A7A7A"/>
<stop offset="0.1064" stop-color="#7A7A7A"/>
<stop offset="0.2322" stop-color="#545454"/>
<stop offset="0.3625" stop-color="#363636"/>
<stop offset="0.4996" stop-color="#1E1E1E"/>
<stop offset="0.6447" stop-color="#0D0D0D"/>
<stop offset="0.8032" stop-color="#030303"/>
<stop offset="1"/>
</linearGradient>
<linearGradient id="paint3_linear_182_712" x1="136.853" y1="402.208" x2="370.641" y2="163.34" gradientUnits="userSpaceOnUse">
<stop stop-color="#D5D5D5"/>
<stop offset="0.104" stop-color="#7A7A7A"/>
<stop offset="0.1064" stop-color="#7A7A7A"/>
<stop offset="0.2322" stop-color="#545454"/>
<stop offset="0.3625" stop-color="#363636"/>
<stop offset="0.4996" stop-color="#1E1E1E"/>
<stop offset="0.6447" stop-color="#0D0D0D"/>
<stop offset="0.8032" stop-color="#030303"/>
<stop offset="1"/>
</linearGradient>
<linearGradient id="paint4_linear_182_712" x1="124.746" y1="390.36" x2="358.534" y2="151.491" gradientUnits="userSpaceOnUse">
<stop stop-color="#D5D5D5"/>
<stop offset="0.104" stop-color="#7A7A7A"/>
<stop offset="0.1064" stop-color="#7A7A7A"/>
<stop offset="0.2322" stop-color="#545454"/>
<stop offset="0.3625" stop-color="#363636"/>
<stop offset="0.4996" stop-color="#1E1E1E"/>
<stop offset="0.6447" stop-color="#0D0D0D"/>
<stop offset="0.8032" stop-color="#030303"/>
<stop offset="1"/>
</linearGradient>
<linearGradient id="paint5_linear_182_712" x1="112.638" y1="378.51" x2="346.425" y2="139.638" gradientUnits="userSpaceOnUse">
<stop stop-color="#D5D5D5"/>
<stop offset="0.104" stop-color="#7A7A7A"/>
<stop offset="0.1064" stop-color="#7A7A7A"/>
<stop offset="0.2322" stop-color="#545454"/>
<stop offset="0.3625" stop-color="#363636"/>
<stop offset="0.4996" stop-color="#1E1E1E"/>
<stop offset="0.6447" stop-color="#0D0D0D"/>
<stop offset="0.8032" stop-color="#030303"/>
<stop offset="1"/>
</linearGradient>
<linearGradient id="paint6_linear_182_712" x1="98.7898" y1="364.956" x2="332.577" y2="126.087" gradientUnits="userSpaceOnUse">
<stop stop-color="#D5D5D5"/>
<stop offset="0.104" stop-color="#7A7A7A"/>
<stop offset="0.1064" stop-color="#7A7A7A"/>
<stop offset="0.2322" stop-color="#545454"/>
<stop offset="0.3625" stop-color="#363636"/>
<stop offset="0.4996" stop-color="#1E1E1E"/>
<stop offset="0.6447" stop-color="#0D0D0D"/>
<stop offset="0.8032" stop-color="#030303"/>
<stop offset="1"/>
</linearGradient>
<linearGradient id="paint7_linear_182_712" x1="127.341" y1="392.9" x2="361.129" y2="154.03" gradientUnits="userSpaceOnUse">
<stop stop-color="#D5D5D5"/>
<stop offset="0.104" stop-color="#7A7A7A"/>
<stop offset="0.1064" stop-color="#7A7A7A"/>
<stop offset="0.2322" stop-color="#545454"/>
<stop offset="0.3625" stop-color="#363636"/>
<stop offset="0.4996" stop-color="#1E1E1E"/>
<stop offset="0.6447" stop-color="#0D0D0D"/>
<stop offset="0.8032" stop-color="#030303"/>
<stop offset="1"/>
</linearGradient>
</defs>
</svg>
