<svg width="339" height="362" viewBox="0 0 339 362" fill="none" xmlns="http://www.w3.org/2000/svg">
<path d="M301.7 202.9C301.7 234.5 284 262 257.9 276V315.6H179.7V276C153.6 262 135.9 234.5 135.9 202.9C135.9 157.1 173 120 218.8 120C264.6 120 301.7 157.1 301.7 202.9Z" fill="#8DEED8"/>
<g opacity="0.65">
<path d="M22.3999 154.199C22.2999 152.999 22.2 151.699 22.3 150.499L0.399902 151.299C0.399902 152.799 0.500098 154.299 0.600098 155.699V155.999L22.5 154.499L22.3999 154.199Z" fill="#FFB75B"/>
</g>
<g opacity="0.65">
<path d="M22.6001 136.599L0.800049 134.399C0.600049 135.999 0.499902 137.599 0.399902 139.099L22.2 140.499C22.4 139.299 22.5001 137.899 22.6001 136.599Z" fill="#FFB75B"/>
</g>
<g opacity="0.65">
<path d="M24.8999 122.999L3.5 117.999C3.1 119.499 2.8 121.199 2.5 122.699L24 126.899C24.3 125.499 24.5999 124.299 24.8999 122.999Z" fill="#FFB75B"/>
</g>
<g opacity="0.65">
<path d="M29 109.699L8.5 101.899C7.9 103.399 7.3999 104.899 6.8999 106.399L27.7 113.299C28 112.099 28.4 110.899 29 109.699Z" fill="#FFB75B"/>
</g>
<g opacity="0.65">
<path d="M26.7002 177.999L5.7002 184.299C6.2002 185.799 6.6002 187.299 7.2002 188.799L28.0002 181.699C27.5002 180.399 27.1002 179.099 26.7002 177.999Z" fill="#FFB75B"/>
</g>
<g opacity="0.65">
<path d="M31.6003 190.999L11.7002 199.999C12.4002 201.499 13.0003 202.899 13.8003 204.299L33.4001 194.599C32.6001 193.299 32.0003 192.099 31.6003 190.999Z" fill="#FFB75B"/>
</g>
<g opacity="0.65">
<path d="M34.7002 96.9993L15.4001 86.6992C14.7001 88.0992 13.9002 89.4993 13.2002 90.9993L32.9001 100.599C33.5001 99.2992 34.1002 98.1993 34.7002 96.9993Z" fill="#FFB75B"/>
</g>
<g opacity="0.65">
<path d="M23.6001 164.399L2 167.899C2.2 169.499 2.50005 171.099 2.80005 172.699L24.3 168.399C24 166.999 23.8001 165.699 23.6001 164.399Z" fill="#FFB75B"/>
</g>
<g opacity="0.65">
<path d="M50.9001 74.499L34.9001 59.499C33.8001 60.699 32.8002 61.799 31.7002 62.999L48.3003 77.2991C49.1003 76.3991 49.9001 75.499 50.9001 74.499Z" fill="#FFB75B"/>
</g>
<g opacity="0.65">
<path d="M42.1001 85.199L24.3 72.499C23.4 73.799 22.5001 75.099 21.6001 76.399L39.8 88.499C40.5 87.399 41.2001 86.299 42.1001 85.199Z" fill="#FFB75B"/>
</g>
<g opacity="0.65">
<path d="M232.7 112.999L253.5 105.999C253 104.499 252.5 102.999 251.9 101.499L231.4 109.299C231.9 110.499 232.3 111.699 232.7 112.999Z" fill="#FFB75B"/>
</g>
<g opacity="0.65">
<path d="M227.4 100.099L247.1 90.4993C246.4 88.9993 245.7 87.6992 244.9 86.1992L225.6 96.5992C226.3 97.6992 226.9 98.8992 227.4 100.099Z" fill="#FFB75B"/>
</g>
<g opacity="0.65">
<path d="M220.6 88.0996L238.8 75.9996C237.9 74.6996 236.9 73.3996 236 72.0996L218.2 84.8997C219 85.8997 219.8 86.9996 220.6 88.0996Z" fill="#FFB75B"/>
</g>
<g opacity="0.65">
<path d="M202.2 67.1992L216.7 50.7993C215.5 49.7993 214.4 48.7992 213.1 47.6992L199.2 64.6992C200.3 65.4992 201.3 66.2992 202.2 67.1992Z" fill="#FFB75B"/>
</g>
<g opacity="0.65">
<path d="M191.3 58.6993L203.5 40.4994C202.2 39.5994 200.9 38.6994 199.5 37.8994L187.9 56.4994C189 57.1994 190.2 57.9993 191.3 58.6993Z" fill="#FFB75B"/>
</g>
<g opacity="0.65">
<path d="M212.1 76.9996L228.6 62.5996C227.5 61.4996 226.4 60.1996 225.4 59.0996L209.5 74.0996C210.4 75.0996 211.2 76.0996 212.1 76.9996Z" fill="#FFB75B"/>
</g>
<g opacity="0.65">
<path d="M166.4 46.3993L173.5 25.6992C172.1 25.0992 170.5 24.5992 169 24.1992L162.7 45.1992C163.9 45.4992 165.2 45.8993 166.4 46.3993Z" fill="#FFB75B"/>
</g>
<g opacity="0.65">
<path d="M179.3 51.6996L189.1 32.0996C187.7 31.3996 186.2 30.6996 184.8 30.0996L175.8 49.9996C176.9 50.4996 178.1 51.0996 179.3 51.6996Z" fill="#FFB75B"/>
</g>
<g opacity="0.65">
<path d="M152.7 20.3994L149.1 41.9994C150.4 42.1994 151.7 42.4993 153.1 42.6993L157.5 21.2994C155.9 20.8994 154.3 20.5994 152.7 20.3994Z" fill="#FFB75B"/>
</g>
<g opacity="0.65">
<path d="M138.7 253.3L141.1 275.2L141.8 275.1C143.1 275 144.4 274.7 145.8 274.6L143.1 256.3C141.5 255.3 140.1 254.2 138.7 253.3Z" fill="#FFB75B"/>
</g>
<g opacity="0.65">
<path d="M129.1 275.8L128.8 253.9C127.5 253.8 126.2 253.9 124.9 253.8L124.4 275.7C125.8 275.9 127.4 275.8 129.1 275.8Z" fill="#FFB75B"/>
</g>
<path d="M338.301 175.399L328.801 184.799L331.2 197.899L319.4 191.799L307.601 198.099L309.801 184.999L300.101 175.799L313.301 173.699L319.101 161.699L325.101 173.599L338.301 175.399Z" fill="#FFD493"/>
<path d="M336.801 237.399L325.9 240.699L322.5 251.499L316 242.199L304.601 242.299L311.5 233.199L307.9 222.499L318.601 226.199L327.801 219.499L327.5 230.799L336.801 237.399Z" fill="#FFD493"/>
<path d="M311 286.699L302 286.099L296.3 293.199L294.2 284.399L285.7 281.199L293.4 276.399L293.8 267.299L300.7 273.199L309.4 270.699L306 279.099L311 286.699Z" fill="#FFD493"/>
<path d="M280.8 328.9H202.9C201.1 328.9 199.7 327.4 199.7 325.7V288C172.7 272.8 156 244.3 156 213.2C156 165.9 194.5 127.3 241.9 127.3C263.2 127.3 283.6 135.1 299.4 149.4C300.7 150.6 300.8 152.7 299.6 154C298.4 155.3 296.3 155.4 295 154.2C280.4 141.1 261.5 133.8 241.9 133.8C198.1 133.8 162.5 169.4 162.5 213.2C162.5 242.5 178.6 269.3 204.4 283.2C205.5 283.8 206.1 284.9 206.1 286.1V322.3H277.5V297.2C277.5 295.4 279 294 280.7 294C282.4 294 283.9 295.5 283.9 297.2V325.5C284 327.4 282.6 328.9 280.8 328.9Z" fill="url(#paint0_linear_182_835)"/>
<path d="M253 328.9C251.2 328.9 249.8 327.4 249.8 325.7V231.5H233.8V325.7C233.8 327.5 232.3 328.9 230.6 328.9C228.9 328.9 227.4 327.4 227.4 325.7V231.5H218.4C209.9 231.5 202.9 224.6 202.9 216V214.1C202.9 205.6 209.8 198.6 218.4 198.6C227 198.6 233.9 205.5 233.9 214.1V224.9H249.9V214.1C249.9 205.6 256.8 198.6 265.4 198.6C274 198.6 280.9 205.5 280.9 214.1V216C280.9 224.5 274 231.5 265.4 231.5H256.4V325.7C256.3 327.4 254.8 328.9 253 328.9ZM256.3 224.9H265.3C270.2 224.9 274.3 220.9 274.3 215.9V214C274.3 209.1 270.3 205 265.3 205C260.3 205 256.3 209 256.3 214V224.9ZM218.4 205.1C213.5 205.1 209.4 209.1 209.4 214.1V216C209.4 220.9 213.4 225 218.4 225H227.4V214.2C227.3 209.1 223.3 205.1 218.4 205.1Z" fill="url(#paint1_linear_182_835)"/>
<path d="M278.3 339.7H205.3C203.5 339.7 202.1 338.2 202.1 336.5C202.1 334.8 203.6 333.3 205.3 333.3H278.3C280.1 333.3 281.5 334.8 281.5 336.5C281.5 338.2 280.1 339.7 278.3 339.7Z" fill="url(#paint2_linear_182_835)"/>
<path d="M269.3 350.799H214.3C212.5 350.799 211.1 349.299 211.1 347.599C211.1 345.899 212.6 344.399 214.3 344.399H269.3C271.1 344.399 272.5 345.899 272.5 347.599C272.5 349.299 271.1 350.799 269.3 350.799Z" fill="url(#paint3_linear_182_835)"/>
<path d="M258.8 361.9H224.8C223 361.9 221.6 360.4 221.6 358.7C221.6 356.9 223.1 355.5 224.8 355.5H258.8C260.6 355.5 262 357 262 358.7C262.1 360.4 260.6 361.9 258.8 361.9Z" fill="url(#paint4_linear_182_835)"/>
<path d="M257.3 27.6992C257.3 32.0992 253.8 35.5992 249.4 35.5992C246.1 35.5992 219.2 35.5992 214.8 35.5992C209.7 35.5992 205.5 31.3993 205.5 26.2993C205.5 21.1993 209.7 16.9993 214.8 16.9993H214.9C215.4 11.4993 220 7.19922 225.6 7.19922C230.3 7.19922 234.3 10.2993 235.7 14.3993C236.3 14.2993 236.8 14.1992 237.5 14.1992C241.5 14.1992 244.8 16.7993 246 20.3993C247 19.8993 248.2 19.6992 249.4 19.6992C253.7 19.8992 257.3 23.3992 257.3 27.6992Z" fill="#00BE93"/>
<path d="M254.6 65.0996C254.6 69.3996 258.1 72.8997 262.4 72.8997C265.6 72.8997 292 72.8997 296.3 72.8997C301.3 72.8997 305.4 68.7997 305.4 63.7997C305.4 58.7997 301.3 54.6996 296.3 54.6996H296.2C295.7 49.2996 291.2 45.0996 285.7 45.0996C281 45.0996 277.1 48.0996 275.8 52.1996C275.3 52.0996 274.7 51.9996 274.1 51.9996C270.2 51.9996 266.9 54.5996 265.8 58.0996C264.8 57.5996 263.6 57.3997 262.4 57.3997C258.1 57.4997 254.6 60.8996 254.6 65.0996Z" fill="#00BE93"/>
<path d="M81.4001 233.4C90.0001 233.6 94.5002 233.1 101.7 233.3C106.2 233.4 109.8 230.999 109.9 226.499C110.1 221.999 106.5 218.099 101.9 217.999C96.3001 217.899 90.7003 217.899 75.8003 217.599C65.6003 217.599 70.3003 207.9 70.3003 207.9C70.3003 207.9 73.3003 192.2 73.8003 188.8C74.2003 186 72.6003 182.599 69.3003 181.599C65.9003 180.599 61.2001 183.199 60.4001 187.499C56.0001 213.699 34.5002 217.999 15.0002 222.199C14.6002 222.299 16.2002 256.699 16.2002 256.699C16.2002 256.699 20.4002 258.699 22.5002 259.699C29.7002 262.899 36.9001 265.999 44.4001 268.499C49.5001 270.199 54.6003 271.7 59.8003 272.9C64.6003 273.9 69.5001 274.499 74.4001 274.599C80.1001 274.699 85.9003 274.9 91.6003 274.9C94.9003 274.9 97.4003 272.299 97.6003 269.099C97.8003 265.899 95.5002 263.199 92.2002 262.699C90.9002 262.499 89.5002 262.599 88.2002 262.499C83.9002 262.399 79.6003 262.299 75.3003 262.199L81.4001 233.4Z" fill="white"/>
<path d="M91.5002 278.1C88.1002 278.1 84.6002 278 81.2002 278C78.9002 278 76.6003 277.9 74.3003 277.9C69.2003 277.8 64.1003 277.3 59.1003 276.2C54.4003 275.2 49.4001 273.7 43.4001 271.7C35.3001 269 27.7002 265.7 21.2002 262.8C19.1002 261.8 15.0003 259.9 14.8003 259.8C13.7003 259.3 13.0002 258.2 13.0002 257C13.0002 257 12.6002 248.4 12.2002 239.8C12.0002 234.8 11.8003 230.8 11.8003 227.9C11.8003 226.2 11.7002 224.9 11.7002 223.9C11.7002 222.4 11.7003 219.8 14.3003 219.2L15.3003 219C33.9003 215 53.2002 210.8 57.2002 187.2C57.7002 184.2 59.6003 181.6 62.3003 179.9C64.8003 178.3 67.8003 177.9 70.3003 178.7C74.9003 180.1 77.8003 184.7 77.1003 189.5C76.6003 192.9 73.7003 208.1 73.6003 208.7C73.5003 209 73.5003 209.3 73.3003 209.5C72.7003 210.7 72.2003 212.9 72.8003 213.7C73.1003 214.2 74.3001 214.5 75.9001 214.5C84.3001 214.7 89.9001 214.7 93.9001 214.8C97.1001 214.8 99.6002 214.9 102 214.9C105.1 215 107.9 216.3 110 218.5C112.1 220.7 113.2 223.7 113.1 226.7C112.9 232.7 108.1 236.8 101.5 236.6C98.0002 236.5 95.2002 236.6 92.2002 236.6C89.0002 236.7 85.7003 236.7 81.3003 236.7C79.5003 236.7 78.1003 235.2 78.1003 233.4C78.1003 231.6 79.6003 230.2 81.3003 230.2C81.3003 230.2 81.3001 230.2 81.4001 230.2C85.7001 230.3 88.9003 230.2 92.1003 230.1C95.2003 230 98.1003 230 101.8 230.1C103.2 230.1 106.6 229.9 106.7 226.5C106.7 225.2 106.3 223.9 105.4 222.9C104.5 221.9 103.3 221.4 101.9 221.3C99.5001 221.2 97.0001 221.2 93.9001 221.2C89.8001 221.2 84.3001 221.1 75.9001 220.9C70.9001 220.9 68.5001 218.8 67.4001 217C65.0001 213.2 66.7001 208.4 67.4001 206.9C67.9001 204.5 70.4003 191.3 70.8003 188.4C71.0003 187 70.2003 185.3 68.6003 184.8C67.8003 184.6 66.8001 184.8 65.9001 185.3C64.8001 186 64.1001 187 63.9001 188.1C59.3001 215.3 37.9002 220.6 18.5002 224.8C18.6002 230.3 19.2002 244.5 19.7002 254.6C21.1002 255.3 23.0002 256.2 24.2002 256.7C30.5002 259.5 38.0003 262.7 45.8003 265.4C51.6003 267.4 56.4003 268.7 60.8003 269.7C65.3003 270.7 70.0002 271.2 74.7002 271.3C77.0002 271.3 79.4002 271.4 81.7002 271.4C85.0002 271.5 88.5001 271.5 91.9001 271.5C93.4001 271.5 94.6002 270.3 94.7002 268.8C94.8002 267.2 93.7003 266 92.1003 265.8C91.4003 265.7 90.5003 265.7 89.6003 265.7C89.2003 265.7 88.8002 265.7 88.5002 265.7C85.0002 265.6 81.4001 265.6 77.9001 265.5H75.6003C73.8003 265.5 72.4001 264 72.4001 262.2C72.4001 260.4 73.9003 259 75.6003 259C75.6003 259 75.6002 259 75.7002 259H78.0002C81.5002 259.1 85.1003 259.1 88.6003 259.2C88.9003 259.2 89.3003 259.2 89.6003 259.2C90.6003 259.2 91.8002 259.2 93.0002 259.4C97.9002 260.1 101.4 264.3 101.2 269.2C100.5 274.3 96.5002 278.1 91.5002 278.1Z" fill="url(#paint5_linear_182_835)"/>
<path d="M75.8008 247.201C85.1008 247.401 94.4007 247.601 103.701 247.701C109.501 247.801 113.101 242.301 110.401 237.301C109.101 234.901 106.901 233.701 104.101 233.701C96.5008 233.601 88.9008 233.401 81.3008 233.301L75.8008 247.201Z" fill="white"/>
<path d="M103.9 250.9C103.8 250.9 103.7 250.9 103.7 250.9C98.3004 250.8 92.8004 250.7 87.4004 250.6L75.8005 250.4C74.0005 250.4 72.6006 248.9 72.6006 247.1C72.6006 245.3 74.1005 243.9 75.8005 243.9C75.8005 243.9 75.8004 243.9 75.9004 243.9L87.5005 244.1C92.9005 244.2 98.4005 244.3 103.801 244.4H103.9C105.5 244.4 106.901 243.7 107.601 242.5C108.301 241.4 108.301 240.1 107.601 238.8C107.101 237.9 106.301 236.9 104.101 236.9C97.9006 236.8 91.7005 236.7 85.5005 236.5L81.3005 236.4C79.5005 236.4 78.1006 234.9 78.1006 233.1C78.1006 231.3 79.6004 229.9 81.4004 229.9L85.6006 230C91.8006 230.1 98.0004 230.2 104.2 230.4C108.3 230.5 111.501 232.4 113.301 235.7C115.101 239 115 242.8 113.2 245.9C111.2 249.1 107.8 250.9 103.9 250.9Z" fill="url(#paint6_linear_182_835)"/>
<path d="M75.2002 262.2C81.7002 262.3 93.9003 262.1 100.3 262.1C105.4 262.1 108.8 256.5 106.6 251.9C105.2 249.1 102.8 247.8 99.7002 247.7C91.8002 247.6 83.9002 247.4 76.0002 247.2L75.2002 262.2Z" fill="white"/>
<path d="M79.4004 265.5C77.8004 265.5 76.4006 265.5 75.1006 265.5C73.3006 265.5 71.9004 264 71.9004 262.2C71.9004 260.4 73.4006 259 75.1006 259C75.1006 259 75.1004 259 75.2004 259C79.0004 259.1 84.8004 259 90.4004 258.9C94.1004 258.9 97.7004 258.8 100.2 258.8C102 258.8 103.001 257.6 103.301 257C104.001 255.8 104.1 254.4 103.5 253.3C102.7 251.7 101.5 250.9 99.5005 250.9C91.6005 250.8 83.7005 250.6 75.8005 250.4C74.0005 250.4 72.6006 248.9 72.6006 247.1C72.6006 245.3 74.1004 243.9 75.9004 243.9C83.8004 244.1 91.7006 244.2 99.6006 244.4C104.101 244.5 107.501 246.6 109.301 250.4C110.901 253.6 110.7 257.4 108.7 260.5C106.8 263.5 103.601 265.3 100.101 265.3C99.9006 265.3 99.7005 265.3 99.5005 265.3C97.0005 265.3 93.7005 265.3 90.3005 265.4C86.7005 265.4 82.8004 265.5 79.4004 265.5Z" fill="url(#paint7_linear_182_835)"/>
<path d="M120.2 130C120.2 118.5 120.2 106.9 120.2 95.4C120.2 85.3 120.2 75.3 120.2 65.2C120.2 62.8 119.9 62.5 117.5 62.5C110.6 62.5 103.6 62.5 96.7 62.5C94.3 62.5 94 62.7 94 65.2C94 73 94 80.7 94 88.5C94 102.3 94 116.2 94 130H120.2Z" fill="#EE9308"/>
<path d="M100.7 134.2C99.5002 134.2 98.2003 134.2 97.0003 134C95.2003 133.8 93.4003 133.9 91.5003 134C90.0003 134.1 88.4002 134.2 86.7002 134.1C84.4002 134 81.9004 134 79.6004 134.1C78.5004 134.1 77.5002 134.1 76.4002 134.1C71.8002 134.1 70.7003 132.8 69.0003 129.2C66.8003 124.8 65.0003 120.3 63.5003 115.4C62.0003 110.8 60.9003 105.8 59.8003 99.5998C59.1003 95.2998 59.2003 91.0998 59.5003 87.0998C59.8003 82.6998 60.6002 78.0998 62.2002 72.5998C64.1002 66.0998 66.3003 60.1999 69.0003 54.7999C69.5003 53.6999 71.2002 50.2999 75.7002 50.2999C90.5002 50.2999 105.2 50.2999 120 50.2999H131.4C132.4 50.2999 137.1 50.2999 137.9 50.2999C142.4 49.9999 144.2 53.3999 144.7 54.4999C148.3 61.4999 150.5 68.6999 152.2 74.8999C154.3 82.1999 155 89.4999 154.5 96.3999C154.2 100.7 153.3 105.2 151.9 110.6C150.3 116.5 148.1 122.5 145 129.5C143.6 132.6 141.1 134.2 137.7 134.1C135.7 134 133.7 134.1 131.8 134.1C129.2 134.1 126.4 134.2 123.7 134C122 133.9 120.3 134 118.5 134C117.3 134 116.1 134.1 114.9 134.1C112.9 134.1 110.8 134.1 108.8 134.1H106.1C105.2 134.1 104.3 134.1 103.5 134.1C102.6 134.2 101.7 134.2 100.7 134.2ZM94.8003 127.5C95.7003 127.5 96.7002 127.5 97.7002 127.6C99.5002 127.8 101.4 127.7 103.4 127.7C104.3 127.7 105.3 127.7 106.2 127.7H108.9C111 127.7 113 127.7 115.1 127.7C116.2 127.7 117.3 127.7 118.5 127.6C120.3 127.5 122.2 127.5 124.2 127.6C126.7 127.7 129.3 127.7 131.9 127.7C133.9 127.7 136 127.7 138.1 127.7C138.8 127.7 138.9 127.7 139.3 126.9C142.3 120.2 144.3 114.5 145.9 109C147.3 104 148 99.8999 148.3 95.9999C148.8 89.7999 148.1 83.2998 146.3 76.6998C144.7 70.8998 142.6 64.0999 139.3 57.4999C139.1 57.0999 138.9 56.8999 138.9 56.7999C138.9 56.7999 138.8 56.7999 138.7 56.7999C138.6 56.7999 138.5 56.7999 138.5 56.7999C138.5 56.7999 132.9 56.7999 131.8 56.7999H120.4C105.6 56.7999 90.9004 56.7999 76.1004 56.7999C75.8004 56.7999 75.7002 56.7999 75.7002 56.7999C75.7002 56.7999 75.5002 56.8998 75.2002 57.5998C72.7002 62.6998 70.6003 68.2999 68.8003 74.3999C67.3003 79.3999 66.5003 83.5999 66.3003 87.3999C66.1003 90.9999 65.9004 94.7999 66.6004 98.3999C67.6004 104.3 68.7003 109 70.0003 113.3C71.5003 117.8 73.2002 122.1 75.2002 126.2C75.4002 126.6 75.6003 127.1 75.8003 127.4C76.0003 127.4 76.3002 127.4 76.7002 127.4C77.7002 127.4 78.8002 127.4 79.9002 127.4C82.3002 127.4 84.8003 127.4 87.3003 127.4C88.7003 127.4 90.0003 127.4 91.5003 127.3C92.4003 127.5 93.6003 127.5 94.8003 127.5Z" fill="url(#paint8_linear_182_835)"/>
<path d="M108 53.4C106.2 53.4 104.8 51.9 104.8 50.2V38.2C104.8 36.4 106.3 35 108 35C109.7 35 111.2 36.5 111.2 38.2V50.2C111.2 52 109.8 53.4 108 53.4Z" fill="url(#paint9_linear_182_835)"/>
<path d="M124.5 101.3C129.6 101.2 134.7 101.3 139.8 101.3C142.6 101.3 142.7 100.9 142.6 97.9995C142.3 87.3995 138 77.8995 134.2 68.1995C133 65.0995 130.7 63.4995 127.3 63.9995C126.4 64.0995 125.4 63.9995 124.5 63.9995V101.3Z" fill="#FFD493"/>
<path d="M108 39.7997C102.7 39.7997 98.4004 35.4996 98.4004 30.1996C98.4004 24.8996 102.7 20.5996 108 20.5996C113.3 20.5996 117.601 24.8996 117.601 30.1996C117.601 35.4996 113.3 39.7997 108 39.7997ZM108 27.0996C106.3 27.0996 104.9 28.4996 104.9 30.1996C104.9 31.8996 106.3 33.2997 108 33.2997C109.7 33.2997 111.101 31.8996 111.101 30.1996C111.101 28.4996 109.7 27.0996 108 27.0996Z" fill="url(#paint10_linear_182_835)"/>
<path d="M23.6003 48.4995C22.2003 48.4995 20.8002 47.4995 20.5002 46.0995C20.0002 44.3995 21.1003 42.5995 22.8003 42.0995L182.6 0.199434C184.3 -0.300566 186.1 0.799483 186.6 2.49948C187.1 4.19948 186 5.99948 184.3 6.49948L24.5002 48.3995C24.1002 48.4995 23.8003 48.4995 23.6003 48.4995Z" fill="url(#paint11_linear_182_835)"/>
<path d="M88.4001 101.3C83.3001 101.2 78.2003 101.3 73.1003 101.3C70.3003 101.3 70.2003 100.9 70.3003 97.9995C70.6003 87.3995 74.9002 77.8995 78.7002 68.1995C79.9002 65.0995 82.2003 63.4995 85.6003 63.9995C86.5003 64.0995 87.5001 63.9995 88.4001 63.9995V101.3Z" fill="#FFD493"/>
<defs>
<linearGradient id="paint0_linear_182_835" x1="123.538" y1="387.619" x2="312.149" y2="130.113" gradientUnits="userSpaceOnUse">
<stop stop-color="#D5D5D5"/>
<stop offset="0.104" stop-color="#7A7A7A"/>
<stop offset="0.1064" stop-color="#7A7A7A"/>
<stop offset="0.2322" stop-color="#545454"/>
<stop offset="0.3625" stop-color="#363636"/>
<stop offset="0.4996" stop-color="#1E1E1E"/>
<stop offset="0.6447" stop-color="#0D0D0D"/>
<stop offset="0.8032" stop-color="#030303"/>
<stop offset="1"/>
</linearGradient>
<linearGradient id="paint1_linear_182_835" x1="135.475" y1="396.362" x2="324.086" y2="138.856" gradientUnits="userSpaceOnUse">
<stop stop-color="#D5D5D5"/>
<stop offset="0.104" stop-color="#7A7A7A"/>
<stop offset="0.1064" stop-color="#7A7A7A"/>
<stop offset="0.2322" stop-color="#545454"/>
<stop offset="0.3625" stop-color="#363636"/>
<stop offset="0.4996" stop-color="#1E1E1E"/>
<stop offset="0.6447" stop-color="#0D0D0D"/>
<stop offset="0.8032" stop-color="#030303"/>
<stop offset="1"/>
</linearGradient>
<linearGradient id="paint2_linear_182_835" x1="176.141" y1="426.147" x2="364.749" y2="168.643" gradientUnits="userSpaceOnUse">
<stop stop-color="#D5D5D5"/>
<stop offset="0.104" stop-color="#7A7A7A"/>
<stop offset="0.1064" stop-color="#7A7A7A"/>
<stop offset="0.2322" stop-color="#545454"/>
<stop offset="0.3625" stop-color="#363636"/>
<stop offset="0.4996" stop-color="#1E1E1E"/>
<stop offset="0.6447" stop-color="#0D0D0D"/>
<stop offset="0.8032" stop-color="#030303"/>
<stop offset="1"/>
</linearGradient>
<linearGradient id="paint3_linear_182_835" x1="181.414" y1="430.01" x2="370.026" y2="172.505" gradientUnits="userSpaceOnUse">
<stop stop-color="#D5D5D5"/>
<stop offset="0.104" stop-color="#7A7A7A"/>
<stop offset="0.1064" stop-color="#7A7A7A"/>
<stop offset="0.2322" stop-color="#545454"/>
<stop offset="0.3625" stop-color="#363636"/>
<stop offset="0.4996" stop-color="#1E1E1E"/>
<stop offset="0.6447" stop-color="#0D0D0D"/>
<stop offset="0.8032" stop-color="#030303"/>
<stop offset="1"/>
</linearGradient>
<linearGradient id="paint4_linear_182_835" x1="186.687" y1="433.871" x2="375.294" y2="176.368" gradientUnits="userSpaceOnUse">
<stop stop-color="#D5D5D5"/>
<stop offset="0.104" stop-color="#7A7A7A"/>
<stop offset="0.1064" stop-color="#7A7A7A"/>
<stop offset="0.2322" stop-color="#545454"/>
<stop offset="0.3625" stop-color="#363636"/>
<stop offset="0.4996" stop-color="#1E1E1E"/>
<stop offset="0.6447" stop-color="#0D0D0D"/>
<stop offset="0.8032" stop-color="#030303"/>
<stop offset="1"/>
</linearGradient>
<linearGradient id="paint5_linear_182_835" x1="12.4687" y1="306.266" x2="201.08" y2="48.76" gradientUnits="userSpaceOnUse">
<stop stop-color="#D5D5D5"/>
<stop offset="0.104" stop-color="#7A7A7A"/>
<stop offset="0.1064" stop-color="#7A7A7A"/>
<stop offset="0.2322" stop-color="#545454"/>
<stop offset="0.3625" stop-color="#363636"/>
<stop offset="0.4996" stop-color="#1E1E1E"/>
<stop offset="0.6447" stop-color="#0D0D0D"/>
<stop offset="0.8032" stop-color="#030303"/>
<stop offset="1"/>
</linearGradient>
<linearGradient id="paint6_linear_182_835" x1="34.5674" y1="322.452" x2="223.179" y2="64.947" gradientUnits="userSpaceOnUse">
<stop stop-color="#D5D5D5"/>
<stop offset="0.104" stop-color="#7A7A7A"/>
<stop offset="0.1064" stop-color="#7A7A7A"/>
<stop offset="0.2322" stop-color="#545454"/>
<stop offset="0.3625" stop-color="#363636"/>
<stop offset="0.4996" stop-color="#1E1E1E"/>
<stop offset="0.6447" stop-color="#0D0D0D"/>
<stop offset="0.8032" stop-color="#030303"/>
<stop offset="1"/>
</linearGradient>
<linearGradient id="paint7_linear_182_835" x1="38.2305" y1="325.135" x2="226.841" y2="67.6295" gradientUnits="userSpaceOnUse">
<stop stop-color="#D5D5D5"/>
<stop offset="0.104" stop-color="#7A7A7A"/>
<stop offset="0.1064" stop-color="#7A7A7A"/>
<stop offset="0.2322" stop-color="#545454"/>
<stop offset="0.3625" stop-color="#363636"/>
<stop offset="0.4996" stop-color="#1E1E1E"/>
<stop offset="0.6447" stop-color="#0D0D0D"/>
<stop offset="0.8032" stop-color="#030303"/>
<stop offset="1"/>
</linearGradient>
<linearGradient id="paint8_linear_182_835" x1="-38.2358" y1="290.665" x2="150.375" y2="33.16" gradientUnits="userSpaceOnUse">
<stop stop-color="#D5D5D5"/>
<stop offset="0.104" stop-color="#7A7A7A"/>
<stop offset="0.1064" stop-color="#7A7A7A"/>
<stop offset="0.2322" stop-color="#545454"/>
<stop offset="0.3625" stop-color="#363636"/>
<stop offset="0.4996" stop-color="#1E1E1E"/>
<stop offset="0.6447" stop-color="#0D0D0D"/>
<stop offset="0.8032" stop-color="#030303"/>
<stop offset="1"/>
</linearGradient>
<linearGradient id="paint9_linear_182_835" x1="-60.5861" y1="274.293" x2="128.027" y2="16.7907" gradientUnits="userSpaceOnUse">
<stop stop-color="#D5D5D5"/>
<stop offset="0.104" stop-color="#7A7A7A"/>
<stop offset="0.1064" stop-color="#7A7A7A"/>
<stop offset="0.2322" stop-color="#545454"/>
<stop offset="0.3625" stop-color="#363636"/>
<stop offset="0.4996" stop-color="#1E1E1E"/>
<stop offset="0.6447" stop-color="#0D0D0D"/>
<stop offset="0.8032" stop-color="#030303"/>
<stop offset="1"/>
</linearGradient>
<linearGradient id="paint10_linear_182_835" x1="-67.2462" y1="269.418" x2="121.366" y2="11.9109" gradientUnits="userSpaceOnUse">
<stop stop-color="#D5D5D5"/>
<stop offset="0.104" stop-color="#7A7A7A"/>
<stop offset="0.1064" stop-color="#7A7A7A"/>
<stop offset="0.2322" stop-color="#545454"/>
<stop offset="0.3625" stop-color="#363636"/>
<stop offset="0.4996" stop-color="#1E1E1E"/>
<stop offset="0.6447" stop-color="#0D0D0D"/>
<stop offset="0.8032" stop-color="#030303"/>
<stop offset="1"/>
</linearGradient>
<linearGradient id="paint11_linear_182_835" x1="-72.9849" y1="265.213" x2="115.627" y2="7.70753" gradientUnits="userSpaceOnUse">
<stop stop-color="#D5D5D5"/>
<stop offset="0.104" stop-color="#7A7A7A"/>
<stop offset="0.1064" stop-color="#7A7A7A"/>
<stop offset="0.2322" stop-color="#545454"/>
<stop offset="0.3625" stop-color="#363636"/>
<stop offset="0.4996" stop-color="#1E1E1E"/>
<stop offset="0.6447" stop-color="#0D0D0D"/>
<stop offset="0.8032" stop-color="#030303"/>
<stop offset="1"/>
</linearGradient>
</defs>
</svg>
