<svg width="89" height="73" viewBox="0 0 89 73" fill="none" xmlns="http://www.w3.org/2000/svg">
<path fill-rule="evenodd" clip-rule="evenodd" d="M36.1329 45.6768C34.9985 47.3345 34.4252 49.3531 34.6217 51.7485C35.2923 59.9281 40.6546 64.3242 47.7297 66.22C57.6744 68.8826 71.0994 66.4098 78.182 63.1786C79.0094 62.8008 79.3735 61.8235 78.9973 60.9964C78.6192 60.1706 77.6422 59.8049 76.8148 60.1827C70.2479 63.1787 57.8036 65.5087 48.5825 63.0386C42.8787 61.5122 38.4444 58.0719 37.9029 51.4788C37.786 50.0528 38.0927 48.8401 38.7063 47.8182C39.3503 48.3239 39.9992 48.8138 40.6518 49.2859C43.2657 51.1734 50.865 54.7537 56.8935 55.2408C61.6639 55.6254 65.4528 54.1137 66.2631 49.5536C66.7278 46.9429 65.5528 44.7041 63.2171 43.0251C60.3365 40.955 55.5237 39.7632 50.6661 39.8028C46.627 39.8342 42.5768 40.7123 39.6066 42.5017C39.1903 42.7523 38.794 43.0204 38.4195 43.3047C26.5716 32.9872 16.9414 16.7837 14.5255 1.68432C14.3823 0.787477 13.5379 0.176818 12.6395 0.319782C11.7426 0.463075 11.1316 1.30891 11.2749 2.20575C13.794 17.955 23.7962 34.8587 36.1329 45.6768ZM41.0602 45.4784C41.5634 45.8677 42.0702 46.2477 42.5797 46.6147C44.9256 48.3093 51.7468 51.5211 57.1585 51.9586C60.0224 52.1897 62.5343 51.713 63.0217 48.9758C63.2609 47.6332 62.4963 46.5615 61.2953 45.6993C59.7036 44.5549 57.3839 43.7868 54.828 43.3905C50.8626 42.7781 46.3225 43.0797 42.8549 44.5415C42.2144 44.8115 41.6108 45.1227 41.0602 45.4784Z" fill="#35312B"/>
<path fill-rule="evenodd" clip-rule="evenodd" d="M32.4743 16.6334C25.3969 13.8663 18.581 7.44994 14.2353 1.16854C13.7182 0.421735 12.6928 0.234291 11.9443 0.751029C11.1975 1.2681 11.0098 2.29522 11.5269 3.04203C16.2241 9.8294 23.6282 16.7114 31.2753 19.6999C32.1218 20.0303 33.077 19.6115 33.4075 18.7651C33.7379 17.9186 33.3208 16.9638 32.4743 16.6334Z" fill="#35312B"/>
<path fill-rule="evenodd" clip-rule="evenodd" d="M11.2488 2.84011C13.1892 8.77798 11.9093 17.0102 9.14858 22.6349C8.74854 23.4519 9.08673 24.4393 9.90213 24.839C10.7175 25.2387 11.7046 24.9021 12.1062 24.0854C15.2075 17.7609 16.5609 8.49328 14.3792 1.81658C14.0979 0.953526 13.1663 0.481134 12.3029 0.764105C11.4395 1.04708 10.9675 1.97706 11.2488 2.84011Z" fill="#35312B"/>
</svg>
