<svg width="44" height="44" viewBox="0 0 44 44" fill="none" xmlns="http://www.w3.org/2000/svg">
<g clip-path="url(#clip0_1147_723)">
<path d="M11 25.667V14.667C11 13.2083 11.5795 11.8094 12.6109 10.7779C13.6424 9.74645 15.0413 9.16699 16.5 9.16699C17.9587 9.16699 19.3576 9.74645 20.3891 10.7779C21.4205 11.8094 22 13.2083 22 14.667V29.3337C22 30.7924 22.5795 32.1913 23.6109 33.2227C24.6424 34.2542 26.0413 34.8337 27.5 34.8337C28.9587 34.8337 30.3576 34.2542 31.3891 33.2227C32.4205 32.1913 33 30.7924 33 29.3337V18.3337" stroke="#A03C48" stroke-width="2.75" stroke-linecap="round" stroke-linejoin="round"/>
<path d="M36.6668 9.16667C36.6668 7.14162 35.0252 5.5 33.0002 5.5C30.9751 5.5 29.3335 7.14162 29.3335 9.16667V14.6667C29.3335 16.6917 30.9751 18.3333 33.0002 18.3333C35.0252 18.3333 36.6668 16.6917 36.6668 14.6667V9.16667Z" stroke="#A03C48" stroke-width="2.75" stroke-linecap="round" stroke-linejoin="round"/>
<path d="M14.6668 29.3337C14.6668 27.3086 13.0252 25.667 11.0002 25.667C8.97512 25.667 7.3335 27.3086 7.3335 29.3337V34.8337C7.3335 36.8587 8.97512 38.5003 11.0002 38.5003C13.0252 38.5003 14.6668 36.8587 14.6668 34.8337V29.3337Z" stroke="#A03C48" stroke-width="2.75" stroke-linecap="round" stroke-linejoin="round"/>
</g>
<defs>
<clipPath id="clip0_1147_723">
<rect width="44" height="44" fill="white"/>
</clipPath>
</defs>
</svg>
