<svg width="44" height="44" viewBox="0 0 44 44" fill="none" xmlns="http://www.w3.org/2000/svg">
<g clip-path="url(#clip0_1147_744)">
<path d="M12.8335 33C10.546 33 8.3522 32.1308 6.7347 30.5836C5.1172 29.0364 4.2085 26.938 4.2085 24.75C4.2085 22.5619 5.1172 20.4635 6.7347 18.9163C8.3522 17.3691 10.546 16.5 12.8335 16.5C13.3738 14.0931 14.9542 11.978 17.2272 10.6199C18.3527 9.94748 19.6143 9.48112 20.9401 9.24749C22.2658 9.01386 23.6297 9.01753 24.9539 9.25828C26.278 9.49904 27.5365 9.97217 28.6575 10.6507C29.7785 11.3292 30.7401 12.1997 31.4872 13.2127C32.2344 14.2256 32.7526 15.361 33.0122 16.5542C33.2717 17.7474 33.2677 18.9749 33.0002 20.1666H34.8335C36.5353 20.1666 38.1674 20.8427 39.3708 22.046C40.5741 23.2494 41.2502 24.8815 41.2502 26.5833C41.2502 28.2851 40.5741 29.9172 39.3708 31.1206C38.1674 32.3239 36.5353 33 34.8335 33" stroke="#A03C48" stroke-width="2.75" stroke-linecap="round" stroke-linejoin="round"/>
<path d="M20.1665 27.5V27.5183M20.1665 33.0183V33.0367M20.1665 38.5367V38.555M27.4998 31.2217V31.24M27.4998 36.74V36.7583" stroke="#A03C48" stroke-width="2.75" stroke-linecap="round" stroke-linejoin="round"/>
</g>
<defs>
<clipPath id="clip0_1147_744">
<rect width="44" height="44" fill="white"/>
</clipPath>
</defs>
</svg>
