<svg width="44" height="44" viewBox="0 0 44 44" fill="none" xmlns="http://www.w3.org/2000/svg">
<g clip-path="url(#clip0_1147_751)">
<path d="M3.6665 36.6663C4.08298 37.2466 4.63445 37.7167 5.27328 38.0361C5.91211 38.3555 6.61909 38.5146 7.33317 38.4997C8.04725 38.5146 8.75423 38.3555 9.39306 38.0361C10.0319 37.7167 10.5834 37.2466 10.9998 36.6663C11.4163 36.0861 11.9678 35.616 12.6066 35.2966C13.2454 34.9771 13.9524 34.818 14.6665 34.833C15.3806 34.818 16.0876 34.9771 16.7264 35.2966C17.3652 35.616 17.9167 36.0861 18.3332 36.6663C18.7497 37.2466 19.3011 37.7167 19.9399 38.0361C20.5788 38.3555 21.2858 38.5146 21.9998 38.4997C22.7139 38.5146 23.4209 38.3555 24.0597 38.0361C24.6986 37.7167 25.25 37.2466 25.6665 36.6663C26.083 36.0861 26.6345 35.616 27.2733 35.2966C27.9121 34.9771 28.6191 34.818 29.3332 34.833C30.0472 34.818 30.7542 34.9771 31.3931 35.2966C32.0319 35.616 32.5834 36.0861 32.9998 36.6663C33.4163 37.2466 33.9678 37.7167 34.6066 38.0361C35.2454 38.3555 35.9524 38.5146 36.6665 38.4997C37.3806 38.5146 38.0876 38.3555 38.7264 38.0361C39.3652 37.7167 39.9167 37.2466 40.3332 36.6663" stroke="#A03C48" stroke-width="2.75" stroke-linecap="round" stroke-linejoin="round"/>
<path d="M7.33333 33L5.5 27.5H38.5L36.6667 33" stroke="#A03C48" stroke-width="2.75" stroke-linecap="round" stroke-linejoin="round"/>
<path d="M20.1665 22H32.9998L20.1665 5.5V22Z" stroke="#A03C48" stroke-width="2.75" stroke-linecap="round" stroke-linejoin="round"/>
<path d="M14.6667 12.833L11 21.9997" stroke="#A03C48" stroke-width="2.75" stroke-linecap="round" stroke-linejoin="round"/>
</g>
<defs>
<clipPath id="clip0_1147_751">
<rect width="44" height="44" fill="white"/>
</clipPath>
</defs>
</svg>
