<svg width="68" height="68" viewBox="0 0 68 68" fill="none" xmlns="http://www.w3.org/2000/svg">
<g opacity="0.3">
<path d="M57.7735 12.2852C57.7735 12.5117 57.6835 12.729 57.5234 12.8891C57.3632 13.0493 57.146 13.1392 56.9195 13.1392H55.6485V14.4142C55.6485 14.6407 55.5585 14.8579 55.3984 15.0181C55.2382 15.1782 55.021 15.2682 54.7945 15.2682C54.568 15.2682 54.3508 15.1782 54.1906 15.0181C54.0305 14.8579 53.9405 14.6407 53.9405 14.4142V13.1392H52.6655C52.439 13.1392 52.2218 13.0493 52.0617 12.8891C51.9015 12.729 51.8115 12.5117 51.8115 12.2852C51.8115 12.0588 51.9015 11.8415 52.0617 11.6814C52.2218 11.5212 52.439 11.4313 52.6655 11.4313H53.9405V10.1589C53.9405 9.93243 54.0305 9.71521 54.1906 9.55506C54.3508 9.39491 54.568 9.30493 54.7945 9.30493C55.021 9.30493 55.2382 9.39491 55.3984 9.55506C55.5585 9.71521 55.6485 9.93243 55.6485 10.1589V11.4313H56.9221C57.1481 11.4323 57.3644 11.5227 57.5239 11.6827C57.6834 11.8427 57.7731 12.0593 57.7735 12.2852Z" fill="#EBEBEB"/>
<path d="M14.8352 18.7492C14.3421 18.7492 13.86 18.603 13.4501 18.329C13.0401 18.055 12.7206 17.6656 12.5319 17.21C12.3433 16.7544 12.294 16.2531 12.3903 15.7695C12.4866 15.2859 12.7241 14.8417 13.0729 14.4931C13.4217 14.1445 13.866 13.9072 14.3497 13.8112C14.8333 13.7151 15.3346 13.7647 15.7901 13.9536C16.2456 14.1425 16.6348 14.4622 16.9086 14.8723C17.1823 15.2824 17.3283 15.7645 17.3281 16.2576C17.3274 16.9185 17.0645 17.552 16.5971 18.0191C16.1297 18.4863 15.496 18.7489 14.8352 18.7492ZM14.8352 15.4727C14.6799 15.4727 14.5282 15.5188 14.3991 15.605C14.27 15.6913 14.1694 15.8138 14.11 15.9573C14.0506 16.1007 14.035 16.2585 14.0653 16.4108C14.0956 16.563 14.1704 16.7029 14.2802 16.8127C14.3899 16.9224 14.5298 16.9972 14.682 17.0275C14.8343 17.0578 14.9921 17.0422 15.1356 16.9828C15.279 16.9234 15.4016 16.8228 15.4878 16.6937C15.5741 16.5646 15.6201 16.4129 15.6201 16.2576C15.6197 16.0496 15.5369 15.8501 15.3898 15.703C15.2427 15.5559 15.0432 15.4731 14.8352 15.4727Z" fill="#91FFC5"/>
<path d="M55.5463 22.6511H54.8318V22.1106C54.8318 21.884 54.7419 21.6666 54.5818 21.5063C54.4217 21.3459 54.2044 21.2556 53.9778 21.2553H51.133C50.9065 21.256 50.6895 21.3464 50.5294 21.5066C50.3694 21.6669 50.2794 21.8841 50.279 22.1106V22.6511H44.3078V21.0003C44.3085 20.7964 44.2359 20.5991 44.1033 20.4443C43.9706 20.2895 43.7868 20.1875 43.5853 20.1569C43.4927 17.5832 42.4057 15.1457 40.5527 13.3571C38.6998 11.5685 36.2254 10.5682 33.65 10.5667C31.0746 10.5651 28.599 11.5624 26.7439 13.3488C24.8888 15.1352 23.7988 17.5714 23.7032 20.145H23.6833C23.571 20.145 23.4599 20.1671 23.3562 20.2101C23.2525 20.2531 23.1583 20.3161 23.079 20.3956C22.9997 20.475 22.9368 20.5693 22.8939 20.6731C22.8511 20.7768 22.8291 20.888 22.8293 21.0003V22.6511H17.0892V22.1106C17.0892 21.884 16.9992 21.6666 16.8391 21.5063C16.679 21.3459 16.4618 21.2556 16.2352 21.2553H13.389C13.1624 21.2556 12.9452 21.3459 12.7851 21.5063C12.6249 21.6666 12.535 21.884 12.535 22.1106V22.6511H12.1817C11.1391 22.6525 10.1396 23.0675 9.40254 23.8051C8.66552 24.5426 8.25119 25.5424 8.25049 26.585V54.6709C8.25084 55.7138 8.66501 56.7139 9.40207 57.4517C10.1391 58.1895 11.1388 58.6047 12.1817 58.6061H55.5463C56.5897 58.6051 57.59 58.1901 58.3278 57.4524C59.0656 56.7146 59.4805 55.7143 59.4816 54.6709V26.585C59.4802 25.5419 59.0651 24.5419 58.3273 23.8044C57.5896 23.0669 56.5895 22.6522 55.5463 22.6511ZM44.3078 24.3591H47.7981V32.6718H44.3078V24.3591ZM33.6442 12.2851C35.7641 12.2852 37.8024 13.1019 39.3358 14.5656C40.8693 16.0293 41.7799 18.0274 41.8786 20.145H40.7457C40.6494 18.3281 39.8599 16.6175 38.5398 15.3655C37.2197 14.1135 35.4696 13.4156 33.6502 13.4156C31.8308 13.4156 30.0808 14.1135 28.7607 15.3655C27.4406 16.6175 26.651 18.3281 26.5547 20.145H25.4192C25.5184 18.0292 26.428 16.0328 27.9593 14.5695C29.4906 13.1062 31.5262 12.2882 33.6442 12.2851ZM42.5998 21.8543V22.6445H39.1121V21.8543H42.5998ZM28.8776 20.145H28.2627C28.3607 18.7844 28.9703 17.5115 29.9689 16.5823C30.9674 15.6531 32.2809 15.1365 33.6449 15.1365C35.0089 15.1365 36.3224 15.6531 37.3209 16.5823C38.3195 17.5115 38.9291 18.7844 39.0271 20.145H38.2581C38.1459 20.145 38.0347 20.1671 37.931 20.2101C37.8273 20.2531 37.7331 20.3161 37.6538 20.3956C37.5745 20.475 37.5116 20.5693 37.4688 20.6731C37.4259 20.7768 37.404 20.888 37.4042 21.0003V22.6511H29.7316V21.0003C29.7318 20.888 29.7098 20.7768 29.667 20.6731C29.6241 20.5693 29.5612 20.475 29.4819 20.3956C29.4026 20.3161 29.3084 20.2531 29.2047 20.2101C29.101 20.1671 28.9899 20.145 28.8776 20.145ZM24.5373 21.8543H28.0236V22.6445H24.5373V21.8543ZM22.8107 24.3591V32.6718H19.3191V24.3591H22.8107ZM17.6164 56.8982H12.1817C11.5922 56.8964 11.0274 56.661 10.6111 56.2435C10.1949 55.826 9.96111 55.2605 9.96111 54.6709V26.585C9.96111 25.9951 10.1953 25.4294 10.6121 25.012C11.029 24.5946 11.5945 24.3598 12.1844 24.3591H17.6111V32.8418C17.1 33.0369 16.6602 33.3827 16.35 33.8333C16.0398 34.284 15.8737 34.8182 15.8739 35.3653V38.8038C15.8737 39.3509 16.0398 39.8851 16.35 40.3357C16.6602 40.7864 17.1 41.1321 17.6111 41.3272L17.6164 56.8982ZM22.8107 56.8982H19.3191V41.4919H22.8054L22.8107 56.8982ZM23.5771 39.7826H18.5674C18.438 39.7826 18.3098 39.7571 18.1902 39.7076C18.0707 39.6581 17.962 39.5855 17.8705 39.494C17.779 39.4025 17.7064 39.2938 17.6569 39.1743C17.6074 39.0547 17.5819 38.9266 17.5819 38.7971V35.3586C17.5819 35.2292 17.6074 35.1011 17.6569 34.9815C17.7064 34.8619 17.779 34.7533 17.8705 34.6618C17.962 34.5703 18.0707 34.4977 18.1902 34.4482C18.3098 34.3987 18.438 34.3732 18.5674 34.3732H23.5717C23.833 34.3735 24.0834 34.4775 24.2682 34.6622C24.4529 34.8469 24.5569 35.0974 24.5572 35.3586V38.7971C24.5572 38.9266 24.5317 39.0547 24.4822 39.1743C24.4327 39.2938 24.3601 39.4025 24.2686 39.494C24.1771 39.5855 24.0684 39.6581 23.9489 39.7076C23.8293 39.7571 23.7012 39.7826 23.5717 39.7826H23.5771ZM42.5998 56.8982H24.5147V41.3232C25.0282 41.1301 25.4707 40.7852 25.7834 40.3345C26.0961 39.8837 26.2641 39.3484 26.2652 38.7998V35.3586C26.2649 34.8099 26.0972 34.2742 25.7844 33.8233C25.4716 33.3724 25.0286 33.0277 24.5147 32.8352V24.3591H42.5998V32.7914C42.0537 32.9637 41.5767 33.3054 41.2379 33.767C40.8991 34.2286 40.716 34.786 40.7152 35.3586V38.7971C40.7149 39.3702 40.8975 39.9283 41.2365 40.3903C41.5755 40.8523 42.0531 41.1941 42.5998 41.3657V56.8982ZM47.7981 56.8982H44.3078V41.4919H47.7981V56.8982ZM49.3918 38.7971C49.3915 39.0582 49.2877 39.3084 49.1033 39.4931C48.9188 39.6778 48.6687 39.7819 48.4077 39.7826H43.4086C43.2792 39.7826 43.1511 39.7571 43.0315 39.7076C42.9119 39.6581 42.8033 39.5855 42.7118 39.494C42.6203 39.4025 42.5477 39.2938 42.4982 39.1743C42.4486 39.0547 42.4231 38.9266 42.4231 38.7971V35.3586C42.4231 35.2292 42.4486 35.1011 42.4982 34.9815C42.5477 34.8619 42.6203 34.7533 42.7118 34.6618C42.8033 34.5703 42.9119 34.4977 43.0315 34.4482C43.1511 34.3987 43.2792 34.3732 43.4086 34.3732H48.413C48.674 34.3739 48.9241 34.478 49.1086 34.6627C49.293 34.8474 49.3968 35.0976 49.3971 35.3586L49.3918 38.7971ZM57.7736 54.6709C57.7726 55.2613 57.5376 55.8272 57.1201 56.2446C56.7026 56.6621 56.1367 56.8971 55.5463 56.8982H49.506V41.2568C49.9822 41.0456 50.3868 40.7008 50.6708 40.2642C50.9549 39.8276 51.1062 39.318 51.1064 38.7971V35.3586C51.1052 34.838 50.9535 34.3288 50.6695 33.8924C50.3856 33.456 49.9815 33.111 49.506 32.8989V24.3591H55.5463C56.1366 24.3598 56.7025 24.5945 57.12 25.0118C57.5375 25.429 57.7726 25.9948 57.7736 26.585V54.6709Z" fill="#201F3B"/>
<path d="M30.4937 47.2029C30.0755 47.202 29.6672 47.0757 29.3216 46.8404C28.9759 46.605 28.7088 46.2714 28.5547 45.8827L27.2624 42.6195C27.161 42.3646 27.1109 42.0923 27.115 41.818C27.1191 41.5438 27.1772 41.273 27.2862 41.0213C27.3952 40.7696 27.5527 40.5419 27.7499 40.3512C27.9471 40.1605 28.1799 40.0106 28.4351 39.9101L35.7239 37.0228C36.2387 36.8193 36.8133 36.8284 37.3214 37.048C37.8296 37.2676 38.2299 37.6798 38.4346 38.1942L39.7268 41.4587C39.9299 41.9734 39.9206 42.5476 39.701 43.0555C39.4815 43.5633 39.0695 43.9634 38.5554 44.1681L31.264 47.0554C31.019 47.1532 30.7575 47.2032 30.4937 47.2029ZM30.1365 45.2545C30.174 45.348 30.247 45.423 30.3395 45.463C30.432 45.5031 30.5366 45.505 30.6305 45.4683L37.9206 42.581C38.0142 42.5434 38.0891 42.4705 38.1291 42.3779C38.1692 42.2854 38.1711 42.1808 38.1344 42.0869L36.8408 38.8237C36.8036 38.7302 36.7308 38.6553 36.6385 38.6153C36.5462 38.5752 36.4418 38.5733 36.3481 38.6099L29.058 41.4972C28.9645 41.5348 28.8895 41.6078 28.8495 41.7003C28.8094 41.7928 28.8075 41.8974 28.8442 41.9913L30.1365 45.2545Z" fill="#91FFC5"/>
<path d="M37.3072 54.1703C36.6187 54.1703 35.9457 53.9661 35.3732 53.5836C34.8008 53.2011 34.3546 52.6575 34.0912 52.0214C33.8277 51.3853 33.7587 50.6854 33.8931 50.0102C34.0274 49.3349 34.3589 48.7146 34.8457 48.2278C35.3326 47.741 35.9528 47.4095 36.6281 47.2751C37.3033 47.1408 38.0032 47.2098 38.6393 47.4732C39.2754 47.7367 39.819 48.1829 40.2015 48.7553C40.584 49.3278 40.7882 50.0008 40.7882 50.6893C40.7875 51.6123 40.4205 52.4973 39.7679 53.1499C39.1152 53.8026 38.2302 54.1696 37.3072 54.1703ZM37.3072 48.9162C36.9565 48.9162 36.6137 49.0202 36.3221 49.215C36.0306 49.4099 35.8033 49.6868 35.6691 50.0108C35.5349 50.3347 35.4998 50.6912 35.5682 51.0352C35.6366 51.3791 35.8055 51.695 36.0535 51.943C36.3014 52.191 36.6173 52.3598 36.9613 52.4282C37.3052 52.4967 37.6617 52.4616 37.9857 52.3274C38.3097 52.1932 38.5866 51.9659 38.7814 51.6743C38.9762 51.3827 39.0802 51.0399 39.0802 50.6893C39.0799 50.2191 38.893 49.7684 38.5605 49.4359C38.2281 49.1035 37.7773 48.9166 37.3072 48.9162Z" fill="#91FFC5"/>
<path d="M47.5533 35.9099H44.2649C44.1116 35.9099 43.9873 36.0342 43.9873 36.1875V38.0522C43.9873 38.2055 44.1116 38.3298 44.2649 38.3298H47.5533C47.7066 38.3298 47.8309 38.2055 47.8309 38.0522V36.1875C47.8309 36.0342 47.7066 35.9099 47.5533 35.9099Z" fill="#201F3B"/>
<path d="M22.7071 35.947H19.4187C19.2654 35.947 19.1411 36.0713 19.1411 36.2246V38.0893C19.1411 38.2426 19.2654 38.3669 19.4187 38.3669H22.7071C22.8604 38.3669 22.9847 38.2426 22.9847 38.0893V36.2246C22.9847 36.0713 22.8604 35.947 22.7071 35.947Z" fill="#201F3B"/>
</g>
</svg>
