<svg width="48" height="78" viewBox="0 0 48 78" fill="none" xmlns="http://www.w3.org/2000/svg">
<g opacity="0.3">
<path d="M34.1611 10.4233C34.1611 10.5519 34.1357 10.6793 34.0865 10.7982C34.0373 10.917 33.9651 11.025 33.8741 11.116C33.7832 11.2069 33.6752 11.2791 33.5563 11.3283C33.4375 11.3775 33.3101 11.4029 33.1815 11.4029H31.3457V13.231C31.3457 13.4908 31.2425 13.74 31.0588 13.9237C30.8751 14.1074 30.626 14.2106 30.3662 14.2106C30.1064 14.2106 29.8572 14.1074 29.6735 13.9237C29.4898 13.74 29.3866 13.4908 29.3866 13.231V11.4029H27.5509C27.2911 11.4029 27.0419 11.2997 26.8582 11.116C26.6745 10.9323 26.5713 10.6831 26.5713 10.4233C26.5713 10.1635 26.6745 9.91435 26.8582 9.73064C27.0419 9.54694 27.2911 9.44373 27.5509 9.44373H29.3866V7.60799C29.3866 7.34819 29.4898 7.09903 29.6735 6.91533C29.8572 6.73162 30.1064 6.62842 30.3662 6.62842C30.626 6.62842 30.8751 6.73162 31.0588 6.91533C31.2425 7.09903 31.3457 7.34819 31.3457 7.60799V9.44525H33.1815C33.3101 9.44505 33.4374 9.4702 33.5562 9.51927C33.6751 9.56833 33.7831 9.64034 33.8741 9.73118C33.965 9.82202 34.0372 9.92991 34.0865 10.0487C34.1357 10.1674 34.1611 10.2947 34.1611 10.4233Z" fill="#EBEBEB"/>
<path d="M46.8969 50.1623C46.8969 50.291 46.8715 50.4185 46.8222 50.5375C46.7729 50.6564 46.7006 50.7645 46.6094 50.8555C46.5183 50.9464 46.4102 51.0186 46.2911 51.0677C46.1721 51.1168 46.0446 51.142 45.9158 51.1418H44.0877V52.9776C44.0877 53.2374 43.9845 53.4865 43.8008 53.6702C43.6171 53.8539 43.3679 53.9571 43.1081 53.9571C42.8483 53.9571 42.5991 53.8539 42.4154 53.6702C42.2317 53.4865 42.1285 53.2374 42.1285 52.9776V51.1418H40.2867C40.0269 51.1418 39.7777 51.0386 39.594 50.8549C39.4103 50.6712 39.3071 50.4221 39.3071 50.1623C39.3071 49.9025 39.4103 49.6533 39.594 49.4696C39.7777 49.2859 40.0269 49.1827 40.2867 49.1827H42.1224V47.3546C42.1224 47.0948 42.2256 46.8456 42.4094 46.6619C42.5931 46.4782 42.8422 46.375 43.102 46.375C43.3618 46.375 43.611 46.4782 43.7947 46.6619C43.9784 46.8456 44.0816 47.0948 44.0816 47.3546V49.1827H45.9097C46.039 49.1817 46.1672 49.2063 46.2869 49.2551C46.4066 49.3038 46.5155 49.3758 46.6073 49.4669C46.6991 49.558 46.7719 49.6663 46.8216 49.7856C46.8713 49.905 46.8969 50.033 46.8969 50.1623Z" fill="#EBEBEB"/>
<path d="M-5.72877 38.7348L-4.52678 30.8876C-4.32111 29.547 -3.05971 28.5476 -1.57131 28.5476H24.2022C25.6388 28.5476 26.8728 29.4815 27.1348 30.7673L28.7375 38.613C29.0787 40.2887 27.6711 41.8244 25.8048 41.8244H-2.7733C-4.58467 41.8244 -5.97861 40.371 -5.72877 38.7348Z" fill="#91FFC5"/>
<path d="M19.0929 52.1107C18.8332 52.1103 18.5843 52.007 18.4006 51.8234C18.217 51.6398 18.1137 51.3908 18.1133 51.1312C18.1206 49.347 18.8262 47.6366 20.0791 46.3664C21.332 45.0961 23.0325 44.367 24.8164 44.3351L30.1759 44.2559C30.3057 44.2528 30.4348 44.2761 30.5553 44.3246C30.6758 44.3731 30.7851 44.4456 30.8766 44.5377C30.9693 44.6288 31.0429 44.7374 31.0931 44.8572C31.1433 44.977 31.1692 45.1056 31.1691 45.2355V45.7534C31.1627 47.3977 30.5133 48.9742 29.3598 50.1459C28.2062 51.3177 26.6401 51.9917 24.9962 52.0239L19.1081 52.1107H19.0929ZM29.1902 46.2303L24.8393 46.2943C23.7431 46.3154 22.6863 46.7062 21.8401 47.4034C20.9939 48.1005 20.4081 49.063 20.1775 50.1348L24.9687 50.0648C26.0172 50.0445 27.0227 49.6447 27.799 48.9396C28.5752 48.2345 29.0695 47.2719 29.1902 46.2303Z" fill="#201F3B"/>
<path d="M0.163929 52.1107H0.150219L-5.73939 52.0238C-7.38428 51.9928 -8.95173 51.3194 -10.1065 50.1475C-11.2612 48.9757 -11.9116 47.3985 -11.9185 45.7534V45.2354C-11.9185 45.1055 -11.8926 44.9769 -11.8424 44.8571C-11.7922 44.7373 -11.7186 44.6287 -11.626 44.5377C-11.5339 44.4458 -11.4243 44.3734 -11.3036 44.325C-11.1829 44.2766 -11.0537 44.253 -10.9237 44.2558L-5.55353 44.3351C-3.76963 44.3669 -2.06913 45.096 -0.816238 46.3663C0.436655 47.6366 1.14231 49.3469 1.14959 51.1311C1.14919 51.3908 1.04586 51.6397 0.862238 51.8233C0.67862 52.0069 0.429696 52.1103 0.170022 52.1107H0.163929ZM-9.9319 46.2302C-9.81119 47.2719 -9.31691 48.2345 -8.54068 48.9396C-7.76445 49.6447 -6.75891 50.0444 -5.71045 50.0647L-0.919235 50.1348C-1.14983 49.0627 -1.73591 48.1 -2.58239 47.4028C-3.42887 46.7057 -4.48607 46.315 -5.58248 46.2942L-9.9319 46.2302Z" fill="#201F3B"/>
<path d="M2.71132 52.5708L3.39078 50.5904C3.69546 49.6976 4.63695 49.0852 5.70183 49.0852H13.6237C14.7175 49.0852 15.6743 49.7281 15.9561 50.6528L16.5655 52.6333C16.9737 53.9739 15.819 55.2902 14.2331 55.2902H5.0239C3.40601 55.2902 2.24667 53.9297 2.71132 52.5708Z" fill="#91FFC5"/>
<path d="M28.4727 67.2871V68.5546C28.4719 69.1277 28.2438 69.6771 27.8386 70.0823C27.4334 70.4875 26.884 70.7156 26.3109 70.7164H19.8942C19.3211 70.7156 18.7717 70.4875 18.3665 70.0823C17.9612 69.6771 17.7332 69.1277 17.7324 68.5546V67.2886L28.4727 67.2871Z" fill="#91FFC5"/>
<path d="M41.309 37.4277C41.2526 36.7087 41.018 36.1678 40.6128 35.8175C39.3659 34.7417 37.7634 34.1683 36.1171 34.2087L32.6132 34.2925L31.9459 27.9062C31.931 25.8554 31.1059 23.8937 29.6504 22.4488C28.195 21.0039 26.2273 20.193 24.1764 20.1931H21.3215C21.3275 20.1487 21.3306 20.1039 21.3306 20.059C21.3306 17.1142 19.5741 14.8047 17.3301 14.8047H1.1664C-1.0761 14.8047 -2.83263 17.1142 -2.83263 20.059C-2.83261 20.1039 -2.82956 20.1487 -2.82349 20.1931H-5.67688C-7.72703 20.1954 -9.69337 21.007 -11.1483 22.4514C-12.6033 23.8958 -13.4292 25.8562 -13.4464 27.9062L-14.1122 34.2773L-16.9397 34.2087C-18.5833 34.1675 -20.1832 34.7412 -21.4262 35.8175C-21.8314 36.1678 -22.066 36.7087 -22.1254 37.4277C-22.1892 38.3613 -21.9408 39.2895 -21.4193 40.0664C-20.8978 40.8433 -20.1328 41.4247 -19.2446 41.7193L-16.8985 42.5312C-17.6634 43.9054 -18.0636 45.4527 -18.0609 47.0254V57.8662C-18.9954 58.0182 -19.8454 58.4974 -20.4593 59.2182C-21.0732 59.939 -21.411 60.8544 -21.4125 61.8012V63.3003C-21.4109 64.3571 -20.9903 65.3703 -20.243 66.1176C-19.4956 66.8649 -18.4825 67.2855 -17.4256 67.2871H-13.0899V68.5546C-13.0891 69.6474 -12.6547 70.6953 -11.8821 71.4682C-11.1095 72.2411 -10.0619 72.6758 -8.96903 72.677H-2.55231C-1.45897 72.6766 -0.410488 72.2422 0.36277 71.4692C1.13603 70.6963 1.57082 69.6479 1.57163 68.5546V67.2886H15.7731V68.5546C15.7739 69.6474 16.2083 70.6953 16.9809 71.4682C17.7535 72.2411 18.8012 72.6758 19.894 72.677H26.3107C27.4036 72.6758 28.4512 72.2411 29.2238 71.4682C29.9964 70.6953 30.4308 69.6474 30.4316 68.5546V67.2886H35.9861C37.0432 67.2878 38.0568 66.8675 38.8043 66.12C39.5518 65.3725 39.9721 64.3589 39.9729 63.3018V61.8027C39.9722 60.8948 39.6614 60.0143 39.0921 59.307C38.5228 58.5998 37.7291 58.1081 36.8423 57.9134V47.0254C36.8423 45.5003 36.4639 43.999 35.7408 42.6562L38.4282 41.7269C39.3179 41.4325 40.0842 40.85 40.6059 40.0714C41.1277 39.2928 41.375 38.3626 41.309 37.4277ZM-0.873486 20.0605C-0.873486 18.2781 0.0603809 16.7654 1.1664 16.7654H17.3301C18.4376 16.7654 19.3715 18.2781 19.3715 20.0605C19.3712 20.1055 19.3748 20.1503 19.3821 20.1946H-0.879581C-0.87369 20.1497 -0.871651 20.1043 -0.873486 20.059V20.0605ZM-11.4903 28.0586C-11.4903 28.0266 -11.4903 27.9946 -11.4903 27.958C-11.4883 26.4181 -10.8753 24.9418 -9.78599 23.8533C-8.69664 22.7648 -7.2199 22.153 -5.67993 22.1522H24.1794C25.7188 22.1538 27.1945 22.766 28.283 23.8545C29.3714 24.9429 29.9837 26.4187 29.9853 27.958C29.9854 27.9917 29.9879 28.0253 29.9929 28.0586L31.07 38.4332C30.0828 38.0261 29.032 37.7951 27.9652 37.7507L27.077 28.7548C27.065 27.7723 26.6667 26.834 25.9682 26.1429C25.2697 25.4518 24.3272 25.0635 23.3446 25.062H-4.51146C-5.49353 25.0627 -6.4359 25.4498 -7.13488 26.1397C-7.83386 26.8295 -8.23332 27.7667 -8.24692 28.7487L-9.2722 37.7537C-10.4185 37.8122 -11.5433 38.0872 -12.5872 38.5642L-11.4903 28.0586ZM26.3244 37.7416H-7.62688L-6.62141 28.8889C-6.6198 28.8584 -6.6198 28.8279 -6.62141 28.7975C-6.62061 28.2397 -6.39869 27.7051 -6.00432 27.3107C-5.60994 26.9163 -5.07528 26.6944 -4.51755 26.6936H23.3431C23.9011 26.6928 24.4366 26.9134 24.8322 27.3069C25.2277 27.7005 25.451 28.2349 25.453 28.7929C25.4515 28.8198 25.4515 28.8467 25.453 28.8736L26.3244 37.7416ZM-8.77708 39.7007H27.5584C29.5004 39.7027 31.3623 40.4751 32.7355 41.8483C34.1087 43.2215 34.8811 45.0834 34.8831 47.0254V57.8174H-16.1002V47.0254C-16.0986 45.0835 -15.3266 43.2216 -13.9536 41.8484C-12.5807 40.4751 -10.7189 39.7027 -8.77708 39.7007ZM-18.6048 39.8668C-19.0826 39.7138 -19.4959 39.4062 -19.7798 38.9925C-20.0636 38.5788 -20.2017 38.0824 -20.1724 37.5816C-20.1675 37.4744 -20.1464 37.3686 -20.1099 37.2678C-19.2375 36.5319 -18.1265 36.1397 -16.9854 36.1648L-14.3148 36.2257L-14.6667 39.5895C-14.679 39.6738 -14.679 39.7595 -14.6667 39.8439C-15.0441 40.1556 -15.3966 40.4964 -15.7209 40.8631L-18.6048 39.8668ZM-0.38751 68.5546C-0.388315 69.1277 -0.616331 69.6771 -1.02156 70.0823C-1.4268 70.4875 -1.97618 70.7156 -2.54927 70.7164H-8.96598C-9.53907 70.7156 -10.0885 70.4875 -10.4937 70.0823C-10.8989 69.6771 -11.1269 69.1277 -11.1277 68.5546V67.2886H-0.38751V68.5546ZM28.4725 68.5546C28.4717 69.1277 28.2437 69.6771 27.8384 70.0823C27.4332 70.4875 26.8838 70.7156 26.3107 70.7164H19.894C19.3209 70.7156 18.7715 70.4875 18.3663 70.0823C17.9611 69.6771 17.7331 69.1277 17.7323 68.5546V67.2886H28.4725V68.5546ZM35.9861 59.7781C36.5233 59.7781 37.0386 59.9913 37.4188 60.3709C37.799 60.7505 38.013 61.2655 38.0138 61.8027V63.3018C38.0134 63.8394 37.7996 64.355 37.4194 64.7351C37.0393 65.1153 36.5237 65.3291 35.9861 65.3295H-17.4302C-17.9285 65.3282 -18.4089 65.1439 -18.7802 64.8117C-19.1515 64.4794 -19.3878 64.0223 -19.4442 63.5273H4.91558C5.17537 63.5273 5.42453 63.4241 5.60824 63.2403C5.79194 63.0566 5.89515 62.8075 5.89515 62.5477C5.89515 62.2879 5.79194 62.0387 5.60824 61.855C5.42453 61.6713 5.17537 61.5681 4.91558 61.5681H-19.4442C-19.3874 61.0738 -19.1507 60.6176 -18.7794 60.2864C-18.408 59.9552 -17.9278 59.7721 -17.4302 59.772L35.9861 59.7781ZM34.5937 40.9804C34.1668 40.4827 33.6883 40.0318 33.1662 39.6352C33.1662 39.6215 33.1662 39.6123 33.1662 39.5986L32.8173 36.2471L36.1689 36.1694C37.3103 36.1423 38.422 36.5347 39.2935 37.2723C39.3318 37.3738 39.3529 37.4808 39.3559 37.5892C39.4382 38.5855 38.7907 39.5225 37.7883 39.8744L34.5937 40.9804Z" fill="#201F3B"/>
<path d="M9.39164 63.5273H8.26277C8.00298 63.5273 7.75382 63.424 7.57011 63.2403C7.38641 63.0566 7.2832 62.8075 7.2832 62.5477C7.2832 62.2879 7.38641 62.0387 7.57011 61.855C7.75382 61.6713 8.00298 61.5681 8.26277 61.5681H9.39164C9.65144 61.5681 9.9006 61.6713 10.0843 61.855C10.268 62.0387 10.3712 62.2879 10.3712 62.5477C10.3712 62.8075 10.268 63.0566 10.0843 63.2403C9.9006 63.424 9.65144 63.5273 9.39164 63.5273Z" fill="#201F3B"/>
</g>
</svg>
