<svg width="68" height="68" viewBox="0 0 68 68" fill="none" xmlns="http://www.w3.org/2000/svg">
<path d="M60.649 22.3405C60.649 22.567 60.559 22.7842 60.3988 22.9444C60.2387 23.1045 60.0215 23.1945 59.795 23.1945H58.3048V24.6833C58.3041 24.9096 58.2139 25.1264 58.0539 25.2864C57.8939 25.4464 57.6771 25.5366 57.4508 25.5373C57.3388 25.5373 57.2279 25.5152 57.1244 25.4722C57.021 25.4293 56.927 25.3663 56.8479 25.287C56.7688 25.2077 56.7062 25.1135 56.6636 25.0099C56.6209 24.9063 56.5992 24.7953 56.5995 24.6833V23.1945H55.1094C54.8829 23.1945 54.6657 23.1045 54.5055 22.9444C54.3453 22.7842 54.2554 22.567 54.2554 22.3405C54.2554 22.114 54.3453 21.8968 54.5055 21.7366C54.6657 21.5765 54.8829 21.4865 55.1094 21.4865H56.5982V19.9977C56.5975 19.8281 56.6473 19.6622 56.7412 19.521C56.8352 19.3798 56.969 19.2698 57.1257 19.205C57.2824 19.1402 57.4549 19.1235 57.6211 19.157C57.7874 19.1906 57.9398 19.2729 58.0591 19.3934C58.139 19.4723 58.2022 19.5665 58.2451 19.6703C58.288 19.7741 58.3097 19.8854 58.3088 19.9977V21.4865H59.7976C60.0237 21.4872 60.2402 21.5775 60.3998 21.7376C60.5594 21.8976 60.649 22.1145 60.649 22.3405Z" fill="#EBEBEB"/>
<path d="M27.3595 14.7276C27.3591 14.954 27.2691 15.171 27.109 15.3311C26.9489 15.4912 26.7319 15.5813 26.5055 15.5816H25.0127V17.0705C25.0127 17.2969 24.9227 17.5142 24.7626 17.6743C24.6024 17.8345 24.3852 17.9244 24.1587 17.9244C23.9322 17.9244 23.715 17.8345 23.5549 17.6743C23.3947 17.5142 23.3047 17.2969 23.3047 17.0705V15.5776H21.8159C21.5894 15.5776 21.3722 15.4877 21.212 15.3275C21.0519 15.1674 20.9619 14.9501 20.9619 14.7237C20.9619 14.4972 21.0519 14.2799 21.212 14.1198C21.3722 13.9596 21.5894 13.8697 21.8159 13.8697H23.3047V12.3808C23.3047 12.1543 23.3947 11.9371 23.5549 11.777C23.715 11.6168 23.9322 11.5269 24.1587 11.5269C24.3852 11.5269 24.6024 11.6168 24.7626 11.777C24.9227 11.9371 25.0127 12.1543 25.0127 12.3808V13.8737H26.5015C26.6141 13.873 26.7256 13.8945 26.8298 13.9372C26.9339 13.9798 27.0286 14.0426 27.1084 14.122C27.1881 14.2014 27.2514 14.2957 27.2945 14.3997C27.3376 14.5036 27.3597 14.6151 27.3595 14.7276Z" fill="#EBEBEB"/>
<path d="M10.4218 29.5654C10.3001 29.5656 10.1785 29.5571 10.0579 29.5402C9.71196 29.4929 9.37871 29.3778 9.07725 29.2015C8.77579 29.0253 8.51204 28.7913 8.3011 28.513C8.09016 28.2347 7.93616 27.9175 7.84792 27.5797C7.75968 27.2418 7.73893 26.8898 7.78685 26.5439C7.85692 26.0392 8.0707 25.5652 8.4027 25.1786C8.7347 24.792 9.1709 24.5091 9.65927 24.3636C10.1476 24.218 10.6676 24.216 11.157 24.3578C11.6465 24.4997 12.0848 24.7793 12.4198 25.1633C12.7547 25.5474 12.9721 26.0197 13.046 26.5239C13.1199 27.0281 13.0473 27.5429 12.8367 28.007C12.626 28.471 12.2864 28.8647 11.8582 29.141C11.4301 29.4173 10.9314 29.5647 10.4218 29.5654ZM9.47888 26.7764C9.45332 26.9624 9.48351 27.1519 9.56561 27.3208C9.64771 27.4897 9.77805 27.6304 9.94014 27.7252C10.1022 27.8201 10.2888 27.8647 10.4763 27.8535C10.6637 27.8423 10.8437 27.7758 10.9933 27.6623C11.143 27.5489 11.2556 27.3936 11.317 27.2161C11.3785 27.0387 11.3859 26.847 11.3384 26.6653C11.2908 26.4836 11.1905 26.3201 11.0501 26.1954C10.9096 26.0708 10.7354 25.9905 10.5493 25.9649C10.2997 25.9312 10.0469 25.9979 9.84624 26.1502C9.6456 26.3025 9.51351 26.5282 9.47888 26.7777V26.7764Z" fill="#91FFC5"/>
<path d="M16.0702 42.5319L14.3078 37.4532C14.2618 37.3206 14.2483 37.1789 14.2682 37.04C14.2881 36.9011 14.341 36.7689 14.4223 36.6546C14.5037 36.5402 14.6112 36.4469 14.7359 36.3826C14.8606 36.3182 14.9988 36.2845 15.1392 36.2844H55.0998C55.2392 36.2845 55.3767 36.3176 55.5008 36.3811C55.6249 36.4447 55.7321 36.5368 55.8137 36.6498C55.8953 36.7629 55.9488 36.8937 55.9699 37.0316C55.9911 37.1694 55.9792 37.3102 55.9352 37.4425L54.2432 42.5253C54.1851 42.7009 54.073 42.8537 53.923 42.9619C53.7731 43.0702 53.5928 43.1284 53.4078 43.1283H16.8963C16.7138 43.1267 16.5362 43.0685 16.3882 42.9617C16.2402 42.8549 16.1291 42.7047 16.0702 42.5319Z" fill="#91FFC5"/>
<path d="M48.6308 26.9065H45.7275V33.6228H48.6308V26.9065Z" fill="#91FFC5"/>
<path d="M61.0474 57.375L55.8677 42.7829C55.8872 42.7458 55.9024 42.7066 55.9129 42.6661L57.9595 35.8355C58.0593 35.5018 58.0789 35.1492 58.0165 34.8064C57.9542 34.4637 57.8118 34.1405 57.6009 33.8633C57.3453 33.5327 57.0162 33.2662 56.6398 33.0848C56.2634 32.9034 55.8499 32.8121 55.4321 32.818H49.2138L50.9404 22.0894C50.9609 21.9672 50.9545 21.8419 50.9215 21.7224C50.8885 21.6029 50.8297 21.4921 50.7494 21.3977C50.669 21.3033 50.569 21.2276 50.4563 21.1759C50.3436 21.1243 50.221 21.0979 50.097 21.0986H41.5572C41.4353 21.0983 41.3147 21.124 41.2036 21.1743C41.0926 21.2245 40.9936 21.298 40.9134 21.3898C40.8331 21.4816 40.7736 21.5896 40.7387 21.7064C40.7038 21.8232 40.6944 21.9461 40.7112 22.0669L42.1601 32.8247H38.7947C39.5919 31.93 40.0316 30.773 40.0298 29.5747V26.3248C40.03 26.2126 40.008 26.1015 39.9652 25.9978C39.9223 25.8941 39.8594 25.7999 39.7801 25.7206C39.7008 25.6412 39.6065 25.5783 39.5029 25.5355C39.3992 25.4926 39.288 25.4707 39.1758 25.4708H31.0623C30.8358 25.4708 30.6186 25.5608 30.4585 25.721C30.2983 25.8811 30.2083 26.0983 30.2083 26.3248V26.9397C29.6403 26.9679 29.1035 27.2081 28.7039 27.6129C28.3043 28.0176 28.071 28.5575 28.0501 29.1258C28.0475 29.1554 28.0475 29.1852 28.0501 29.2148C28.0508 29.8186 28.2911 30.3974 28.7181 30.8242C29.1452 31.251 29.7241 31.4909 30.3279 31.4912C30.4182 31.4925 30.5081 31.4781 30.5935 31.4487C30.8002 31.9514 31.0908 32.4153 31.4528 32.8207H26.0858L27.819 22.0921C27.8393 21.97 27.8327 21.8449 27.7997 21.7256C27.7667 21.6063 27.7081 21.4956 27.6279 21.4013C27.5478 21.307 27.448 21.2313 27.3356 21.1795C27.2232 21.1277 27.1008 21.101 26.977 21.1013H18.4372C18.3154 21.1008 18.1949 21.1264 18.0838 21.1764C17.9727 21.2263 17.8735 21.2994 17.793 21.3908C17.7128 21.483 17.6532 21.5912 17.6179 21.7082C17.5826 21.8252 17.5726 21.9484 17.5885 22.0695L19.0375 32.8273H12.5642C12.1393 32.8206 11.7188 32.9149 11.3376 33.1027C10.9563 33.2904 10.6252 33.5661 10.3715 33.9071C10.1622 34.193 10.0248 34.5251 9.97092 34.8753C9.91706 35.2256 9.9483 35.5836 10.062 35.9192L12.3517 42.6966C12.3564 42.7116 12.3631 42.7259 12.3716 42.7391L7.17201 57.375C7.12676 57.5042 7.11292 57.6423 7.13163 57.7778C7.15033 57.9134 7.20105 58.0426 7.27959 58.1546C7.3584 58.2666 7.46305 58.3579 7.58467 58.4208C7.70628 58.4837 7.84127 58.5163 7.97818 58.5159H11.5362C11.7128 58.5156 11.8849 58.4608 12.0292 58.3591C12.1734 58.2574 12.2828 58.1136 12.3424 57.9475L13.4049 54.9579H16.3759C16.55 54.9568 16.7197 54.9026 16.8621 54.8024C17.0045 54.7022 17.1129 54.5609 17.1728 54.3974L21.2501 43.277H31.0544C31.2808 43.277 31.4981 43.187 31.6582 43.0269C31.8184 42.8667 31.9083 42.6495 31.9083 42.423C31.9083 42.1965 31.8184 41.9793 31.6582 41.8192C31.4981 41.659 31.2808 41.569 31.0544 41.569H17.0878C17.0694 41.5678 17.0509 41.57 17.0333 41.5757C17.0333 41.5757 17.0333 41.5757 17.024 41.5757C16.9986 41.5713 16.9728 41.5691 16.947 41.569H13.7715L11.6783 35.3667C11.6511 35.2879 11.6441 35.2036 11.6581 35.1214C11.672 35.0393 11.7064 34.9619 11.758 34.8965C11.8541 34.7765 11.9772 34.6808 12.1173 34.6173C12.2574 34.5538 12.4105 34.5244 12.5642 34.5313H55.4334C55.5846 34.5251 55.7351 34.5539 55.8734 34.6154C56.0116 34.6769 56.1337 34.7695 56.2303 34.8859C56.283 34.9497 56.3192 35.0254 56.3356 35.1065C56.3521 35.1876 56.3483 35.2715 56.3246 35.3508L54.4652 41.5704H33.9829C33.7564 41.5704 33.5392 41.6603 33.379 41.8205C33.2189 41.9806 33.1289 42.1979 33.1289 42.4243C33.1289 42.6508 33.2189 42.868 33.379 43.0282C33.5392 43.1884 33.7564 43.2783 33.9829 43.2783H46.9985L51.0785 54.4532C51.1386 54.6166 51.247 54.7579 51.3894 54.8583C51.5317 54.9586 51.7012 55.0133 51.8754 55.015H54.8278L55.8717 57.9554C55.9313 58.1216 56.0407 58.2654 56.1849 58.3671C56.3292 58.4688 56.5013 58.5236 56.6779 58.5239H60.2359C60.3727 58.5243 60.5075 58.4916 60.6289 58.4287C60.7503 58.3658 60.8547 58.2745 60.9332 58.1626C61.0143 58.0503 61.0671 57.92 61.087 57.7828C61.1069 57.6457 61.0933 57.5058 61.0474 57.375ZM29.7501 29.2188C29.7502 29.0876 29.7956 28.9604 29.8786 28.8588C29.9616 28.7572 30.0771 28.6873 30.2057 28.661V29.5747C30.2057 29.6425 30.2057 29.7076 30.2057 29.7766C30.0772 29.7501 29.9619 29.6801 29.8789 29.5786C29.7959 29.477 29.7505 29.35 29.7501 29.2188ZM17.6854 43.277H19.424L15.7783 53.2579H14.0384L17.6854 43.277ZM13.9906 43.277H15.7344L10.9319 56.8106H9.1881L13.9906 43.277ZM24.3659 32.7729H20.7574L20.4665 30.6147L24.7165 30.5775L24.3659 32.7729ZM24.9954 28.8722C24.9676 28.8722 24.9357 28.8722 24.9051 28.8722H24.8958L20.2354 28.9147L19.4133 22.8146H25.9716L24.9954 28.8722ZM38.3219 29.5708C38.3048 30.4089 37.9599 31.2069 37.3611 31.7936C36.7623 32.3804 35.9574 32.709 35.1191 32.709C34.2808 32.709 33.4759 32.3804 32.8771 31.7936C32.2783 31.2069 31.9334 30.4089 31.9163 29.5708V27.1801H38.3219V29.5708ZM47.4859 32.7729H43.8814L43.1974 27.7087L48.3133 27.6715L47.4859 32.7729ZM48.5843 25.9609L42.9623 26.0034L42.532 22.8159H49.0943L48.5843 25.9609ZM52.473 53.3004L48.826 43.3261H50.5658L54.2129 53.3004H52.473ZM57.2808 56.8106L56.2595 53.9325L56.1745 53.6908L52.3681 43.277H54.2275L59.03 56.8106H57.2808Z" fill="#201F3B"/>
<path d="M17.0876 41.5704C17.0692 41.5692 17.0507 41.5714 17.0331 41.577C17.0331 41.577 17.0331 41.577 17.0238 41.577C16.9984 41.5727 16.9726 41.5705 16.9468 41.5704H17.0876Z" fill="#201F3B"/>
<path d="M52.4833 43.2769H52.373L56.1795 53.6907L52.4833 43.2769ZM52.4833 43.2769H52.373L56.1795 53.6907L52.4833 43.2769Z" fill="#201F3B"/>
<path d="M33.3039 24.1453C33.1789 24.1456 33.0555 24.1179 32.9426 24.0643C32.8409 24.017 32.7496 23.9502 32.6738 23.8675C32.598 23.7849 32.5392 23.6882 32.5008 23.5828C32.4625 23.4775 32.4453 23.3656 32.4502 23.2536C32.4551 23.1416 32.4821 23.0316 32.5296 22.93L33.4008 21.0707C33.4505 20.9638 33.4774 20.8477 33.4797 20.7298C33.482 20.612 33.4597 20.4949 33.4142 20.3862C33.3687 20.2774 33.301 20.1794 33.2155 20.0983C33.1299 20.0172 33.0284 19.9548 32.9174 19.9152C32.5844 19.7961 32.2798 19.609 32.0228 19.3659C31.7659 19.1229 31.5623 18.829 31.425 18.5031C31.2876 18.1772 31.2195 17.8263 31.2249 17.4727C31.2303 17.119 31.3092 16.7704 31.4564 16.4488L32.2135 14.79C32.3075 14.5839 32.4796 14.4236 32.6918 14.3444C32.904 14.2652 33.139 14.2736 33.345 14.3676C33.5511 14.4617 33.7114 14.6337 33.7906 14.8459C33.8698 15.0581 33.8614 15.2931 33.7674 15.4992L33.0104 17.158C32.9618 17.2647 32.9359 17.3804 32.9343 17.4976C32.9328 17.6149 32.9556 17.7311 33.0013 17.8391C33.0469 17.9471 33.1145 18.0444 33.1998 18.1249C33.285 18.2054 33.386 18.2674 33.4964 18.3068C33.8321 18.4255 34.1393 18.6131 34.3981 18.8575C34.657 19.102 34.8618 19.3979 34.9994 19.7263C35.137 20.0547 35.2043 20.4082 35.1971 20.7642C35.1899 21.1201 35.1082 21.4707 34.9574 21.7932L34.0875 23.6525C34.0182 23.8014 33.9074 23.9271 33.7683 24.0145C33.6293 24.1019 33.4681 24.1473 33.3039 24.1453Z" fill="#201F3B"/>
<path d="M37.6046 23.658C37.469 23.658 37.3353 23.6256 37.2146 23.5637C37.094 23.5018 36.9898 23.412 36.9108 23.3018C36.8317 23.1916 36.7801 23.0641 36.7601 22.93C36.7401 22.7959 36.7523 22.6589 36.7957 22.5304L37.3549 20.8796C37.375 20.8207 37.4013 20.7642 37.4332 20.7109C37.4864 20.624 37.5206 20.5269 37.5336 20.4259C37.5466 20.3249 37.5382 20.2223 37.5089 20.1247C37.4796 20.0272 37.43 19.937 37.3634 19.8599C37.2968 19.7829 37.2147 19.7208 37.1225 19.6776C36.8201 19.5355 36.5503 19.3326 36.3298 19.0816C36.1094 18.8306 35.9431 18.5368 35.8412 18.2186C35.7394 17.9005 35.7043 17.5647 35.738 17.2323C35.7718 16.9 35.8737 16.5781 36.0374 16.2869L36.4637 15.2895C36.5585 15.0896 36.7271 14.9343 36.934 14.8561C37.1409 14.7778 37.3701 14.7828 37.5734 14.8699C37.7767 14.9571 37.9384 15.1196 38.0244 15.3234C38.1105 15.5272 38.1142 15.7563 38.0349 15.9628L37.586 17.0001C37.5713 17.0343 37.5544 17.0676 37.5355 17.0997C37.4834 17.1866 37.4502 17.2835 37.4379 17.3841C37.4256 17.4847 37.4346 17.5868 37.4643 17.6837C37.494 17.7806 37.5436 17.8702 37.6101 17.9467C37.6766 18.0232 37.7584 18.0848 37.8503 18.1277C38.1511 18.2692 38.4198 18.4709 38.6396 18.7204C38.8595 18.9699 39.0258 19.2618 39.1284 19.578C39.2309 19.8943 39.2675 20.2283 39.2359 20.5593C39.2043 20.8903 39.1052 21.2113 38.9446 21.5024L38.4134 23.0723C38.3571 23.2424 38.2487 23.3906 38.1035 23.4957C37.9584 23.6008 37.7838 23.6576 37.6046 23.658Z" fill="#201F3B"/>
</svg>
