<svg width="92" height="118" viewBox="0 0 92 118" fill="none" xmlns="http://www.w3.org/2000/svg">
<g opacity="0.5">
<path d="M33.6483 82.8189C33.5798 83.2501 33.427 83.6635 33.1986 84.0355C32.9703 84.4076 32.6709 84.7311 32.3176 84.9875C31.9643 85.2439 31.5639 85.4281 31.1394 85.5298C30.7148 85.6315 30.2744 85.6485 29.8433 85.5799C29.4121 85.5114 28.9987 85.3586 28.6266 85.1303C28.2546 84.9019 27.9311 84.6026 27.6747 84.2492C27.4183 83.8959 27.2341 83.4955 27.1324 83.071C27.0307 82.6464 27.0137 82.206 27.0823 81.7749" fill="#91FFC5"/>
<path d="M87.8687 47.707C89.9243 48.3598 91.7746 49.5365 93.2375 51.1214C94.7003 52.7063 95.7253 54.6447 96.2116 56.746L96.5619 58.2625C97.249 61.2315 98.7679 63.9433 100.941 66.08C102.685 67.7926 103.919 69.9567 104.504 72.3303C104.611 72.7656 104.63 73.2178 104.561 73.6607C104.492 74.1036 104.335 74.5283 104.101 74.9103C103.866 75.2923 103.558 75.624 103.195 75.8861C102.831 76.1482 102.419 76.3355 101.983 76.4373L100.715 76.7461L96.1056 68.9102L91.0814 66.4557L87.8687 47.707Z" fill="#91FFC5"/>
<path d="M15.0288 70.8184C17.8469 70.8184 20.1314 68.5339 20.1314 65.7159C20.1314 62.8978 17.8469 60.6133 15.0288 60.6133C12.2108 60.6133 9.92627 62.8978 9.92627 65.7159C9.92627 68.5339 12.2108 70.8184 15.0288 70.8184Z" fill="#91FFC5"/>
<path d="M23.0468 71.1688C22.9015 71.1687 22.7571 71.1469 22.6182 71.1043C22.2435 70.9892 21.9292 70.7312 21.7433 70.3862C21.5574 70.0411 21.5149 69.6368 21.6248 69.2606C21.717 68.9471 22.6596 66.1147 26.785 63.7961C30.726 61.5836 35.7526 63.3536 35.9646 63.4274C36.3347 63.5603 36.6368 63.8349 36.8045 64.1906C36.9722 64.5463 36.9918 64.9541 36.8588 65.3242C36.7259 65.6943 36.4514 65.9964 36.0956 66.1641C35.7399 66.3318 35.3322 66.3513 34.9621 66.2184C34.9252 66.2046 30.9865 64.8356 28.237 66.382C25.1625 68.1082 24.485 70.0488 24.4573 70.1294C24.3655 70.4315 24.1786 70.6958 23.9245 70.8831C23.6703 71.0704 23.3625 71.1706 23.0468 71.1688Z" fill="#201F3B"/>
<path d="M46.278 79.1177H46.225C46.0304 79.1112 45.8391 79.0663 45.6619 78.9857C45.4847 78.9051 45.3252 78.7903 45.1925 78.6479C45.0597 78.5055 44.9564 78.3384 44.8884 78.156C44.8203 77.9736 44.789 77.7796 44.796 77.5851C44.796 77.5643 44.8468 74.8886 43.3003 71.7681C42.0765 69.2974 39.5552 68.0806 39.5298 68.0575C39.3535 67.9746 39.1953 67.8577 39.0642 67.7137C38.933 67.5696 38.8315 67.4011 38.7655 67.2178C38.6995 67.0345 38.6702 66.84 38.6794 66.6454C38.6885 66.4507 38.7359 66.2598 38.8188 66.0835C38.9018 65.9072 39.0186 65.749 39.1627 65.6179C39.3068 65.4867 39.4753 65.3852 39.6586 65.3192C39.8419 65.2532 40.0364 65.2239 40.231 65.2331C40.4256 65.2422 40.6165 65.2896 40.7928 65.3725C40.9357 65.4371 44.2683 67.0204 45.9668 70.4429C47.8636 74.2686 47.7737 77.5413 47.7691 77.6796C47.7577 78.0666 47.5952 78.4337 47.3166 78.7025C47.0379 78.9712 46.6651 79.1203 46.278 79.1177Z" fill="#201F3B"/>
<path d="M90.4752 82.9043C90.4524 83.7709 90.0921 84.5943 89.4711 85.1991C88.8501 85.8039 88.0175 86.1424 87.1507 86.1424C86.2838 86.1424 85.4512 85.8039 84.8302 85.1991C84.2093 84.5943 83.849 83.7709 83.8262 82.9043" fill="#91FFC5"/>
<path d="M79.6986 37.0548C78.922 36.6107 78.0252 36.4226 77.1357 36.5173C76.2461 36.6121 75.409 36.9848 74.7435 37.5826C74.3726 37.9112 74.0607 38.3009 73.8216 38.7349C73.7995 38.7654 73.7816 38.7987 73.7686 38.834H80.5398C81.0461 38.8337 81.5482 38.7416 82.0217 38.5621C81.2822 38.0079 80.506 37.5043 79.6986 37.0548ZM50.3991 54.2109C50.3488 53.8574 50.1731 53.5337 49.904 53.2989C49.6349 53.064 49.2904 52.9338 48.9333 52.9318L31.6965 52.9018H31.662C31.2978 52.9018 30.9314 52.9019 30.5649 52.9364C30.0457 53.8311 29.773 54.8474 29.7744 55.8818V55.9809C30.4007 55.9042 31.031 55.8657 31.662 55.8657H31.6919L47.6427 55.8956L47.7164 56.4142H50.7125L50.3991 54.2109Z" fill="#201F3B"/>
<path d="M102.294 77.0781C102.294 70.7056 96.0294 65.7275 92.4479 65.2665C92.453 64.0464 92.3357 62.8288 92.0976 61.6321L90.1363 51.5053C89.3448 47.3999 87.3523 43.622 84.4115 40.6502C85.4034 40.0039 86.2182 39.1199 86.7817 38.0787C87.3452 37.0374 87.6395 35.8719 87.638 34.6879V28.7119C87.638 28.3189 87.4819 27.9419 87.204 27.664C86.9261 27.3861 86.5491 27.23 86.1561 27.23H78.3663C75.9208 27.2361 73.5774 28.2112 71.8495 29.9417C70.1215 31.6722 69.1499 34.0171 69.1475 36.4626C69.1466 37.2877 69.3392 38.1015 69.7099 38.8387H63.5494C63.1564 38.8387 62.7795 38.9948 62.5016 39.2727C62.2236 39.5506 62.0675 39.9276 62.0675 40.3206C62.0675 40.7136 62.2236 41.0906 62.5016 41.3685C62.7795 41.6464 63.1564 41.8025 63.5494 41.8025H73.3951C73.4473 42.0192 73.515 42.2317 73.5979 42.4386L75.3633 46.7853C76.7573 50.2201 76.9999 54.0144 76.0547 57.5988L73.2337 68.2004C73.0432 68.9208 72.6195 69.5578 72.0286 70.0119C71.4378 70.466 70.7132 70.7115 69.968 70.7102H69.9542L57.5642 70.6618C56.2237 70.6485 54.9321 70.1568 53.9222 69.2753C52.9122 68.3939 52.2504 67.1806 52.056 65.8542L51.1341 59.3873H53.312C54.2762 59.3855 55.2003 59.0013 55.8816 58.3191C56.5629 57.6369 56.9459 56.7123 56.9465 55.7482C56.9441 53.4395 56.026 51.2259 54.3937 49.5932C52.7614 47.9605 50.5481 47.0418 48.2394 47.0388H35.6627C33.738 47.0402 31.8662 47.6686 30.3305 48.8288C28.7948 49.989 27.6789 51.6178 27.1515 53.4688C24.2239 54.2062 21.5187 55.6425 19.268 57.6548C17.0174 59.667 15.2883 62.1951 14.2291 65.0222C13.4601 67.0524 13.3246 69.268 13.8406 71.3767C14.3565 73.4854 15.4997 75.3881 17.1192 76.8338C16.044 80.1023 16.2999 83.6628 17.8313 86.7439C19.4499 90.06 22.2896 92.6205 25.7549 93.8885C25.8378 93.9184 25.9277 93.953 26.0107 93.9783H8.46971C8.07668 93.9783 7.69975 94.1345 7.42184 94.4124C7.14392 94.6903 6.98779 95.0672 6.98779 95.4603C6.98779 95.8533 7.14392 96.2302 7.42184 96.5081C7.69975 96.786 8.07668 96.9422 8.46971 96.9422H41.8877C42.2807 96.9422 42.6576 96.786 42.9355 96.5081C43.2135 96.2302 43.3696 95.8533 43.3696 95.4603C43.3696 95.0672 43.2135 94.6903 42.9355 94.4124C42.6576 94.1345 42.2807 93.9783 41.8877 93.9783H35.665C35.9231 93.8885 36.1744 93.7894 36.421 93.681C38.0063 93.0197 39.4458 92.0524 40.657 90.8344C41.8683 89.6164 42.8276 88.1716 43.4802 86.5826H73.6947C73.7306 86.5872 73.767 86.5872 73.803 86.5826C75.9556 91.616 81.0051 94.8265 86.6424 94.8265C87.1937 94.8265 87.7447 94.7957 88.2926 94.7343C95.3311 93.9576 100.738 88.2558 100.869 81.48C100.871 81.3857 100.863 81.2914 100.844 81.1989C101.784 80.0315 102.296 78.577 102.294 77.0781ZM73.7615 38.8387C73.7745 38.8034 73.7924 38.77 73.8145 38.7396C73.3234 38.5938 72.8925 38.2935 72.5856 37.8833C72.2788 37.4731 72.1125 36.9748 72.1114 36.4626C72.1114 34.8006 72.7711 33.2065 73.9457 32.0307C75.1202 30.8548 76.7135 30.1933 78.3755 30.1915H84.6834V34.6856C84.6834 35.7859 84.2463 36.841 83.4684 37.619C82.6904 38.397 81.6352 38.8341 80.535 38.8341L73.7615 38.8387ZM29.7742 55.8819C29.7748 54.3203 30.3954 52.8229 31.4996 51.7187C32.6038 50.6146 34.1012 49.994 35.6627 49.9934H48.2371C49.7592 49.9982 51.2176 50.6052 52.2936 51.6817C53.3697 52.7583 53.9761 54.2168 53.9804 55.739C53.9807 55.8273 53.9636 55.9149 53.93 55.9967C53.8965 56.0784 53.8472 56.1528 53.7849 56.2155C53.7226 56.2782 53.6486 56.328 53.5671 56.3621C53.4855 56.3962 53.3981 56.4139 53.3097 56.4142H29.7742V55.8819ZM35.2617 90.9546C32.5625 92.0742 29.5392 92.1283 26.8017 91.106C24.0641 90.0838 21.8163 88.0612 20.5117 85.4464C19.4497 83.3111 19.17 80.871 19.7212 78.5508C19.7347 78.5568 19.7478 78.5637 19.7604 78.5715L33.1737 84.8979C35.3813 85.9344 37.7789 86.5048 40.2168 86.5734C39.0938 88.5406 37.3516 90.081 35.2617 90.9546ZM73.2476 83.6142H40.6639C38.5062 83.6107 36.3756 83.1331 34.4228 82.2152L21.0118 75.8888C19.6649 75.2618 18.525 74.2634 17.7261 73.0109C16.9271 71.7583 16.5023 70.3037 16.5015 68.8181C16.5031 67.8734 16.6741 66.9367 17.0063 66.0524C17.8314 63.8504 19.1409 61.8619 20.8379 60.2339C22.5349 58.6059 24.576 57.3801 26.8104 56.647V57.8962C26.8104 58.2892 26.9665 58.6661 27.2445 58.944C27.5224 59.2219 27.8993 59.3781 28.2923 59.3781H48.138L49.1106 66.2599C49.4074 68.2905 50.4205 70.148 51.967 71.4971C53.5134 72.8462 55.4913 73.5979 57.5434 73.6164L69.9334 73.6648H69.9565C71.3551 73.6654 72.7146 73.2035 73.8234 72.3511C74.9322 71.4986 75.728 70.3035 76.0869 68.9517L78.9079 58.3502C80.0175 54.1425 79.737 49.6888 78.1081 45.6537L76.5363 41.7956H80.5327C80.7816 41.7956 81.0282 41.7795 81.2702 41.761C84.3592 44.4254 86.4584 48.0545 87.2278 52.0607L89.1914 62.1944C90.293 67.9008 88.1681 71.7819 84.098 76.5111L73.2476 83.6142ZM87.963 91.7751C82.865 92.3374 78.1519 89.6017 76.3981 85.0915L78.652 83.6188H95.7528C96.4057 83.6202 97.0552 83.5239 97.6795 83.333C96.7162 87.7488 92.8351 91.2358 87.963 91.7751ZM95.7528 80.6642H83.1715L85.8888 78.8872C86.0048 78.8117 86.1096 78.7202 86.1999 78.6153C89.2121 75.1375 91.367 71.9317 92.1322 68.2212C94.3654 68.4977 99.3297 72.3512 99.3297 77.0873C99.3297 77.557 99.2372 78.0221 99.0574 78.4561C98.8777 78.8901 98.6142 79.2844 98.2821 79.6165C97.9499 79.9487 97.5556 80.2121 97.1216 80.3919C96.6877 80.5716 96.2225 80.6642 95.7528 80.6642Z" fill="#201F3B"/>
<path d="M52.4891 21.8301C52.4894 22.0248 52.4513 22.2176 52.377 22.3976C52.3026 22.5775 52.1934 22.741 52.0558 22.8786C51.9181 23.0163 51.7546 23.1255 51.5747 23.1998C51.3948 23.2742 51.2019 23.3123 51.0072 23.312H48.7025V25.6167C48.7025 26.0097 48.5464 26.3866 48.2685 26.6646C47.9906 26.9425 47.6137 27.0986 47.2206 27.0986C46.8276 27.0986 46.4507 26.9425 46.1728 26.6646C45.8948 26.3866 45.7387 26.0097 45.7387 25.6167V23.312H43.4087C43.0156 23.312 42.6387 23.1559 42.3608 22.878C42.0829 22.6 41.9268 22.2231 41.9268 21.8301C41.9268 21.4371 42.0829 21.0601 42.3608 20.7822C42.6387 20.5043 43.0156 20.3482 43.4087 20.3482H45.7272V18.032C45.7272 17.8374 45.7655 17.6447 45.84 17.4649C45.9145 17.2851 46.0236 17.1217 46.1612 16.9841C46.2988 16.8465 46.4622 16.7373 46.642 16.6629C46.8218 16.5884 47.0145 16.55 47.2091 16.55C47.4037 16.55 47.5964 16.5884 47.7762 16.6629C47.956 16.7373 48.1194 16.8465 48.257 16.9841C48.3946 17.1217 48.5037 17.2851 48.5782 17.4649C48.6527 17.6447 48.691 17.8374 48.691 18.032V20.3482H50.9957C51.1914 20.3463 51.3854 20.3833 51.5667 20.457C51.748 20.5307 51.9128 20.6396 52.0517 20.7774C52.1906 20.9153 52.3008 21.0793 52.3759 21.2599C52.451 21.4406 52.4895 21.6344 52.4891 21.8301Z" fill="#EBEBEB"/>
<path d="M84.6834 30.1914V34.6855C84.6834 35.7858 84.2463 36.841 83.4683 37.6189C82.6904 38.3969 81.6352 38.834 80.535 38.834H73.7615C73.7745 38.7987 73.7924 38.7653 73.8145 38.7349C73.3234 38.5891 72.8924 38.2888 72.5856 37.8786C72.2788 37.4684 72.1125 36.9701 72.1113 36.4579C72.1125 34.7967 72.7728 33.2038 73.9473 32.029C75.1217 30.8541 76.7143 30.1932 78.3755 30.1914H84.6834Z" fill="#91FFC5"/>
<path d="M73.8147 38.7395C73.7926 38.7699 73.7748 38.8033 73.7617 38.8386H74.4923C74.2628 38.8392 74.0345 38.8058 73.8147 38.7395Z" fill="#201F3B"/>
<path d="M53.9805 55.7388C53.9808 55.8271 53.9637 55.9147 53.9302 55.9965C53.8967 56.0782 53.8473 56.1526 53.7851 56.2153C53.7228 56.278 53.6488 56.3278 53.5672 56.3619C53.4857 56.396 53.3983 56.4137 53.3099 56.414H29.7744V55.8816C29.775 54.3201 30.3956 52.8227 31.4998 51.7185C32.604 50.6144 34.1014 49.9938 35.6629 49.9932H48.2373C49.7594 49.998 51.2177 50.605 52.2938 51.6815C53.3699 52.758 53.9763 54.2166 53.9805 55.7388Z" fill="#91FFC5"/>
<path d="M56.2898 96.9375H49.7007C49.5061 96.9375 49.3134 96.8991 49.1336 96.8247C48.9538 96.7502 48.7904 96.641 48.6528 96.5034C48.5152 96.3658 48.406 96.2024 48.3316 96.0227C48.2571 95.8429 48.2188 95.6502 48.2188 95.4555C48.2188 95.2609 48.2571 95.0682 48.3316 94.8884C48.406 94.7087 48.5152 94.5453 48.6528 94.4077C48.7904 94.2701 48.9538 94.1609 49.1336 94.0864C49.3134 94.012 49.5061 93.9736 49.7007 93.9736H56.2898C56.6828 93.9736 57.0597 94.1298 57.3376 94.4077C57.6156 94.6856 57.7717 95.0625 57.7717 95.4555C57.7717 95.8486 57.6156 96.2255 57.3376 96.5034C57.0597 96.7813 56.6828 96.9375 56.2898 96.9375Z" fill="#201F3B"/>
</g>
</svg>
