<svg width="78" height="78" viewBox="0 0 78 78" fill="none" xmlns="http://www.w3.org/2000/svg">
<path d="M48.7501 68.3552C48.4905 68.3552 48.2416 68.2522 48.058 68.0688C47.8743 67.8855 47.7709 67.6367 47.7705 67.3772C47.7705 67.118 47.8733 66.8695 48.0564 66.6861C48.2395 66.5027 48.4879 66.3995 48.747 66.3991L71.1416 66.3306C71.401 66.331 71.6497 66.4341 71.8332 66.6174C72.0168 66.8007 72.1203 67.0492 72.1211 67.3086C72.1211 67.5679 72.0183 67.8166 71.8353 68.0002C71.6523 68.1838 71.4039 68.2874 71.1446 68.2882L48.7501 68.3552Z" fill="#91FFC5"/>
<path d="M45.0556 68.2881H42.0362C41.7829 68.2781 41.5433 68.1704 41.3676 67.9877C41.1919 67.8049 41.0938 67.5612 41.0938 67.3077C41.0938 67.0542 41.1919 66.8105 41.3676 66.6278C41.5433 66.445 41.7829 66.3374 42.0362 66.3274H45.0556C45.309 66.3374 45.5486 66.445 45.7243 66.6278C45.9 66.8105 45.9981 67.0542 45.9981 67.3077C45.9981 67.5612 45.9 67.8049 45.7243 67.9877C45.5486 68.1704 45.309 68.2781 45.0556 68.2881Z" fill="#91FFC5"/>
<path d="M30.2416 41.5516L14.7512 41.704C14.579 41.7055 14.4087 41.6672 14.2538 41.5919C14.0989 41.5166 13.9635 41.4065 13.8583 41.2701C13.753 41.1338 13.6808 40.9749 13.6473 40.8059C13.6138 40.637 13.6198 40.4625 13.665 40.2963L13.8174 39.7205C17.3457 26.7286 23.6694 15.0316 32.1733 5.7661L33.1803 4.66922C33.3322 4.50389 33.5305 4.38827 33.7492 4.33749C33.9679 4.28671 34.1969 4.30313 34.4061 4.38462C34.6153 4.4661 34.7951 4.60885 34.9218 4.79418C35.0486 4.97951 35.1165 5.19879 35.1166 5.42332V36.6248C35.1166 37.9226 34.6047 39.1679 33.6919 40.0904C32.7791 41.0129 31.5392 41.538 30.2416 41.5516Z" fill="#91FFC5"/>
<path d="M46.5577 42.5784L60.9115 42.679C61.5955 42.679 62.0983 42.2067 61.9185 41.7207L61.7738 41.3277C58.4999 32.4796 52.6438 24.5135 44.7631 18.2034L43.8307 17.4554C43.1939 16.9466 42.0361 17.2772 42.0361 17.9704V39.2223C42.0361 41.0641 44.0532 42.5602 46.5577 42.5784Z" fill="#91FFC5"/>
<path d="M3.4583 64.3819C4.99801 64.3819 6.24619 63.1338 6.24619 61.594C6.24619 60.0543 4.99801 58.8062 3.4583 58.8062C1.91859 58.8062 0.67041 60.0543 0.67041 61.594C0.67041 63.1338 1.91859 64.3819 3.4583 64.3819Z" fill="#91FFC5"/>
<path d="M76.2328 57.7473C75.9361 57.2438 75.5128 56.8267 75.0051 56.5372C74.4973 56.2478 73.9227 56.0962 73.3383 56.0975L65.0081 56.0883C63.8017 53.5838 61.6823 51.636 59.085 50.6451L57.9257 50.2033C56.0914 49.505 54.145 49.1477 52.1823 49.149H39.4007V46.4358L59.053 46.5623C59.2133 46.5638 59.3716 46.5259 59.5137 46.4517C59.6558 46.3775 59.7775 46.2694 59.8679 46.137C59.9583 46.0046 60.0146 45.8519 60.0319 45.6925C60.0492 45.5331 60.0269 45.3719 59.9671 45.2232L59.4552 43.9267C56.0625 35.3528 49.952 27.597 41.7833 21.4941L39.3915 19.7071V3.62874C39.3915 3.36894 39.2883 3.11978 39.1046 2.93608C38.9209 2.75237 38.6717 2.64917 38.4119 2.64917C38.1521 2.64917 37.903 2.75237 37.7193 2.93608C37.5356 3.11978 37.4324 3.36894 37.4324 3.62874V5.31671L34.7572 8.24323C26.1666 17.6048 19.7407 29.4845 16.1713 42.6013L15.6289 44.6001C15.5896 44.7456 15.5844 44.8981 15.6135 45.046C15.6427 45.1938 15.7056 45.333 15.7972 45.4526C15.8889 45.5722 16.0068 45.6692 16.142 45.7358C16.2771 45.8025 16.4258 45.8372 16.5765 45.8371L37.4293 45.6391V45.4486C37.4297 45.5126 37.4364 45.5764 37.4491 45.6391H37.4293V49.143H16.5003C15.1816 49.145 13.9176 49.6699 12.9854 50.6027C12.0532 51.5354 11.5291 52.7998 11.5278 54.1185V56.006H6.51878C5.89012 56.0068 5.27034 56.1545 4.70885 56.4372C4.14735 56.72 3.65968 57.13 3.28472 57.6346C2.90975 58.1392 2.65785 58.7244 2.54911 59.3436C2.44037 59.9628 2.47779 60.5988 2.65839 61.201L5.22234 69.7048C5.48559 70.5878 6.02768 71.3618 6.7675 71.911C7.50731 72.4603 8.40508 72.7552 9.32648 72.7517H66.0273C67.2183 72.7521 68.3872 72.4307 69.4105 71.8214C70.4339 71.2121 71.2735 70.3376 71.8407 69.2904L76.2968 61.0639C76.5748 60.553 76.7151 59.9786 76.7039 59.3971C76.6926 58.8156 76.5303 58.2471 76.2328 57.7473ZM39.4007 22.1537L40.6194 23.0678C48.4758 28.9422 54.3532 36.3842 57.6194 44.6001L39.4007 44.4843V22.1537ZM37.4415 43.6753L17.8653 43.8658L18.068 43.1132C21.549 30.2996 27.818 18.6971 36.1969 9.5671L37.4369 8.21124L37.4415 43.6753ZM13.487 54.1246C13.487 53.3251 13.8044 52.5584 14.3694 51.9928C14.9344 51.4272 15.7009 51.109 16.5003 51.1082H52.1823C53.9076 51.1075 55.6186 51.4219 57.231 52.036L58.3903 52.4762C60.1761 53.1584 61.6959 54.3956 62.726 56.006H13.487V54.1246ZM74.5768 60.1407L70.1192 68.3672C69.7208 69.1045 69.1305 69.7203 68.4107 70.1494C67.6908 70.5785 66.8684 70.8049 66.0303 70.8047H9.32039C8.81904 70.8073 8.33042 70.6469 7.92815 70.3477C7.52589 70.0485 7.23175 69.6266 7.09007 69.1457L6.83566 68.2971L25.5328 68.4282H25.5404C25.7937 68.4182 26.0333 68.3105 26.209 68.1278C26.3847 67.945 26.4829 67.7013 26.4829 67.4478C26.4829 67.1943 26.3847 66.9506 26.209 66.7679C26.0333 66.5851 25.7937 66.4775 25.5404 66.4675L6.24609 66.3289L5.48437 63.8198L53.823 63.9569C54.0828 63.9569 54.332 63.8537 54.5157 63.67C54.6994 63.4863 54.8026 63.2371 54.8026 62.9773C54.8026 62.7175 54.6994 62.4683 54.5157 62.2846C54.332 62.1009 54.0828 61.9977 53.823 61.9977L5.04105 61.8606C4.99296 61.8599 4.94493 61.8645 4.89785 61.8743L4.52613 60.6327C4.43379 60.3235 4.41479 59.997 4.47064 59.6792C4.52649 59.3614 4.65566 59.0609 4.84788 58.8017C5.04011 58.5425 5.29011 58.3316 5.57803 58.1859C5.86596 58.0402 6.18389 57.9636 6.5066 57.9621L73.3261 58.0535C73.5707 58.0533 73.8111 58.1167 74.0238 58.2375C74.2365 58.3584 74.414 58.5325 74.539 58.7428C74.6639 58.9531 74.732 59.1922 74.7365 59.4368C74.741 59.6814 74.6818 59.9229 74.5646 60.1376L74.5768 60.1407Z" fill="#201F3B"/>
<path d="M37.4612 45.6392H37.4414V45.4487C37.4418 45.5127 37.4484 45.5765 37.4612 45.6392Z" fill="#201F3B"/>
<path d="M37.4414 45.4487V45.6392H37.4612C37.4484 45.5765 37.4418 45.5127 37.4414 45.4487Z" fill="#201F3B"/>
</svg>
