<svg width="68" height="68" viewBox="0 0 68 68" fill="none" xmlns="http://www.w3.org/2000/svg">
<g opacity="0.2">
<path d="M63.6214 53.3535H6.27691C6.22484 53.3535 6.18262 53.3957 6.18262 53.4478V62.7965C6.18262 62.8486 6.22484 62.8908 6.27691 62.8908H63.6214C63.6734 62.8908 63.7157 62.8486 63.7157 62.7965V53.4478C63.7157 53.3957 63.6734 53.3535 63.6214 53.3535Z" fill="#91FFC5"/>
<path d="M6.19457 50.101L6.18262 56.2249C6.18262 56.2249 10.5455 50.3626 13.5006 49.5498C14.3214 49.3253 15.1913 49.3878 16.0386 49.4714C17.6443 49.6321 19.3151 49.8924 20.6233 50.8381C21.4986 51.4689 22.1706 52.3813 23.1375 52.8581C25.0566 53.8038 27.3357 52.7253 29.0808 51.4902C30.826 50.255 32.6495 48.7635 34.7918 48.8499C36.6764 48.9256 38.2568 50.2192 39.7417 51.3839C41.2265 52.5487 42.9796 53.7002 44.847 53.4266C46.7143 53.153 48.0717 51.5234 49.5977 50.3825C51.1476 49.2231 53.1053 48.5032 55.0204 48.7768C56.755 49.0239 58.0154 50.4861 59.2027 51.7731C60.39 53.06 62.8338 54.4399 63.6997 55.9633C63.6028 53.7599 63.79 52.1622 63.6918 49.9589C61.3981 49.2881 58.7551 45.7846 56.7961 44.4126C55.964 43.8464 54.9953 43.5136 53.9909 43.4489C52.9865 43.3842 51.9831 43.5899 51.0852 44.0447C48.8925 45.1922 47.5457 47.7635 45.1551 48.4023C42.9451 48.996 40.6793 47.701 38.9262 46.2295C37.7309 45.2254 36.5356 44.066 34.9976 43.7724C32.8301 43.3607 30.7875 44.7898 29.0211 46.1046C27.2546 47.4195 25.1018 48.7675 22.9768 48.1752C20.529 47.4939 19.258 44.5202 16.8156 43.8362C15.4582 43.4577 13.9787 43.884 12.7993 44.6543C11.62 45.4246 10.685 46.5137 9.76855 47.5762C8.90527 48.5869 6.19457 50.101 6.19457 50.101Z" fill="#91FFC5"/>
<path d="M6.19457 56.2328L6.18262 62.3555C6.18262 62.3555 10.5535 56.4945 13.5139 55.6816C14.3373 55.4559 15.2086 55.5183 16.0572 55.6033C17.6656 55.764 19.3404 56.0243 20.6512 56.9699C21.5264 57.6008 22.2011 58.5132 23.1746 58.99C25.0964 59.9356 27.3808 58.8572 29.1286 57.6207C30.8764 56.3842 32.7039 54.8954 34.8396 54.9804C36.7282 55.0561 38.3113 56.351 39.7988 57.5145C41.2863 58.6779 43.0434 59.832 44.9134 59.5571C46.7834 59.2822 48.1447 57.6552 49.6721 56.5131C51.2247 55.3549 53.1863 54.6351 55.1041 54.9087C56.8439 55.1557 58.1057 56.6166 59.297 57.9063C60.4883 59.1959 62.9334 60.5731 63.802 62.0952C63.7037 59.8918 63.8923 58.2954 63.794 56.092C61.495 55.4213 58.8481 51.9164 56.8878 50.5458C56.0539 49.9801 55.084 49.6476 54.0784 49.5829C53.0729 49.5183 52.0683 49.7237 51.1689 50.1779C48.9721 51.3254 47.4089 53.3959 45.0143 54.0374C43.9611 54.3348 42.8401 54.2839 41.8181 53.8924C40.7962 53.5008 39.9281 52.7896 39.3432 51.8646C38.3339 50.316 36.59 50.1978 35.0507 49.9056C32.8793 49.4926 30.8339 50.9216 29.0596 52.2378C27.2852 53.554 25.1429 54.8941 23.0126 54.3084C20.5596 53.627 19.2939 50.6534 16.8395 49.9694C15.4795 49.5909 13.9973 50.0172 12.8153 50.7875C11.6332 51.5578 10.6903 52.6469 9.77918 53.7094C8.90926 54.7188 6.19457 56.2328 6.19457 56.2328Z" fill="#E8FFF3"/>
<path d="M6.94221 62.9531C6.7732 62.9525 6.60816 62.9018 6.46801 62.8073C6.32786 62.7128 6.21889 62.5789 6.15489 62.4225C6.0909 62.2661 6.07476 62.0942 6.10852 61.9285C6.14228 61.7629 6.22443 61.6111 6.34455 61.4922L11.2387 56.691C14.0503 53.9338 17.9935 53.9086 20.8264 56.6339L21.78 57.5516C23.8811 59.5704 26.7233 59.6049 28.851 57.6353L30.1791 56.4108C32.9681 53.8276 36.8423 53.8714 39.5942 56.517L40.6075 57.4919C42.7405 59.5412 45.6092 59.5505 47.7488 57.5105L48.7808 56.525C51.5632 53.8687 55.4546 53.8687 58.2437 56.5104L63.4845 61.4842C63.6469 61.6405 63.741 61.8547 63.7462 62.0801C63.7513 62.3055 63.6672 62.5238 63.512 62.6874C63.3568 62.8509 63.1433 62.9465 62.918 62.9532C62.6926 62.96 62.4737 62.8773 62.3091 62.7234L57.0656 57.7509C54.9406 55.7334 52.0812 55.7374 49.9562 57.7628L48.9242 58.7483C46.1219 61.4205 42.2132 61.4045 39.4215 58.7244L38.4068 57.7495C36.3071 55.7294 33.4649 55.6962 31.3359 57.6659L30.0078 58.8904C27.2187 61.4736 23.3432 61.4298 20.5927 58.7841L19.6378 57.8664C17.4782 55.7812 14.5829 55.8051 12.4353 57.9062L7.53986 62.7127C7.38006 62.8684 7.16531 62.9548 6.94221 62.9531Z" fill="#201F3B"/>
<path d="M6.94221 56.8172C6.7732 56.8166 6.60816 56.7658 6.46801 56.6714C6.32786 56.5769 6.21889 56.443 6.15489 56.2866C6.0909 56.1301 6.07476 55.9582 6.10852 55.7926C6.14228 55.627 6.22443 55.4752 6.34455 55.3563L11.2387 50.5538C14.0503 47.7966 17.9935 47.7727 20.8264 50.4967L21.7813 51.4117C23.8824 53.4318 26.7246 53.465 28.8523 51.4954L30.1804 50.2709C32.9695 47.6877 36.8436 47.7315 39.5955 50.3771L40.6089 51.352C42.7418 53.4026 45.6106 53.4106 47.7502 51.3706L48.7821 50.3864C51.5646 47.7302 55.456 47.7302 58.245 50.3705L63.4845 55.343C63.6469 55.4993 63.741 55.7135 63.7462 55.9389C63.7513 56.1643 63.6672 56.3826 63.512 56.5461C63.3568 56.7097 63.1433 56.8053 62.918 56.812C62.6926 56.8188 62.4737 56.7361 62.3091 56.5821L57.0643 51.611C54.9393 49.5922 52.0799 49.5975 49.9549 51.6229L48.9229 52.6071C46.1206 55.2792 42.2119 55.2633 39.4202 52.5831L38.4055 51.6083C36.3057 49.5882 33.4635 49.555 31.3346 51.5246L30.0064 52.7492C27.2174 55.3324 23.3419 55.2885 20.5913 52.6429L19.6364 51.7252C17.4729 49.6453 14.5776 49.6639 12.43 51.7703L7.53986 56.5781C7.37945 56.7327 7.16498 56.8185 6.94221 56.8172Z" fill="#201F3B"/>
<path d="M22.234 28.1987L22.0601 31.4965L34.3187 28.6343L48.5415 32.1247L48.0183 28.1549L34.8871 24.5344L22.234 28.1987Z" fill="#91FFC5"/>
<path d="M6.94221 50.955C6.7732 50.9544 6.60816 50.9036 6.46801 50.8091C6.32786 50.7147 6.21889 50.5808 6.15489 50.4243C6.0909 50.2679 6.07476 50.096 6.10852 49.9304C6.14228 49.7648 6.22443 49.6129 6.34455 49.494L11.2387 44.6929C14.0503 41.9343 17.9922 41.9104 20.8264 44.6357L21.7813 45.5548C23.8824 47.5749 26.7246 47.6081 28.8523 45.6385L30.1804 44.4139C32.9695 41.8307 36.8436 41.8746 39.5955 44.5202L40.6089 45.495C42.7418 47.5457 45.6106 47.5536 47.7502 45.5136L48.7821 44.5295C51.5646 41.8732 55.456 41.8732 58.245 44.5136L63.4845 49.4821C63.6469 49.6384 63.741 49.8526 63.7462 50.078C63.7513 50.3034 63.6672 50.5216 63.512 50.6852C63.3568 50.8488 63.1433 50.9444 62.918 50.9511C62.6926 50.9579 62.4737 50.8752 62.3091 50.7212L57.0656 45.7487C54.9406 43.7313 52.0812 43.7353 49.9562 45.7607L48.9229 46.7501C46.1206 49.421 42.2132 49.4064 39.4202 46.7262L38.4055 45.7514C36.3057 43.7313 33.4635 43.6981 31.3346 45.6677L30.0157 46.8829C27.2267 49.4661 23.3512 49.4223 20.6006 46.7767L19.6457 45.859C17.4822 43.7791 14.5869 43.7977 12.4393 45.9041L7.53986 50.7106C7.38071 50.8677 7.16587 50.9556 6.94221 50.955Z" fill="#201F3B"/>
<path d="M13.0927 35.3387C13.0929 35.4509 13.0709 35.562 13.028 35.6657C12.9852 35.7694 12.9223 35.8636 12.8429 35.9429C12.7636 36.0223 12.6694 36.0852 12.5657 36.128C12.462 36.1709 12.3509 36.1928 12.2387 36.1927H10.9637V37.4677C10.9637 37.6942 10.8737 37.9114 10.7136 38.0715C10.5534 38.2317 10.3362 38.3217 10.1097 38.3217C9.88322 38.3217 9.666 38.2317 9.50585 38.0715C9.3457 37.9114 9.25572 37.6942 9.25572 37.4677V36.1927H7.98338C7.75689 36.1927 7.53967 36.1027 7.37952 35.9425C7.21937 35.7824 7.12939 35.5652 7.12939 35.3387C7.12939 35.1122 7.21937 34.895 7.37952 34.7348C7.53967 34.5747 7.75689 34.4847 7.98338 34.4847H9.25572V33.2097C9.25572 32.9832 9.3457 32.766 9.50585 32.6058C9.666 32.4457 9.88322 32.3557 10.1097 32.3557C10.3362 32.3557 10.5534 32.4457 10.7136 32.6058C10.8737 32.766 10.9637 32.9832 10.9637 33.2097V34.4847H12.2387C12.3509 34.4845 12.462 34.5065 12.5657 34.5493C12.6694 34.5922 12.7636 34.6551 12.8429 34.7344C12.9223 34.8138 12.9852 34.908 13.028 35.0117C13.0709 35.1154 13.0929 35.2265 13.0927 35.3387Z" fill="#EBEBEB"/>
<path d="M46.653 7.59418C46.1597 7.59523 45.6772 7.44991 45.2666 7.17663C44.8559 6.90335 44.5356 6.51438 44.3461 6.05896C44.1566 5.60354 44.1065 5.10213 44.202 4.61821C44.2976 4.13429 44.5346 3.6896 44.8831 3.34043C45.2315 2.99126 45.6757 2.75331 46.1594 2.65669C46.6431 2.56007 47.1446 2.60913 47.6004 2.79765C48.0563 2.98617 48.4459 3.30569 48.7201 3.71576C48.9942 4.12583 49.1406 4.60801 49.1406 5.10128C49.1399 5.76131 48.8777 6.39417 48.4115 6.86138C47.9453 7.32858 47.313 7.59207 46.653 7.59418ZM46.653 4.31636C46.4977 4.31636 46.346 4.3624 46.2169 4.44865C46.0878 4.53489 45.9872 4.65748 45.9278 4.80091C45.8684 4.94433 45.8529 5.10216 45.8832 5.25442C45.9134 5.40668 45.9882 5.54653 46.098 5.65631C46.2077 5.76608 46.3476 5.84084 46.4999 5.87112C46.6521 5.90141 46.8099 5.88587 46.9534 5.82646C47.0968 5.76705 47.2194 5.66644 47.3056 5.53736C47.3919 5.40828 47.4379 5.25653 47.4379 5.10128C47.4376 4.89322 47.3547 4.69377 47.2076 4.54665C47.0605 4.39952 46.8611 4.31671 46.653 4.31636Z" fill="#91FFC5"/>
<path d="M33.1844 15.9561H31.3967C31.1752 15.9561 30.9956 16.1356 30.9956 16.3571V18.1448C30.9956 18.3663 31.1752 18.5459 31.3967 18.5459H33.1844C33.4059 18.5459 33.5854 18.3663 33.5854 18.1448V16.3571C33.5854 16.1356 33.4059 15.9561 33.1844 15.9561Z" fill="#201F3B"/>
<path d="M38.0934 31.4553H37.0548C36.8039 31.4553 36.6006 31.6587 36.6006 31.9095V32.9481C36.6006 33.199 36.8039 33.4024 37.0548 33.4024H38.0934C38.3443 33.4024 38.5476 33.199 38.5476 32.9481V31.9095C38.5476 31.6587 38.3443 31.4553 38.0934 31.4553Z" fill="#201F3B"/>
<path d="M32.9616 31.4966H31.923C31.6721 31.4966 31.4688 31.6999 31.4688 31.9508V32.9894C31.4688 33.2403 31.6721 33.4436 31.923 33.4436H32.9616C33.2124 33.4436 33.4158 33.2403 33.4158 32.9894V31.9508C33.4158 31.6999 33.2124 31.4966 32.9616 31.4966Z" fill="#201F3B"/>
<path d="M28.5496 15.8472H26.7619C26.5404 15.8472 26.3608 16.0267 26.3608 16.2483V18.0359C26.3608 18.2574 26.5404 18.437 26.7619 18.437H28.5496C28.7711 18.437 28.9507 18.2574 28.9507 18.0359V16.2483C28.9507 16.0267 28.7711 15.8472 28.5496 15.8472Z" fill="#201F3B"/>
<path d="M37.8196 15.9561H36.032C35.8104 15.9561 35.6309 16.1356 35.6309 16.3571V18.1448C35.6309 18.3663 35.8104 18.5459 36.032 18.5459H37.8196C38.0411 18.5459 38.2207 18.3663 38.2207 18.1448V16.3571C38.2207 16.1356 38.0411 15.9561 37.8196 15.9561Z" fill="#201F3B"/>
<path d="M42.4148 15.9561H40.6272C40.4056 15.9561 40.2261 16.1356 40.2261 16.3571V18.1448C40.2261 18.3663 40.4056 18.5459 40.6272 18.5459H42.4148C42.6363 18.5459 42.8159 18.3663 42.8159 18.1448V16.3571C42.8159 16.1356 42.6363 15.9561 42.4148 15.9561Z" fill="#201F3B"/>
<path d="M33.1844 20.0852H31.3967C31.1752 20.0852 30.9956 20.2648 30.9956 20.4863V22.274C30.9956 22.4955 31.1752 22.675 31.3967 22.675H33.1844C33.4059 22.675 33.5854 22.4955 33.5854 22.274V20.4863C33.5854 20.2648 33.4059 20.0852 33.1844 20.0852Z" fill="#201F3B"/>
<path d="M28.5496 19.9763H26.7619C26.5404 19.9763 26.3608 20.1559 26.3608 20.3774V22.1651C26.3608 22.3866 26.5404 22.5662 26.7619 22.5662H28.5496C28.7711 22.5662 28.9507 22.3866 28.9507 22.1651V20.3774C28.9507 20.1559 28.7711 19.9763 28.5496 19.9763Z" fill="#201F3B"/>
<path d="M37.8196 20.0852H36.032C35.8104 20.0852 35.6309 20.2648 35.6309 20.4863V22.274C35.6309 22.4955 35.8104 22.675 36.032 22.675H37.8196C38.0411 22.675 38.2207 22.4955 38.2207 22.274V20.4863C38.2207 20.2648 38.0411 20.0852 37.8196 20.0852Z" fill="#201F3B"/>
<path d="M42.4148 20.0852H40.6272C40.4056 20.0852 40.2261 20.2648 40.2261 20.4863V22.274C40.2261 22.4955 40.4056 22.675 40.6272 22.675H42.4148C42.6363 22.675 42.8159 22.4955 42.8159 22.274V20.4863C42.8159 20.2648 42.6363 20.0852 42.4148 20.0852Z" fill="#201F3B"/>
<path d="M53.1981 32.9189C53.0036 32.6628 52.7551 32.4527 52.4702 32.3035C52.1854 32.1543 51.8712 32.0697 51.5499 32.0556L49.5883 31.6094C49.6201 30.4645 49.3837 28.3581 48.7489 27.5719C48.5665 27.3327 48.302 27.1695 48.0065 27.1137L46.1192 26.5306V16.2284C46.1192 14.2468 44.4763 12.6424 42.4576 12.6424H40.6327V9.45492C40.631 8.5483 40.2704 7.67924 39.6298 7.03766C38.9892 6.39609 38.1207 6.03417 37.2141 6.03102L37.2048 5.42406C37.2045 5.31166 37.1817 5.20046 37.1379 5.09697C37.094 4.99347 37.03 4.89977 36.9495 4.82135C36.8689 4.74293 36.7736 4.68137 36.669 4.64028C36.5643 4.59918 36.4526 4.57938 36.3402 4.58203C36.1141 4.58518 35.8984 4.67778 35.7403 4.83956C35.5823 5.00135 35.4947 5.21915 35.4968 5.44531L35.5061 6.02969H34.2511L34.2165 4.68297C34.2103 4.46098 34.118 4.25011 33.9592 4.09495C33.8003 3.93979 33.5873 3.85251 33.3652 3.85156H33.3426C33.1198 3.85744 32.9081 3.94991 32.7524 4.10936C32.5966 4.26881 32.5092 4.48267 32.5086 4.70555C32.5073 4.71302 32.5073 4.72065 32.5086 4.72812L32.5391 6.03234H32.5258C31.6179 6.03305 30.7472 6.39396 30.1051 7.03588C29.4629 7.6778 29.1017 8.54827 29.1006 9.45625V12.6437H26.71C24.6912 12.6437 23.0523 14.2548 23.0523 16.2363V26.4191C23.0515 26.5234 23.0718 26.6269 23.1121 26.7232L21.8424 27.1216C21.5461 27.1694 21.2796 27.3298 21.0986 27.5692C20.416 28.4232 20.4492 30.7142 20.59 31.6134L18.7014 32.0689C18.3792 32.0842 18.0642 32.1701 17.7789 32.3207C17.4936 32.4713 17.245 32.6828 17.0505 32.9402C16.8518 33.2016 16.717 33.5059 16.6568 33.8288C16.5966 34.1516 16.6127 34.484 16.7039 34.7995L18.4397 40.8385C18.4911 41.0165 18.5986 41.1731 18.7463 41.2849C18.894 41.3967 19.074 41.4577 19.2592 41.4588C19.3392 41.4584 19.4188 41.4468 19.4956 41.4242C19.7129 41.3612 19.8965 41.2149 20.0065 41.0171C20.1164 40.8194 20.1438 40.5862 20.0826 40.3684L18.3534 34.3187C18.3357 34.2569 18.3327 34.1918 18.3447 34.1286C18.3567 34.0654 18.3833 34.0059 18.4225 33.9548C18.4696 33.8941 18.53 33.845 18.5991 33.8114C18.6682 33.7778 18.7441 33.7605 18.8209 33.7609C18.888 33.7622 18.955 33.7546 19.0201 33.7384L34.097 30.1033L34.1993 39.0017C34.2024 39.2278 34.2951 39.4433 34.4569 39.6012C34.6187 39.759 34.8365 39.8462 35.0626 39.8438C35.1745 39.8425 35.285 39.8193 35.388 39.7753C35.4909 39.7313 35.5841 39.6674 35.6623 39.5874C35.7405 39.5073 35.8022 39.4126 35.8437 39.3087C35.8853 39.2048 35.906 39.0937 35.9046 38.9818L35.8023 30.1816L51.2431 33.737C51.3068 33.751 51.3718 33.7577 51.437 33.757C51.5139 33.7564 51.5898 33.7737 51.6589 33.8073C51.728 33.8409 51.7884 33.8901 51.8354 33.9509C51.8752 34.0006 51.9024 34.0591 51.9149 34.1214C51.9273 34.1838 51.9247 34.2483 51.9072 34.3095C50.2523 40.3219 50.255 40.3644 50.2749 40.5755C50.2925 40.7853 50.3869 40.9811 50.54 41.1254C50.6931 41.2698 50.8941 41.3526 51.1045 41.3578C51.3149 41.3631 51.5198 41.2905 51.6799 41.154C51.8401 41.0175 51.9442 40.8266 51.9722 40.618C52.032 40.3524 52.4729 38.6856 53.5554 34.765C53.6428 34.4506 53.656 34.1203 53.594 33.7999C53.532 33.4796 53.3965 33.178 53.1981 32.9189ZM30.8126 9.45492C30.8133 8.99981 30.9945 8.56356 31.3164 8.24188C31.6383 7.92019 32.0747 7.73934 32.5298 7.73898H37.2101C37.6644 7.74177 38.0992 7.92345 38.4204 8.24465C38.7416 8.56585 38.9233 9.00069 38.9261 9.45492V12.5335H30.8126V9.45492ZM24.7696 16.2284C24.7787 15.7203 24.9889 15.2365 25.3541 14.8832C25.7194 14.5299 26.2098 14.3359 26.7179 14.3438H42.4576C42.9663 14.3356 43.4575 14.5293 43.8236 14.8825C44.1898 15.2358 44.4011 15.7197 44.4112 16.2284V25.998L35.1701 23.1452C35.0053 23.0974 34.8303 23.0974 34.6654 23.1452L24.7683 26.1999L24.7696 16.2284ZM34.947 28.2333C34.8161 28.2019 34.6795 28.2019 34.5486 28.2333L22.2581 31.1963C22.1704 30.5137 22.2222 29.2041 22.3909 28.7234L34.9138 24.8545L47.4686 28.7313C47.6824 29.1696 47.867 30.4021 47.8869 31.2109L34.947 28.2333Z" fill="#201F3B"/>
</g>
</svg>
