<svg width="65" height="88" viewBox="0 0 65 88" fill="none" xmlns="http://www.w3.org/2000/svg">
<g opacity="0.2">
<path d="M49.5153 21.2368L42.135 17.9197C42.0745 17.8923 42.0081 17.8807 41.9419 17.8856C41.8757 17.8906 41.8118 17.9122 41.756 17.9482C41.7003 17.9843 41.6545 18.0338 41.6228 18.0922C41.5911 18.1505 41.5746 18.2159 41.5747 18.2823V24.9218C41.5746 24.9882 41.5911 25.0536 41.6228 25.112C41.6545 25.1703 41.7003 25.2198 41.756 25.2559C41.8118 25.292 41.8757 25.3135 41.9419 25.3185C42.0081 25.3235 42.0745 25.3118 42.135 25.2845L49.5153 21.9673C49.5869 21.9368 49.648 21.8859 49.6909 21.821C49.7338 21.756 49.7567 21.6799 49.7567 21.6021C49.7567 21.5242 49.7338 21.4481 49.6909 21.3832C49.648 21.3183 49.5869 21.2674 49.5153 21.2368Z" fill="#91FFC5"/>
<path d="M25.9754 33.6567H21.1113C20.8182 33.6567 20.5371 33.5402 20.3299 33.333C20.1226 33.1257 20.0062 32.8446 20.0062 32.5515C20.0062 32.2584 20.1226 31.9773 20.3299 31.7701C20.5371 31.5628 20.8182 31.4464 21.1113 31.4464H25.9754C26.7815 31.4464 27.4724 30.9307 27.4827 30.3154V30.1161C27.481 29.9873 27.4537 29.8603 27.4024 29.7422C27.351 29.6242 27.2767 29.5176 27.1837 29.4286C26.8601 29.12 26.4276 28.9519 25.9806 28.9611L18.8615 28.9473C17.8251 28.9538 16.8284 28.5496 16.0892 27.8232C15.7895 27.5268 15.5522 27.1733 15.3913 26.7836C15.2304 26.394 15.1492 25.976 15.1524 25.5545C15.1765 23.7189 16.8437 22.2373 18.8701 22.2373H18.8907L34.0157 22.3095C34.3088 22.3095 34.5899 22.4259 34.7972 22.6332C35.0044 22.8404 35.1209 23.1215 35.1209 23.4146C35.1209 23.7078 35.0044 23.9889 34.7972 24.1961C34.5899 24.4034 34.3088 24.5198 34.0157 24.5198L18.8907 24.4476H18.8804C18.0709 24.4476 17.3817 24.9632 17.3748 25.5803C17.3767 25.7091 17.4043 25.8363 17.4559 25.9543C17.5076 26.0724 17.5823 26.1789 17.6756 26.2678C17.9997 26.5753 18.432 26.7426 18.8787 26.7336L25.9977 26.7473C26.5119 26.7439 27.0217 26.842 27.498 27.0357C27.9743 27.2295 28.4077 27.5152 28.7735 27.8765C29.0731 28.1741 29.3101 28.5286 29.4706 28.9191C29.6312 29.3096 29.7121 29.7282 29.7085 30.1504V30.3498C29.6621 32.1734 27.9949 33.6567 25.9754 33.6567Z" fill="#201F3B"/>
<path d="M69.7968 55.0809L62.9733 43.976C62.7486 43.6106 62.4454 43.2997 62.0858 43.0657C61.7262 42.8318 61.3191 42.6807 60.894 42.6233C60.4688 42.5659 60.0362 42.6036 59.6275 42.7338C59.2187 42.8641 58.844 43.0835 58.5304 43.3762L56.5968 45.1877L46.9511 30.5595C46.4789 29.838 45.7704 29.3032 44.9471 29.047L44.966 27.5001L51.5299 25.3035C51.7343 25.2345 51.9142 25.1076 52.0479 24.9383C52.1815 24.769 52.2631 24.5645 52.2827 24.3496C52.301 24.1355 52.2562 23.9206 52.1539 23.7316C52.0516 23.5425 51.8962 23.3876 51.7069 23.2857L44.4538 19.3463C44.286 19.2557 44.0977 19.21 43.9071 19.2136C43.7164 19.2171 43.53 19.2699 43.3657 19.3667C43.2015 19.4635 43.065 19.6011 42.9696 19.7662C42.8741 19.9313 42.8229 20.1182 42.821 20.3088L42.7368 29.0246C41.8777 29.2802 41.1397 29.8375 40.6588 30.5938L34.2754 40.5626C33.9115 40.1629 33.4657 39.8464 32.9684 39.6346C32.4711 39.4229 31.934 39.3209 31.3937 39.3355C30.8534 39.3502 30.3226 39.4813 29.8375 39.7197C29.3524 39.9582 28.9245 40.2984 28.5829 40.7173L18.334 53.2246L17.5313 52.422C17.0717 51.9657 16.4528 51.706 15.8053 51.6977C15.1577 51.6894 14.5323 51.933 14.0611 52.3773L11.294 54.9657C11.1849 55.0697 11.0981 55.1948 11.039 55.3334C10.9799 55.472 10.9497 55.6211 10.9502 55.7718V75.8073C10.9529 77.382 11.5799 78.8913 12.6937 80.0045C13.8075 81.1176 15.3172 81.7437 16.8919 81.7456H63.9496C65.5244 81.7442 67.0344 81.1182 68.1483 80.005C69.2622 78.8917 69.889 77.3821 69.8913 75.8073V56.0417C69.9498 55.8849 69.9716 55.7168 69.9553 55.5503C69.9389 55.3838 69.8847 55.2232 69.7968 55.0809ZM45.0141 22.172L48.4172 24.0213L44.9883 25.1677L45.0141 22.172ZM63.9496 79.5353H31.8313L31.821 77.8165H32.8282C33.1016 77.8161 33.3709 77.7498 33.6134 77.6233C33.8558 77.4968 34.0642 77.3138 34.221 77.0898C34.3778 76.8657 34.4783 76.6072 34.5141 76.3362C34.5499 76.0651 34.5199 75.7893 34.4266 75.5323L32.3263 69.7642C32.2095 69.4348 31.9929 69.1501 31.7067 68.9496C31.4206 68.749 31.079 68.6427 30.7296 68.6453C30.3803 68.6436 30.0392 68.7505 29.7533 68.9512C29.4687 69.1524 29.2527 69.4362 29.1346 69.7642L27.036 75.5306C26.9411 75.7873 26.9098 76.0632 26.9447 76.3347C26.9796 76.6062 27.0797 76.8652 27.2364 77.0896C27.3931 77.314 27.6018 77.4972 27.8446 77.6235C28.0875 77.7497 28.3573 77.8154 28.631 77.8148H29.6107L29.621 79.5335H16.885C15.8963 79.5326 14.9482 79.1397 14.2488 78.4408C13.5493 77.742 13.1555 76.7943 13.1536 75.8056V56.2513L15.5599 53.9895C15.614 53.9376 15.686 53.9086 15.761 53.9086C15.8359 53.9086 15.908 53.9376 15.9621 53.9895L25.759 63.6609L21.7165 67.1826C21.5026 67.3766 21.373 67.6465 21.3553 67.9348C21.3377 68.223 21.4334 68.5067 21.622 68.7254C21.8106 68.944 22.0772 69.0803 22.3649 69.1052C22.6526 69.13 22.9386 69.0415 23.1619 68.8584C23.1619 68.8584 24.4613 67.7498 25.7555 66.6343C26.4035 66.0774 27.0515 65.5171 27.5344 65.0874C27.8032 64.8601 28.0602 64.6192 28.3044 64.3656L28.3147 64.3535L33.3438 60.3781C33.648 60.1412 34.0297 60.0265 34.4141 60.0563C34.7985 60.0862 35.1578 60.2586 35.4218 60.5396L45.7927 71.7734L42.699 74.7829C42.5926 74.8856 42.5082 75.0087 42.4506 75.1449C42.393 75.281 42.3635 75.4274 42.3638 75.5752C42.3638 75.8684 42.4802 76.1495 42.6875 76.3567C42.8947 76.564 43.1758 76.6804 43.469 76.6804C43.7581 76.6815 44.036 76.5685 44.2424 76.3659L47.9016 72.7892H47.9136C47.9815 72.7535 48.0435 72.7077 48.0975 72.6534L50.5622 70.3606C50.9685 69.9823 51.4951 69.7592 52.0494 69.7303C52.6038 69.7014 53.1507 69.8685 53.5941 70.2024L65.4535 79.1176C65.4816 79.1419 65.5121 79.1632 65.5446 79.1812C65.0459 79.4166 64.501 79.5375 63.9496 79.5353ZM29.3597 75.6045L30.7347 71.8353L32.1097 75.6045H29.3597ZM32.053 53.919L33.4194 50.1549L34.7944 53.919H32.053ZM67.681 75.8073C67.6809 76.4997 67.4874 77.1783 67.1224 77.7667C67.0448 77.6002 66.9266 77.456 66.7786 77.3473L54.9193 68.4304C54.3508 68 53.688 67.7113 52.9857 67.5882V66.0998H53.9877C54.2607 66.0991 54.5296 66.0329 54.7717 65.9066C55.0137 65.7803 55.2219 65.5976 55.3786 65.374C55.5353 65.1505 55.6359 64.8925 55.6721 64.6218C55.7082 64.3512 55.6787 64.0759 55.5861 63.819L53.4893 58.0492C53.3696 57.7214 53.1521 57.4383 52.8662 57.2383C52.5803 57.0382 52.2398 56.931 51.8908 56.931C51.5419 56.931 51.2014 57.0382 50.9155 57.2383C50.6295 57.4383 50.412 57.7214 50.2924 58.0492L48.1955 63.819C48.1029 64.076 48.0734 64.3515 48.1096 64.6223C48.1459 64.893 48.2467 65.1511 48.4036 65.3748C48.5605 65.5984 48.7688 65.781 49.0111 65.9072C49.2534 66.0334 49.5225 66.0994 49.7957 66.0998H50.7754V67.7274C50.1349 67.9325 49.5479 68.2771 49.0566 68.7363L47.4066 70.2729L37.0391 59.0409C36.3857 58.3356 35.4859 57.9091 34.5263 57.8498L34.516 56.131H35.5215C35.7944 56.1307 36.0633 56.0647 36.3054 55.9386C36.5475 55.8125 36.7557 55.63 36.9124 55.4065C37.0691 55.183 37.1698 54.9251 37.2059 54.6546C37.242 54.384 37.2125 54.1087 37.1199 53.852L35.0196 48.0821C34.9008 47.754 34.6838 47.4704 34.3981 47.27C34.1124 47.0696 33.7719 46.962 33.4229 46.962C33.0739 46.962 32.7334 47.0696 32.4476 47.27C32.1619 47.4704 31.9449 47.754 31.8261 48.0821L29.7258 53.852C29.6331 54.1089 29.6036 54.3843 29.6398 54.655C29.676 54.9257 29.7769 55.1837 29.9338 55.4072C30.0907 55.6307 30.2992 55.8132 30.5415 55.9392C30.7838 56.0652 31.0529 56.131 31.326 56.131H32.3125L32.3229 58.4015C32.1998 58.4759 32.0816 58.558 31.9688 58.6473L27.4536 62.2326L19.9152 54.7835C19.9349 54.7653 19.9532 54.7458 19.9702 54.7251L30.2913 42.1095C30.4321 41.9347 30.6092 41.7927 30.8104 41.6932C31.0116 41.5938 31.2321 41.5393 31.4564 41.5336C31.6808 41.5278 31.9037 41.571 32.1097 41.6601C32.3157 41.7491 32.4999 41.8819 32.6494 42.0493L41.0094 51.2927L38.0068 54.4363C37.8107 54.6434 37.7012 54.9177 37.7008 55.2029C37.7003 55.4239 37.7662 55.6399 37.8899 55.823C38.0136 56.0061 38.1894 56.1479 38.3946 56.2299C38.5998 56.3119 38.8249 56.3305 39.0407 56.2831C39.2566 56.2358 39.4532 56.1247 39.6052 55.9643L43.5325 51.8531L46.5782 48.8917C46.6139 48.8564 46.6564 48.8287 46.703 48.8101C46.7496 48.7915 46.7995 48.7824 46.8497 48.7834C46.9 48.7851 46.9494 48.7967 46.9952 48.8177C47.0409 48.8386 47.082 48.8684 47.1161 48.9054L52.8258 55.1238C53.0243 55.3396 53.3002 55.4679 53.5931 55.4805C53.886 55.493 54.172 55.3889 54.3882 55.1909C54.604 54.9924 54.7322 54.7165 54.7448 54.4236C54.7574 54.1307 54.6532 53.8447 54.4552 53.6285L48.7404 47.4101C48.4375 47.0782 48.0529 46.8317 47.6249 46.6951V45.4645H48.6407C48.9141 45.4653 49.1837 45.3999 49.4264 45.2739C49.669 45.1479 49.8776 44.9651 50.0343 44.741C50.191 44.5169 50.2912 44.2582 50.3263 43.9871C50.3613 43.7159 50.3302 43.4403 50.2357 43.1837L48.125 37.419C48.0063 37.0909 47.7905 36.8068 47.5063 36.6043C47.219 36.404 46.8769 36.2972 46.5266 36.2984C46.1771 36.2957 45.8356 36.4023 45.5496 36.6032C45.2637 36.8041 45.0476 37.0893 44.9316 37.419L42.8313 43.1837C42.7392 43.4412 42.7098 43.717 42.7457 43.9881C42.7816 44.2592 42.8816 44.5179 43.0375 44.7426C43.1946 44.9659 43.4031 45.148 43.6454 45.2737C43.8877 45.3993 44.1568 45.4648 44.4297 45.4645H45.4094V46.9976C45.2704 47.086 45.1419 47.1898 45.0261 47.307L42.5494 49.7132L35.7999 42.2521L42.503 31.7832C42.6428 31.5696 42.8333 31.394 43.0575 31.2719C43.2817 31.1499 43.5327 31.0852 43.7879 31.0837C44.0432 31.0821 44.2949 31.1438 44.5205 31.2632C44.7462 31.3825 44.9388 31.5559 45.0811 31.7678L54.921 46.6951L52.8275 48.6407C52.6642 48.7916 52.5502 48.9882 52.5002 49.2048C52.4502 49.4215 52.4666 49.6482 52.5473 49.8554C52.628 50.0626 52.7692 50.2406 52.9525 50.3664C53.1359 50.4922 53.3529 50.5599 53.5752 50.5606C53.8513 50.561 54.1173 50.4565 54.3194 50.2684L57.0316 47.7865L57.0419 47.7779C57.0789 47.7517 57.1145 47.7236 57.1485 47.6937L60.0411 44.9901C60.1154 44.9209 60.2045 44.8694 60.3015 44.8397C60.3986 44.8099 60.5011 44.8026 60.6015 44.8182C60.7016 44.8322 60.7974 44.8681 60.8821 44.9234C60.9667 44.9786 61.0382 45.0519 61.0913 45.1379L67.681 55.8595V75.8073ZM50.5141 63.8895L51.8891 60.1237L53.2641 63.8895H50.5141ZM45.1654 43.2542L46.5404 39.4884L47.9154 43.2542H45.1654Z" fill="#201F3B"/>
<path d="M70.5065 42.9292H66.5689C66.2758 42.9292 65.9947 42.8128 65.7874 42.6055C65.5802 42.3982 65.4637 42.1171 65.4637 41.824C65.4637 41.5309 65.5802 41.2498 65.7874 41.0426C65.9947 40.8353 66.2758 40.7189 66.5689 40.7189H70.5065C70.7765 40.7135 71.0335 40.6025 71.2224 40.4096C71.4114 40.2168 71.5172 39.9576 71.5172 39.6876V39.4969C71.5206 39.3547 71.4954 39.2133 71.4432 39.081C71.3909 38.9487 71.3126 38.8283 71.2129 38.7269C71.1215 38.6328 71.0123 38.5579 70.8916 38.5065C70.7709 38.4552 70.6411 38.4284 70.51 38.4278L64.7453 38.414C64.3226 38.4136 63.9042 38.3289 63.5146 38.1648C63.1251 38.0007 62.7721 37.7606 62.4765 37.4584C62.0226 37.0035 61.7129 36.4248 61.5864 35.7947C61.4598 35.1646 61.522 34.5111 61.7652 33.9162C62.0083 33.3213 62.4216 32.8114 62.9532 32.4503C63.4849 32.0892 64.1112 31.893 64.7539 31.8862H64.7711L77.012 31.955C77.3051 31.955 77.5862 32.0714 77.7935 32.2787C78.0007 32.4859 78.1172 32.767 78.1172 33.0601C78.1172 33.3532 78.0007 33.6343 77.7935 33.8416C77.5862 34.0489 77.3051 34.1653 77.012 34.1653L64.7711 34.0965C64.4994 34.102 64.2408 34.2144 64.0515 34.4095C63.8623 34.6045 63.7577 34.8664 63.7604 35.1381C63.7582 35.28 63.784 35.421 63.8365 35.5529C63.889 35.6847 63.9672 35.8049 64.0664 35.9064C64.1579 35.9997 64.267 36.074 64.3873 36.1251C64.5077 36.1761 64.6369 36.2028 64.7676 36.2037L70.5323 36.2175C70.9558 36.218 71.375 36.303 71.7652 36.4677C72.1554 36.6324 72.5087 36.8734 72.8045 37.1765C73.1068 37.4857 73.3446 37.8519 73.5042 38.2538C73.6638 38.6556 73.7421 39.0852 73.7344 39.5175V39.7031C73.7272 40.5568 73.3847 41.3735 72.7809 41.977C72.1771 42.5805 71.3602 42.9225 70.5065 42.9292Z" fill="#201F3B"/>
<path d="M21.9001 71.9674L19.7998 66.1976C19.6831 65.8685 19.4668 65.584 19.181 65.3834C18.8951 65.1829 18.554 65.0764 18.2048 65.0786C17.8557 65.0773 17.5147 65.1842 17.2288 65.3845C16.9429 65.5849 16.726 65.8689 16.6081 66.1976L14.5095 71.964C14.4152 72.2208 14.3842 72.4967 14.4193 72.768C14.4544 73.0394 14.5545 73.2983 14.7111 73.5227C14.8677 73.7472 15.0761 73.9304 15.3187 74.057C15.5613 74.1836 15.8309 74.2498 16.1045 74.2499H17.0842L17.0997 77.0171H19.31L19.2945 74.2499H20.3C20.5733 74.2499 20.8426 74.1841 21.0851 74.058C21.3276 73.932 21.5362 73.7493 21.6931 73.5256C21.8501 73.3019 21.9509 73.0436 21.9869 72.7727C22.0229 72.5017 21.9932 72.2261 21.9001 71.9691V71.9674ZM16.8333 72.0379L18.2083 68.2721L19.5833 72.0379H16.8333Z" fill="#201F3B"/>
<path d="M62.8891 21.7181C61.6432 21.7181 60.4253 21.3486 59.3894 20.6565C58.3535 19.9643 57.5461 18.9805 57.0693 17.8295C56.5926 16.6784 56.4678 15.4119 56.7109 14.1899C56.9539 12.968 57.5539 11.8456 58.4348 10.9646C59.3158 10.0837 60.4382 9.48373 61.6601 9.24067C62.8821 8.99761 64.1486 9.12236 65.2997 9.59913C66.4507 10.0759 67.4345 10.8833 68.1267 11.9192C68.8188 12.9551 69.1883 14.173 69.1883 15.4188C69.186 17.0888 68.5216 18.6897 67.3408 19.8706C66.1599 21.0514 64.559 21.7158 62.8891 21.7181ZM62.8891 11.3299C62.0804 11.3299 61.2898 11.5698 60.6174 12.019C59.945 12.4683 59.4209 13.1069 59.1114 13.8541C58.8019 14.6012 58.721 15.4234 58.8787 16.2166C59.0365 17.0097 59.4259 17.7383 59.9978 18.3101C60.5696 18.882 61.2982 19.2714 62.0914 19.4292C62.8845 19.587 63.7067 19.506 64.4538 19.1965C65.201 18.887 65.8396 18.3629 66.2889 17.6905C66.7382 17.0181 66.978 16.2276 66.978 15.4188C66.9766 14.3348 66.5454 13.2956 65.7788 12.5291C65.0123 11.7625 63.9731 11.3313 62.8891 11.3299Z" fill="#201F3B"/>
<path d="M62.8888 27.3454C62.7437 27.3454 62.6 27.3168 62.4659 27.2613C62.3318 27.2057 62.21 27.1243 62.1074 27.0217C62.0048 26.9191 61.9234 26.7973 61.8678 26.6632C61.8123 26.5291 61.7837 26.3854 61.7837 26.2402V24.3359C61.7837 24.0428 61.9001 23.7617 62.1074 23.5544C62.3146 23.3471 62.5957 23.2307 62.8888 23.2307C63.182 23.2307 63.4631 23.3471 63.6703 23.5544C63.8776 23.7617 63.994 24.0428 63.994 24.3359V26.2402C63.994 26.5333 63.8776 26.8144 63.6703 27.0217C63.4631 27.229 63.182 27.3454 62.8888 27.3454Z" fill="#201F3B"/>
<path d="M62.8888 7.20331C62.7437 7.20331 62.6 7.17472 62.4659 7.11919C62.3318 7.06365 62.21 6.98224 62.1074 6.87962C62.0048 6.77699 61.9234 6.65516 61.8678 6.52108C61.8123 6.387 61.7837 6.24329 61.7837 6.09815V4.19378C61.7837 3.90067 61.9001 3.61957 62.1074 3.41232C62.3146 3.20506 62.5957 3.08862 62.8888 3.08862C63.182 3.08862 63.4631 3.20506 63.6703 3.41232C63.8776 3.61957 63.994 3.90067 63.994 4.19378V6.09815C63.994 6.39126 63.8776 6.67236 63.6703 6.87962C63.4631 7.08687 63.182 7.20331 62.8888 7.20331Z" fill="#201F3B"/>
<path d="M53.969 16.524H52.068C51.7749 16.524 51.4938 16.4076 51.2866 16.2003C51.0793 15.9931 50.9629 15.712 50.9629 15.4189C50.9629 15.1258 51.0793 14.8447 51.2866 14.6374C51.4938 14.4302 51.7749 14.3137 52.068 14.3137H53.969C54.2621 14.3137 54.5432 14.4302 54.7504 14.6374C54.9577 14.8447 55.0741 15.1258 55.0741 15.4189C55.0741 15.712 54.9577 15.9931 54.7504 16.2003C54.5432 16.4076 54.2621 16.524 53.969 16.524Z" fill="#201F3B"/>
<path d="M56.5828 9.8141C56.4376 9.81453 56.2937 9.7862 56.1595 9.73074C56.0253 9.67528 55.9034 9.59379 55.8008 9.49098L54.455 8.1452C54.2476 7.93802 54.131 7.65693 54.1309 7.36377C54.1307 7.07061 54.247 6.7894 54.4542 6.58199C54.6614 6.37459 54.9424 6.25797 55.2356 6.25781C55.5288 6.25765 55.81 6.37395 56.0174 6.58113L57.3649 7.92863C57.5209 8.08301 57.6273 8.28033 57.6708 8.49545C57.7142 8.71057 57.6926 8.93374 57.6087 9.13653C57.5248 9.33933 57.3825 9.51255 57.1998 9.63414C57.0171 9.75573 56.8023 9.82017 56.5828 9.81926V9.8141Z" fill="#201F3B"/>
<path d="M55.2372 24.1758C55.0177 24.1767 54.803 24.1123 54.6203 23.9907C54.4376 23.8691 54.2952 23.6959 54.2114 23.4931C54.1275 23.2903 54.1059 23.0671 54.1493 22.852C54.1927 22.6369 54.2992 22.4396 54.4552 22.2852L55.801 20.9394C56.0081 20.732 56.2892 20.6154 56.5824 20.6152C56.8755 20.6151 57.1567 20.7314 57.3642 20.9386C57.5716 21.1457 57.6882 21.4268 57.6883 21.72C57.6885 22.0131 57.5722 22.2944 57.365 22.5018L56.0175 23.8475C55.9157 23.9512 55.7943 24.0337 55.6603 24.09C55.5264 24.1464 55.3825 24.1755 55.2372 24.1758Z" fill="#201F3B"/>
</g>
</svg>
