<svg width="88" height="88" viewBox="0 0 88 88" fill="none" xmlns="http://www.w3.org/2000/svg">
<g opacity="0.3">
<path d="M36.9203 14.7813V19.9066H33.9727V14.7813C33.9857 14.3991 34.1467 14.037 34.4217 13.7712C34.6966 13.5055 35.0641 13.3569 35.4465 13.3569C35.8289 13.3569 36.1963 13.5055 36.4713 13.7712C36.7463 14.037 36.9073 14.3991 36.9203 14.7813Z" fill="#201F3B"/>
<path d="M36.9203 22.1221V36.4272L33.9727 36.4375V22.1221H36.9203Z" fill="#201F3B"/>
<path d="M36.9203 43.8469V60.3332H33.9727V43.859L36.9203 43.8469Z" fill="#201F3B"/>
<path d="M62.4181 63.58V50.6894C62.4181 50.4486 62.3706 50.2103 62.2782 49.9879C62.1859 49.7656 62.0506 49.5637 61.88 49.3938C61.7095 49.2239 61.5071 49.0893 61.2844 48.9978C61.0617 48.9063 60.8232 48.8597 60.5825 48.8606L30.1915 48.9706C29.6124 48.9711 29.0567 49.1995 28.6446 49.6065L20.8329 57.3117C20.7837 57.3615 20.7452 57.4208 20.7197 57.4859C20.6941 57.5511 20.6821 57.6207 20.6843 57.6907C20.6866 57.7606 20.7031 57.8294 20.7327 57.8928C20.7624 57.9562 20.8047 58.0128 20.857 58.0594L28.6687 64.8656C29.0707 65.216 29.5861 65.4089 30.1193 65.4087H60.5893C60.8295 65.4087 61.0673 65.3614 61.2892 65.2695C61.511 65.1776 61.7126 65.0429 61.8825 64.8731C62.0523 64.7033 62.187 64.5017 62.2789 64.2798C62.3708 64.0579 62.4181 63.8201 62.4181 63.58Z" fill="#91FFC5"/>
<path d="M28.7563 19.6366V32.5273C28.7563 32.7682 28.8039 33.0068 28.8963 33.2293C28.9888 33.4519 29.1242 33.654 29.2949 33.824C29.4656 33.9941 29.6682 34.1288 29.8911 34.2204C30.114 34.312 30.3527 34.3586 30.5937 34.3577L60.9829 34.2477C61.5621 34.2473 62.1178 34.0188 62.5298 33.6118L70.3415 25.9066C70.3907 25.8568 70.4292 25.7976 70.4548 25.7324C70.4803 25.6673 70.4923 25.5976 70.4901 25.5276C70.4878 25.4577 70.4714 25.3889 70.4417 25.3255C70.412 25.2622 70.3697 25.2055 70.3174 25.159L62.5126 18.351C62.1106 18.0006 61.5953 17.8077 61.062 17.8079H30.5937C30.3528 17.8067 30.1141 17.8532 29.8912 17.9446C29.6684 18.036 29.4657 18.1705 29.295 18.3405C29.1243 18.5104 28.9888 18.7124 28.8964 18.9348C28.8039 19.1572 28.7563 19.3958 28.7563 19.6366Z" fill="#91FFC5"/>
<path d="M67.6894 27.5377L59.8828 20.7297C59.2815 20.2021 58.5086 19.9113 57.7086 19.9116H27.2386C26.4603 19.913 25.7142 20.2227 25.1637 20.7728C24.6132 21.323 24.3031 22.0689 24.3013 22.8472V35.7379C24.3044 36.5156 24.615 37.2605 25.1653 37.8102C25.7156 38.3598 26.4609 38.6695 27.2386 38.6718H27.2489L33.9727 38.646V43.8538L36.9203 43.8435V38.6374L57.6399 38.5635C58.5062 38.5608 59.3369 38.2183 59.9533 37.6096L67.7633 29.9062C67.9211 29.7499 68.045 29.5629 68.1272 29.3567C68.2095 29.1504 68.2484 28.9295 68.2415 28.7076C68.2345 28.4856 68.1819 28.2675 68.0869 28.0668C67.9919 27.8662 67.8566 27.6872 67.6894 27.5412V27.5377ZM58.3978 36.0369C58.193 36.2379 57.9181 36.3513 57.6313 36.3532L36.9203 36.4271L33.9727 36.4391L27.2386 36.4649C27.0463 36.4631 26.8625 36.3859 26.7265 36.25C26.5905 36.114 26.5134 35.9301 26.5116 35.7379V22.8472C26.5125 22.6549 26.5894 22.4706 26.7256 22.3348C26.8618 22.1989 27.0462 22.1224 27.2386 22.1219H57.7086C57.9747 22.1211 58.2317 22.2184 58.4305 22.3952L65.7558 28.7787L58.3978 36.0369Z" fill="#201F3B"/>
<path d="M33.9727 43.8572V46.0624L36.9203 46.0504V43.8469L33.9727 43.8572Z" fill="#201F3B"/>
<path d="M57.7501 46.7174V59.608C57.7487 60.3865 57.4388 61.1326 56.8882 61.6829C56.3375 62.2332 55.5912 62.5427 54.8128 62.5436H36.9206V79.4613C36.9075 79.8435 36.7465 80.2056 36.4715 80.4714C36.1966 80.7371 35.8291 80.8856 35.4467 80.8856C35.0643 80.8856 34.6969 80.7371 34.4219 80.4714C34.147 80.2056 33.986 79.8435 33.9729 79.4613V62.5436H24.3359C23.5359 62.5439 22.763 62.2531 22.1617 61.7255L14.3551 54.9175C14.1879 54.7715 14.0525 54.5925 13.9576 54.3919C13.8626 54.1912 13.81 53.9731 13.803 53.7511C13.7961 53.5292 13.835 53.3083 13.9173 53.102C13.9995 52.8958 14.1234 52.7088 14.2812 52.5525L22.0912 44.8457C22.708 44.2365 23.5394 43.894 24.4064 43.8918L33.9746 43.8574V46.0625L24.4149 46.0952C24.1277 46.0953 23.8521 46.209 23.6484 46.4115L16.2887 53.6732L23.614 60.06C23.814 60.2349 24.0702 60.332 24.3359 60.3333H54.8059C54.9981 60.3329 55.1823 60.2563 55.3183 60.1204C55.4542 59.9845 55.5307 59.8002 55.5312 59.608V46.7174C55.5307 46.5252 55.4542 46.3409 55.3183 46.205C55.1823 46.0691 54.9981 45.9925 54.8059 45.9921L36.9206 46.0625V43.8471L54.7956 43.78H54.8059C55.1923 43.7787 55.5752 43.8537 55.9326 44.0007C56.29 44.1478 56.6148 44.364 56.8884 44.6369C57.1619 44.9099 57.3789 45.2342 57.5268 45.5912C57.6747 45.9482 57.7506 46.3309 57.7501 46.7174Z" fill="#201F3B"/>
<path d="M17.4919 77.2354C17.1988 77.2354 16.9177 77.119 16.7104 76.9117C16.5032 76.7044 16.3867 76.4233 16.3867 76.1302V70.4687C16.3867 70.1756 16.5032 69.8945 16.7104 69.6872C16.9177 69.48 17.1988 69.3635 17.4919 69.3635C17.785 69.3635 18.0661 69.48 18.2733 69.6872C18.4806 69.8945 18.597 70.1756 18.597 70.4687V76.1406C18.5943 76.4319 18.4767 76.7103 18.2697 76.9154C18.0628 77.1204 17.7832 77.2354 17.4919 77.2354Z" fill="#EBEBEB"/>
<path d="M20.3244 74.4029H14.6525C14.3594 74.4029 14.0783 74.2865 13.8711 74.0792C13.6638 73.872 13.5474 73.5909 13.5474 73.2978C13.5474 73.0047 13.6638 72.7236 13.8711 72.5163C14.0783 72.3091 14.3594 72.1926 14.6525 72.1926H20.3244C20.6175 72.1926 20.8986 72.3091 21.1059 72.5163C21.3131 72.7236 21.4296 73.0047 21.4296 73.2978C21.4296 73.5909 21.3131 73.872 21.1059 74.0792C20.8986 74.2865 20.6175 74.4029 20.3244 74.4029Z" fill="#EBEBEB"/>
<path d="M67.7035 12.1894C67.0533 12.1905 66.4175 11.9986 65.8764 11.6381C65.3353 11.2776 64.9133 10.7648 64.6637 10.1644C64.4142 9.56397 64.3484 8.90305 64.4746 8.26524C64.6008 7.62743 64.9134 7.0414 65.3728 6.58129C65.8322 6.12118 66.4177 5.80769 67.0553 5.68047C67.693 5.55325 68.354 5.61803 68.9548 5.8666C69.5555 6.11518 70.0691 6.53638 70.4304 7.07691C70.7917 7.61745 70.9846 8.25301 70.9846 8.90319C70.9837 9.77359 70.6379 10.6082 70.0229 11.2241C69.4079 11.84 68.5739 12.1872 67.7035 12.1894ZM67.7035 7.82725C67.4907 7.82725 67.2827 7.89036 67.1058 8.00858C66.9288 8.12681 66.7909 8.29485 66.7095 8.49145C66.628 8.68805 66.6067 8.90438 66.6483 9.1131C66.6898 9.32181 66.7922 9.51352 66.9427 9.66399C67.0932 9.81447 67.2849 9.91694 67.4936 9.95845C67.7023 9.99997 67.9187 9.97866 68.1153 9.89723C68.3119 9.81579 68.4799 9.67789 68.5981 9.50095C68.7163 9.32401 68.7795 9.11599 68.7795 8.90319C68.779 8.61797 68.6655 8.34457 68.4638 8.14289C68.2621 7.94121 67.9887 7.82771 67.7035 7.82725Z" fill="#91FFC5"/>
</g>
</svg>
