<svg width="73" height="98" viewBox="0 0 73 98" fill="none" xmlns="http://www.w3.org/2000/svg">
<g opacity="0.3">
<path d="M66.7295 58.017L42.5167 57.8811C42.576 57.7353 42.6065 57.5793 42.6066 57.4218C42.4953 52.4646 40.4478 47.7479 36.9025 44.2813C33.3572 40.8148 28.5958 38.8738 23.6373 38.8738C18.6789 38.8738 13.9174 40.8148 10.3721 44.2813C6.8268 47.7479 4.77935 52.4646 4.668 57.4218C4.66763 57.5035 4.67597 57.5849 4.69289 57.6649L-17.9179 57.5366C-18.08 57.5354 -18.2407 57.5661 -18.3908 57.627C-18.541 57.6879 -18.6777 57.7778 -18.793 57.8916C-18.9084 58.0053 -19.0002 58.1407 -19.0632 58.29C-19.1262 58.4393 -19.1592 58.5996 -19.1602 58.7616C-19.1602 58.9227 -19.1284 59.0823 -19.0668 59.2311C-19.0051 59.38 -18.9147 59.5152 -18.8008 59.6292C-18.6869 59.7431 -18.5516 59.8335 -18.4028 59.8951C-18.2539 59.9568 -18.0944 59.9885 -17.9332 59.9885L66.7181 60.4843C67.0428 60.4843 67.3543 60.3555 67.5843 60.1263C67.8143 59.897 67.944 59.5859 67.945 59.2612C67.947 59.0996 67.9172 58.9393 67.8571 58.7893C67.7971 58.6393 67.7081 58.5027 67.5952 58.3871C67.4824 58.2715 67.3478 58.1794 67.1992 58.1159C67.0507 58.0524 66.8911 58.0188 66.7295 58.017ZM7.09312 57.6802C7.11347 57.5956 7.12312 57.5088 7.12183 57.4218C7.16865 53.0734 8.92888 48.919 12.0203 45.8607C15.1118 42.8023 19.2849 41.0869 23.6335 41.0869C27.9821 41.0869 32.1552 42.8023 35.2466 45.8607C38.3381 48.919 40.0983 53.0734 40.1451 57.4218C40.1445 57.5736 40.1725 57.7243 40.2274 57.8658L7.09312 57.6802Z" fill="#201F3B"/>
<path d="M50.7394 84.3067C56.562 84.3067 61.2821 79.5866 61.2821 73.7641C61.2821 67.9415 56.562 63.2214 50.7394 63.2214C44.9169 63.2214 40.1968 67.9415 40.1968 73.7641C40.1968 79.5866 44.9169 84.3067 50.7394 84.3067Z" fill="#91FFC5"/>
<path d="M30.2456 68.2746L-8.28066 68.0353C-8.60492 68.0308 -8.91433 67.8986 -9.14184 67.6675C-9.36935 67.4365 -9.49663 67.125 -9.49609 66.8007C-9.49357 66.4758 -9.36285 66.165 -9.13237 65.936C-8.90189 65.7069 -8.59029 65.5781 -8.26535 65.5776L30.2532 65.8169C30.5785 65.8184 30.8899 65.9488 31.1191 66.1795C31.3484 66.4102 31.4768 66.7224 31.4763 67.0476C31.4753 67.3734 31.3452 67.6854 31.1145 67.9154C30.8838 68.1454 30.5713 68.2746 30.2456 68.2746Z" fill="#201F3B"/>
<path d="M46.6778 76.6026L-0.691463 76.371C-1.01688 76.369 -1.32825 76.2382 -1.55746 76.0072C-1.78667 75.7762 -1.91506 75.4638 -1.91455 75.1384C-1.91405 74.9767 -1.88164 74.8166 -1.81918 74.6675C-1.75673 74.5184 -1.66545 74.383 -1.55058 74.2692C-1.43571 74.1554 -1.29951 74.0654 -1.14978 74.0043C-1.00006 73.9433 -0.839759 73.9123 -0.678065 73.9134L46.6892 74.1545C47.0147 74.156 47.3262 74.2864 47.5558 74.517C47.7854 74.7477 47.9142 75.0598 47.9142 75.3853C47.9102 75.7102 47.778 76.0204 47.5465 76.2484C47.3149 76.4763 47.0027 76.6036 46.6778 76.6026Z" fill="#201F3B"/>
<path d="M22.9931 85.7041H22.972L9.36496 85.4649C9.04221 85.4594 8.73455 85.3273 8.50828 85.097C8.282 84.8668 8.15523 84.5569 8.15527 84.2341V84.2188C8.16231 83.8929 8.29779 83.5829 8.53223 83.3564C8.76666 83.1298 9.08108 83.005 9.40707 83.0091L23.0141 83.2484C23.3369 83.2539 23.6446 83.386 23.8708 83.6162C24.0971 83.8464 24.2239 84.1563 24.2238 84.4791V84.5021C24.2163 84.8235 24.0834 85.1292 23.8534 85.3539C23.6234 85.5785 23.3146 85.7042 22.9931 85.7041Z" fill="#201F3B"/>
<path d="M36.9143 85.7042H31.555C31.2285 85.7042 30.9155 85.5745 30.6847 85.3437C30.4539 85.1129 30.3242 84.7998 30.3242 84.4734C30.3242 84.147 30.4539 83.834 30.6847 83.6032C30.9155 83.3723 31.2285 83.2427 31.555 83.2427H36.9143C37.2407 83.2427 37.5538 83.3723 37.7846 83.6032C38.0154 83.834 38.1451 84.147 38.1451 84.4734C38.1451 84.7998 38.0154 85.1129 37.7846 85.3437C37.5538 85.5745 37.2407 85.7042 36.9143 85.7042Z" fill="#201F3B"/>
<path d="M38.8607 68.2075C38.5358 68.2075 38.2241 68.0789 37.9938 67.8497C37.7635 67.6204 37.6334 67.3094 37.6318 66.9844C37.6313 66.6595 37.7595 66.3476 37.9884 66.117C38.2172 65.8864 38.5281 65.7557 38.853 65.7537L54.4832 65.6484H54.4928C54.8176 65.6484 55.1292 65.7768 55.3597 66.0055C55.5903 66.2343 55.721 66.5449 55.7236 66.8696C55.7236 67.1949 55.595 67.507 55.3659 67.7379C55.1368 67.9688 54.8257 68.0997 54.5005 68.1023L38.8702 68.2075H38.8607Z" fill="#201F3B"/>
<path d="M5.3013 41.5465C5.08808 41.5469 4.87843 41.4919 4.69288 41.3869C4.50733 41.2819 4.35224 41.1304 4.24282 40.9474C3.73559 40.0995 3.0829 39.6076 2.45125 39.5942C1.81961 39.5808 1.21668 40.0076 0.703715 40.7924L0.577389 40.9838C0.466607 41.1539 0.315487 41.2939 0.13749 41.3914C-0.0405073 41.4889 -0.239857 41.5409 -0.442807 41.5427H-0.452378C-0.653798 41.5429 -0.852189 41.4937 -1.03009 41.3992C-1.20799 41.3048 -1.35994 41.168 -1.47257 41.001C-2.04679 40.1416 -2.76074 39.6612 -3.4632 39.6363C-4.13503 39.6152 -4.80304 40.0191 -5.37726 40.7713L-5.49402 40.9245C-5.59217 41.0534 -5.71477 41.1618 -5.8548 41.2433C-5.99483 41.3249 -6.14955 41.3781 -6.31014 41.3999C-6.47072 41.4216 -6.63402 41.4116 -6.79072 41.3702C-6.94741 41.3289 -7.09443 41.2571 -7.22337 41.1589C-7.35232 41.0608 -7.46067 40.9382 -7.54224 40.7982C-7.62381 40.6581 -7.677 40.5034 -7.69877 40.3428C-7.72055 40.1822 -7.71047 40.0189 -7.66914 39.8622C-7.6278 39.7056 -7.556 39.5585 -7.45785 39.4296L-7.34109 39.2784C-6.26921 37.8792 -4.86621 37.1308 -3.39046 37.1729C-2.31199 37.2227 -1.28688 37.6565 -0.500229 38.396C0.366841 37.5615 1.41383 37.1059 2.49337 37.1327C3.99399 37.1633 5.39891 38.0897 6.3502 39.6842C6.43318 39.8229 6.48801 39.9766 6.51157 40.1366C6.53512 40.2965 6.52693 40.4595 6.48747 40.6163C6.44801 40.7731 6.37805 40.9205 6.28159 41.0503C6.18513 41.18 6.06405 41.2894 5.92528 41.3724C5.73684 41.4857 5.5212 41.5459 5.3013 41.5465Z" fill="#201F3B"/>
<path d="M16.8241 33.5249C16.611 33.5248 16.4017 33.4691 16.2168 33.3634C16.0318 33.2576 15.8776 33.1055 15.7694 32.922C15.2622 32.074 14.6095 31.5821 13.976 31.5687C13.3424 31.5553 12.7433 31.9821 12.2284 32.7669L12.104 32.9583C11.9932 33.1287 11.8419 33.2689 11.6637 33.3665C11.4855 33.4642 11.2859 33.5162 11.0827 33.5179C10.8795 33.5196 10.679 33.4709 10.4992 33.3763C10.3194 33.2817 10.1658 33.144 10.0521 32.9755C9.47792 32.1161 8.76589 31.6357 8.06151 31.6108C7.38776 31.5955 6.72167 31.9936 6.14745 32.7459L6.03069 32.899C5.83221 33.1581 5.5389 33.3278 5.2153 33.3707C4.8917 33.4136 4.56432 33.3262 4.30517 33.1277C4.04601 32.9292 3.87633 32.6359 3.83343 32.3123C3.79054 31.9887 3.87795 31.6613 4.07644 31.4022L4.19319 31.2491C5.26316 29.8518 6.66042 29.1091 8.1419 29.1436C9.22215 29.1907 10.25 29.6225 11.0398 30.3609C11.4302 29.9626 11.8959 29.6458 12.4098 29.4289C12.9237 29.2121 13.4756 29.0995 14.0334 29.0977C15.5321 29.1283 16.9389 30.0547 17.8902 31.6491C18.0019 31.8359 18.0621 32.049 18.0646 32.2667C18.0671 32.4843 18.0118 32.6987 17.9044 32.888C17.797 33.0774 17.6413 33.2348 17.4532 33.3443C17.2651 33.4539 17.0513 33.5115 16.8337 33.5115L16.8241 33.5249Z" fill="#201F3B"/>
<path d="M67.9547 18.6048C67.9547 17.925 67.4036 17.374 66.7239 17.374C66.0442 17.374 65.4932 17.925 65.4932 18.6048V25.3595C65.4932 26.0392 66.0442 26.5902 66.7239 26.5902C67.4036 26.5902 67.9547 26.0392 67.9547 25.3595V18.6048Z" fill="#EBEBEB"/>
<path d="M70.1002 23.2137H63.3455C63.0191 23.2137 62.706 23.084 62.4752 22.8532C62.2444 22.6224 62.1147 22.3094 62.1147 21.9829C62.1147 21.6565 62.2444 21.3435 62.4752 21.1127C62.706 20.8819 63.0191 20.7522 63.3455 20.7522H70.1002C70.4266 20.7522 70.7397 20.8819 70.9705 21.1127C71.2013 21.3435 71.331 21.6565 71.331 21.9829C71.331 22.3094 71.2013 22.6224 70.9705 22.8532C70.7397 23.084 70.4266 23.2137 70.1002 23.2137Z" fill="#EBEBEB"/>
<path d="M12.4277 16.8533C12.2523 16.8534 12.077 16.8413 11.9033 16.8169C10.9202 16.6804 10.0286 16.1675 9.4164 15.3862C8.80426 14.605 8.51946 13.6165 8.6221 12.6293C8.72473 11.6421 9.20676 10.7334 9.96652 10.0947C10.7263 9.45612 11.7044 9.13754 12.6945 9.2062C13.6847 9.27486 14.6094 9.72539 15.2738 10.4628C15.9381 11.2001 16.2901 12.1667 16.2555 13.1586C16.2209 14.1505 15.8024 15.0902 15.0883 15.7795C14.3742 16.4688 13.4202 16.8538 12.4277 16.8533ZM12.4277 11.6528C12.0972 11.6534 11.778 11.7734 11.5289 11.9908C11.2799 12.2081 11.1178 12.5082 11.0726 12.8357C11.0337 13.104 11.0755 13.3779 11.1925 13.6225C11.3096 13.8671 11.4966 14.0715 11.73 14.2096C11.9634 14.3477 12.2325 14.4133 12.5033 14.3982C12.774 14.3831 13.0342 14.2879 13.2507 14.1247C13.4673 13.9615 13.6305 13.7376 13.7196 13.4815C13.8087 13.2253 13.8197 12.9485 13.7512 12.6861C13.6827 12.4238 13.5378 12.1876 13.3349 12.0077C13.132 11.8278 12.8802 11.7123 12.6115 11.6757C12.5496 11.6633 12.4869 11.6556 12.4239 11.6528H12.4277Z" fill="#91FFC5"/>
</g>
</svg>
