<svg width="88" height="88" viewBox="0 0 88 88" fill="none" xmlns="http://www.w3.org/2000/svg">
<path d="M13.9819 48.5513C13.6081 48.551 13.2454 48.4244 12.9525 48.1921C12.6597 47.9598 12.4539 47.6354 12.3685 47.2715C12.2832 46.9076 12.3232 46.5255 12.4823 46.1872C12.6413 45.8489 12.9099 45.5742 13.2446 45.4077L21.9861 41.0782C22.3802 40.8829 22.8357 40.8522 23.2525 40.9927C23.6692 41.1332 24.0131 41.4335 24.2085 41.8276C24.3223 42.056 24.3812 42.3079 24.3804 42.5632C24.3804 42.872 24.2942 43.1746 24.1314 43.437C23.9687 43.6994 23.7358 43.9111 23.4591 44.0482L14.7176 48.3777C14.4893 48.4923 14.2373 48.5518 13.9819 48.5513Z" fill="#91FFC5"/>
<path d="M51.0195 45.325C50.0762 45.7808 49.3291 46.5616 48.9151 47.5239C48.5012 48.4862 48.4483 49.5656 48.7662 50.5638L54.866 69.7399C56.2204 73.9972 61.7273 74.1794 62.4715 69.9925L66.172 45.5657C66.29 44.7833 66.1925 43.9836 65.8899 43.2525C65.5874 42.5214 65.0913 41.8867 64.4549 41.4165C63.8186 40.9463 63.0661 40.6585 62.2784 40.584C61.4907 40.5095 60.6976 40.6512 59.9845 40.9938L51.0195 45.325Z" fill="#91FFC5"/>
<path d="M77.287 22.4848C74.6573 17.2237 68.0332 15.1835 62.5143 17.9387L27.4896 35.4338L22.122 29.8599C20.6782 28.3562 18.7432 27.4197 16.6681 27.2204C14.593 27.0212 12.5152 27.5723 10.8116 28.7738C9.108 29.9752 7.89148 31.7476 7.38271 33.7692C6.87393 35.7908 7.10661 37.9278 8.03852 39.7926L11.5413 46.8102L13.8702 51.4715L14.7434 53.2212C16.6546 57.0454 20.5871 59.2368 24.7568 59.2368C26.6266 59.2336 28.47 58.7958 30.1416 57.958L43.1904 51.4371L47.7932 65.8969C48.5701 68.3324 50.6773 69.9652 52.9976 69.9652C53.1059 69.9652 53.2159 69.9652 53.3259 69.9532C55.4846 69.8105 57.1398 68.2619 57.5402 66.0087L61.7838 42.1507L72.0482 37.0254C77.5637 34.2702 79.9218 27.7459 77.287 22.4848ZM71.0616 35.0471L62.2668 39.4385L63.4218 33.0001C63.4472 32.8571 63.4442 32.7105 63.4129 32.5687C63.3817 32.4269 63.3228 32.2926 63.2396 32.1735C63.1565 32.0545 63.0507 31.9529 62.9283 31.8748C62.8059 31.7966 62.6693 31.7433 62.5263 31.7179C62.3833 31.6925 62.2368 31.6955 62.0949 31.7268C61.9531 31.758 61.8188 31.8169 61.6998 31.9001C61.5807 31.9832 61.4792 32.089 61.401 32.2114C61.3228 32.3338 61.2695 32.4704 61.2441 32.6133L55.3626 65.6219C55.0429 67.4301 53.728 67.7102 53.178 67.7463C51.9749 67.8237 50.4899 67.0794 49.9004 65.2266L42.6576 42.4532C42.5687 42.1738 42.3724 41.9411 42.112 41.8064C41.8516 41.6716 41.5483 41.6459 41.2688 41.7348C40.9894 41.8236 40.7567 42.0199 40.622 42.2803C40.4873 42.5408 40.4615 42.8441 40.5504 43.1235L42.5166 49.311L29.1551 55.9798C24.4904 58.3087 18.9165 56.6243 16.7216 52.2329L15.852 50.4952C15.852 50.4952 15.852 50.4866 15.852 50.4832L13.5196 45.8237L10.0116 38.8043C9.31828 37.4122 9.14645 35.8177 9.52727 34.3099C9.90809 32.802 10.8164 31.4803 12.0876 30.5844C13.3588 29.6884 14.9089 29.2774 16.457 29.4257C18.0052 29.5741 19.449 30.272 20.527 31.393L30.0282 41.2587C30.232 41.4702 30.5114 41.5921 30.805 41.5976C31.0987 41.603 31.3825 41.4916 31.594 41.2879C31.8055 41.0841 31.9274 40.8047 31.9329 40.511C31.9384 40.2174 31.827 39.9336 31.6232 39.7221L29.1001 37.1027L63.5009 19.9152C66.6548 18.3374 70.2504 18.6949 72.8113 20.5409L66.9676 23.4627C66.7729 23.56 66.5993 23.6947 66.4567 23.8591C66.314 24.0234 66.2052 24.2143 66.1363 24.4207C66.0675 24.6272 66.0399 24.8452 66.0553 25.0622C66.0707 25.2793 66.1287 25.4913 66.2259 25.6859C66.3232 25.8806 66.4579 26.0542 66.6223 26.1968C66.7866 26.3395 66.9775 26.4483 67.1839 26.5172C67.3904 26.5861 67.6084 26.6136 67.8255 26.5982C68.0425 26.5828 68.2545 26.5248 68.4491 26.4276L75.1093 23.1001C75.1832 23.2221 75.2502 23.3458 75.3121 23.4713C77.3935 27.6427 75.4857 32.8368 71.0616 35.0471Z" fill="#201F3B"/>
<path d="M37.0375 41.3394C37.8329 41.3394 38.4778 40.6945 38.4778 39.8991C38.4778 39.1036 37.8329 38.4587 37.0375 38.4587C36.242 38.4587 35.5972 39.1036 35.5972 39.8991C35.5972 40.6945 36.242 41.3394 37.0375 41.3394Z" fill="#201F3B"/>
<path d="M42.7108 38.5051C43.5063 38.5051 44.1511 37.8603 44.1511 37.0648C44.1511 36.2694 43.5063 35.6245 42.7108 35.6245C41.9154 35.6245 41.2705 36.2694 41.2705 37.0648C41.2705 37.8603 41.9154 38.5051 42.7108 38.5051Z" fill="#201F3B"/>
<path d="M48.4032 35.6624C49.1987 35.6624 49.8435 35.0175 49.8435 34.2221C49.8435 33.4266 49.1987 32.7817 48.4032 32.7817C47.6077 32.7817 46.9629 33.4266 46.9629 34.2221C46.9629 35.0175 47.6077 35.6624 48.4032 35.6624Z" fill="#201F3B"/>
<path d="M54.077 32.8298C54.8725 32.8298 55.5173 32.185 55.5173 31.3895C55.5173 30.5941 54.8725 29.9492 54.077 29.9492C53.2816 29.9492 52.6367 30.5941 52.6367 31.3895C52.6367 32.185 53.2816 32.8298 54.077 32.8298Z" fill="#201F3B"/>
<path d="M64.9052 77.0001H29.7619C29.4688 77.0001 29.1877 76.8837 28.9804 76.6764C28.7732 76.4692 28.6567 76.1881 28.6567 75.8949C28.6567 75.6018 28.7732 75.3207 28.9804 75.1135C29.1877 74.9062 29.4688 74.7898 29.7619 74.7898H64.9052C65.1983 74.7898 65.4794 74.9062 65.6866 75.1135C65.8939 75.3207 66.0103 75.6018 66.0103 75.8949C66.0103 76.1881 65.8939 76.4692 65.6866 76.6764C65.4794 76.8837 65.1983 77.0001 64.9052 77.0001Z" fill="#201F3B"/>
<path d="M25.5096 77.0001H19.4304C19.1372 77.0001 18.8561 76.8837 18.6489 76.6764C18.4416 76.4692 18.3252 76.1881 18.3252 75.8949C18.3252 75.6018 18.4416 75.3207 18.6489 75.1135C18.8561 74.9062 19.1372 74.7898 19.4304 74.7898H25.5096C25.8027 74.7898 26.0838 74.9062 26.291 75.1135C26.4983 75.3207 26.6147 75.6018 26.6147 75.8949C26.6147 76.1881 26.4983 76.4692 26.291 76.6764C26.0838 76.8837 25.8027 77.0001 25.5096 77.0001Z" fill="#201F3B"/>
<path d="M32.3127 19.4459C32.3127 19.7392 32.1963 20.0205 31.9891 20.228C31.7819 20.4355 31.5008 20.5523 31.2075 20.5528H29.4836V22.2715C29.4836 22.5646 29.3672 22.8457 29.1599 23.053C28.9526 23.2603 28.6715 23.3767 28.3784 23.3767C28.0853 23.3767 27.8042 23.2603 27.597 23.053C27.3897 22.8457 27.2733 22.5646 27.2733 22.2715V20.5528H25.5442C25.2584 20.5415 24.9881 20.4201 24.7899 20.2139C24.5917 20.0077 24.481 19.7328 24.481 19.4468C24.481 19.1608 24.5917 18.8858 24.7899 18.6797C24.9881 18.4735 25.2584 18.352 25.5442 18.3408H27.2733V16.622C27.2733 16.3289 27.3897 16.0478 27.597 15.8405C27.8042 15.6333 28.0853 15.5168 28.3784 15.5168C28.6715 15.5168 28.9526 15.6333 29.1599 15.8405C29.3672 16.0478 29.4836 16.3289 29.4836 16.622V18.3408H31.2109C31.5035 18.3417 31.7837 18.4585 31.9902 18.6657C32.1967 18.8728 32.3127 19.1534 32.3127 19.4459Z" fill="#EBEBEB"/>
<path d="M74.0782 62.6794C73.4283 62.6794 72.7929 62.4867 72.2525 62.1256C71.7121 61.7645 71.2909 61.2513 71.0421 60.6508C70.7934 60.0503 70.7283 59.3895 70.8551 58.7521C70.9819 58.1146 71.2949 57.529 71.7545 57.0695C72.2141 56.6099 72.7997 56.2969 73.4371 56.1701C74.0746 56.0433 74.7354 56.1084 75.3358 56.3571C75.9363 56.6058 76.4496 57.027 76.8107 57.5674C77.1718 58.1079 77.3645 58.7432 77.3645 59.3932C77.3631 60.2643 77.0165 61.0994 76.4005 61.7154C75.7845 62.3314 74.9494 62.6781 74.0782 62.6794ZM74.0782 58.3172C73.8654 58.3172 73.6574 58.3804 73.4805 58.4986C73.3035 58.6168 73.1656 58.7848 73.0842 58.9814C73.0028 59.178 72.9815 59.3944 73.023 59.6031C73.0645 59.8118 73.167 60.0035 73.3174 60.154C73.4679 60.3045 73.6596 60.4069 73.8683 60.4484C74.0771 60.49 74.2934 60.4687 74.49 60.3872C74.6866 60.3058 74.8546 60.1679 74.9729 59.9909C75.0911 59.814 75.1542 59.606 75.1542 59.3932C75.1537 59.108 75.0402 58.8346 74.8385 58.6329C74.6369 58.4312 74.3635 58.3177 74.0782 58.3172Z" fill="#91FFC5"/>
<path d="M40.1964 65.5807C40.1959 65.8737 40.0793 66.1545 39.8722 66.3617C39.665 66.5688 39.3842 66.6854 39.0912 66.6859H37.3622V68.4063C37.3622 68.6995 37.2457 68.9806 37.0385 69.1878C36.8312 69.3951 36.5501 69.5115 36.257 69.5115C35.9639 69.5115 35.6828 69.3951 35.4755 69.1878C35.2683 68.9806 35.1518 68.6995 35.1518 68.4063V66.6876H33.4245C33.1314 66.6876 32.8503 66.5712 32.643 66.3639C32.4358 66.1566 32.3193 65.8755 32.3193 65.5824C32.3193 65.2893 32.4358 65.0082 32.643 64.801C32.8503 64.5937 33.1314 64.4773 33.4245 64.4773H35.1518V62.7482C35.1518 62.4551 35.2683 62.174 35.4755 61.9668C35.6828 61.7595 35.9639 61.6431 36.257 61.6431C36.5501 61.6431 36.8312 61.7595 37.0385 61.9668C37.2457 62.174 37.3622 62.4551 37.3622 62.7482V64.4756H39.0912C39.3843 64.4756 39.6654 64.592 39.8727 64.7993C40.0799 65.0065 40.1964 65.2876 40.1964 65.5807Z" fill="#EBEBEB"/>
</svg>
