<svg width="68" height="68" viewBox="0 0 68 68" fill="none" xmlns="http://www.w3.org/2000/svg">
<path d="M58.3751 41.8584H17.8819C17.4345 41.8584 17.0718 42.2211 17.0718 42.6686V47.3621C17.0718 47.8096 17.4345 48.1723 17.8819 48.1723H58.3751C58.8226 48.1723 59.1853 47.8096 59.1853 47.3621V42.6686C59.1853 42.2211 58.8226 41.8584 58.3751 41.8584Z" fill="#91FFC5"/>
<path d="M65.9322 27.1456C65.6137 26.8247 65.2346 26.5704 64.8168 26.3975C64.3991 26.2247 63.9511 26.1367 63.499 26.1388H63.4725L61.6131 26.1508V24.9688C61.611 24.76 61.5271 24.5603 61.3793 24.4128C61.2315 24.2652 61.0317 24.1816 60.8229 24.1799H58.9874V22.0788C58.9874 19.4039 56.7296 17.2271 53.9591 17.2271H53.4013C53.4348 17.1284 53.451 17.0246 53.4491 16.9203C53.4442 16.6761 53.3426 16.4438 53.1665 16.2744C52.9905 16.1051 52.7544 16.0126 52.5101 16.0172L49.9455 16.0677C49.7013 16.0726 49.469 16.1742 49.2996 16.3503C49.1303 16.5263 49.0378 16.7624 49.0424 17.0067C49.0448 17.0811 49.0555 17.1551 49.0743 17.2271H44.649C44.5591 17.2284 44.4713 17.1999 44.3993 17.1461L40.9063 14.4766C40.5584 14.2121 40.1334 14.0689 39.6964 14.0688H30.0157C29.6916 14.0688 29.0342 14.1565 28.6105 14.4846L25.18 17.1408C25.1067 17.1964 25.0169 17.2258 24.925 17.2245H23.4468C23.4934 17.0856 23.5061 16.9376 23.4839 16.7928C23.4616 16.648 23.405 16.5106 23.3188 16.3922C23.2326 16.2738 23.1193 16.1777 22.9884 16.112C22.8575 16.0463 22.7127 16.0129 22.5662 16.0146L16.2311 16.065C16.11 16.0657 15.9902 16.0904 15.8787 16.1375C15.7672 16.1847 15.6661 16.2535 15.5813 16.3399C15.4965 16.4263 15.4296 16.5287 15.3845 16.6411C15.3395 16.7534 15.3171 16.8736 15.3186 16.9947C15.3178 17.0728 15.3281 17.1506 15.3492 17.2258H14.8047C12.0342 17.2258 9.78036 19.4026 9.78036 22.0774V24.14H7.92098C7.7124 24.1421 7.51294 24.2259 7.36544 24.3734C7.21794 24.5209 7.13415 24.7203 7.13208 24.9289V26.0658L4.81981 26.0525H4.79591C4.28944 26.0525 3.78795 26.1524 3.32013 26.3465C2.85232 26.5405 2.42737 26.8249 2.06962 27.1834C1.71186 27.5419 1.42833 27.9675 1.23524 28.4357C1.04215 28.9039 0.943296 29.4056 0.944344 29.9121L1.00013 55.0787C1.00468 56.3028 1.49317 57.4755 2.35903 58.3409C3.22489 59.2062 4.39785 59.6941 5.622 59.6979L37.2314 59.751C38.0818 59.7338 38.8915 59.384 39.4868 58.7765C40.0822 58.169 40.4156 57.3523 40.4156 56.5018C40.4156 55.6512 40.0822 54.8346 39.4868 54.2271C38.8915 53.6196 38.0818 53.2697 37.2314 53.2525H27.7579C27.375 53.2502 27.0082 53.0986 26.7353 52.83C26.4625 52.5614 26.3052 52.1969 26.2969 51.8142C26.2929 51.6198 26.3276 51.4265 26.3992 51.2457C26.4708 51.0649 26.5778 50.9002 26.7139 50.7613C26.8499 50.6224 27.0124 50.5121 27.1916 50.4367C27.3709 50.3614 27.5634 50.3226 27.7579 50.3227L61.4511 50.1832C62.8636 50.1698 64.2147 49.604 65.2153 48.6069C66.2159 47.6098 66.7864 46.2606 66.8047 44.8481L66.9375 29.6053C66.9425 29.1489 66.8561 28.6962 66.6834 28.2738C66.5107 27.8514 66.2553 27.4678 65.9322 27.1456ZM58.9874 25.7656H60.0393V28.1297H58.9874V25.7656ZM11.3582 22.0788C11.3582 20.2738 12.9054 18.8063 14.8113 18.8063H24.9303C25.3719 18.8063 25.8011 18.6602 26.1508 18.3906L29.5654 15.7436C29.7101 15.6837 29.8645 15.6509 30.021 15.6467H39.699C39.7901 15.6461 39.8787 15.6755 39.9514 15.7303L43.4457 18.4012C43.7953 18.6614 44.2198 18.8012 44.6556 18.7996H53.9658C55.8676 18.7996 57.4189 20.2672 57.4189 22.0721V24.1719H42.5917C41.5384 23.0508 40.2666 22.1573 38.8547 21.5465C37.4429 20.9357 35.9209 20.6206 34.3825 20.6206C32.8442 20.6206 31.3222 20.9357 29.9104 21.5465C28.4985 22.1573 27.2267 23.0508 26.1734 24.1719H21.1717V23.0058C21.1719 22.9022 21.1516 22.7995 21.112 22.7037C21.0724 22.6079 21.0143 22.5209 20.941 22.4476C20.8677 22.3743 20.7807 22.3162 20.6849 22.2766C20.5891 22.237 20.4864 22.2167 20.3828 22.2169H16.239C16.1354 22.2167 16.0327 22.237 15.9369 22.2766C15.8411 22.3162 15.7541 22.3743 15.6808 22.4476C15.6075 22.5209 15.5494 22.6079 15.5098 22.7037C15.4702 22.7995 15.45 22.9022 15.4501 23.0058V24.1294L11.3582 24.1719V22.0788ZM45.6623 31.9069C45.6638 29.7217 45.0263 27.5838 43.8282 25.7563H57.4083V39.5688H42.6528C44.5886 37.4867 45.6639 34.7486 45.6623 31.9056V31.9069ZM34.3839 41.3446C32.5169 41.3451 30.6917 40.7919 29.1391 39.7551C27.5866 38.7182 26.3763 37.2443 25.6615 35.5196C24.9467 33.7948 24.7594 31.8969 25.1233 30.0657C25.4872 28.2346 26.386 26.5525 27.7059 25.2321C29.0259 23.9118 30.7077 23.0126 32.5388 22.6481C34.3698 22.2837 36.2678 22.4705 37.9927 23.1848C39.7177 23.8992 41.192 25.109 42.2293 26.6613C43.2666 28.2136 43.8202 30.0386 43.8202 31.9056C43.8167 34.4074 42.8215 36.8058 41.0527 38.5751C39.2838 40.3444 36.8857 41.3403 34.3839 41.3446ZM19.5925 23.8027V26.0379H17.0279V23.8027H19.5925ZM11.3582 25.751L15.4501 25.7152V26.8281C15.4522 27.0367 15.536 27.2362 15.6835 27.3837C15.831 27.5312 16.0304 27.615 16.239 27.6171H20.3828C20.5914 27.615 20.7908 27.5312 20.9383 27.3837C21.0858 27.2362 21.1696 27.0367 21.1717 26.8281V25.7563H24.9316C24.3466 26.6522 23.8918 27.6266 23.5809 28.6503H21.8185C20.5714 28.6503 19.5925 30.013 19.5925 31.7555V33.5724C19.5925 35.3122 20.5714 36.6749 21.8185 36.6749H24.0232C24.0678 36.676 24.1124 36.6716 24.156 36.6616C24.6538 37.7264 25.3142 38.7072 26.1136 39.5688H11.3582V25.751ZM23.5636 35.0957H21.8185C21.598 35.0957 21.1717 34.5021 21.1717 33.5724V31.7555C21.1717 30.8258 21.598 30.2295 21.8185 30.2295H23.229C22.9831 31.8565 23.0974 33.5177 23.5636 35.0957ZM11.3582 41.1467H27.9199C29.8661 42.5099 32.1935 43.223 34.5693 43.1839C36.9451 43.1447 39.2478 42.3555 41.148 40.9289C41.2943 41.0694 41.4896 41.1476 41.6926 41.1467H57.4083V42.3048C57.4083 44.1097 55.861 45.5746 53.9551 45.5746H14.8047C12.9054 45.5746 11.3582 44.1137 11.3582 42.3048V41.1467ZM8.70192 25.7205H9.7538V28.0899H8.70723L8.70192 25.7205ZM65.2216 44.8349C65.2105 45.8348 64.8075 46.7904 64.0991 47.4963C63.3908 48.2021 62.4338 48.6018 61.4338 48.6094L27.7379 48.7422C26.9306 48.744 26.157 49.0664 25.5874 49.6385C25.0178 50.2106 24.6988 50.9856 24.7005 51.7929C24.7023 52.6002 25.0247 53.3738 25.5968 53.9434C26.1689 54.5131 26.9439 54.8321 27.7512 54.8303H37.2407C37.5712 54.83 37.8944 54.9277 38.1693 55.1113C38.4442 55.2948 38.6585 55.5557 38.7849 55.8611C38.9114 56.1665 38.9443 56.5025 38.8796 56.8267C38.8149 57.1508 38.6554 57.4484 38.4214 57.6818C38.267 57.8378 38.0831 57.9615 37.8803 58.0457C37.6776 58.1298 37.4602 58.1727 37.2407 58.1719L5.6313 58.1201C4.82321 58.1201 4.04804 57.7999 3.47552 57.2296C2.903 56.6593 2.57977 55.8854 2.57661 55.0774L2.52348 29.9107C2.52279 29.6121 2.58096 29.3162 2.69468 29.0401C2.8084 28.7639 2.97544 28.5129 3.18624 28.3014C3.39704 28.0898 3.64748 27.9219 3.92322 27.8072C4.19896 27.6925 4.49461 27.6333 4.79325 27.633H4.80919L7.12942 27.6463V28.8801C7.1315 29.0887 7.21528 29.2881 7.36278 29.4356C7.51028 29.5831 7.70974 29.6669 7.91833 29.669H9.7777V42.3048C9.7777 44.977 12.0355 47.1538 14.802 47.1538H53.9591C56.7322 47.1538 58.9874 44.977 58.9874 42.3048V29.7088H60.8282C61.0372 29.7071 61.2372 29.6233 61.385 29.4755C61.5329 29.3277 61.6167 29.1277 61.6184 28.9186V27.7326L63.4778 27.7167H63.4937C63.7392 27.7167 63.9823 27.7653 64.209 27.8597C64.4356 27.9541 64.6413 28.0925 64.8142 28.2669C64.987 28.4412 65.1237 28.6481 65.2162 28.8755C65.3087 29.103 65.3552 29.3465 65.3531 29.592L65.2216 44.8349Z" fill="#201F3B"/>
<path d="M34.3839 39.2382C32.9336 39.2382 31.5159 38.8081 30.3101 38.0024C29.1043 37.1967 28.1644 36.0515 27.6094 34.7116C27.0544 33.3718 26.9092 31.8974 27.1922 30.4751C27.4751 29.0527 28.1735 27.7461 29.1989 26.7207C30.2244 25.6952 31.531 24.9968 32.9533 24.7139C34.3757 24.431 35.8501 24.5762 37.1899 25.1312C38.5298 25.6861 39.675 26.626 40.4807 27.8318C41.2864 29.0377 41.7164 30.4553 41.7164 31.9056C41.714 33.8495 40.9406 35.7132 39.566 37.0878C38.1915 38.4624 36.3278 39.2357 34.3839 39.2382ZM34.3839 26.4138C33.2976 26.4135 32.2357 26.7354 31.3324 27.3387C30.4291 27.942 29.725 28.7996 29.3091 29.803C28.8933 30.8065 28.7843 31.9108 28.9961 32.9762C29.2078 34.0416 29.7308 35.0202 30.4988 35.7884C31.2668 36.5566 32.2453 37.0797 33.3106 37.2918C34.376 37.5038 35.4803 37.3951 36.4838 36.9795C37.4874 36.5638 38.3452 35.8599 38.9487 34.9568C39.5522 34.0536 39.8743 32.9918 39.8743 31.9056C39.8726 30.4498 39.2936 29.0542 38.2643 28.0247C37.2351 26.9952 35.8396 26.4159 34.3839 26.4138Z" fill="#201F3B"/>
<path d="M23.1786 22.1583C22.9694 22.1594 22.7683 22.0773 22.6196 21.9301C22.4709 21.7829 22.3868 21.5826 22.3858 21.3734C22.3847 21.1642 22.4668 20.9631 22.614 20.8144C22.7612 20.6657 22.9614 20.5816 23.1707 20.5805L25.204 20.5606C25.4133 20.5585 25.6148 20.6396 25.7642 20.786C25.9137 20.9325 25.9988 21.1323 26.0009 21.3415C26.003 21.5508 25.9219 21.7523 25.7755 21.9017C25.629 22.0511 25.4292 22.1363 25.22 22.1384L23.1866 22.1583H23.1786Z" fill="#201F3B"/>
<path d="M62.4671 11.8057C62.4671 12.0149 62.384 12.2155 62.236 12.3635C62.0881 12.5114 61.8874 12.5946 61.6782 12.5946H60.2969V13.9705C60.2969 14.1797 60.2138 14.3804 60.0659 14.5283C59.9179 14.6763 59.7172 14.7594 59.508 14.7594C59.2988 14.7594 59.0981 14.6763 58.9502 14.5283C58.8022 14.3804 58.7191 14.1797 58.7191 13.9705V12.5919H57.3485C57.1392 12.5919 56.9386 12.5088 56.7906 12.3608C56.6427 12.2129 56.5596 12.0122 56.5596 11.803C56.5596 11.5938 56.6427 11.3931 56.7906 11.2452C56.9386 11.0972 57.1392 11.0141 57.3485 11.0141H58.7244V9.63816C58.7238 9.48185 58.7697 9.32889 58.8563 9.19875C58.9428 9.06861 59.0662 8.96718 59.2106 8.90736C59.355 8.84755 59.514 8.83205 59.6672 8.86286C59.8204 8.89366 59.9611 8.96937 60.0711 9.08034C60.1448 9.15329 60.2032 9.24019 60.2429 9.33597C60.2826 9.43175 60.3027 9.53448 60.3022 9.63816V11.0234H61.6782C61.8864 11.023 62.0862 11.1051 62.2341 11.2517C62.3819 11.3983 62.4657 11.5975 62.4671 11.8057Z" fill="#EBEBEB"/>
<path d="M28.1668 8.7138C28.1679 8.81807 28.1483 8.92151 28.1091 9.01815C28.0699 9.11479 28.012 9.2027 27.9386 9.2768C27.8652 9.3509 27.7779 9.40973 27.6817 9.44987C27.5854 9.49001 27.4822 9.51068 27.3779 9.51068H25.9993V10.88C25.991 11.0838 25.9041 11.2765 25.757 11.4177C25.6098 11.5589 25.4137 11.6378 25.2098 11.6378C25.0058 11.6378 24.8097 11.5589 24.6626 11.4177C24.5154 11.2765 24.4285 11.0838 24.4202 10.88V9.50403H23.0469C22.8431 9.49567 22.6504 9.40883 22.5092 9.26167C22.3679 9.11451 22.2891 8.91844 22.2891 8.71446C22.2891 8.51049 22.3679 8.31441 22.5092 8.16726C22.6504 8.0201 22.8431 7.93325 23.0469 7.92489H24.4228V6.54896C24.4228 6.44468 24.4435 6.34144 24.4837 6.2452C24.5238 6.14897 24.5826 6.06164 24.6567 5.98828C24.7308 5.91492 24.8187 5.85697 24.9154 5.8178C25.012 5.77862 25.1155 5.759 25.2197 5.76005C25.4283 5.76213 25.6278 5.84591 25.7753 5.99341C25.9228 6.14091 26.0066 6.34037 26.0086 6.54896V7.92489H27.3846C27.592 7.92869 27.7898 8.01323 27.9358 8.16055C28.0819 8.30786 28.1648 8.50635 28.1668 8.7138Z" fill="#EBEBEB"/>
<path d="M52.0332 30.8603V29.2745C52.0332 29.1709 52.0128 29.0683 51.9731 28.9726C51.9335 28.8769 51.8754 28.7899 51.8021 28.7167C51.7289 28.6434 51.6419 28.5853 51.5462 28.5456C51.4505 28.506 51.3479 28.4856 51.2443 28.4856C51.1407 28.4856 51.0381 28.506 50.9424 28.5456C50.8467 28.5853 50.7597 28.6434 50.6864 28.7167C50.6132 28.7899 50.5551 28.8769 50.5154 28.9726C50.4758 29.0683 50.4554 29.1709 50.4554 29.2745V30.8603C49.7422 31.0517 49.1229 31.4957 48.7128 32.1098C48.3027 32.7239 48.1298 33.4661 48.2263 34.1982C48.3228 34.9303 48.6822 35.6023 49.2374 36.0892C49.7926 36.576 50.5058 36.8444 51.2443 36.8444C51.9827 36.8444 52.6959 36.576 53.2512 36.0892C53.8064 35.6023 54.1657 34.9303 54.2622 34.1982C54.3587 33.4661 54.1858 32.7239 53.7758 32.1098C53.3657 31.4957 52.7464 31.0517 52.0332 30.8603ZM51.2443 35.2617C50.9553 35.2617 50.6729 35.176 50.4326 35.0155C50.1924 34.8549 50.0051 34.6268 49.8945 34.3598C49.784 34.0929 49.755 33.7991 49.8114 33.5157C49.8678 33.2323 50.0069 32.972 50.2112 32.7677C50.4155 32.5634 50.6759 32.4243 50.9593 32.3679C51.2426 32.3115 51.5364 32.3404 51.8033 32.451C52.0703 32.5616 52.2985 32.7488 52.459 32.9891C52.6195 33.2293 52.7052 33.5118 52.7052 33.8008C52.7052 34.1882 52.5513 34.5598 52.2773 34.8338C52.0033 35.1078 51.6317 35.2617 51.2443 35.2617Z" fill="#201F3B"/>
<path d="M4.78139 21.0613C4.6677 21.061 4.55413 21.0535 4.44139 21.0387C4.12173 20.9948 3.81384 20.8884 3.53535 20.7254C3.25685 20.5625 3.01319 20.3462 2.81831 20.089C2.62343 19.8319 2.48114 19.5388 2.39958 19.2266C2.31801 18.9144 2.29877 18.5892 2.34296 18.2696C2.39816 17.8696 2.55115 17.4894 2.78836 17.1627C3.02557 16.8359 3.33969 16.5727 3.70291 16.3963C4.06612 16.22 4.46723 16.1359 4.8707 16.1515C5.27417 16.1671 5.66756 16.282 6.01604 16.486C6.36451 16.6899 6.65732 16.9767 6.86853 17.3208C7.07975 17.6649 7.20285 18.0558 7.22693 18.4589C7.25101 18.8619 7.17534 19.2647 7.00661 19.6315C6.83788 19.9984 6.58131 20.3179 6.2596 20.5619C5.835 20.8861 5.31557 21.0615 4.78139 21.0613ZM3.90616 18.4848C3.88257 18.6568 3.9105 18.8319 3.98644 18.988C4.06237 19.1441 4.18289 19.2743 4.33276 19.3619C4.48263 19.4495 4.65512 19.4908 4.82843 19.4804C5.00173 19.47 5.16806 19.4085 5.30639 19.3035C5.44472 19.1986 5.54884 19.0551 5.60558 18.891C5.66233 18.7269 5.66915 18.5497 5.62518 18.3817C5.58121 18.2138 5.48844 18.0626 5.35858 17.9474C5.22872 17.8322 5.06761 17.758 4.89561 17.7344C4.78127 17.7179 4.6648 17.7243 4.55296 17.7532C4.44111 17.7822 4.33612 17.833 4.24408 17.9028C4.15204 17.9726 4.07477 18.06 4.01676 18.1599C3.95875 18.2598 3.92116 18.3702 3.90616 18.4848Z" fill="#91FFC5"/>
</svg>
