<svg width="44" height="44" viewBox="0 0 44 44" fill="none" xmlns="http://www.w3.org/2000/svg">
<g clip-path="url(#clip0_1149_1531)">
<path d="M40.3332 31.1673C40.3332 21.0418 32.1253 12.834 21.9998 12.834C11.8743 12.834 3.6665 21.0418 3.6665 31.1673" stroke="black" stroke-width="2" stroke-linecap="round" stroke-linejoin="round"/>
<path d="M33 31.166C33 28.2486 31.8411 25.4507 29.7782 23.3878C27.7153 21.3249 24.9174 20.166 22 20.166C19.0826 20.166 16.2847 21.3249 14.2218 23.3878C12.1589 25.4507 11 28.2486 11 31.166" stroke="black" stroke-width="2" stroke-linecap="round" stroke-linejoin="round"/>
<path d="M25.6666 31.1667C25.6666 30.1942 25.2803 29.2616 24.5926 28.5739C23.905 27.8863 22.9724 27.5 21.9999 27.5C21.0275 27.5 20.0948 27.8863 19.4072 28.5739C18.7196 29.2616 18.3333 30.1942 18.3333 31.1667" stroke="black" stroke-width="2" stroke-linecap="round" stroke-linejoin="round"/>
</g>
<defs>
<clipPath id="clip0_1149_1531">
<rect width="44" height="44" fill="white"/>
</clipPath>
</defs>
</svg>
