<svg width="150" height="73" viewBox="0 0 150 73" fill="none" xmlns="http://www.w3.org/2000/svg">
<path fill-rule="evenodd" clip-rule="evenodd" d="M72.8969 3.09162C63.2643 3.80127 54.3115 7.38049 46.7421 13.5475C45.3974 14.6436 42.7739 17.0436 42.7739 17.1781C42.7739 17.3704 43.5689 17.234 43.8648 16.991C45.3708 15.7558 46.7515 15.3898 51.0569 15.0831C54.9295 14.8073 56.494 14.3089 63.5695 11.0976C65.1498 10.3805 64.537 10.2128 67.9926 12.3082C69.703 13.3451 70.6503 13.764 71.2851 13.764C72.0614 13.764 73.8164 12.5821 76.1002 10.5206C76.9075 9.7916 76.8063 9.80688 77.4726 10.3112C79.399 11.7689 79.2618 11.7025 79.6866 11.3827C80.1276 11.051 80.1936 11.0775 81.4889 12.1028C82.6724 13.0398 83.3046 13.1371 86.2274 12.83C86.7966 12.77 87.9033 12.7018 88.6863 12.6779L90.1098 12.6347L91.1823 12.2087C92.8623 11.5415 92.4138 11.5057 94.9296 12.5072C97.7283 13.6213 98.0782 13.745 98.761 13.8628C99.6003 14.0074 100.329 14.234 101.256 14.6377C104.293 15.9612 108.062 17.2374 108.933 17.2374H109.391L108.81 16.653C101.245 9.04355 91.201 4.30556 80.2416 3.17735C79.0686 3.05658 74.1516 2.99919 72.8969 3.09162ZM99.604 54.8103C99.5433 54.8707 99.5253 56.4436 99.5253 61.7578V68.6266H101.079H102.632L102.616 61.6967L102.599 54.7664L101.141 54.7492C100.062 54.7362 99.6625 54.7522 99.604 54.8103ZM103.165 54.7746C103.104 54.801 103.084 55.1626 103.084 56.2703V57.731L103.509 57.8033C104.325 57.9423 104.476 58.1652 104.476 59.2364C104.476 60.3475 104.322 60.5785 103.537 60.6467L103.117 60.6836L103.099 62.1235C103.084 63.4347 103.094 63.5946 103.212 63.9099C103.284 64.1003 103.461 64.7258 103.606 65.2998C103.937 66.6136 104.427 68.3478 104.512 68.5062C104.61 68.6866 107.58 68.6945 107.522 68.5141C107.503 68.4522 107.184 67.1425 106.815 65.6039L106.143 62.8059L106.453 62.4682C107.26 61.5901 107.497 60.939 107.534 59.4936C107.59 57.315 106.809 55.8178 105.252 55.1186C104.683 54.8629 103.439 54.6579 103.165 54.7746ZM122.368 54.8051C121.369 54.9661 120.109 55.9382 119.627 56.9211C118.66 58.8905 119.36 61.0459 121.393 62.3542C121.627 62.5047 122.16 62.848 122.578 63.1175C124.203 64.163 124.474 64.7888 123.614 65.5044L123.404 65.6796V67.1533V68.6266H123.699C124.963 68.6266 126.63 67.1797 126.996 65.7645C127.56 63.5815 126.57 61.9173 123.67 60.173C122.155 59.2617 121.8 58.4403 122.701 57.9307L122.952 57.7891L122.935 56.2789C122.916 54.5789 122.966 54.709 122.368 54.8051ZM123.404 56.2446V57.7615L123.633 57.8957C123.93 58.0698 124.06 58.331 124.101 58.8316L124.133 59.2364H125.655H127.176L127.131 58.6415C126.978 56.5666 125.6 54.9617 123.808 54.7708L123.404 54.728V56.2446ZM2.14602 54.8528C2.15802 54.8827 2.59002 55.548 3.10602 56.3314L4.04427 57.7559L13.0878 57.7567L22.1309 57.7571V56.2777V54.7984H12.1278C6.62614 54.7984 2.13439 54.823 2.14602 54.8528ZM26.893 54.9755C26.7925 55.4578 25.1133 67.0948 24.9906 68.1604L24.937 68.6266H26.4408H27.9449L27.9809 68.45C28.0244 68.2364 29.9609 54.9445 29.9609 54.8588C29.9609 54.823 29.3451 54.7984 28.4455 54.7984H26.9298L26.893 54.9755ZM30.4139 54.8625C30.4139 54.8979 30.2665 55.9617 30.0858 57.2263C29.6598 60.2136 29.6451 60.517 29.8608 61.9054C29.9541 62.507 30.0483 63.1365 30.0696 63.3046L30.1086 63.6099H29.6815H29.2544L29.1903 63.851C29.11 64.1551 28.9574 65.075 28.8629 65.829C28.8228 66.1473 28.7763 66.4731 28.7594 66.5525C28.729 66.6971 28.7298 66.6971 29.6294 66.6971C30.5099 66.6971 30.5301 66.7004 30.5628 66.8421C30.5811 66.9215 30.6486 67.3557 30.7124 67.8067L30.8283 68.6266H32.3361C33.6224 68.6266 33.8436 68.6128 33.8436 68.5316C33.8436 68.3329 33.3621 64.9054 32.8041 61.1339C32.485 58.9758 32.1659 56.7418 32.0954 56.1693C31.9128 54.6903 31.9893 54.7984 31.1275 54.7984C30.6966 54.7984 30.4139 54.8238 30.4139 54.8625ZM36.3029 61.7127V68.6266H37.8235H39.3441V61.7127V54.7984H37.8235H36.3029V61.7127ZM39.8403 54.8413C39.8166 54.8651 39.7971 55.5413 39.7971 56.3441V57.8036L40.1748 57.8376C41.2086 57.9307 41.1846 57.8432 41.2068 61.6005C41.2293 65.318 41.2075 65.4466 40.537 65.5662C40.3971 65.5912 40.1733 65.64 40.0398 65.6747L39.7971 65.7373V67.1891V68.6404L40.5325 68.6173L41.2679 68.5942L41.9658 68.2495C43.1883 67.6453 43.9225 66.7686 44.1674 65.6195C44.2791 65.0951 44.3054 58.5879 44.1981 58.0072C44.0084 56.9803 42.9955 55.6464 42.0621 55.1943C41.428 54.8871 40.0191 54.6635 39.8403 54.8413ZM46.8756 54.8909C46.8554 54.943 47.0182 55.9639 47.2371 57.1592C47.6556 59.4436 49.1995 67.7098 49.3158 68.289L49.3836 68.6266H50.7449H52.1065L52.0679 68.4175C51.9779 67.9352 50.8461 60.469 50.476 57.9181C50.2551 56.3966 50.0399 55.0798 49.9972 54.9915L49.9195 54.8309L48.4158 54.8133C47.14 54.7988 46.9068 54.8104 46.8756 54.8909ZM53.0001 55.1361C52.7793 56.1521 51.8335 62.6654 51.8335 63.1697C51.8335 63.5651 52.2014 66.1499 52.5809 68.4175L52.6158 68.6266H53.1291C53.6091 68.6266 53.6448 68.6173 53.6751 68.482C53.6928 68.4023 53.8844 67.3676 54.1004 66.1827C54.3164 64.9975 54.8785 61.9837 55.3499 59.4854C55.8209 56.9867 56.1955 54.9102 56.1824 54.8704C56.1655 54.82 55.696 54.7984 54.616 54.7984H53.0736L53.0001 55.1361ZM58.822 61.7127V68.6266H60.343H61.8636V61.7127V54.7984H60.343H58.822V61.7127ZM62.3811 56.3102V57.8215H63.8373H65.2934V56.3102V54.7984H63.8373H62.3811V56.3102ZM67.9248 54.8413C67.8126 54.9531 68.0553 55.5938 70.5933 61.879L73.3045 68.5946L74.8315 68.6117L76.3589 68.6289V68.3829C76.3589 68.1522 75.5193 66.0336 71.7588 56.7772L70.9555 54.7999L69.4619 54.7992C68.6403 54.7988 67.9484 54.8178 67.9248 54.8413ZM73.3173 57.0705C73.3173 59.7507 73.2021 59.2297 74.47 62.277C74.9294 63.3814 75.5016 64.7828 75.7413 65.3911C75.9809 65.999 76.2171 66.5487 76.2659 66.6128C76.3413 66.712 76.3551 65.8346 76.3566 60.7638L76.3589 54.7984H74.8383H73.3173V57.0705ZM78.9903 54.8413C78.9667 54.8651 78.9472 55.545 78.9472 56.353V57.8215H79.8209H80.6946V56.3102V54.7984H79.864C79.4073 54.7984 79.0143 54.8178 78.9903 54.8413ZM81.2121 61.7127V68.6266H82.7005H84.1889V61.7127V54.7984H82.7005H81.2121V61.7127ZM84.7064 56.3102V57.8253L85.564 57.8074L86.4213 57.7891V56.3102V54.8309L85.564 54.8126L84.7064 54.7947V56.3102ZM110.103 54.8789C110.086 54.9233 110.08 58.0273 110.089 61.7768L110.106 68.5946L111.643 68.6117L113.179 68.6289V61.7138V54.7984H111.657C110.498 54.7984 110.127 54.8178 110.103 54.8789ZM113.697 56.3102V57.8215H115.153H116.609V56.3102V54.7984H115.153H113.697V56.3102ZM129.94 56.2777V57.7571H138.991H148.044L148.989 56.3202C149.509 55.5301 149.935 54.8644 149.935 54.8409C149.935 54.8178 145.436 54.7984 139.938 54.7984H129.94V56.2777ZM89.0039 54.9516C88.9285 55.1469 89.0223 65.2446 89.1025 65.6002C89.4486 67.1268 91.0852 68.6266 92.4052 68.6266H92.7306V67.1168V65.6072L92.5416 65.51C92.4378 65.4567 92.2848 65.3184 92.2019 65.2029L92.0511 64.9926L92.0331 59.9278L92.0151 54.8629H90.5268C89.3219 54.8629 89.0316 54.8797 89.0039 54.9516ZM93.9603 59.6456C93.9603 65.1112 93.9708 64.9766 93.5061 65.4444L93.1836 65.7686V67.1976V68.6266H93.5136C94.4305 68.6266 96.0269 67.5286 96.5223 66.5569C96.9404 65.7366 96.937 65.7921 96.937 60.0623V54.8629H95.4486H93.9603V59.6456ZM67.9263 56.8983C67.9019 56.9225 67.8816 59.5715 67.8816 62.7847V68.6266H69.4349H70.9878V66.3769V64.1268L69.5328 60.5081C68.1434 57.0522 68.029 56.7958 67.9263 56.8983ZM5.50039 59.9125C5.50039 59.9308 5.95039 60.6255 6.50052 61.4567L7.50102 62.9673L14.8 62.9509L22.0986 62.9345L22.1159 61.4071L22.1335 59.8797H13.8168C9.24289 59.8797 5.50039 59.8946 5.50039 59.9125ZM129.955 61.4071L129.972 62.9345H137.284H144.597L145.584 61.4555C146.126 60.6419 146.57 59.9546 146.57 59.9278C146.57 59.9013 142.828 59.8797 138.254 59.8797H129.937L129.955 61.4071ZM62.3811 61.4876V63.031H63.8373H65.2934V61.4876V59.9438H63.8373H62.3811V61.4876ZM113.697 61.4876V63.031H115.153H116.609V61.4876V59.9438H115.153H113.697V61.4876ZM119.219 64.2263C119.08 64.5864 119.38 66.034 119.703 66.5636C120.476 67.8301 121.435 68.5286 122.514 68.6106L122.951 68.6442V67.0918C122.951 65.6318 122.944 65.5394 122.833 65.5394C122.554 65.5394 122.239 64.9379 122.239 64.406V64.1246H120.748C119.448 64.1246 119.253 64.1376 119.219 64.2263ZM9.27064 65.6199C9.28789 65.6643 9.72927 66.3441 10.2516 67.1313L11.2015 68.5625H16.6664H22.1309V67.0508V65.5394H15.6854C10.5554 65.5394 9.24589 65.5558 9.27064 65.6199ZM129.94 67.0508V68.5625L135.424 68.5595L140.908 68.5566L141.826 67.1607C142.331 66.3929 142.764 65.7138 142.788 65.652C142.829 65.5454 142.497 65.5394 136.385 65.5394H129.94V67.0508ZM62.3811 67.1473V68.6266H63.8373H65.2934V67.1473V65.668H63.8373H62.3811V67.1473ZM113.697 67.1473V68.6266H115.153H116.609V67.1473V65.668H115.153H113.697V67.1473Z" fill="#FCCC04"/>
<path fill-rule="evenodd" clip-rule="evenodd" d="M80.775 16.192C80.5107 16.3228 80.4927 16.2278 80.9877 17.3102L81.4103 18.2341L81.303 18.5237C81.2442 18.6829 80.934 19.3154 80.6138 19.9289C79.9107 21.277 79.911 21.2729 80.4308 22.5435C80.8812 23.6441 80.8808 23.6426 80.5707 23.129C80.1105 22.3661 79.7149 21.8018 79.6628 21.8335C79.5949 21.8752 78.9203 23.3542 78.3972 24.608C77.841 25.9404 77.3873 26.8256 76.4547 28.3974C73.9635 32.5972 69.3304 40.0057 69.1954 40.0057C69.1782 40.0057 69.1838 39.8905 69.2078 39.75C69.3919 38.6658 69.228 38.4943 67.3962 37.8547C66.8265 37.6557 65.8114 37.289 65.1398 37.0396C63.1905 36.3154 63.0282 36.343 62.7743 37.4384C62.0505 40.5629 60.675 41.7936 58.3163 41.4273C56.0937 41.0821 55.1772 39.2077 55.0883 34.8234C54.9852 29.75 56.1529 27.3471 58.8398 27.1052C60.447 26.9606 61.3759 27.5901 62.316 29.4604C62.997 30.8163 63.1879 30.8551 65.5519 30.1186C66.0679 29.958 66.948 29.7153 67.5075 29.58C69.2734 29.1522 69.336 29.0623 68.8392 27.6624C67.1363 22.864 64.2717 20.671 59.5339 20.5383C54.7493 20.4041 51.423 22.2166 49.4779 26.018C47.3663 30.1451 47.2875 37.7791 49.3133 41.9938C51.33 46.1902 53.9997 47.9055 58.6984 48.0244C63.3068 48.141 66.0653 46.7046 67.857 43.2551C68.0595 42.8652 68.6382 41.9673 69.1425 41.2599C70.4134 39.4776 70.9182 38.7176 72.2813 36.5327C72.9323 35.4891 73.4914 34.6061 73.5237 34.5707C73.6257 34.4593 72.4182 36.9133 70.533 40.6472C69.5322 42.6296 68.7229 44.299 68.7342 44.3568C68.7668 44.5212 69.369 44.794 70.6317 45.2156C71.2722 45.4299 71.913 45.6617 72.0552 45.731L72.3143 45.857L72.0979 45.8194C71.979 45.7985 71.2088 45.5529 70.3864 45.2733C68.3569 44.5838 68.652 44.4906 67.6838 46.1261C67.2409 46.8749 66.8693 47.5245 66.8584 47.5696C66.8194 47.7277 67.335 47.7456 69.6285 47.6669C72.3874 47.5723 74.7072 47.5693 75.1939 47.6595C76.7685 47.9517 76.6418 48.078 77.2275 45.6334C77.9475 42.6289 78.5235 40.8454 79.2218 39.4589C80.6892 36.5443 82.4895 35.8011 83.7619 37.5845C84.9462 39.2446 86.5118 44.314 86.7477 47.2528C86.7795 47.6539 86.8152 47.7899 86.8965 47.8246C87.3964 48.0378 91.1149 47.8279 93.3795 47.4589L94.1903 47.327L95.1323 47.4932C96.2228 47.6856 96.6004 47.7031 96.654 47.5637C96.6754 47.5085 96.3443 46.8414 95.8804 46.0039C95.4342 45.1988 94.9197 44.2215 94.737 43.8324C93.7579 41.7482 92.6007 39.6192 92.0592 38.9066C91.6095 38.3143 91.5619 38.2215 91.4573 37.7355C91.3695 37.3262 91.1798 36.8779 90.6113 35.7362C89.8227 34.151 89.73 33.8782 90.2862 34.7757C91.4198 36.6058 91.5645 36.8801 91.6624 37.3889C91.7835 38.0184 91.929 38.299 92.3205 38.6576C93.1227 39.393 93.5925 39.9181 93.9964 40.5309C94.2372 40.8965 94.569 41.3691 94.7337 41.5816C94.8983 41.7936 95.2924 42.3557 95.61 42.8305C96.1969 43.7083 96.3083 43.8346 96.9345 44.3292L97.2882 44.6088L97.356 45.0963C97.3932 45.3643 97.4562 45.6237 97.4959 45.6729C97.5357 45.7221 97.5825 46.1224 97.6005 46.5659C97.6609 48.0609 97.6422 48.0534 101.208 48.0281C103.658 48.0106 103.764 47.9882 104.104 47.412L104.282 47.1127V37.6151C104.282 32.3918 104.296 28.103 104.315 28.0847C104.349 28.05 104.755 29.7206 105.577 33.2845C105.846 34.4518 106.296 36.3042 106.577 37.4008C106.858 38.4973 107.441 40.8999 107.873 42.7392C109.146 48.1619 109.04 47.813 109.443 47.9219C109.726 47.9983 114.554 48.0154 114.967 47.9416C115.222 47.8958 115.263 47.8067 115.481 46.8127C115.686 45.8764 115.94 44.8354 116.468 42.7713C116.681 41.9401 117.151 39.9431 117.513 38.3333C117.875 36.7239 118.333 34.7847 118.53 34.0243C118.726 33.2636 119.129 31.6427 119.424 30.4224C119.719 29.2021 119.988 28.1022 120.022 27.9785C120.144 27.526 120.182 31.4216 120.135 39.4828C120.081 48.6803 120.026 47.7869 120.655 47.9442C121.202 48.0806 126.406 48.0009 126.59 47.8529L126.729 47.7411L126.721 34.4347C126.716 26.0407 126.69 21.0694 126.651 20.9676C126.459 20.4749 126.032 20.375 124.45 20.4511C123.843 20.4801 122.013 20.4883 120.382 20.4693C118.752 20.4503 117.136 20.4559 116.792 20.482L116.167 20.5286L116.039 20.8286C115.968 20.9937 115.819 21.5267 115.708 22.0131C115.596 22.4999 115.374 23.4406 115.212 24.1037C115.052 24.7668 114.585 26.7418 114.176 28.4928C113.523 31.2886 112.944 33.7153 112.334 36.2111C112.235 36.6177 112.151 36.8752 112.149 36.7828C112.143 36.5834 111.474 33.8212 110.927 31.7411C110.411 29.7765 110.283 29.2494 109.228 24.7108C108.281 20.6363 108.272 20.6042 108.047 20.5271C107.801 20.4429 98.16 20.4827 97.9545 20.5688C97.6152 20.7112 97.6279 20.2606 97.6418 31.8696C97.6549 42.9397 97.6459 43.4384 97.4262 43.6568C97.194 43.8876 94.326 40.1496 93.54 38.5924C93.3162 38.1481 92.9937 37.6546 92.6419 37.2163C92.1173 36.5637 91.3677 35.362 89.6877 32.4805C89.2853 31.7906 88.752 30.9255 88.5027 30.558C88.2529 30.1902 87.9349 29.6259 87.7958 29.3039C87.0162 27.4992 84.906 23.432 84.5404 23.0299C83.9134 22.3404 82.521 19.4749 82.3137 18.4484L82.2402 18.0832L82.5728 17.4324C82.9294 16.7354 82.9294 16.7164 82.5829 16.5144C82.3617 16.3851 82.3523 16.3936 82.029 17.0284C81.8044 17.4689 81.8089 17.4715 81.4384 16.7228C81.0983 16.0358 81.0953 16.0336 80.775 16.192ZM17.7158 20.4891C17.6963 20.5088 14.4225 20.5252 10.4415 20.5252C2.34491 20.5256 2.79904 20.4999 2.55491 20.9691C2.39066 21.2852 2.37641 47.39 2.54029 47.6986C2.75104 48.0952 2.26279 48.0754 11.7349 48.068C21.5198 48.0601 20.637 48.1097 20.8249 47.557C20.9689 47.1317 20.9074 42.2126 20.7548 41.9815C20.5542 41.6773 20.7072 41.6822 12.9927 41.7422C9.35329 41.7705 8.85829 41.7627 8.77091 41.6762C8.58866 41.4951 8.52229 40.5879 8.55604 38.7493C8.60441 36.1555 8.31754 36.3534 11.874 36.4585C14.5602 36.5379 18.3582 36.5476 19.0894 36.4768L19.5102 36.4362L19.5957 36.1786C19.7202 35.8044 19.6804 31.1339 19.551 30.9792C19.3099 30.6907 17.739 30.6087 14.0742 30.693C8.99216 30.81 8.79004 30.7876 8.61604 30.0948C8.50279 29.6438 8.59354 26.7429 8.72516 26.6125C8.78966 26.5483 10.0005 26.5312 14.4964 26.5312H20.1859L20.3262 26.3914C20.5155 26.2036 20.6018 24.848 20.5545 22.8007C20.508 20.791 20.4762 20.7112 19.6478 20.5386C19.2567 20.457 17.7859 20.4194 17.7158 20.4891ZM23.4428 20.5219C23.0505 20.64 23.0678 20.3001 23.1023 27.2386C23.1417 35.185 23.1428 43.4273 23.1049 45.6654C23.0603 48.3084 22.7138 48.0777 26.7252 48.0777C30.3593 48.0777 30.0582 48.1999 30.0469 46.7269C30.0443 46.3378 30.0199 43.7523 29.9937 40.9815C29.967 38.2103 29.967 35.3751 29.9933 34.6799L30.0409 33.4168L30.186 33.5979C30.5584 34.0623 32.9325 38.154 36.3053 44.1451C38.184 47.4828 38.4319 47.8671 38.8039 48.0214C39.2434 48.204 45.0904 48.1138 45.3244 47.9211C45.4883 47.7858 45.4924 47.4727 45.498 34.5036C45.504 19.9997 45.5385 21.0563 45.0507 20.7317C44.5598 20.4052 39.5978 20.309 38.991 20.6139C38.5879 20.8167 38.6022 20.5446 38.6262 27.5312C38.6382 31.053 38.6265 34.2603 38.6003 34.6587L38.5527 35.3833L38.4087 35.1701C38.3295 35.0527 38.1248 34.6963 37.953 34.378C35.9532 30.6643 30.6064 21.391 30.1512 20.8465C29.8932 20.5379 29.5264 20.5014 26.4664 20.4794C24.7557 20.4671 23.5695 20.4838 23.4428 20.5219ZM129.65 20.6706L129.49 20.8297L129.52 22.0724C129.551 23.3228 129.662 43.3799 129.653 46.0195C129.645 48.2051 129.466 48.0691 132.385 48.0896C134.556 48.1049 135.458 48.0579 135.776 47.914C136.113 47.7612 136.107 47.8574 136.091 42.6967L136.076 37.895L139.139 37.8641C142.913 37.826 143.8 37.6867 145.367 36.8842C150.058 34.4824 151.182 26.8454 147.427 22.889C146.641 22.0612 145.347 21.227 144.393 20.9333C143.187 20.5621 143.183 20.5617 136.233 20.5357L129.81 20.5111L129.65 20.6706ZM139.288 26.3393C140.375 26.5021 141.003 26.8756 141.384 27.5852C142.519 29.7023 141.604 31.6915 139.318 32.0746C138.521 32.2081 136.721 32.2263 136.429 32.1037C136.095 31.9639 136.085 31.8737 136.07 29.1645C136.053 26.1294 135.984 26.2517 137.705 26.2457C138.228 26.2438 138.928 26.2852 139.288 26.3393ZM81.6207 27.6408C81.636 27.6672 81.6694 28.2997 81.6945 29.0459L81.7407 30.403L80.5219 30.4805C79.8514 30.5234 79.2229 30.5733 79.125 30.592C78.9552 30.624 78.9469 30.614 78.9469 30.3698C78.9469 29.2286 79.9493 28.0169 81.162 27.6922C81.576 27.5815 81.5854 27.5804 81.6207 27.6408ZM83.2519 27.7917C83.9753 28.0605 84.6334 28.7045 84.9387 29.4421C85.1922 30.0549 85.1659 30.1454 84.7227 30.1902C84.0559 30.2573 82.3665 30.3695 82.3478 30.3475C82.338 30.3355 82.3114 29.7071 82.2885 28.9509L82.2473 27.5759L82.5765 27.6192C82.7573 27.643 83.0614 27.7205 83.2519 27.7917ZM85.095 31.2662C84.8742 32.5115 83.8995 33.5092 82.692 33.7273L82.4569 33.7698L82.4183 33.1734C82.3969 32.8454 82.3714 32.2152 82.3617 31.7731L82.3444 30.9692L83.7034 30.8696C85.2687 30.7548 85.1899 30.7325 85.095 31.2662ZM81.6897 31.4675C81.7092 31.7239 81.7384 32.3501 81.7542 32.8585L81.7827 33.7832L81.4163 33.7414C80.5103 33.6378 79.5814 32.9487 79.1775 32.0806C78.8622 31.403 78.8355 31.1958 79.062 31.1883C79.1588 31.185 79.6894 31.1455 80.2414 31.1007C80.793 31.056 81.3364 31.0154 81.4489 31.0102L81.6537 31.0012L81.6897 31.4675Z" fill="#34CC9C"/>
<path fill-rule="evenodd" clip-rule="evenodd" d="M81.0025 27.7811C79.9641 28.111 79.165 29.0457 79.0199 30.1002C78.988 30.3301 78.9711 30.528 78.982 30.54C79.0022 30.5623 80.6294 30.452 81.2931 30.3834L81.6651 30.345L81.6647 29.6275C81.6647 29.2332 81.6456 28.6283 81.6227 28.2832C81.5751 27.5709 81.6002 27.5914 81.0025 27.7811ZM82.3367 28.9455C82.3615 29.6659 82.3949 30.2679 82.4102 30.2835C82.4627 30.3357 85.0949 30.1438 85.0949 30.0879C85.0949 29.0882 83.7805 27.8109 82.6097 27.6734L82.2914 27.6357L82.3367 28.9455ZM83.5454 30.9142C82.9244 30.9637 82.4069 31.0137 82.3949 31.0256C82.3829 31.0375 82.3934 31.6477 82.4177 32.3812L82.4624 33.7151L82.7271 33.6753C83.917 33.4967 85.0949 32.1598 85.0949 30.9872C85.0949 30.7763 85.2066 30.7815 83.5454 30.9142ZM79.9394 31.1546C78.8837 31.2366 78.9152 31.2217 79.0135 31.5892C79.2977 32.6503 80.2754 33.5236 81.3674 33.6913L81.7491 33.7498L81.7075 32.8415C81.6842 32.3421 81.6655 31.7379 81.6655 31.4993L81.6651 31.0651L81.2605 31.0741C81.0381 31.0789 80.4437 31.1154 79.9394 31.1546Z" fill="#F9FBFA"/>
<path fill-rule="evenodd" clip-rule="evenodd" d="M82.2626 28.3003C82.2626 28.4241 82.2761 28.4747 82.2922 28.4129C82.3083 28.3506 82.3083 28.2496 82.2922 28.1878C82.2761 28.1255 82.2626 28.1762 82.2626 28.3003ZM81.6813 29.4256C81.6821 29.5672 81.6956 29.6175 81.7109 29.5374C81.7263 29.4576 81.7259 29.3417 81.7098 29.2802C81.6933 29.2187 81.6809 29.2843 81.6813 29.4256ZM82.3364 31.0316C82.3166 31.0834 82.3151 31.1632 82.3334 31.2083C82.3518 31.2537 82.3691 31.228 82.3721 31.1516C82.3747 31.0748 82.4133 30.9977 82.4579 30.9798C82.5213 30.9544 82.5209 30.9462 82.4557 30.9421C82.4103 30.9395 82.3567 30.9798 82.3364 31.0316ZM81.6802 31.6447C81.6802 31.7685 81.6933 31.8191 81.7098 31.7573C81.7259 31.6954 81.7259 31.594 81.7098 31.5322C81.6933 31.4703 81.6802 31.521 81.6802 31.6447ZM82.3919 32.931C82.3919 33.0547 82.4054 33.1054 82.4216 33.0435C82.4377 32.9817 82.4377 32.8803 82.4216 32.8184C82.4054 32.7565 82.3919 32.8072 82.3919 32.931ZM81.7462 33.5418C81.7469 33.6835 81.7601 33.7338 81.7758 33.6537C81.7912 33.5739 81.7904 33.458 81.7743 33.3965C81.7582 33.335 81.7454 33.4006 81.7462 33.5418Z" fill="#5BD6AD"/>
<path fill-rule="evenodd" clip-rule="evenodd" d="M82.2586 27.8657L82.2695 28.1389L82.2946 27.9019C82.3141 27.7193 82.3524 27.6581 82.4619 27.6373C82.5789 27.6145 82.5729 27.6082 82.4259 27.6011C82.2564 27.5925 82.2481 27.606 82.2586 27.8657ZM81.6215 28.1069C81.6215 28.3369 81.6331 28.4308 81.6474 28.316C81.6616 28.2008 81.6616 28.0126 81.6474 27.8978C81.6331 27.783 81.6215 27.8769 81.6215 28.1069ZM82.3333 29.6503C82.3333 29.8803 82.3449 29.9746 82.3591 29.8594C82.3738 29.7446 82.3738 29.5564 82.3591 29.4416C82.3449 29.3264 82.3333 29.4204 82.3333 29.6503ZM81.677 29.9839C81.6654 30.3454 81.6631 30.3499 81.455 30.3756L81.2446 30.4017L81.4573 30.4118C81.71 30.4241 81.7464 30.3559 81.7134 29.9317L81.6886 29.6183L81.677 29.9839ZM82.5875 30.9813C82.6498 30.9973 82.7518 30.9973 82.814 30.9813C82.8763 30.9649 82.8253 30.9518 82.7008 30.9518C82.5763 30.9518 82.5253 30.9649 82.5875 30.9813ZM81.6853 32.1911C81.6856 32.4032 81.698 32.4822 81.7123 32.3667C81.7265 32.2511 81.7265 32.0775 81.7115 31.9809C81.6969 31.884 81.6849 31.9787 81.6853 32.1911ZM82.3974 32.3838C82.3978 32.5963 82.4098 32.6753 82.424 32.5598C82.4386 32.4442 82.4383 32.2705 82.4233 32.1736C82.4086 32.0771 82.397 32.1718 82.3974 32.3838Z" fill="#84E4C4"/>
</svg>
