<svg width="388" height="388" viewBox="0 0 388 388" fill="none" xmlns="http://www.w3.org/2000/svg">
<path d="M57.5936 143.863C59.5866 116.711 79.6611 94.6055 106.889 94.6055C119.957 94.6155 132.486 99.8136 141.722 109.057C150.959 118.301 156.147 130.834 156.147 143.901C156.147 189.074 106.889 222.403 106.889 222.403C106.889 222.403 54.5623 185.899 57.5936 143.863Z" fill="#91FFC5"/>
<path d="M241.174 223.956C243.167 196.804 263.249 174.698 290.47 174.698C303.536 174.7 316.068 179.889 325.311 189.125C334.554 198.362 339.753 210.889 339.765 223.956C339.765 269.137 290.47 302.458 290.47 302.458C290.47 302.458 238.097 265.992 241.174 223.956Z" fill="#91FFC5"/>
<path d="M117.302 211.543C116.307 211.545 115.336 211.24 114.521 210.672C112.247 209.118 59.9052 172.107 63.1486 127.813C65.422 97.1363 88.6793 74.0078 117.302 74.0078C131.663 74.0239 145.432 79.736 155.587 89.8911C165.742 100.046 171.454 113.815 171.47 128.176C171.47 147.879 162.528 168.393 145.606 187.589C138.003 196.26 129.42 204.022 120.03 210.717C119.223 211.258 118.273 211.546 117.302 211.543ZM72.8713 128.525C70.4236 161.907 106.874 192.545 117.332 200.616C127.419 192.939 161.725 164.18 161.725 128.169C161.711 116.391 157.026 105.1 148.698 96.7724C140.37 88.4445 129.079 83.7597 117.302 83.7457C93.8476 83.7457 74.7431 102.994 72.8713 128.525Z" fill="#201F3B"/>
<path d="M117.241 148.622C127.88 148.622 136.505 139.997 136.505 129.358C136.505 118.719 127.88 110.095 117.241 110.095C106.602 110.095 97.9775 118.719 97.9775 129.358C97.9775 139.997 106.602 148.622 117.241 148.622Z" fill="#201F3B"/>
<path d="M278.875 291.137C277.881 291.138 276.91 290.834 276.094 290.265C273.866 288.75 221.478 251.7 224.722 207.406C226.995 176.73 250.252 153.602 278.875 153.602C293.236 153.618 307.005 159.33 317.16 169.485C327.315 179.64 333.027 193.409 333.043 207.77C333.043 227.473 324.101 247.987 307.179 267.183C299.576 275.851 290.996 283.612 281.611 290.311C280.801 290.851 279.849 291.138 278.875 291.137ZM278.875 163.339C255.421 163.339 236.316 182.588 234.444 208.119C231.997 241.5 268.448 272.139 278.905 280.209C288.999 272.533 323.298 243.774 323.298 207.762C323.286 195.984 318.602 184.692 310.273 176.364C301.945 168.036 290.653 163.351 278.875 163.339Z" fill="#201F3B"/>
<path d="M278.837 228.208C289.476 228.208 298.101 219.583 298.101 208.944C298.101 198.305 289.476 189.681 278.837 189.681C268.198 189.681 259.574 198.305 259.574 208.944C259.574 219.583 268.198 228.208 278.837 228.208Z" fill="#201F3B"/>
<path d="M269.024 308.293L249.533 308.24C248.24 308.24 247.001 307.727 246.087 306.813C245.173 305.899 244.66 304.66 244.66 303.367C244.66 302.075 245.173 300.836 246.087 299.922C247.001 299.008 248.24 298.495 249.533 298.495L269.024 298.578C270.316 298.578 271.555 299.091 272.469 300.005C273.383 300.919 273.896 302.158 273.896 303.451C273.896 304.743 273.383 305.982 272.469 306.896C271.555 307.81 270.316 308.323 269.024 308.323V308.293ZM230.034 308.187L210.536 308.134C209.243 308.134 208.004 307.621 207.09 306.707C206.176 305.793 205.663 304.554 205.663 303.261C205.663 301.969 206.176 300.729 207.09 299.816C208.004 298.902 209.243 298.388 210.536 298.388L230.027 298.442C231.319 298.442 232.558 298.955 233.472 299.869C234.386 300.783 234.899 302.022 234.899 303.314C234.899 304.607 234.386 305.846 233.472 306.76C232.558 307.674 231.319 308.187 230.027 308.187H230.034ZM191.052 308.081L171.561 308.028C170.269 308.028 169.03 307.514 168.116 306.601C167.202 305.687 166.689 304.447 166.689 303.155C166.689 301.863 167.202 300.623 168.116 299.71C169.03 298.796 170.269 298.282 171.561 298.282L191.052 298.335C192.345 298.335 193.584 298.849 194.498 299.763C195.412 300.676 195.925 301.916 195.925 303.208C195.925 304.5 195.412 305.74 194.498 306.654C193.584 307.568 192.345 308.081 191.052 308.081ZM152.07 307.982H143.636C139.336 307.994 135.072 307.2 131.064 305.641C130.467 305.407 129.921 305.059 129.459 304.615C128.997 304.17 128.626 303.64 128.369 303.052C128.112 302.465 127.973 301.833 127.96 301.192C127.947 300.551 128.061 299.914 128.294 299.317C128.765 298.111 129.696 297.142 130.882 296.622C131.47 296.365 132.102 296.226 132.743 296.213C133.384 296.2 134.021 296.314 134.618 296.547C137.504 297.659 140.573 298.225 143.666 298.214H152.101C153.361 298.264 154.553 298.799 155.427 299.708C156.301 300.618 156.789 301.83 156.789 303.091C156.789 304.352 156.301 305.564 155.427 306.473C154.553 307.382 153.361 307.918 152.101 307.967L152.07 307.982ZM119.735 292.515C118.65 292.511 117.597 292.147 116.742 291.478C115.887 290.81 115.279 289.877 115.013 288.825C114.639 287.337 114.436 285.812 114.407 284.278L114.119 270.114C114.119 269.256 114.172 268.398 114.278 267.545C114.443 266.263 115.111 265.099 116.134 264.309C117.157 263.519 118.452 263.167 119.735 263.332C121.017 263.497 122.181 264.164 122.971 265.188C123.761 266.211 124.113 267.506 123.948 268.788C123.894 269.228 123.866 269.671 123.865 270.114V270.327L124.153 284.073C124.168 284.866 124.275 285.654 124.471 286.423C124.785 287.676 124.589 289.002 123.925 290.111C123.261 291.219 122.185 292.019 120.932 292.334C120.542 292.442 120.14 292.503 119.735 292.515ZM130.867 258.543C129.761 258.542 128.688 258.165 127.824 257.473C126.961 256.782 126.359 255.817 126.116 254.738C125.874 253.659 126.006 252.529 126.49 251.535C126.975 250.541 127.783 249.741 128.783 249.267C133.373 247.141 138.373 246.047 143.431 246.062H149.956C151.248 246.062 152.488 246.575 153.402 247.489C154.315 248.403 154.829 249.642 154.829 250.934C154.829 252.227 154.315 253.466 153.402 254.38C152.488 255.294 151.248 255.807 149.956 255.807H143.431C139.811 255.789 136.231 256.565 132.943 258.08C132.282 258.38 131.562 258.53 130.836 258.52L130.867 258.543ZM169.447 255.807C168.155 255.807 166.915 255.294 166.001 254.38C165.088 253.466 164.574 252.227 164.574 250.934C164.574 249.642 165.088 248.403 166.001 247.489C166.915 246.575 168.155 246.062 169.447 246.062H185.967C186.802 246.063 187.637 246.023 188.468 245.94C189.755 245.818 191.039 246.211 192.036 247.035C193.033 247.859 193.662 249.044 193.784 250.332C193.907 251.619 193.513 252.902 192.689 253.899C191.866 254.896 190.68 255.525 189.393 255.648C188.264 255.754 187.119 255.807 185.967 255.807H169.447ZM206.118 247.471C205.182 247.469 204.267 247.198 203.481 246.69C202.695 246.182 202.072 245.459 201.685 244.607C201.299 243.755 201.165 242.809 201.301 241.884C201.436 240.958 201.835 240.091 202.45 239.385C204.381 237.295 205.478 234.569 205.534 231.724C205.529 229.981 205.103 228.265 204.291 226.722C203.694 225.575 203.578 224.237 203.967 223.003C204.357 221.77 205.22 220.741 206.368 220.144C207.515 219.547 208.853 219.431 210.087 219.82C211.32 220.21 212.349 221.073 212.945 222.221C214.454 225.152 215.233 228.404 215.219 231.701C215.178 236.91 213.222 241.921 209.725 245.781C209.276 246.297 208.724 246.713 208.104 247C207.483 247.288 206.809 247.44 206.125 247.448L206.118 247.471ZM193.242 218.25C192.847 218.246 192.453 218.198 192.068 218.106C190.055 217.604 187.989 217.349 185.914 217.348H173.789C172.497 217.348 171.258 216.835 170.344 215.921C169.43 215.007 168.917 213.768 168.917 212.475C168.917 211.183 169.43 209.944 170.344 209.03C171.258 208.116 172.497 207.603 173.789 207.603H185.914C188.777 207.601 191.629 207.945 194.409 208.626C195.586 208.892 196.622 209.586 197.316 210.572C198.011 211.558 198.315 212.767 198.17 213.964C198.025 215.162 197.441 216.263 196.53 217.055C195.62 217.846 194.448 218.272 193.242 218.25ZM154.329 217.363H134.891C134.224 217.409 133.556 217.317 132.926 217.093C132.297 216.87 131.72 216.519 131.232 216.063C130.744 215.607 130.355 215.056 130.089 214.443C129.823 213.83 129.685 213.17 129.685 212.502C129.685 211.834 129.823 211.173 130.089 210.56C130.355 209.948 130.744 209.396 131.232 208.941C131.72 208.485 132.297 208.134 132.926 207.91C133.556 207.687 134.224 207.595 134.891 207.64H154.389C155.682 207.64 156.921 208.154 157.835 209.068C158.749 209.981 159.262 211.221 159.262 212.513C159.262 213.805 158.749 215.045 157.835 215.959C156.921 216.873 155.682 217.386 154.389 217.386L154.329 217.363Z" fill="#201F3B"/>
<path d="M259.573 110.224C256.477 110.224 253.45 109.306 250.875 107.585C248.3 105.865 246.294 103.42 245.109 100.559C243.924 97.6982 243.614 94.5502 244.218 91.5131C244.822 88.4761 246.313 85.6864 248.503 83.4968C250.692 81.3072 253.482 79.8161 256.519 79.212C259.556 78.6079 262.704 78.9179 265.565 80.1029C268.426 81.2879 270.871 83.2946 272.591 85.8693C274.312 88.444 275.23 91.471 275.23 94.5675C275.224 98.718 273.572 102.697 270.638 105.632C267.703 108.567 263.724 110.218 259.573 110.224ZM259.573 88.6566C258.404 88.6566 257.262 89.0033 256.289 89.6528C255.317 90.3023 254.56 91.2254 254.112 92.3055C253.665 93.3856 253.548 94.5741 253.776 95.7207C254.004 96.8673 254.567 97.9206 255.394 98.7472C256.22 99.5739 257.274 100.137 258.42 100.365C259.567 100.593 260.755 100.476 261.835 100.029C262.916 99.5812 263.839 98.8235 264.488 97.8515C265.138 96.8794 265.484 95.7366 265.484 94.5675C265.48 93.0018 264.856 91.5014 263.748 90.395C262.64 89.2886 261.139 88.6662 259.573 88.6642V88.6566Z" fill="#91FFC5"/>
</svg>
