<svg width="158" height="55" viewBox="0 0 158 55" fill="none" xmlns="http://www.w3.org/2000/svg">
<g opacity="0.4">
<path d="M142.251 22.1117C144.146 22.1117 145.682 20.5752 145.682 18.6799C145.682 16.7845 144.146 15.248 142.251 15.248C140.355 15.248 138.819 16.7845 138.819 18.6799C138.819 20.5752 140.355 22.1117 142.251 22.1117Z" fill="#746D63"/>
<path d="M93.2363 33.3132C94.9199 33.3132 95.8908 32.0508 95.8263 30.8204C95.7943 30.1729 95.7291 29.7517 95.6645 29.4282C94.6284 24.9609 91.0029 21.6582 86.6967 21.6582C81.5819 21.6582 77.438 26.2879 77.438 31.9856C77.438 37.6834 81.5819 42.313 86.6967 42.313C89.9022 42.313 92.2007 41.1478 93.8518 39.3024C94.661 38.396 94.4993 37.0039 93.5277 36.3238C92.7185 35.7735 91.715 35.9678 90.9703 36.5827C90.2582 37.1982 88.8987 38.428 86.6967 38.428C84.1073 38.428 81.9059 36.1941 81.4201 33.248H93.2363V33.3132ZM86.6647 25.5758C88.9952 25.5758 91.0029 27.3885 91.7476 29.8814H81.5819C82.3265 27.3566 84.3336 25.5758 86.6647 25.5758Z" fill="#746D63"/>
<path d="M77.6324 23.6972C77.6324 22.7263 76.9204 21.949 76.014 21.7873C73.1971 21.3667 70.5425 22.4022 69.0212 24.3127V24.0532C69.0212 22.8554 68.0497 22.1113 67.0787 22.1113C66.01 22.1113 65.1362 22.9851 65.1362 24.0532V39.9167C65.1362 40.9528 65.9129 41.8592 66.949 41.9238C68.0823 41.9883 69.0212 41.1145 69.0212 39.9813V31.7906C69.0212 28.1651 71.7404 25.1865 75.4956 25.6077C75.6254 25.6077 75.7545 25.6077 75.8842 25.6077C76.8552 25.5425 77.6324 24.7007 77.6324 23.6972Z" fill="#746D63"/>
<path d="M144.193 25.7696C144.193 24.7009 143.319 23.8271 142.251 23.8271C141.182 23.8271 140.309 24.7009 140.309 25.7696C140.309 25.8342 140.309 39.3665 140.309 39.9815C140.309 41.0502 141.182 41.924 142.251 41.924C143.319 41.924 144.193 41.0502 144.193 39.9815C144.193 39.3991 144.193 25.8668 144.193 25.7696Z" fill="#746D63"/>
<path d="M115.316 15.0216C115.316 13.9529 114.442 13.0791 113.373 13.0791C112.305 13.0791 111.431 13.9529 111.431 15.0216V23.6654C110.104 22.3378 108.453 21.6903 106.477 21.6903C101.363 21.6903 97.2188 26.32 97.2188 32.0177C97.2188 37.7155 101.363 42.3451 106.477 42.3451C108.453 42.3451 110.136 41.6651 111.463 40.3375C111.625 41.2444 112.435 41.9239 113.373 41.9239C114.442 41.9239 115.316 41.0501 115.316 39.9814V15.0216ZM106.51 38.4921C103.531 38.4921 101.136 35.6113 101.136 32.0177C101.136 28.4568 103.531 25.5427 106.51 25.5427C109.489 25.5427 111.884 28.4242 111.884 32.0177C111.884 35.6113 109.456 38.4921 106.51 38.4921Z" fill="#746D63"/>
<path d="M135.582 15.0216C135.582 13.9529 134.708 13.0791 133.639 13.0791C132.571 13.0791 131.697 13.9529 131.697 15.0216V23.6654C130.37 22.3378 128.719 21.6903 126.744 21.6903C121.629 21.6903 117.485 26.32 117.485 32.0177C117.485 37.7155 121.629 42.3451 126.744 42.3451C128.719 42.3451 130.402 41.6651 131.729 40.3375C131.891 41.2444 132.7 41.9239 133.639 41.9239C134.708 41.9239 135.582 41.0501 135.582 39.9814V15.0216ZM126.744 38.4921C123.765 38.4921 121.37 35.6113 121.37 32.0177C121.37 28.4568 123.765 25.5427 126.744 25.5427C129.722 25.5427 132.118 28.4242 132.118 32.0177C132.118 35.6113 129.722 38.4921 126.744 38.4921Z" fill="#746D63"/>
<path d="M154.034 40.0135V25.5748H155.751C156.657 25.5748 157.466 24.8947 157.531 23.9558C157.596 22.9522 156.787 22.111 155.815 22.111H154.034V19.3913C154.034 18.3552 153.258 17.4488 152.222 17.3842C151.088 17.3197 150.15 18.1934 150.15 19.3267V22.143H148.531C147.625 22.143 146.815 22.8231 146.751 23.7621C146.686 24.7656 147.495 25.6074 148.466 25.6074H150.117V40.0461C150.117 41.1142 150.992 41.988 152.06 41.988C153.193 41.9234 154.034 41.0816 154.034 40.0135Z" fill="#746D63"/>
<path d="M27.1292 54.2584C42.1123 54.2584 54.2584 42.1123 54.2584 27.1292C54.2584 12.1462 42.1123 0 27.1292 0C12.1462 0 0 12.1462 0 27.1292C0 42.1123 12.1462 54.2584 27.1292 54.2584Z" fill="#746D63"/>
<path d="M45.2262 27.1293C45.2262 24.9279 43.446 23.1797 41.2766 23.1797C40.2085 23.1797 39.237 23.6003 38.5249 24.2804C35.8058 22.3379 32.0825 21.0755 27.9386 20.9137L29.7514 12.4317L35.6435 13.6941C35.7086 15.1834 36.9385 16.3812 38.4604 16.3812C40.0142 16.3812 41.2766 15.1188 41.2766 13.5643C41.2766 12.0105 40.0142 10.748 38.4604 10.748C37.3597 10.748 36.3881 11.3955 35.9349 12.3345L29.3634 10.9424C29.1691 10.9098 28.9748 10.9424 28.845 11.0395C28.6833 11.1367 28.5861 11.2984 28.5541 11.4927L26.5465 20.9457C22.338 21.0755 18.5502 22.3379 15.7985 24.313C15.0864 23.6329 14.1148 23.2123 13.0467 23.2123C10.8454 23.2123 9.09717 24.9924 9.09717 27.1618C9.09717 28.7803 10.0681 30.1399 11.4283 30.7554C11.3631 31.1434 11.3311 31.532 11.3311 31.9532C11.3311 38.039 18.421 42.9927 27.162 42.9927C35.9029 42.9927 42.9929 38.0716 42.9929 31.9532C42.9929 31.5646 42.9603 31.1434 42.8957 30.7554C44.2553 30.1399 45.2262 28.7477 45.2262 27.1293ZM18.097 29.9455C18.097 28.3917 19.3594 27.1293 20.9139 27.1293C22.4678 27.1293 23.7302 28.3917 23.7302 29.9455C23.7302 31.4994 22.4678 32.7624 20.9139 32.7624C19.3594 32.7944 18.097 31.4994 18.097 29.9455ZM33.8633 37.4241C31.9208 39.3666 28.2301 39.4963 27.162 39.4963C26.0613 39.4963 22.3706 39.334 20.4601 37.4241C20.1692 37.1326 20.1692 36.6794 20.4601 36.388C20.7516 36.0971 21.2048 36.0971 21.4962 36.388C22.7267 37.6184 25.3167 38.039 27.162 38.039C29.0073 38.039 31.6293 37.6184 32.8272 36.388C33.1186 36.0971 33.5718 36.0971 33.8633 36.388C34.1222 36.6794 34.1222 37.1326 33.8633 37.4241ZM33.3449 32.7944C31.791 32.7944 30.5286 31.532 30.5286 29.9781C30.5286 28.4243 31.791 27.1618 33.3449 27.1618C34.8994 27.1618 36.1618 28.4243 36.1618 29.9781C36.1618 31.4994 34.8994 32.7944 33.3449 32.7944Z" fill="#FEFDFC"/>
</g>
</svg>
