<svg width="127" height="53" viewBox="0 0 127 53" fill="none" xmlns="http://www.w3.org/2000/svg">
<g opacity="0.4">
<path d="M117.501 36.5591C117.161 36.5591 116.927 36.3236 116.927 35.9848V19.1569H111.211C110.871 19.1569 110.637 18.9224 110.637 18.5833V16.262C110.637 15.9221 110.871 15.6869 111.211 15.6869H126.427C126.766 15.6869 127 15.9224 127 16.262V18.5831C127 18.922 126.766 19.1569 126.427 19.1569H120.711V35.9846C120.711 36.3236 120.476 36.5591 120.137 36.5591H117.501ZM73.7145 28.1577L70.7139 19.5488L67.6864 28.1577H73.7145ZM80.3696 35.8792C80.5007 36.2192 80.2915 36.5591 79.9261 36.5591H77.2124C76.8207 36.5591 76.5856 36.3771 76.4547 36.0101L74.9156 31.5764H66.4868L64.9451 36.0101C64.8156 36.3772 64.5798 36.5591 64.1891 36.5591H61.6324C61.2926 36.5591 61.0574 36.2191 61.188 35.8792L68.2603 16.2098C68.3912 15.8434 68.626 15.6878 69.0166 15.6878H72.5138C72.9056 15.6878 73.1667 15.8435 73.297 16.2098L80.3696 35.8792ZM100.642 33.7409C102.311 33.7409 103.434 32.9335 104.347 31.5501L100.12 27.01C98.5015 27.9238 97.4571 28.8357 97.4571 30.6625C97.4573 32.463 98.9181 33.7409 100.642 33.7409ZM101.816 18.4523C100.459 18.4523 99.6762 19.3141 99.6762 20.4619C99.6762 21.3488 100.145 22.1316 101.215 23.2798C103.068 22.2094 103.851 21.5575 103.851 20.4099C103.851 19.3394 103.173 18.4523 101.816 18.4523ZM113.378 35.8285C113.717 36.1941 113.508 36.5591 113.09 36.5591H109.775C109.332 36.5591 109.097 36.4543 108.81 36.1147L106.827 33.9241C105.496 35.6984 103.641 37.0286 100.563 37.0286C96.7527 37.0286 93.7506 34.7329 93.7506 30.7941C93.7506 27.7667 95.3695 26.1488 97.823 24.7925C96.6215 23.4098 96.0746 21.9487 96.0746 20.671C96.0746 17.435 98.3448 15.2178 101.763 15.2178C105.26 15.2178 107.401 17.2796 107.401 20.3314C107.401 22.9404 105.522 24.4001 103.538 25.4967L106.461 28.6545L108.105 25.7836C108.314 25.445 108.549 25.3141 108.966 25.3141H111.497C111.915 25.3141 112.15 25.6018 111.89 26.0451L108.966 31.0535L113.378 35.8285ZM87.3332 36.5591C87.6724 36.5591 87.9085 36.3236 87.9085 35.9848V19.1569H93.623C93.9622 19.1569 94.1968 18.9224 94.1968 18.5833V16.262C94.1968 15.9221 93.9622 15.6869 93.623 15.6869H78.4076C78.0678 15.6869 77.8334 15.9224 77.8334 16.262V18.5831C77.8334 18.922 78.0679 19.1569 78.4076 19.1569H84.1221V35.9846C84.1221 36.3236 84.3577 36.5591 84.6966 36.5591H87.3332Z" fill="#746D63"/>
<path d="M10.0972 46.7091C14.5232 50.1354 20.0784 52.1941 26.1057 52.1941C32.7014 52.1941 38.7144 49.7451 43.3035 45.7251C43.3591 45.6759 43.3317 45.6434 43.2768 45.6759C41.2176 47.0513 35.3484 50.0537 26.1059 50.0537C18.0738 50.0537 12.9978 48.2614 10.1313 46.6613C10.0764 46.6342 10.0561 46.6754 10.0972 46.7091ZM27.8777 48.0431C34.302 48.0431 41.3614 46.2918 45.5836 42.825C46.739 41.8804 47.8395 40.6232 48.8251 38.9337C49.3926 37.9615 49.9475 36.8066 50.3995 35.6713C50.4196 35.6159 50.3854 35.589 50.3438 35.6512C46.4175 41.4296 35.0478 45.0338 23.308 45.0338C15.0098 45.0338 6.08118 42.38 2.58554 37.3128C2.55113 37.266 2.51673 37.286 2.53768 37.3399C5.79411 44.2618 15.6734 48.0431 27.8777 48.0431ZM20.8587 36.56C7.49749 36.56 1.19742 30.3367 0.0545955 26.0897C0.0405023 26.0283 0 26.0417 0 26.097C0 27.5267 0.143091 29.3718 0.389279 30.5965C0.506723 31.1926 0.991861 32.1282 1.70313 32.8739C4.93848 36.2465 13.0046 40.9723 26.974 40.9723C46.0066 40.9723 50.3584 34.6319 51.247 32.5468C51.8825 31.0556 52.2117 28.3608 52.2117 26.0971C52.2117 25.5493 52.198 25.1118 52.1773 24.6822C52.1773 24.6125 52.1369 24.6068 52.123 24.6747C51.1719 29.7767 34.9107 36.56 20.8587 36.56ZM2.51673 14.9013C1.75112 16.4208 0.902476 18.9843 0.650194 20.3111C0.539607 20.8796 0.586711 21.1526 0.786048 21.5768C2.38747 24.9748 10.4878 30.4116 29.3827 30.4116C40.9099 30.4116 49.8646 27.5794 51.3153 22.4111C51.5825 21.4597 51.5968 20.4552 51.2536 19.1017C50.8702 17.5891 50.1521 15.8253 49.5443 14.5868C49.5242 14.5464 49.4888 14.5524 49.496 14.6001C49.7218 21.3788 30.8194 25.7477 21.2821 25.7477C10.9515 25.7477 2.33288 21.6314 2.33288 16.4338C2.33288 15.9344 2.43623 15.4349 2.56523 14.915C2.57818 14.8675 2.53755 14.8597 2.51673 14.9013ZM43.3458 6.57846C43.4555 6.75039 43.5102 6.93387 43.5102 7.18083C43.5102 10.0804 34.6364 15.21 20.5105 15.21C10.1313 15.21 8.18806 11.3593 8.18806 8.91049C8.18806 8.03512 8.52376 7.13944 9.26308 6.22979C9.30346 6.1757 9.26917 6.15487 9.22258 6.19512C7.8742 7.3379 6.63526 8.62378 5.54843 10.0119C5.02914 10.6683 4.70677 11.2499 4.70677 11.5983C4.70677 16.6731 17.4308 20.3526 29.3282 20.3526C42.005 20.3526 47.6626 16.214 47.6626 12.5769C47.6626 11.2771 47.1567 10.5183 45.8624 9.04711C45.0222 8.0901 44.2276 7.31086 43.3864 6.5438C43.3458 6.51028 43.3175 6.53758 43.3458 6.57846ZM39.4595 3.67949C35.5471 1.33426 31.0039 0 26.1059 0C21.1738 0 16.4937 1.38086 12.5673 3.78818C11.3895 4.51308 10.7266 5.09399 10.7266 5.84074C10.7266 8.04198 15.8707 10.4088 24.9969 10.4088C34.0284 10.4088 41.0333 7.81634 41.0333 5.3209C41.0333 4.72526 40.5128 4.30853 39.4595 3.67949Z" fill="#746D63"/>
</g>
</svg>
