<svg width="249" height="43" viewBox="0 0 249 43" fill="none" xmlns="http://www.w3.org/2000/svg">
<path opacity="0.4" d="M3.3215 9.70428C3.42905 9.70535 3.53569 9.68446 3.63478 9.6429C3.73386 9.60134 3.82328 9.53999 3.89751 9.46268C3.97173 9.38537 4.02916 9.29373 4.06625 9.19345C4.10333 9.09318 4.11923 8.98642 4.11304 8.87977C4.11304 8.29502 3.75783 8.01562 3.02906 8.01562H1.85156V11.0771H2.29445V9.74261H2.83868L2.85114 9.75885L3.69571 11.0771H4.16934L3.26065 9.71273L3.3215 9.70428ZM2.80929 9.3976H2.29573V8.3626H2.94665C3.2829 8.3626 3.66624 8.41717 3.66624 8.85443C3.66624 9.35732 3.27833 9.3976 2.80666 9.3976" fill="#746D63"/>
<path opacity="0.4" d="M2.86247 36.6523C2.09837 36.6596 1.36825 36.9672 0.831836 37.5076C0.295425 38.0481 -0.00364194 38.7776 3.34805e-05 39.5365C0.0037089 40.2954 0.30986 41.022 0.851481 41.5573C1.3931 42.0927 2.12613 42.3932 2.89026 42.3932C3.65439 42.3932 4.38742 42.0927 4.92904 41.5573C5.47066 41.022 5.77681 40.2954 5.78048 39.5365C5.78416 38.7776 5.48509 38.0481 4.94868 37.5076C4.41227 36.9672 3.68215 36.6596 2.91805 36.6523H2.86247ZM2.86247 42.0646C2.36129 42.0728 1.86889 41.9333 1.44754 41.6637C1.02619 41.394 0.694814 41.0064 0.495314 40.5497C0.295813 40.093 0.237142 39.5878 0.326733 39.098C0.416324 38.6082 0.650174 38.1558 0.998659 37.7979C1.34714 37.4401 1.79462 37.1929 2.28454 37.0877C2.77445 36.9825 3.28483 37.0239 3.75105 37.2067C4.21727 37.3895 4.61842 37.7056 4.9038 38.1148C5.18918 38.5241 5.34593 39.0082 5.35428 39.5059C5.35428 39.5202 5.35428 39.5339 5.35428 39.5482C5.36831 40.2011 5.12064 40.8329 4.66574 41.3046C4.21085 41.7762 3.58597 42.0491 2.92851 42.0633H2.86311" fill="#746D63"/>
<g opacity="0.4">
<path d="M31.724 40.9973V10.8268L6.78125 40.9973H31.724Z" fill="#746D63"/>
<path d="M28.0712 8.83522C30.4101 6.49197 31.724 3.31385 31.724 0H6.78125C6.78125 3.31385 8.0952 6.49197 10.434 8.83522C12.7729 11.1785 15.945 12.4949 19.2526 12.4949C22.5603 12.4949 25.7324 11.1785 28.0712 8.83522Z" fill="#746D63"/>
<path d="M39.4859 32.1648C37.1471 34.508 35.8331 37.6861 35.8331 41H60.7759C60.7759 37.6861 59.462 34.508 57.1231 32.1648C54.7843 29.8215 51.6121 28.5051 48.3045 28.5051C44.9969 28.5051 41.8248 29.8215 39.4859 32.1648Z" fill="#746D63"/>
<path d="M35.8331 0V30.1706L60.7812 0H35.8331Z" fill="#746D63"/>
</g>
<path opacity="0.4" d="M190.207 28.969C192.524 29.0208 194.769 28.1544 196.45 26.5585L199.545 29.8995C197.501 32.0014 194.666 33.5634 190.26 33.5634C182.705 33.5634 177.822 28.5496 177.822 21.7713C177.791 20.2178 178.074 18.6741 178.653 17.2321C179.232 15.7902 180.095 14.4797 181.192 13.3787C182.288 12.2778 183.595 11.4089 185.035 10.8241C186.474 10.2392 188.017 9.95026 189.571 9.97452C197.072 9.97452 201.324 15.6825 200.948 23.5985H183.217C183.843 26.8864 186.157 28.9835 190.192 28.9835L190.207 28.969ZM195.592 19.8237C195.11 16.7528 193.278 14.4917 189.614 14.4917C186.205 14.4917 183.829 16.4201 183.217 19.8237H195.597H195.592ZM73.7812 28.7135L87.4245 14.8485H74.1043V10.5H93.7544V14.9353L80.1111 28.7955H93.9472V33.1488H73.7812V28.7135ZM109.263 28.9642C111.581 29.016 113.825 28.1496 115.506 26.5537L118.601 29.8946C116.557 31.9966 113.723 33.5585 109.316 33.5585C101.762 33.5585 96.8784 28.5448 96.8784 21.7665C96.8477 20.213 97.1303 18.6692 97.7093 17.2273C98.2883 15.7854 99.1518 14.4749 100.248 13.3739C101.345 12.2729 102.652 11.4041 104.091 10.8192C105.531 10.2344 107.073 9.94544 108.627 9.9697C116.128 9.9697 120.38 15.6777 120.004 23.5937H102.283C102.909 26.8815 105.223 28.9786 109.259 28.9786L109.263 28.9642ZM114.658 19.8189C114.176 16.7479 112.344 14.4869 108.68 14.4869C105.272 14.4869 102.895 16.4153 102.283 19.8189H114.663H114.658ZM149.48 21.7617C149.48 14.5303 154.894 9.97934 160.857 9.97934C162.288 9.9603 163.706 10.2547 165.011 10.8418C166.316 11.429 167.477 12.2947 168.411 13.3781V0.0144577H173.232V33.0861H168.411V29.9669C167.494 31.0949 166.335 32.0021 165.02 32.6213C163.705 33.2405 162.267 33.5559 160.814 33.5441C155.028 33.5441 149.484 28.9642 149.484 21.7665L149.48 21.7617ZM168.681 21.7183C168.643 20.3043 168.189 18.9329 167.376 17.7756C166.563 16.6183 165.426 15.7264 164.109 15.2116C162.792 14.6968 161.352 14.5819 159.969 14.8812C158.587 15.1805 157.323 15.8808 156.337 16.8945C155.35 17.9082 154.684 19.1902 154.422 20.5803C154.161 21.9704 154.315 23.4067 154.865 24.7098C155.415 26.0128 156.338 27.1246 157.517 27.9062C158.696 28.6878 160.079 29.1044 161.493 29.104C165.639 29.104 168.677 25.7968 168.677 21.7183H168.681ZM204.101 28.2748L208.469 26.0089C209.046 27.0383 209.894 27.8905 210.92 28.4733C211.946 29.0562 213.112 29.3476 214.292 29.3161C217.021 29.3161 218.438 27.918 218.438 26.3271C218.438 24.5145 215.801 24.1095 212.933 23.5165C209.076 22.697 205.06 21.4291 205.06 16.7672C205.06 13.1853 208.469 9.87328 213.834 9.92149C218.062 9.92149 221.21 11.5992 222.994 14.3085L218.944 16.5262C218.385 15.6976 217.623 15.0254 216.732 14.5732C215.84 14.1211 214.848 13.9038 213.849 13.9421C211.255 13.9421 209.934 15.2101 209.934 16.6612C209.934 18.2906 212.026 18.7438 215.305 19.4718C219.036 20.2913 223.259 21.511 223.259 26.2211C223.259 29.345 220.531 33.5585 214.071 33.5151C209.346 33.5151 206.02 31.6109 204.106 28.2603L204.101 28.2748ZM236.358 23.02L232.535 27.1901V33.0716H227.714V0H232.535V21.6605L242.77 10.4277H248.641L239.771 20.1178L248.873 33.0765H243.416L236.363 23.02H236.358ZM134.911 9.97452C129.174 9.97452 124.377 13.6866 124.377 19.8574V33.0909H129.294V20.4697C129.294 16.7576 131.43 14.5303 135.079 14.5303C138.729 14.5303 140.542 16.7479 140.542 20.4697V33.0909H145.43V19.8574C145.43 13.6963 140.609 9.97452 134.896 9.97452" fill="#746D63"/>
</svg>
