<svg width="388" height="388" viewBox="0 0 388 388" fill="none" xmlns="http://www.w3.org/2000/svg">
<path d="M368.941 160.8C368.942 161.44 368.817 162.074 368.572 162.666C368.327 163.258 367.969 163.795 367.516 164.248C367.063 164.7 366.526 165.059 365.934 165.304C365.342 165.548 364.708 165.674 364.068 165.673H354.974V174.767C354.925 176.027 354.389 177.219 353.48 178.092C352.571 178.966 351.359 179.455 350.098 179.455C348.837 179.455 347.625 178.966 346.716 178.092C345.807 177.219 345.271 176.027 345.221 174.767V165.673H336.128C334.835 165.673 333.596 165.159 332.682 164.246C331.768 163.332 331.255 162.092 331.255 160.8C331.255 159.508 331.768 158.268 332.682 157.354C333.596 156.441 334.835 155.927 336.128 155.927H345.221V146.834C345.271 145.573 345.807 144.382 346.716 143.508C347.625 142.634 348.837 142.146 350.098 142.146C351.359 142.146 352.571 142.634 353.48 143.508C354.389 144.382 354.925 145.573 354.974 146.834V155.927H364.068C365.36 155.927 366.6 156.441 367.514 157.354C368.428 158.268 368.941 159.508 368.941 160.8Z" fill="#EBEBEB"/>
<path d="M257.558 65.4525C254.461 65.454 251.433 64.537 248.857 62.8176C246.282 61.0981 244.274 58.6535 243.088 55.7928C241.901 52.9321 241.59 49.7838 242.193 46.7463C242.797 43.7088 244.287 40.9183 246.477 38.728C248.666 36.5376 251.456 35.0458 254.493 34.441C257.53 33.8363 260.678 34.1459 263.54 35.3307C266.401 36.5155 268.847 38.5222 270.567 41.097C272.288 43.6719 273.206 46.6992 273.206 49.7961C273.2 53.9452 271.55 57.9229 268.617 60.8575C265.684 63.7921 261.707 65.4445 257.558 65.4525ZM257.558 43.8851C256.388 43.8836 255.245 44.229 254.272 44.8776C253.299 45.5262 252.54 46.4488 252.091 47.5288C251.643 48.6087 251.524 49.7975 251.752 50.9446C251.979 52.0917 252.541 53.1456 253.368 53.973C254.194 54.8005 255.247 55.3642 256.394 55.5929C257.541 55.8216 258.73 55.7049 259.81 55.2578C260.891 54.8106 261.814 54.053 262.464 53.0808C263.114 52.1086 263.461 50.9655 263.461 49.7961C263.459 48.2303 262.837 46.7291 261.73 45.6213C260.624 44.5134 259.123 43.8891 257.558 43.8851Z" fill="#91FFC5"/>
<path d="M212.544 251.556H156.503V270.956H212.544V251.556Z" fill="#91FFC5"/>
<path d="M339.72 204.912H81.7148C78.0527 204.912 75.084 207.881 75.084 211.543V226.692C75.084 230.354 78.0527 233.323 81.7148 233.323H339.72C343.382 233.323 346.351 230.354 346.351 226.692V211.543C346.351 207.881 343.382 204.912 339.72 204.912Z" fill="#91FFC5"/>
<path d="M277.359 289.484C278.606 287.259 279.249 284.747 279.224 282.197C279.2 279.647 278.508 277.147 277.219 274.947C275.93 272.747 274.087 270.922 271.874 269.654C269.661 268.386 267.155 267.719 264.605 267.72H107.609C103.733 267.724 100.017 269.265 97.2769 272.006C94.5363 274.746 92.9949 278.462 92.9909 282.338C92.9903 284.65 93.5438 286.929 94.6051 288.984C86.7643 291.086 79.8358 295.716 74.8927 302.155C69.9496 308.594 67.268 316.483 67.2632 324.601C67.2672 326.875 68.1723 329.055 69.7802 330.663C71.3881 332.27 73.5677 333.176 75.8416 333.18H298.108C299.4 333.178 300.638 332.664 301.551 331.75C302.465 330.837 302.979 329.599 302.981 328.307V324.601C302.97 316.791 300.485 309.185 295.882 302.875C291.278 296.566 284.794 291.878 277.359 289.484ZM77.0465 323.396C77.3547 316.414 80.3437 309.819 85.3914 304.984C90.439 300.15 97.1565 297.448 104.146 297.441H266.106C273.094 297.448 279.811 300.15 284.857 304.985C289.904 309.82 292.891 316.414 293.197 323.396H77.0465Z" fill="#201F3B"/>
<path d="M318.213 219.766C316.152 149.433 258.293 92.8701 187.475 92.8701C116.658 92.8701 58.7912 149.433 56.73 219.766C53.2119 222.283 50.3453 225.603 48.3682 229.45C46.3912 233.297 45.3608 237.561 45.3628 241.886V247.138C45.3648 248.43 45.8788 249.668 46.7922 250.581C47.7056 251.495 48.9438 252.009 50.2355 252.011H324.73C326.022 252.009 327.26 251.495 328.174 250.581C329.087 249.668 329.601 248.43 329.603 247.138V241.886C329.603 237.559 328.569 233.294 326.588 229.446C324.607 225.599 321.736 222.28 318.213 219.766ZM187.475 102.616C251.42 102.616 303.936 152.434 308.24 215.295C306.309 214.867 304.338 214.652 302.36 214.651H72.5834C70.6057 214.652 68.6339 214.867 66.7028 215.295C71.0223 152.434 123.524 102.616 187.475 102.616ZM319.858 242.265H55.0855V241.886C55.0916 237.248 56.9372 232.802 60.2177 229.523C63.4981 226.244 67.9452 224.4 72.5834 224.396H302.367C307.006 224.4 311.453 226.244 314.733 229.523C318.014 232.802 319.859 237.248 319.865 241.886L319.858 242.265Z" fill="#201F3B"/>
<path d="M193.106 72.9854H181.845C179.124 72.9854 176.919 75.1907 176.919 77.9111V111.103C176.919 113.824 179.124 116.029 181.845 116.029H193.106C195.826 116.029 198.032 113.824 198.032 111.103V77.9111C198.032 75.1907 195.826 72.9854 193.106 72.9854Z" fill="#91FFC5"/>
<path d="M208.133 65.6719H166.81C164.194 65.6719 162.073 67.7924 162.073 70.4082V81.2373C162.073 83.8531 164.194 85.9737 166.81 85.9737H208.133C210.749 85.9737 212.869 83.8531 212.869 81.2373V70.4082C212.869 67.7924 210.749 65.6719 208.133 65.6719Z" fill="#201F3B"/>
<path d="M77.6303 111.255C76.9898 111.256 76.3553 111.13 75.7633 110.886C75.1712 110.641 74.6332 110.283 74.1799 109.83C73.7266 109.377 73.367 108.84 73.1216 108.248C72.8763 107.657 72.75 107.022 72.75 106.382C72.75 101.558 74.6662 96.9322 78.077 93.5213C81.4878 90.1105 86.1139 88.1943 90.9375 88.1943C92.2298 88.1943 93.4692 88.7077 94.3831 89.6215C95.2969 90.5353 95.8102 91.7747 95.8102 93.0671C95.8102 94.3594 95.2969 95.5988 94.3831 96.5126C93.4692 97.4264 92.2298 97.9398 90.9375 97.9398C88.7025 97.9438 86.5603 98.834 84.9806 100.415C83.4009 101.996 82.5126 104.139 82.5106 106.374C82.5116 107.015 82.3861 107.651 82.1412 108.243C81.8963 108.836 81.5368 109.374 81.0834 109.827C80.6301 110.281 80.0917 110.64 79.4991 110.885C78.9066 111.13 78.2715 111.256 77.6303 111.255Z" fill="#201F3B"/>
<path d="M61.6027 108.875C60.3104 108.875 59.071 108.361 58.1572 107.447C57.2434 106.534 56.73 105.294 56.73 104.002C56.73 95.5606 60.0833 87.465 66.0522 81.4961C72.0211 75.5271 80.1168 72.1738 88.5581 72.1738C89.8504 72.1738 91.0898 72.6872 92.0036 73.601C92.9175 74.5148 93.4308 75.7542 93.4308 77.0466C93.4308 78.3389 92.9175 79.5783 92.0036 80.4921C91.0898 81.4059 89.8504 81.9193 88.5581 81.9193C82.7033 81.9253 77.0899 84.2538 72.9499 88.3938C68.81 92.5338 66.4815 98.1471 66.4754 104.002C66.4754 104.642 66.3494 105.275 66.1045 105.867C65.8597 106.458 65.5007 106.995 65.0483 107.447C64.5958 107.9 64.0586 108.259 63.4674 108.504C62.8762 108.749 62.2426 108.875 61.6027 108.875Z" fill="#201F3B"/>
<path d="M302.132 111.255C300.84 111.255 299.601 110.741 298.687 109.828C297.773 108.914 297.26 107.674 297.26 106.382C297.258 104.147 296.369 102.004 294.79 100.423C293.21 98.8418 291.068 97.9516 288.833 97.9476C287.54 97.9476 286.301 97.4342 285.387 96.5204C284.473 95.6066 283.96 94.3672 283.96 93.0749C283.96 91.7826 284.473 90.5432 285.387 89.6293C286.301 88.7155 287.54 88.2021 288.833 88.2021C293.656 88.2021 298.282 90.1183 301.693 93.5291C305.104 96.94 307.02 101.566 307.02 106.39C307.019 107.03 306.892 107.664 306.646 108.256C306.399 108.847 306.039 109.384 305.585 109.836C305.131 110.288 304.592 110.645 304 110.889C303.407 111.132 302.773 111.257 302.132 111.255Z" fill="#201F3B"/>
<path d="M318.16 108.875C316.867 108.875 315.628 108.361 314.714 107.447C313.8 106.534 313.287 105.294 313.287 104.002C313.281 98.1471 310.952 92.5338 306.812 88.3938C302.672 84.2538 297.059 81.9253 291.204 81.9193C289.912 81.9193 288.673 81.4059 287.759 80.4921C286.845 79.5783 286.332 78.3389 286.332 77.0466C286.332 75.7542 286.845 74.5148 287.759 73.601C288.673 72.6872 289.912 72.1738 291.204 72.1738C299.646 72.1738 307.741 75.5271 313.71 81.4961C319.679 87.465 323.032 95.5606 323.032 104.002C323.032 105.294 322.519 106.534 321.605 107.447C320.691 108.361 319.452 108.875 318.16 108.875Z" fill="#201F3B"/>
</svg>
