<svg width="164" height="60" viewBox="0 0 164 60" fill="none" xmlns="http://www.w3.org/2000/svg">
<path d="M164 60L-2.44784e-06 60L19 32L0 4L164 4L164 60Z" fill="#A03C48"/>
<path d="M47.3496 22.6914C47.1309 23.776 46.6478 24.6647 45.9004 25.3574C45.1621 26.0501 44.1549 26.5469 42.8789 26.8477L48.3613 33H43.7402L38.6953 27.0527L39.2148 24.373H39.9395C41.3158 24.373 42.2272 24.2181 42.6738 23.9082C43.1296 23.5892 43.4395 23.1836 43.6035 22.6914H38.6953V19.875H43.5625C43.4167 19.5195 43.2116 19.2279 42.9473 19C42.6921 18.7721 42.3822 18.6172 42.0176 18.5352C41.653 18.444 41.0879 18.3984 40.3223 18.3984H38.6953V15.582H51.4375V18.3984H46.1465C46.5658 18.7266 46.903 19.2188 47.1582 19.875H51.4375V22.6914H47.3496ZM63.6387 24.936L61.9307 22.248L66.6907 18.16H58.7387V14.828H71.5907V17.936L66.8867 21.856C68.3241 21.912 69.5561 22.4533 70.5827 23.48C71.6281 24.488 72.1507 25.7947 72.1507 27.4C72.1507 29.0427 71.5161 30.4613 70.2467 31.656C68.9774 32.832 67.2881 33.42 65.1787 33.42C63.1441 33.42 61.4921 32.86 60.2227 31.74C58.9534 30.6013 58.2627 29.2293 58.1507 27.624L61.8747 26.896C61.9121 27.8293 62.2294 28.5947 62.8267 29.192C63.4427 29.7893 64.2267 30.088 65.1787 30.088C66.1121 30.088 66.8587 29.8267 67.4187 29.304C67.9787 28.7813 68.2587 28.128 68.2587 27.344C68.2587 26.504 67.9787 25.8507 67.4187 25.384C66.8774 24.8987 66.1681 24.656 65.2907 24.656C64.7121 24.656 64.1614 24.7493 63.6387 24.936ZM73.3779 32.412L74.3299 29.304C75.2632 29.8267 76.3366 30.088 77.5499 30.088C79.2299 30.088 80.5739 29.64 81.5819 28.744C82.6086 27.848 83.1872 26.5787 83.3179 24.936C82.9259 25.5333 82.3566 26.0093 81.6099 26.364C80.8819 26.7187 80.0512 26.896 79.1179 26.896C77.3632 26.896 75.8792 26.336 74.6659 25.216C73.4526 24.096 72.8459 22.6213 72.8459 20.792C72.8459 18.9253 73.4992 17.3947 74.8059 16.2C76.1312 15.0053 77.8019 14.408 79.8179 14.408C81.9086 14.408 83.6352 15.1547 84.9979 16.648C86.3792 18.1227 87.0699 20.2413 87.0699 23.004C87.0699 26.308 86.2579 28.8747 84.6339 30.704C83.0099 32.5147 80.6579 33.42 77.5779 33.42C75.8606 33.42 74.4606 33.084 73.3779 32.412ZM81.8899 22.836C82.5059 22.276 82.8139 21.5573 82.8139 20.68C82.8139 19.8027 82.5059 19.084 81.8899 18.524C81.2926 17.964 80.5552 17.684 79.6779 17.684C78.8192 17.684 78.0819 17.964 77.4659 18.524C76.8686 19.084 76.5699 19.8027 76.5699 20.68C76.5699 21.576 76.8686 22.304 77.4659 22.864C78.0632 23.4053 78.8006 23.676 79.6779 23.676C80.5552 23.676 81.2926 23.396 81.8899 22.836ZM88.329 32.44C87.8997 31.992 87.685 31.432 87.685 30.76C87.685 30.088 87.9277 29.528 88.413 29.08C88.8984 28.632 89.505 28.408 90.233 28.408C91.073 28.408 91.745 28.716 92.249 29.332C92.753 29.9293 93.005 30.6947 93.005 31.628C93.005 33.4947 92.4917 34.9413 91.465 35.968C90.457 36.9947 89.3277 37.5827 88.077 37.732V35.94C88.749 35.7907 89.3557 35.4267 89.897 34.848C90.4384 34.288 90.7184 33.644 90.737 32.916C90.5877 33.028 90.345 33.084 90.009 33.084C89.3184 33.084 88.7584 32.8693 88.329 32.44ZM94.7356 32.412L95.6876 29.304C96.6209 29.8267 97.6942 30.088 98.9076 30.088C100.588 30.088 101.932 29.64 102.94 28.744C103.966 27.848 104.545 26.5787 104.676 24.936C104.284 25.5333 103.714 26.0093 102.968 26.364C102.24 26.7187 101.409 26.896 100.476 26.896C98.7209 26.896 97.2369 26.336 96.0236 25.216C94.8102 24.096 94.2036 22.6213 94.2036 20.792C94.2036 18.9253 94.8569 17.3947 96.1636 16.2C97.4889 15.0053 99.1596 14.408 101.176 14.408C103.266 14.408 104.993 15.1547 106.356 16.648C107.737 18.1227 108.428 20.2413 108.428 23.004C108.428 26.308 107.616 28.8747 105.992 30.704C104.368 32.5147 102.016 33.42 98.9356 33.42C97.2182 33.42 95.8182 33.084 94.7356 32.412ZM103.248 22.836C103.864 22.276 104.172 21.5573 104.172 20.68C104.172 19.8027 103.864 19.084 103.248 18.524C102.65 17.964 101.913 17.684 101.036 17.684C100.177 17.684 99.4396 17.964 98.8236 18.524C98.2262 19.084 97.9276 19.8027 97.9276 20.68C97.9276 21.576 98.2262 22.304 98.8236 22.864C99.4209 23.4053 100.158 23.676 101.036 23.676C101.913 23.676 102.65 23.396 103.248 22.836ZM109.94 32.412L110.892 29.304C111.825 29.8267 112.898 30.088 114.112 30.088C115.792 30.088 117.136 29.64 118.144 28.744C119.17 27.848 119.749 26.5787 119.88 24.936C119.488 25.5333 118.918 26.0093 118.172 26.364C117.444 26.7187 116.613 26.896 115.68 26.896C113.925 26.896 112.441 26.336 111.228 25.216C110.014 24.096 109.408 22.6213 109.408 20.792C109.408 18.9253 110.061 17.3947 111.368 16.2C112.693 15.0053 114.364 14.408 116.38 14.408C118.47 14.408 120.197 15.1547 121.56 16.648C122.941 18.1227 123.632 20.2413 123.632 23.004C123.632 26.308 122.82 28.8747 121.196 30.704C119.572 32.5147 117.22 33.42 114.14 33.42C112.422 33.42 111.022 33.084 109.94 32.412ZM118.452 22.836C119.068 22.276 119.376 21.5573 119.376 20.68C119.376 19.8027 119.068 19.084 118.452 18.524C117.854 17.964 117.117 17.684 116.24 17.684C115.381 17.684 114.644 17.964 114.028 18.524C113.43 19.084 113.132 19.8027 113.132 20.68C113.132 21.576 113.43 22.304 114.028 22.864C114.625 23.4053 115.362 23.676 116.24 23.676C117.117 23.676 117.854 23.396 118.452 22.836ZM125.144 32.412L126.096 29.304C127.029 29.8267 128.103 30.088 129.316 30.088C130.996 30.088 132.34 29.64 133.348 28.744C134.375 27.848 134.953 26.5787 135.084 24.936C134.692 25.5333 134.123 26.0093 133.376 26.364C132.648 26.7187 131.817 26.896 130.884 26.896C129.129 26.896 127.645 26.336 126.432 25.216C125.219 24.096 124.612 22.6213 124.612 20.792C124.612 18.9253 125.265 17.3947 126.572 16.2C127.897 15.0053 129.568 14.408 131.584 14.408C133.675 14.408 135.401 15.1547 136.764 16.648C138.145 18.1227 138.836 20.2413 138.836 23.004C138.836 26.308 138.024 28.8747 136.4 30.704C134.776 32.5147 132.424 33.42 129.344 33.42C127.627 33.42 126.227 33.084 125.144 32.412ZM133.656 22.836C134.272 22.276 134.58 21.5573 134.58 20.68C134.58 19.8027 134.272 19.084 133.656 18.524C133.059 17.964 132.321 17.684 131.444 17.684C130.585 17.684 129.848 17.964 129.232 18.524C128.635 19.084 128.336 19.8027 128.336 20.68C128.336 21.576 128.635 22.304 129.232 22.864C129.829 23.4053 130.567 23.676 131.444 23.676C132.321 23.676 133.059 23.396 133.656 22.836Z" fill="white"/>
<path d="M70.632 53H69.26V43.074H75.294V44.348H70.632V47.54H74.86V48.828H70.632V53ZM77.1648 51.404C77.5754 51.824 78.0748 52.034 78.6628 52.034C79.2508 52.034 79.7454 51.824 80.1468 51.404C80.5574 50.9747 80.7628 50.382 80.7628 49.626C80.7628 48.8793 80.5574 48.296 80.1468 47.876C79.7454 47.4467 79.2508 47.232 78.6628 47.232C78.0748 47.232 77.5754 47.4467 77.1648 47.876C76.7634 48.296 76.5628 48.8793 76.5628 49.626C76.5628 50.382 76.7634 50.9747 77.1648 51.404ZM76.1848 47.078C76.8381 46.3967 77.6641 46.056 78.6628 46.056C79.6614 46.056 80.4828 46.3967 81.1268 47.078C81.7801 47.75 82.1068 48.5993 82.1068 49.626C82.1068 50.662 81.7848 51.5207 81.1408 52.202C80.4968 52.874 79.6708 53.21 78.6628 53.21C77.6548 53.21 76.8288 52.874 76.1848 52.202C75.5408 51.5207 75.2188 50.662 75.2188 49.626C75.2188 48.5993 75.5408 47.75 76.1848 47.078ZM86.9685 46.196V47.596C86.7725 47.568 86.5811 47.554 86.3945 47.554C85.1625 47.554 84.5465 48.2447 84.5465 49.626V53H83.2305V46.266H84.5185V47.442C84.9291 46.5833 85.6011 46.154 86.5345 46.154C86.6838 46.154 86.8285 46.168 86.9685 46.196ZM91.6051 47.19L90.2331 47.022C90.2238 46.938 90.2191 46.8167 90.2191 46.658C90.2191 45.846 90.5038 45.1553 91.0731 44.586C91.6424 44.0073 92.4031 43.718 93.3551 43.718C94.2978 43.718 95.0444 43.9887 95.5951 44.53C96.1458 45.062 96.4211 45.72 96.4211 46.504C96.4211 47.652 95.8518 48.5853 94.7131 49.304L92.9211 50.452C92.2771 50.8627 91.9084 51.2873 91.8151 51.726H96.4771V53H90.1211C90.1398 52.2347 90.3124 51.5627 90.6391 50.984C90.9751 50.4053 91.5211 49.8733 92.2771 49.388L93.7891 48.408C94.6198 47.876 95.0351 47.246 95.0351 46.518C95.0351 46.07 94.8858 45.692 94.5871 45.384C94.2884 45.076 93.8684 44.922 93.3271 44.922C92.7578 44.922 92.3238 45.0947 92.0251 45.44C91.7264 45.7853 91.5771 46.2333 91.5771 46.784C91.5771 46.868 91.5864 47.0033 91.6051 47.19ZM102.053 47.708H104.041C104.629 47.708 105.096 47.5587 105.441 47.26C105.787 46.952 105.959 46.5413 105.959 46.028C105.959 45.5053 105.787 45.09 105.441 44.782C105.096 44.4647 104.629 44.306 104.041 44.306H102.053V47.708ZM104.293 48.94H102.053V53H100.681V43.074H104.293C105.199 43.074 105.936 43.354 106.505 43.914C107.075 44.474 107.359 45.174 107.359 46.014C107.359 46.8633 107.075 47.5633 106.505 48.114C105.936 48.6647 105.199 48.94 104.293 48.94ZM108.628 48.94H112.31C112.292 48.436 112.124 48.0253 111.806 47.708C111.489 47.3813 111.041 47.218 110.462 47.218C109.94 47.218 109.51 47.3907 109.174 47.736C108.838 48.072 108.656 48.4733 108.628 48.94ZM112.506 50.69L113.64 51.082C113.444 51.7073 113.08 52.2207 112.548 52.622C112.016 53.014 111.372 53.21 110.616 53.21C109.674 53.21 108.871 52.888 108.208 52.244C107.555 51.5907 107.228 50.7133 107.228 49.612C107.228 48.5853 107.546 47.736 108.18 47.064C108.815 46.392 109.571 46.056 110.448 46.056C111.466 46.056 112.259 46.378 112.828 47.022C113.398 47.6567 113.682 48.5107 113.682 49.584C113.682 49.752 113.673 49.892 113.654 50.004H108.586C108.596 50.6013 108.792 51.0913 109.174 51.474C109.566 51.8567 110.047 52.048 110.616 52.048C111.578 52.048 112.208 51.5953 112.506 50.69ZM116.188 51.404C116.599 51.824 117.098 52.034 117.686 52.034C118.274 52.034 118.769 51.824 119.17 51.404C119.581 50.9747 119.786 50.382 119.786 49.626C119.786 48.8793 119.581 48.296 119.17 47.876C118.769 47.4467 118.274 47.232 117.686 47.232C117.098 47.232 116.599 47.4467 116.188 47.876C115.787 48.296 115.586 48.8793 115.586 49.626C115.586 50.382 115.787 50.9747 116.188 51.404ZM115.208 47.078C115.861 46.3967 116.687 46.056 117.686 46.056C118.685 46.056 119.506 46.3967 120.15 47.078C120.803 47.75 121.13 48.5993 121.13 49.626C121.13 50.662 120.808 51.5207 120.164 52.202C119.52 52.874 118.694 53.21 117.686 53.21C116.678 53.21 115.852 52.874 115.208 52.202C114.564 51.5207 114.242 50.662 114.242 49.626C114.242 48.5993 114.564 47.75 115.208 47.078ZM123.556 55.66H122.254V46.266H123.528V47.316C123.724 46.9613 124.018 46.672 124.41 46.448C124.802 46.224 125.259 46.112 125.782 46.112C126.752 46.112 127.508 46.4433 128.05 47.106C128.6 47.7687 128.876 48.6087 128.876 49.626C128.876 50.6527 128.591 51.502 128.022 52.174C127.462 52.846 126.701 53.182 125.74 53.182C125.245 53.182 124.806 53.0793 124.424 52.874C124.041 52.6687 123.752 52.4073 123.556 52.09V55.66ZM127.532 49.626C127.532 48.9447 127.35 48.3847 126.986 47.946C126.631 47.498 126.15 47.274 125.544 47.274C124.946 47.274 124.461 47.498 124.088 47.946C123.724 48.3847 123.542 48.9447 123.542 49.626C123.542 50.326 123.724 50.9 124.088 51.348C124.461 51.7867 124.946 52.006 125.544 52.006C126.141 52.006 126.622 51.7867 126.986 51.348C127.35 50.9 127.532 50.326 127.532 49.626ZM131.309 53H129.993V42.864H131.309V53ZM133.841 48.94H137.523C137.505 48.436 137.337 48.0253 137.019 47.708C136.702 47.3813 136.254 47.218 135.675 47.218C135.153 47.218 134.723 47.3907 134.387 47.736C134.051 48.072 133.869 48.4733 133.841 48.94ZM137.719 50.69L138.853 51.082C138.657 51.7073 138.293 52.2207 137.761 52.622C137.229 53.014 136.585 53.21 135.829 53.21C134.887 53.21 134.084 52.888 133.421 52.244C132.768 51.5907 132.441 50.7133 132.441 49.612C132.441 48.5853 132.759 47.736 133.393 47.064C134.028 46.392 134.784 46.056 135.661 46.056C136.679 46.056 137.472 46.378 138.041 47.022C138.611 47.6567 138.895 48.5107 138.895 49.584C138.895 49.752 138.886 49.892 138.867 50.004H133.799C133.809 50.6013 134.005 51.0913 134.387 51.474C134.779 51.8567 135.26 52.048 135.829 52.048C136.791 52.048 137.421 51.5953 137.719 50.69Z" fill="white"/>
</svg>
