<svg width="34" height="34" viewBox="0 0 34 34" fill="none" xmlns="http://www.w3.org/2000/svg">
<g clip-path="url(#clip0_1151_1794)">
<path d="M11.3333 22.6668V17.0002C11.3333 15.4973 11.9303 14.0559 12.993 12.9932C14.0557 11.9305 15.497 11.3335 16.9999 11.3335C18.5028 11.3335 19.9442 11.9305 21.0069 12.9932C22.0696 14.0559 22.6666 15.4973 22.6666 17.0002V22.6668" stroke="#C4A400" stroke-width="2" stroke-linecap="round" stroke-linejoin="round"/>
<path d="M4.25 17H5.66667M17 4.25V5.66667M28.3333 17H29.75M7.93333 7.93333L8.925 8.925M26.0667 7.93333L25.075 8.925" stroke="#C4A400" stroke-width="2" stroke-linecap="round" stroke-linejoin="round"/>
<path d="M24.0833 22.6665H9.91667C9.13426 22.6665 8.5 23.3008 8.5 24.0832V26.9165C8.5 27.6989 9.13426 28.3332 9.91667 28.3332H24.0833C24.8657 28.3332 25.5 27.6989 25.5 26.9165V24.0832C25.5 23.3008 24.8657 22.6665 24.0833 22.6665Z" stroke="#C4A400" stroke-width="2" stroke-linecap="round" stroke-linejoin="round"/>
</g>
<defs>
<clipPath id="clip0_1151_1794">
<rect width="34" height="34" fill="white"/>
</clipPath>
</defs>
</svg>
