<svg width="34" height="34" viewBox="0 0 34 34" fill="none" xmlns="http://www.w3.org/2000/svg">
<g clip-path="url(#clip0_1151_1834)">
<path d="M17 29.75C24.0416 29.75 29.75 24.0416 29.75 17C29.75 9.95837 24.0416 4.25 17 4.25C9.95837 4.25 4.25 9.95837 4.25 17C4.25 24.0416 9.95837 29.75 17 29.75Z" stroke="#34CC9C" stroke-width="2" stroke-linecap="round" stroke-linejoin="round"/>
<path d="M17 24.0835V24.0977" stroke="#34CC9C" stroke-width="2" stroke-linecap="round" stroke-linejoin="round"/>
<path d="M17.0001 19.1252C16.974 18.6653 17.0981 18.2094 17.3536 17.8261C17.6091 17.4428 17.9822 17.153 18.4167 17.0002C18.9492 16.7965 19.4272 16.4721 19.813 16.0523C20.1988 15.6326 20.4818 15.1291 20.64 14.5813C20.7981 14.0336 20.8269 13.4566 20.7241 12.8959C20.6214 12.3351 20.3898 11.8059 20.0478 11.3498C19.7057 10.8937 19.2625 10.5233 18.7529 10.2676C18.2434 10.012 17.6814 9.87806 17.1113 9.87648C16.5412 9.8749 15.9786 10.0057 15.4676 10.2585C14.9566 10.5113 14.5113 10.8793 14.1667 11.3335" stroke="#34CC9C" stroke-width="2" stroke-linecap="round" stroke-linejoin="round"/>
</g>
<defs>
<clipPath id="clip0_1151_1834">
<rect width="34" height="34" fill="white"/>
</clipPath>
</defs>
</svg>
