<svg width="248" height="248" viewBox="0 0 248 248" fill="none" xmlns="http://www.w3.org/2000/svg">
<g clip-path="url(#clip0_1149_1177)">
<path d="M175.925 86.3777L182.26 82.9532C182.674 82.73 183.133 82.602 183.603 82.5787C184.072 82.5553 184.541 82.6371 184.975 82.8182C185.409 82.9992 185.797 83.2749 186.111 83.625C186.425 83.9752 186.657 84.3911 186.789 84.8422L192.069 102.876C192.151 103.119 192.296 103.336 192.489 103.506C192.682 103.675 192.916 103.79 193.168 103.839C193.42 103.889 193.681 103.87 193.923 103.786C194.166 103.702 194.382 103.555 194.549 103.36C201.493 94.7677 205.268 84.0469 205.239 72.9993V67.1141C205.251 66.8756 205.322 66.6437 205.445 66.439C205.568 66.2342 205.74 66.063 205.945 65.9404C206.15 65.8178 206.382 65.7476 206.62 65.736C206.859 65.7245 207.096 65.7719 207.312 65.8741L227.38 76.666C227.629 76.7877 227.907 76.8358 228.182 76.8048C228.457 76.7738 228.717 76.6649 228.933 76.4909C229.148 76.3168 229.309 76.085 229.397 75.8225C229.485 75.5601 229.496 75.278 229.429 75.0094L228.024 70.1657C224.149 56.8163 220.129 48.4608 208.33 41.1032L199.398 36.0463C199.184 35.9248 198.943 35.861 198.698 35.861C198.452 35.861 198.211 35.9248 197.998 36.0463L184.387 43.6268L212.156 28.5772C212.396 28.4342 212.589 28.2252 212.714 27.9751C212.838 27.725 212.887 27.4444 212.856 27.167C212.825 26.8895 212.714 26.6269 212.538 26.4106C212.361 26.1942 212.126 26.0333 211.861 25.9471L211.526 25.8551C201.669 23.0941 189.526 25.5886 180.962 31.1832C180.923 31.212 180.881 31.2364 180.836 31.2558L166.552 38.318C166.296 38.4466 166.007 38.4939 165.724 38.4536L160.178 37.6932C151.067 36.6227 140.532 40.6866 133.639 46.7413L133.561 46.8188L126.092 54.1813C125.886 54.4038 125.754 54.6854 125.715 54.9867C125.677 55.288 125.734 55.5938 125.878 55.861C126.022 56.1283 126.247 56.3436 126.52 56.4767C126.793 56.6098 127.101 56.6541 127.4 56.6032L137.805 54.3411C145.651 52.888 149.338 51.7546 155.915 49.8897L134.172 65.8741C133.943 66.0608 133.777 66.3124 133.696 66.5957C133.614 66.879 133.62 67.1805 133.714 67.4601C133.807 67.7397 133.984 67.9842 134.219 68.1612C134.455 68.3382 134.739 68.4393 135.034 68.451L149.614 68.2766" fill="#91FFC5"/>
<path d="M236.113 142.615C236.132 143.316 235.898 143.999 235.453 144.54C235.008 145.082 234.382 145.444 233.691 145.56C233.56 145.583 233.427 145.596 233.294 145.599L228.935 145.715L229.051 150.05C229.071 150.752 228.837 151.436 228.392 151.979C227.947 152.521 227.321 152.884 226.629 153C226.493 153 226.368 153.029 226.232 153.039C225.53 153.055 224.845 152.816 224.306 152.366C223.766 151.916 223.408 151.287 223.297 150.593C223.274 150.462 223.261 150.329 223.258 150.196L223.142 145.861L218.811 145.977C218.11 145.997 217.425 145.763 216.883 145.318C216.341 144.873 215.978 144.247 215.861 143.555C215.861 143.429 215.832 143.293 215.823 143.158C215.813 142.776 215.879 142.396 216.016 142.04C216.153 141.684 216.359 141.358 216.622 141.081C216.885 140.805 217.2 140.582 217.55 140.428C217.899 140.273 218.275 140.188 218.656 140.179L223.016 140.063L222.899 135.732C222.925 135.032 223.203 134.365 223.682 133.854C224.161 133.342 224.808 133.021 225.505 132.949C226.202 132.877 226.902 133.059 227.475 133.462C228.048 133.865 228.456 134.461 228.625 135.141C228.647 135.273 228.66 135.405 228.663 135.539L228.785 139.898L233.115 139.782C233.816 139.761 234.501 139.995 235.043 140.44C235.585 140.886 235.948 141.512 236.065 142.204C236.094 142.354 236.103 142.48 236.113 142.615Z" fill="#EBEBEB"/>
<path d="M184.474 18.4354C184.085 18.4341 183.697 18.4066 183.312 18.353C181.08 18.0463 179.062 16.8666 177.7 15.073C176.337 13.2793 175.743 11.0184 176.046 8.78664C176.269 7.17351 176.952 5.65863 178.012 4.42278C179.073 3.18694 180.466 2.28232 182.027 1.81688C183.587 1.35145 185.249 1.34485 186.813 1.79788C188.377 2.25091 189.778 3.14444 190.848 4.37182C191.919 5.59921 192.613 7.10862 192.849 8.71993C193.085 10.3312 192.852 11.9764 192.179 13.4591C191.505 14.9417 190.419 16.1993 189.05 17.0817C187.682 17.964 186.088 18.434 184.46 18.4354H184.474ZM181.825 9.58101C181.753 10.1051 181.838 10.6387 182.069 11.1144C182.301 11.5901 182.668 11.9864 183.125 12.2531C183.582 12.5199 184.108 12.6452 184.636 12.6131C185.164 12.5811 185.67 12.3931 186.091 12.073C186.513 11.7529 186.829 11.315 187.002 10.8148C187.174 10.3147 187.194 9.77464 187.059 9.26309C186.924 8.75155 186.641 8.29148 186.244 7.9411C185.848 7.59073 185.357 7.36579 184.833 7.29476C184.485 7.24701 184.131 7.26829 183.792 7.3574C183.452 7.4465 183.134 7.60167 182.854 7.81403C182.575 8.02639 182.34 8.29176 182.164 8.59496C181.987 8.89817 181.872 9.23324 181.825 9.58101Z" fill="#91FFC5"/>
<path d="M185.637 151.688C185.15 151.687 184.665 151.653 184.183 151.586C181.447 151.205 178.965 149.776 177.262 147.6C175.558 145.424 174.767 142.672 175.054 139.924C175.341 137.176 176.684 134.647 178.8 132.87C180.917 131.093 183.64 130.208 186.396 130.401C189.153 130.594 191.727 131.85 193.575 133.904C195.423 135.958 196.4 138.65 196.302 141.411C196.203 144.173 195.036 146.788 193.046 148.705C191.056 150.622 188.4 151.692 185.637 151.688ZM185.637 136.188C184.467 136.19 183.337 136.615 182.457 137.385C181.576 138.155 181.004 139.218 180.846 140.377C180.717 141.326 180.873 142.292 181.292 143.152C181.712 144.013 182.377 144.73 183.204 145.212C184.031 145.695 184.983 145.922 185.938 145.864C186.894 145.806 187.811 145.466 188.574 144.888C189.337 144.309 189.911 143.517 190.224 142.612C190.537 141.707 190.574 140.73 190.332 139.804C190.09 138.877 189.578 138.043 188.862 137.408C188.147 136.772 187.258 136.362 186.31 136.231C186.081 136.196 185.849 136.177 185.617 136.173L185.637 136.188Z" fill="#201F3B"/>
<path d="M188.272 124.731C188.139 124.73 188.007 124.722 187.875 124.707C187.178 124.612 186.539 124.267 186.077 123.737C185.615 123.207 185.36 122.528 185.361 121.825C185.361 121.692 185.371 121.559 185.39 121.427L187.255 107.865C187.307 107.094 187.664 106.376 188.246 105.868C188.829 105.36 189.589 105.105 190.36 105.157C191.13 105.21 191.849 105.567 192.356 106.149C192.864 106.731 193.12 107.491 193.067 108.262C193.067 108.395 193.057 108.528 193.038 108.659L191.169 122.222C191.072 122.92 190.725 123.56 190.192 124.021C189.659 124.483 188.977 124.735 188.272 124.731Z" fill="#201F3B"/>
<path d="M197.625 131.875C197.486 131.875 197.346 131.865 197.208 131.846C196.516 131.748 195.882 131.404 195.423 130.876C194.964 130.349 194.71 129.673 194.709 128.974C194.709 128.834 194.719 128.695 194.738 128.557L195.818 120.977C195.913 120.241 196.286 119.57 196.86 119.101C197.433 118.631 198.165 118.399 198.904 118.451C199.644 118.503 200.335 118.835 200.838 119.38C201.34 119.926 201.615 120.642 201.606 121.384C201.606 121.521 201.597 121.659 201.577 121.795L200.531 129.376C200.432 130.074 200.083 130.713 199.549 131.173C199.014 131.632 198.33 131.882 197.625 131.875Z" fill="#201F3B"/>
<path d="M167.594 121.781C167.586 122.353 167.403 122.909 167.071 123.375C166.911 123.604 166.721 123.809 166.504 123.985C166.877 123.254 167.245 122.518 167.594 121.781Z" fill="#201F3B"/>
<path d="M71.1113 94.9369L64.7757 91.5124C64.3618 91.2892 63.9033 91.1613 63.4336 91.1379C62.9639 91.1145 62.495 91.1964 62.061 91.3774C61.627 91.5584 61.2388 91.8341 60.925 92.1843C60.6111 92.5345 60.3794 92.9503 60.2468 93.4015L54.9671 111.435C54.8854 111.678 54.7407 111.896 54.5476 112.065C54.3545 112.234 54.1201 112.349 53.8681 112.399C53.616 112.448 53.3555 112.429 53.1129 112.345C52.8703 112.261 52.6544 112.114 52.4871 111.919C45.5427 103.33 41.7662 92.6131 41.7921 81.5682V75.683C41.7934 75.4357 41.7302 75.1924 41.6088 74.9769C41.4874 74.7615 41.312 74.5814 41.0999 74.4543C40.8878 74.3272 40.6462 74.2575 40.399 74.2522C40.1517 74.2468 39.9074 74.3059 39.6899 74.4237L19.6319 85.2107C19.3835 85.331 19.106 85.3781 18.8318 85.3464C18.5576 85.3147 18.2981 85.2056 18.0836 85.0318C17.8692 84.858 17.7087 84.6268 17.6209 84.3651C17.5331 84.1034 17.5216 83.8221 17.5879 83.5541L18.9926 78.7104C22.8676 65.3658 26.8879 57.0055 38.6873 49.6479L47.6385 44.6007C47.853 44.4828 48.0937 44.421 48.3384 44.421C48.5832 44.421 48.8239 44.4828 49.0384 44.6007L62.6445 52.1812L34.8752 37.1122C34.6354 36.9692 34.4419 36.7602 34.3178 36.5101C34.1937 36.26 34.1443 35.9794 34.1754 35.702C34.2066 35.4245 34.317 35.1619 34.4936 34.9456C34.6701 34.7292 34.9051 34.5683 35.1707 34.4821L35.5049 34.3901C45.3571 31.634 57.5004 34.1237 66.0641 39.7182L66.1949 39.7957L80.4937 46.8627C80.7509 46.9868 81.039 47.0322 81.322 46.9935L86.8632 46.233C95.9792 45.1626 106.514 49.2168 113.402 55.286C113.431 55.286 113.455 55.3344 113.484 55.3587L120.949 62.7212C121.155 62.9434 121.286 63.2245 121.325 63.5252C121.363 63.8258 121.307 64.131 121.163 64.398C121.02 64.6649 120.796 64.8802 120.524 65.0138C120.252 65.1474 119.945 65.1926 119.646 65.143L109.241 62.8858C101.394 61.4327 97.7035 60.2993 91.1257 58.4296L112.86 74.414C113.098 74.5987 113.272 74.8529 113.36 75.1413C113.447 75.4297 113.442 75.7382 113.347 76.0239C113.251 76.3096 113.069 76.5585 112.825 76.7361C112.582 76.9137 112.289 77.0112 111.988 77.0151L97.4081 76.8407" fill="#91FFC5"/>
<path d="M33.0779 21.885C33.0779 22.0207 33.0489 22.1466 33.0295 22.2822C32.8859 22.9707 32.4976 23.5838 31.9364 24.0077C31.3753 24.4317 30.6794 24.6378 29.9779 24.5878L25.6718 24.2875L25.3715 28.613C25.3623 28.7467 25.3429 28.8795 25.3134 29.0102C25.1699 29.6978 24.7823 30.3102 24.2222 30.734C23.6621 31.1579 22.9674 31.3646 22.2667 31.3158C22.133 31.3066 22.0002 31.2872 21.8695 31.2577C21.1828 31.1143 20.5711 30.7274 20.1473 30.1683C19.7235 29.6092 19.5163 28.9157 19.5639 28.2158L19.8642 23.8564L15.4999 23.5803C15.3695 23.5705 15.24 23.5511 15.1124 23.5222C14.4248 23.3788 13.8125 22.9911 13.3886 22.431C12.9647 21.8709 12.7581 21.1762 12.8068 20.4755C12.8167 20.3419 12.8361 20.2092 12.8649 20.0783C13.0083 19.3916 13.3952 18.7799 13.9543 18.3561C14.5134 17.9324 15.2069 17.7251 15.9068 17.7727L20.2662 18.073L20.5665 13.7475C20.5677 13.6137 20.5839 13.4805 20.6149 13.3503C20.7778 12.6425 21.1998 12.0213 21.7978 11.6091C22.3958 11.1969 23.1265 11.0235 23.846 11.1232C24.5654 11.2229 25.2215 11.5883 25.6849 12.1475C26.1484 12.7068 26.3856 13.4193 26.35 14.1447L26.0496 18.5041L30.3848 18.8044C31.1492 18.8591 31.861 19.2135 32.3654 19.7904C32.8698 20.3674 33.1259 21.1202 33.0779 21.885Z" fill="#EBEBEB"/>
<path d="M80.5128 132.525C80.1796 132.267 79.9092 131.937 79.7221 131.56C79.535 131.182 79.436 130.767 79.4326 130.346L80.5128 132.525Z" fill="#201F3B"/>
<path d="M247.603 85.6374L245.249 77.5386C241.088 63.235 236.704 54.5599 224.295 46.8292L224.198 46.7711L219.301 44.0005L231.047 37.6213C231.558 37.3467 231.976 36.9252 232.246 36.4112C232.516 35.8971 232.625 35.314 232.561 34.7371C232.496 34.1601 232.26 33.6157 231.883 33.1741C231.506 32.7325 231.006 32.4138 230.446 32.2592L226.726 31.2178C217.242 28.5635 205.559 30.2491 196.211 35.4755C185.379 25.5733 171.94 18.9779 157.48 16.4686L146.64 14.5311C146.001 14.4127 145.341 14.5117 144.766 14.8121C144.19 15.1125 143.731 15.5972 143.463 16.1887C143.195 16.7802 143.133 17.4445 143.286 18.0755C143.44 18.7066 143.8 19.2681 144.31 19.6703L157.654 30.3556C161.887 33.7453 165.522 37.8204 168.408 42.4117L168.727 42.9252C160.338 43.7807 152.424 47.2314 146.088 52.7967C146.046 52.8296 146.008 52.8652 145.971 52.9033L134.957 63.7678C134.506 64.21 134.212 64.7867 134.118 65.4109C134.025 66.035 134.137 66.6727 134.438 67.2275C134.739 67.7823 135.212 68.224 135.786 68.486C136.361 68.7479 137.004 68.8158 137.621 68.6794L152.748 65.3905C154.094 65.1386 155.334 64.9061 156.482 64.6639L143.302 74.3514C142.806 74.713 142.437 75.2226 142.248 75.807C142.059 76.3914 142.06 77.0207 142.251 77.6044C142.442 78.1881 142.813 78.6963 143.311 79.0561C143.809 79.4159 144.408 79.6087 145.022 79.6069H145.061L161.641 79.4034C161.998 80.6559 162.586 81.8305 163.375 82.8667C163.774 83.3916 164.222 83.878 164.712 84.3199C159.621 92.2733 141.946 120.101 136.671 132.472C131.396 144.842 127.991 169.483 127.303 174.806C125.724 174.757 124.107 174.728 122.46 174.728H122.411H122.382C121.53 174.728 120.89 174.728 120.309 174.728C119.728 174.728 119.166 174.728 118.536 174.728C116.972 164.876 114.177 149.846 110.418 141.074C105.114 128.698 87.4685 100.871 82.3777 92.932C82.8618 92.4874 83.3059 92.0012 83.7049 91.4789C84.4955 90.4473 85.0838 89.2755 85.4389 88.0253L102.034 88.2191H102.063C102.677 88.2219 103.277 88.0298 103.776 87.6705C104.274 87.3111 104.646 86.8029 104.838 86.2189C105.029 85.6349 105.031 85.0052 104.842 84.4203C104.653 83.8354 104.284 83.3254 103.787 82.9636L90.6072 73.2761C91.7358 73.5086 92.9371 73.7605 94.2546 73.9833L109.469 77.2916C110.085 77.4266 110.729 77.3574 111.302 77.0943C111.876 76.8313 112.348 76.3887 112.648 75.8334C112.948 75.2781 113.059 74.6403 112.964 74.0164C112.869 73.3926 112.574 72.8164 112.123 72.3752L101.118 61.5155L101.002 61.4089C94.6609 55.856 86.748 52.4159 78.3622 51.5664L78.6819 51.053C81.5624 46.4593 85.1979 42.3849 89.435 39.0017L102.78 28.3067C103.289 27.9045 103.65 27.343 103.803 26.712C103.957 26.0809 103.895 25.4166 103.626 24.8251C103.358 24.2336 102.9 23.7489 102.324 23.4485C101.748 23.1481 101.088 23.0491 100.45 23.1675L89.5997 25.076C75.1359 27.5745 61.6858 34.15 50.8304 44.0295C41.4722 38.8031 29.7891 37.1175 20.3147 39.7719L16.5851 40.8181C16.035 40.9787 15.5448 41.2984 15.1759 41.7368C14.807 42.1752 14.5759 42.713 14.5117 43.2823C14.4475 43.8517 14.5531 44.4274 14.8151 44.9369C15.0772 45.4465 15.484 45.8672 15.9844 46.1463L27.7547 52.5255L22.8577 55.3106L22.7512 55.3688C10.3512 63.0849 5.96757 71.7649 1.80679 86.0684L-0.547275 94.1623C-0.712241 94.7132 -0.710081 95.3006 -0.54107 95.8503C-0.372059 96.3999 -0.0437931 96.8871 0.402184 97.2501C0.84816 97.6131 1.3918 97.8356 1.9643 97.8895C2.53681 97.9435 3.11244 97.8263 3.61835 97.553L24.4949 86.3349V90.2389C24.4795 101.627 28.3709 112.675 35.5193 121.539L37.5585 124.053C37.831 124.389 38.175 124.66 38.5655 124.846C38.956 125.032 39.3831 125.128 39.8157 125.128C40.441 125.123 41.0478 124.916 41.5461 124.538C42.0443 124.16 42.4074 123.632 42.5815 123.031L48.7088 102.092L55.3108 105.657C55.7241 105.878 56.1849 105.997 56.6538 106.002C57.1228 106.007 57.586 105.898 58.004 105.686C59.2186 106.161 60.5116 106.404 61.816 106.403C63.4982 106.409 65.158 106.017 66.6597 105.259C69.0816 109.914 74.4824 120.319 79.4375 130.326L80.5177 132.505C83.7243 139.03 86.6257 145.191 88.2677 149.221C91.1739 156.448 92.2638 169.119 92.6271 177.577C74.4436 181.045 67.6672 187.899 60.3386 197.76H29.4791C28.7083 197.76 27.9691 198.067 27.4241 198.612C26.8791 199.157 26.5729 199.896 26.5729 200.667C26.5729 201.437 26.8791 202.177 27.4241 202.722C27.9691 203.267 28.7083 203.573 29.4791 203.573H212.738C213.508 203.573 214.247 203.267 214.793 202.722C215.338 202.177 215.644 201.437 215.644 200.667C215.644 199.896 215.338 199.157 214.793 198.612C214.247 198.067 213.508 197.76 212.738 197.76H183.094C176.312 188.906 168.127 182.125 154.085 178.303C154.135 178.077 154.161 177.847 154.162 177.615C154.162 177.363 154.133 152.142 158.778 140.682C160.406 136.657 163.317 130.51 166.528 123.985C166.882 123.254 167.25 122.532 167.618 121.781C172.563 111.774 177.964 101.37 180.386 96.7295C181.888 97.4875 183.548 97.8793 185.23 97.8727C186.54 97.8731 187.84 97.63 189.061 97.1558C189.477 97.3666 189.937 97.4733 190.403 97.4665C190.869 97.4598 191.326 97.3398 191.735 97.117L198.337 93.5472L204.479 114.492C204.628 115.001 204.913 115.46 205.304 115.818C205.695 116.177 206.177 116.422 206.697 116.526C206.885 116.565 207.077 116.584 207.269 116.584C207.701 116.584 208.129 116.488 208.519 116.302C208.91 116.116 209.254 115.845 209.526 115.509L211.565 112.99C218.712 104.129 222.6 93.0832 222.58 81.6994V77.7905L243.466 89.0086C243.972 89.282 244.548 89.3991 245.12 89.3452C245.693 89.2912 246.236 89.0687 246.682 88.7057C247.128 88.3427 247.457 87.8555 247.626 87.3059C247.795 86.7563 247.797 86.1688 247.632 85.618L247.603 85.6374ZM161.297 25.8267L156.816 22.2424C169.38 24.4928 181.107 30.0788 190.771 38.4156L180.081 43.7002C180.065 43.6956 180.048 43.6956 180.033 43.7002L179.732 43.6614L175.707 43.1092L173.334 39.336C170.102 34.1941 166.033 29.6282 161.297 25.8267ZM142.019 134.758C142.251 134.225 142.503 133.649 142.784 133.048L153.547 138.129C153.489 138.255 153.44 138.381 153.392 138.497C151.852 142.29 150.786 147.274 150.045 152.413L137.451 150.301C138.735 144.47 140.28 138.817 142.014 134.758H142.019ZM136.25 155.993L149.328 158.192C148.456 166.727 148.359 174.598 148.359 176.952C143.336 176.001 138.258 175.373 133.155 175.072C133.547 171.992 134.656 164.271 136.245 155.993H136.25ZM105.027 143.317C106.761 147.371 108.306 153.004 109.604 158.851L97.0107 160.962C96.2599 155.828 95.1943 150.844 93.6636 147.051C93.6152 146.935 93.5668 146.819 93.5183 146.693L104.271 141.612C104.538 142.212 104.79 142.774 105.022 143.317H105.027ZM90.2246 30.7916L85.7344 34.3905C80.9998 38.1901 76.9318 42.7525 73.6977 47.89L71.3243 51.6585L67.3475 52.2106H67.2894C67.2119 52.2106 67.0957 52.2106 66.9407 52.2591L56.2796 46.9842C65.9396 38.6432 77.6633 33.0507 90.2246 30.7916ZM62.4844 100.566C61.2123 100.74 59.9231 100.402 58.9 99.6261C58.3893 99.2439 57.9603 98.7632 57.6383 98.2125C57.3163 97.6618 57.108 97.0521 57.0255 96.4195C56.9388 95.7891 56.9772 95.1479 57.1384 94.5323C57.2996 93.9167 57.5806 93.339 57.9652 92.832C58.3498 92.3251 58.8305 91.8989 59.3799 91.5778C59.9292 91.2567 60.5365 91.047 61.1669 90.9606C61.3885 90.93 61.6117 90.9139 61.8354 90.9122C63.0779 90.8909 64.2811 91.348 65.1961 92.189C66.111 93.0299 66.6678 94.1904 66.7512 95.4303C66.8345 96.6702 66.4381 97.8948 65.644 98.8506C64.8498 99.8065 63.7186 100.421 62.4844 100.566ZM64.4946 85.4291C63.15 85.077 61.7491 84.9947 60.3725 85.1869C57.6306 85.5699 55.1445 87.0027 53.4385 89.1831C51.7325 91.3636 50.9398 94.1213 51.2276 96.8748L50.191 96.313C49.5828 95.9849 48.909 95.7969 48.2189 95.7628C47.5288 95.7287 46.8397 95.8494 46.2022 96.1159C45.5647 96.3824 44.9948 96.7881 44.5343 97.3033C44.0737 97.8184 43.7342 98.43 43.5405 99.0933L38.5854 116.046C33.1768 108.553 30.2714 99.5434 30.2832 90.3019L30.3122 81.6945C33.4752 78.4928 37.5779 73.7799 38.721 69.9824C38.9445 69.2418 38.8647 68.4427 38.4991 67.761C38.1334 67.0792 37.512 66.5707 36.7714 66.3471C36.0308 66.1236 35.2317 66.2034 34.55 66.569C33.8683 66.9347 33.3597 67.5561 33.1362 68.2967C32.1965 71.4694 26.786 77.1802 23.2501 80.4061L6.95569 89.1539L7.37225 87.7008C11.194 74.55 14.9237 67.1052 25.7785 60.3385L33.7901 55.7999L46.8682 62.896C47.5445 63.2679 48.3409 63.3558 49.0822 63.1406C49.8234 62.9253 50.4488 62.4244 50.8207 61.748C51.1926 61.0716 51.2806 60.2752 51.0653 59.534C50.85 58.7927 50.3491 58.1674 49.6727 57.7955L35.3594 49.8469C35.0453 49.6695 34.7 49.5544 34.3422 49.5078L25.391 44.6641C33.4219 43.5355 42.9399 45.6667 50.1038 50.3749C50.2029 50.4403 50.3065 50.4985 50.4138 50.5492L60.0625 55.3252C56.3183 57.8827 51.6054 62.5278 47.028 70.9463C46.8455 71.2818 46.7308 71.65 46.6905 72.0299C46.6503 72.4097 46.6852 72.7938 46.7934 73.1601C46.9016 73.5265 47.0808 73.8679 47.321 74.165C47.5611 74.4621 47.8574 74.7089 48.1929 74.8915C48.5285 75.0741 48.8967 75.1887 49.2766 75.229C49.6564 75.2692 50.0405 75.2343 50.4068 75.1261C50.7732 75.0179 51.1146 74.8387 51.4117 74.5985C51.7088 74.3584 51.9556 74.0621 52.1382 73.7266C59.4329 60.3288 66.7421 58.2508 67.8271 58.0086L67.9627 57.9795L72.8064 57.3208C80.6146 56.4005 90.3554 59.7427 97.0591 65.6424L100.876 69.4059L95.3686 68.2095C89.9712 67.2226 84.6344 65.9289 79.3843 64.3345L77.5 63.8211C76.8461 63.6396 76.1493 63.6926 75.5303 63.971C74.9114 64.2494 74.4094 64.7357 74.1115 65.3454C73.8135 65.9552 73.7383 66.65 73.899 67.3094C74.0596 67.9688 74.4459 68.5511 74.991 68.9555L93 82.2322L85.4244 82.145C84.7376 79.611 83.1395 77.4197 80.9366 75.9914C78.7337 74.5631 76.0811 73.9983 73.4874 74.4052C70.8937 74.8122 68.5416 76.1623 66.882 78.1967C65.2224 80.2311 64.3723 82.8065 64.4946 85.4291ZM70.341 85.6374C70.2543 85.0066 70.2929 84.365 70.4544 83.7491C70.6159 83.1333 70.8973 82.5553 71.2824 82.0483C71.6675 81.5413 72.1488 81.1152 72.6987 80.7943C73.2486 80.4735 73.8564 80.2642 74.4872 80.1784C74.7067 80.1436 74.9286 80.1274 75.1508 80.13C76.08 80.1323 76.9889 80.4017 77.7692 80.9063C78.5494 81.4108 79.1681 82.1291 79.5514 82.9755C79.9347 83.8219 80.0665 84.7608 79.931 85.68C79.7956 86.5992 79.3985 87.4601 78.7873 88.16C78.1761 88.8598 77.3765 89.3691 76.4839 89.6271C75.5912 89.885 74.6432 89.8808 73.7529 89.6149C72.8626 89.349 72.0676 88.8326 71.4626 88.1274C70.8576 87.4221 70.4683 86.5578 70.341 85.6374ZM71.5616 102.106L77.8585 96.7053C78.8272 98.2359 80.1593 100.319 81.6996 102.775L74.5938 107.967C73.3441 105.531 72.2979 103.525 71.5713 102.13L71.5616 102.106ZM77.2821 113.169L84.7947 107.71C87.1149 111.421 89.6385 115.591 92.1863 119.82L83.6516 125.782C81.4913 121.413 79.268 117.049 77.2918 113.193L77.2821 113.169ZM91.1594 141.326C89.7402 138.231 88.0546 134.705 86.2624 131.038L95.1604 124.823C97.5483 128.907 99.7861 132.869 101.636 136.371L91.1594 141.326ZM175.542 197.756H67.7108C73.3538 190.853 79.4715 186.16 92.8354 183.457C92.8644 185.104 92.8644 186.092 92.8644 186.14C92.8644 186.911 93.1706 187.65 93.7156 188.195C94.2607 188.74 94.9999 189.047 95.7707 189.047C96.5414 189.047 97.2807 188.74 97.8257 188.195C98.3707 187.65 98.6769 186.911 98.6769 186.14C98.6769 185.511 98.6769 176.55 97.7082 166.712L110.786 164.508C112.864 175.135 114.065 184.852 114.085 185.007C114.179 185.773 114.573 186.471 115.181 186.946C115.789 187.422 116.561 187.636 117.328 187.543C118.094 187.449 118.792 187.054 119.267 186.446C119.743 185.838 119.957 185.066 119.863 184.3C119.834 184.048 119.66 182.648 119.35 180.459C119.621 180.459 119.893 180.459 120.173 180.459H120.929H120.968C121.016 180.463 121.065 180.463 121.113 180.459C152.225 180.531 165.816 186.775 175.552 197.78L175.542 197.756ZM155.862 132.806L145.39 127.841C147.24 124.344 149.488 120.367 151.866 116.284L160.764 122.498C158.972 126.175 157.277 129.715 155.862 132.806ZM163.365 117.219L154.83 111.256C157.354 107.052 159.912 102.891 162.222 99.1466L169.735 104.615C167.749 108.5 165.535 112.859 163.365 117.219ZM172.438 99.4033L165.308 94.2447C166.862 91.7841 168.214 89.6964 169.183 88.1658L175.479 93.5666C174.738 94.9373 173.692 96.9717 172.438 99.4033ZM176.681 77.0833C176.594 77.7137 176.385 78.321 176.063 78.8704C175.742 79.4197 175.316 79.9004 174.809 80.285C174.302 80.6696 173.725 80.9506 173.109 81.1118C172.493 81.273 171.852 81.3114 171.222 81.2247C170.065 81.0659 169.005 80.4948 168.236 79.6164C167.467 78.7379 167.041 77.6114 167.037 76.4439C167.038 76.2139 167.055 75.9841 167.085 75.7561C167.168 75.1249 167.376 74.5166 167.697 73.9668C168.018 73.4171 168.446 72.9369 168.955 72.5544C169.793 71.9256 170.813 71.5856 171.861 71.5856C172.086 71.5871 172.311 71.6033 172.534 71.6341C173.806 71.8085 174.956 72.4803 175.732 73.502C176.509 74.5237 176.848 75.8117 176.676 77.0833H176.681ZM190.006 87.8655C189.878 88.8175 189.469 89.7099 188.833 90.4293C188.196 91.1487 187.36 91.6625 186.431 91.9055C185.501 92.1485 184.521 92.1096 183.613 91.7939C182.706 91.4782 181.913 90.8998 181.335 90.1323C180.703 89.2957 180.363 88.2748 180.367 87.2261C180.368 86.996 180.385 86.7663 180.415 86.5383C180.497 85.9054 180.704 85.2952 181.026 84.7437C181.347 84.1922 181.775 83.7105 182.285 83.3269C183.123 82.6981 184.143 82.3581 185.191 82.3581C185.415 82.3549 185.639 82.3712 185.86 82.4066C186.49 82.4929 187.097 82.7026 187.647 83.0237C188.196 83.3448 188.677 83.771 189.061 84.278C189.446 84.7849 189.727 85.3627 189.888 85.9782C190.049 86.5938 190.088 87.2351 190.001 87.8655H190.006ZM223.815 71.8569C220.265 68.6261 214.854 62.9153 213.915 59.7475C213.695 59.0069 213.19 58.3839 212.511 58.0156C211.832 57.6472 211.034 57.5637 210.294 57.7834C209.553 58.003 208.93 58.5079 208.562 59.1869C208.194 59.866 208.11 60.6635 208.33 61.4041C209.453 65.2064 213.575 69.9194 216.738 73.1163V81.7284C216.757 90.9696 213.855 99.9802 208.446 107.473L203.491 90.5199C203.297 89.8569 202.957 89.2457 202.496 88.7311C202.035 88.2166 201.465 87.8116 200.827 87.546C200.19 87.2803 199.501 87.1607 198.811 87.1959C198.121 87.231 197.448 87.4201 196.84 87.7492L195.804 88.3111C196.091 85.5588 195.296 82.8028 193.588 80.626C191.879 78.4492 189.391 77.0223 186.649 76.6474C185.273 76.4551 183.872 76.5374 182.527 76.8895C182.665 74.2581 181.823 71.6689 180.164 69.6217C178.505 67.5746 176.147 66.2147 173.544 65.8047C170.941 65.3946 168.278 65.9635 166.07 67.4015C163.862 68.8395 162.265 71.0445 161.588 73.5909L154.022 73.6878L172.05 60.416C172.609 60.0158 173.007 59.4306 173.176 58.7642C173.344 58.0979 173.27 57.3936 172.968 56.7763C172.666 56.159 172.155 55.6687 171.526 55.3924C170.897 55.1161 170.19 55.0717 169.531 55.267L167.681 55.7902C162.395 57.3803 157.025 58.674 151.595 59.6652L146.184 60.8374L149.992 57.0738C156.705 51.1789 166.436 47.8367 174.21 48.7474L178.807 49.377L179.098 49.4158H179.204C180.173 49.6192 187.56 51.5858 194.932 65.1338C195.181 65.5928 195.549 65.9762 195.997 66.2439C196.445 66.5115 196.958 66.6534 197.48 66.6547C197.985 66.6565 198.481 66.5267 198.921 66.2781C199.36 66.0295 199.727 65.6707 199.986 65.2371C200.244 64.8035 200.386 64.3099 200.396 63.8051C200.405 63.3003 200.284 62.8017 200.042 62.3583C195.465 53.9447 190.752 49.2802 187.007 46.7275L196.627 41.9758L196.937 41.8014C204.101 37.0836 213.624 34.9475 221.684 36.0616L212.733 40.9053C212.374 40.9554 212.029 41.0737 211.715 41.2541L197.402 49.2269C196.726 49.5988 196.225 50.2242 196.01 50.9654C195.794 51.7066 195.882 52.503 196.254 53.1794C196.626 53.8558 197.251 54.3567 197.993 54.572C198.734 54.7873 199.53 54.6993 200.207 54.3274L213.285 47.2264L221.272 51.828C232.112 58.6092 235.842 66.0444 239.678 79.1903L240.095 80.6434L223.815 71.8569Z" fill="#201F3B"/>
<path d="M80.5758 219.305H80.5467L52.7097 219.058C51.9431 219.051 51.2101 218.742 50.6703 218.198C50.1305 217.654 49.8276 216.918 49.8276 216.151V216.122C49.8308 215.74 49.9093 215.363 50.0586 215.011C50.2078 214.659 50.425 214.34 50.6977 214.073C50.9703 213.805 51.293 213.594 51.6474 213.451C52.0018 213.308 52.3809 213.237 52.7629 213.24L80.6 213.487C81.3665 213.494 82.0996 213.803 82.6394 214.347C83.1792 214.891 83.482 215.627 83.482 216.394V216.423C83.4756 217.189 83.1666 217.922 82.6223 218.462C82.0779 219.002 81.3424 219.305 80.5758 219.305Z" fill="#201F3B"/>
<path d="M145.899 219.306L96.4487 219.059C95.6779 219.059 94.9387 218.752 94.3937 218.207C93.8487 217.662 93.5425 216.923 93.5425 216.152C93.5425 215.382 93.8487 214.642 94.3937 214.097C94.9387 213.552 95.6779 213.246 96.4487 213.246L145.899 213.493C146.669 213.493 147.409 213.799 147.954 214.344C148.499 214.889 148.805 215.629 148.805 216.399C148.805 217.17 148.499 217.909 147.954 218.454C147.409 218.999 146.669 219.306 145.899 219.306Z" fill="#201F3B"/>
<path d="M189.478 219.422H189.454L160.929 219.175C160.162 219.168 159.429 218.859 158.889 218.315C158.349 217.771 158.047 217.035 158.047 216.268V216.244C158.047 215.473 158.353 214.734 158.898 214.189C159.443 213.644 160.182 213.338 160.953 213.338H160.982L189.502 213.59C190.273 213.59 191.012 213.896 191.557 214.441C192.102 214.986 192.408 215.725 192.408 216.496C192.411 216.881 192.337 217.263 192.19 217.62C192.044 217.976 191.828 218.3 191.555 218.572C191.283 218.844 190.959 219.06 190.602 219.206C190.245 219.351 189.863 219.425 189.478 219.422Z" fill="#201F3B"/>
<path d="M172.253 232.983L86.0347 232.736C85.2639 232.736 84.5247 232.43 83.9796 231.885C83.4346 231.34 83.1284 230.601 83.1284 229.83C83.1284 229.059 83.4346 228.32 83.9796 227.775C84.5247 227.23 85.2639 226.924 86.0347 226.924L172.253 227.171C173.024 227.171 173.763 227.477 174.308 228.022C174.853 228.567 175.16 229.306 175.16 230.077C175.16 230.848 174.853 231.587 174.308 232.132C173.763 232.677 173.024 232.983 172.253 232.983Z" fill="#201F3B"/>
<path d="M76.5601 232.819H76.531L61.6655 232.693C60.8947 232.693 60.1555 232.387 59.6105 231.842C59.0655 231.297 58.7593 230.558 58.7593 229.787C58.7707 229.015 59.0845 228.278 59.6333 227.734C60.1822 227.191 60.9223 226.885 61.6946 226.881L76.5601 227.007C77.3308 227.007 78.0701 227.313 78.6151 227.858C79.1601 228.403 79.4663 229.142 79.4663 229.913V229.937C79.4599 230.704 79.1509 231.437 78.6066 231.977C78.0622 232.516 77.3267 232.819 76.5601 232.819Z" fill="#201F3B"/>
<path d="M147.129 246.581L87.0132 246.455C86.2424 246.455 85.5032 246.149 84.9582 245.604C84.4131 245.059 84.1069 244.32 84.1069 243.549C84.1069 242.778 84.4131 242.039 84.9582 241.494C85.5032 240.949 86.2424 240.643 87.0132 240.643L147.129 240.769C147.9 240.769 148.639 241.075 149.184 241.62C149.729 242.165 150.035 242.904 150.035 243.675C150.035 244.446 149.729 245.185 149.184 245.73C148.639 246.275 147.9 246.581 147.129 246.581Z" fill="#201F3B"/>
</g>
<defs>
<clipPath id="clip0_1149_1177">
<rect width="248" height="248" fill="white"/>
</clipPath>
</defs>
</svg>
