<svg width="48" height="48" viewBox="0 0 48 48" fill="none" xmlns="http://www.w3.org/2000/svg">
<g clip-path="url(#clip0_1149_1094)">
<path d="M23.59 42H10C8.93914 42 7.92172 41.5786 7.17157 40.8284C6.42143 40.0783 6 39.0609 6 38V14C6 12.9391 6.42143 11.9217 7.17157 11.1716C7.92172 10.4214 8.93914 10 10 10H34C35.0609 10 36.0783 10.4214 36.8284 11.1716C37.5786 11.9217 38 12.9391 38 14V22" stroke="white" stroke-width="3" stroke-linecap="round" stroke-linejoin="round"/>
<path d="M36 44C40.4183 44 44 40.4183 44 36C44 31.5817 40.4183 28 36 28C31.5817 28 28 31.5817 28 36C28 40.4183 31.5817 44 36 44Z" stroke="white" stroke-width="3" stroke-linecap="round" stroke-linejoin="round"/>
<path d="M30 6V14" stroke="white" stroke-width="3" stroke-linecap="round" stroke-linejoin="round"/>
<path d="M14 6V14" stroke="white" stroke-width="3" stroke-linecap="round" stroke-linejoin="round"/>
<path d="M6 22H38" stroke="white" stroke-width="3" stroke-linecap="round" stroke-linejoin="round"/>
<path d="M36 32.9919V35.9999L38 37.9999" stroke="white" stroke-width="3" stroke-linecap="round" stroke-linejoin="round"/>
</g>
<defs>
<clipPath id="clip0_1149_1094">
<rect width="48" height="48" fill="white"/>
</clipPath>
</defs>
</svg>
